<?xml version="1.0" encoding="UTF-8" standalone="no"?>
<svg width="220.839mm" height="171.45mm"
 viewBox="0 0 626 486"
 xmlns="http://www.w3.org/2000/svg" xmlns:xlink="http://www.w3.org/1999/xlink"  version="1.2" baseProfile="tiny">
<title>Qt SVG Document</title>
<desc>MATLAB, The MathWorks, Inc. Version 25.2.0.3150157 R2025b Update 4</desc>
<defs>
</defs>
<g fill="none" stroke="black" stroke-width="1" fill-rule="evenodd" stroke-linecap="square" stroke-linejoin="bevel" >

<g fill="#000000" fill-opacity="1" stroke="none" transform="matrix(0.719538,0,0,0.717448,-73.7118,-42.0261)"
font-family="Sans Serif" font-size="9" font-weight="400" font-style="normal" 
>
<path vector-effect="none" fill-rule="evenodd" d="M101,57 L973,57 L973,736 L101,736 L101,57"/>
</g>

<g fill="#121212" fill-opacity="1" stroke="none" transform="matrix(7.19538e-05,0,0,7.17448e-05,-73.7118,-42.0261)"
font-family="Sans Serif" font-size="9" font-weight="400" font-style="normal" 
>
<path vector-effect="none" fill-rule="evenodd" d="M1.39e+06,605843 L1.39e+06,7.16416e+06 L9.71e+06,7.16416e+06 L9.71e+06,605843 L1.39e+06,605843"/>
</g>

<g fill="#d9d9d9" fill-opacity="1" stroke="#d9d9d9" stroke-opacity="1" stroke-width="0.694444" stroke-linecap="square" stroke-linejoin="round" transform="matrix(0.719538,0,0,0.717448,-73.7118,-42.0261)"
font-family="Sans Serif" font-size="9" font-weight="400" font-style="normal" 
>
<polyline fill="none" vector-effect="none" points="139,716.416 971,716.416 " />
<polyline fill="none" vector-effect="none" points="143.649,716.416 143.649,708.096 " />
<polyline fill="none" vector-effect="none" points="250.727,716.416 250.727,708.096 " />
<polyline fill="none" vector-effect="none" points="357.805,716.416 357.805,708.096 " />
<polyline fill="none" vector-effect="none" points="464.883,716.416 464.883,708.096 " />
<polyline fill="none" vector-effect="none" points="571.961,716.416 571.961,708.096 " />
<polyline fill="none" vector-effect="none" points="679.039,716.416 679.039,708.096 " />
<polyline fill="none" vector-effect="none" points="786.117,716.416 786.117,708.096 " />
<polyline fill="none" vector-effect="none" points="893.195,716.416 893.195,708.096 " />
</g>

<g fill="#d9d9d9" fill-opacity="1" stroke="#d9d9d9" stroke-opacity="1" stroke-width="1" stroke-linecap="square" stroke-linejoin="bevel" transform="matrix(0.719538,0,0,0.717448,18.8561,484.56)"
font-family="Helvetica" font-size="13" font-weight="400" font-style="normal" 
>
<text fill="#d9d9d9" fill-opacity="1" stroke="none" xml:space="preserve" x="0" y="0" font-family="Helvetica" font-size="13" font-weight="400" font-style="normal" 
 >-0.25</text>
</g>

<g fill="#d9d9d9" fill-opacity="1" stroke="#d9d9d9" stroke-opacity="1" stroke-width="1" stroke-linecap="square" stroke-linejoin="bevel" transform="matrix(0.719538,0,0,0.717448,98.781,484.56)"
font-family="Helvetica" font-size="13" font-weight="400" font-style="normal" 
>
<text fill="#d9d9d9" fill-opacity="1" stroke="none" xml:space="preserve" x="0" y="0" font-family="Helvetica" font-size="13" font-weight="400" font-style="normal" 
 >-0.2</text>
</g>

<g fill="#d9d9d9" fill-opacity="1" stroke="#d9d9d9" stroke-opacity="1" stroke-width="1" stroke-linecap="square" stroke-linejoin="bevel" transform="matrix(0.719538,0,0,0.717448,172.95,484.56)"
font-family="Helvetica" font-size="13" font-weight="400" font-style="normal" 
>
<text fill="#d9d9d9" fill-opacity="1" stroke="none" xml:space="preserve" x="0" y="0" font-family="Helvetica" font-size="13" font-weight="400" font-style="normal" 
 >-0.15</text>
</g>

<g fill="#d9d9d9" fill-opacity="1" stroke="#d9d9d9" stroke-opacity="1" stroke-width="1" stroke-linecap="square" stroke-linejoin="bevel" transform="matrix(0.719538,0,0,0.717448,252.874,484.56)"
font-family="Helvetica" font-size="13" font-weight="400" font-style="normal" 
>
<text fill="#d9d9d9" fill-opacity="1" stroke="none" xml:space="preserve" x="0" y="0" font-family="Helvetica" font-size="13" font-weight="400" font-style="normal" 
 >-0.1</text>
</g>

<g fill="#d9d9d9" fill-opacity="1" stroke="#d9d9d9" stroke-opacity="1" stroke-width="1" stroke-linecap="square" stroke-linejoin="bevel" transform="matrix(0.719538,0,0,0.717448,327.043,484.56)"
font-family="Helvetica" font-size="13" font-weight="400" font-style="normal" 
>
<text fill="#d9d9d9" fill-opacity="1" stroke="none" xml:space="preserve" x="0" y="0" font-family="Helvetica" font-size="13" font-weight="400" font-style="normal" 
 >-0.05</text>
</g>

<g fill="#d9d9d9" fill-opacity="1" stroke="#d9d9d9" stroke-opacity="1" stroke-width="1" stroke-linecap="square" stroke-linejoin="bevel" transform="matrix(0.719538,0,0,0.717448,412.364,484.56)"
font-family="Helvetica" font-size="13" font-weight="400" font-style="normal" 
>
<text fill="#d9d9d9" fill-opacity="1" stroke="none" xml:space="preserve" x="0" y="0" font-family="Helvetica" font-size="13" font-weight="400" font-style="normal" 
 >0</text>
</g>

<g fill="#d9d9d9" fill-opacity="1" stroke="#d9d9d9" stroke-opacity="1" stroke-width="1" stroke-linecap="square" stroke-linejoin="bevel" transform="matrix(0.719538,0,0,0.717448,482.935,484.56)"
font-family="Helvetica" font-size="13" font-weight="400" font-style="normal" 
>
<text fill="#d9d9d9" fill-opacity="1" stroke="none" xml:space="preserve" x="0" y="0" font-family="Helvetica" font-size="13" font-weight="400" font-style="normal" 
 >0.05</text>
</g>

<g fill="#d9d9d9" fill-opacity="1" stroke="#d9d9d9" stroke-opacity="1" stroke-width="1" stroke-linecap="square" stroke-linejoin="bevel" transform="matrix(0.719538,0,0,0.717448,562.5,484.56)"
font-family="Helvetica" font-size="13" font-weight="400" font-style="normal" 
>
<text fill="#d9d9d9" fill-opacity="1" stroke="none" xml:space="preserve" x="0" y="0" font-family="Helvetica" font-size="13" font-weight="400" font-style="normal" 
 >0.1</text>
</g>

<g fill="#d9d9d9" fill-opacity="1" stroke="#d9d9d9" stroke-opacity="1" stroke-width="0.694444" stroke-linecap="square" stroke-linejoin="round" transform="matrix(0.719538,0,0,0.717448,-73.7118,-42.0261)"
font-family="Helvetica" font-size="13" font-weight="400" font-style="normal" 
>
<polyline fill="none" vector-effect="none" points="139,716.416 139,60.5844 " />
<polyline fill="none" vector-effect="none" points="139,709.734 147.32,709.734 " />
<polyline fill="none" vector-effect="none" points="139,602.656 147.32,602.656 " />
<polyline fill="none" vector-effect="none" points="139,495.578 147.32,495.578 " />
<polyline fill="none" vector-effect="none" points="139,388.5 147.32,388.5 " />
<polyline fill="none" vector-effect="none" points="139,281.422 147.32,281.422 " />
<polyline fill="none" vector-effect="none" points="139,174.344 147.32,174.344 " />
<polyline fill="none" vector-effect="none" points="139,67.266 147.32,67.266 " />
</g>

<g fill="#d9d9d9" fill-opacity="1" stroke="#d9d9d9" stroke-opacity="1" stroke-width="1" stroke-linecap="square" stroke-linejoin="bevel" transform="matrix(0.719538,0,0,0.717448,0.720462,470.4)"
font-family="Helvetica" font-size="13" font-weight="400" font-style="normal" 
>
<text fill="#d9d9d9" fill-opacity="1" stroke="none" xml:space="preserve" x="0" y="0" font-family="Helvetica" font-size="13" font-weight="400" font-style="normal" 
 >-0.15</text>
</g>

<g fill="#d9d9d9" fill-opacity="1" stroke="#d9d9d9" stroke-opacity="1" stroke-width="1" stroke-linecap="square" stroke-linejoin="bevel" transform="matrix(0.719538,0,0,0.717448,6.47677,393.577)"
font-family="Helvetica" font-size="13" font-weight="400" font-style="normal" 
>
<text fill="#d9d9d9" fill-opacity="1" stroke="none" xml:space="preserve" x="0" y="0" font-family="Helvetica" font-size="13" font-weight="400" font-style="normal" 
 >-0.1</text>
</g>

<g fill="#d9d9d9" fill-opacity="1" stroke="#d9d9d9" stroke-opacity="1" stroke-width="1" stroke-linecap="square" stroke-linejoin="bevel" transform="matrix(0.719538,0,0,0.717448,0.720462,316.754)"
font-family="Helvetica" font-size="13" font-weight="400" font-style="normal" 
>
<text fill="#d9d9d9" fill-opacity="1" stroke="none" xml:space="preserve" x="0" y="0" font-family="Helvetica" font-size="13" font-weight="400" font-style="normal" 
 >-0.05</text>
</g>

<g fill="#d9d9d9" fill-opacity="1" stroke="#d9d9d9" stroke-opacity="1" stroke-width="1" stroke-linecap="square" stroke-linejoin="bevel" transform="matrix(0.719538,0,0,0.717448,17.2698,239.931)"
font-family="Helvetica" font-size="13" font-weight="400" font-style="normal" 
>
<text fill="#d9d9d9" fill-opacity="1" stroke="none" xml:space="preserve" x="0" y="0" font-family="Helvetica" font-size="13" font-weight="400" font-style="normal" 
 >0</text>
</g>

<g fill="#d9d9d9" fill-opacity="1" stroke="#d9d9d9" stroke-opacity="1" stroke-width="1" stroke-linecap="square" stroke-linejoin="bevel" transform="matrix(0.719538,0,0,0.717448,4.31815,163.108)"
font-family="Helvetica" font-size="13" font-weight="400" font-style="normal" 
>
<text fill="#d9d9d9" fill-opacity="1" stroke="none" xml:space="preserve" x="0" y="0" font-family="Helvetica" font-size="13" font-weight="400" font-style="normal" 
 >0.05</text>
</g>

<g fill="#d9d9d9" fill-opacity="1" stroke="#d9d9d9" stroke-opacity="1" stroke-width="1" stroke-linecap="square" stroke-linejoin="bevel" transform="matrix(0.719538,0,0,0.717448,9.35492,86.2851)"
font-family="Helvetica" font-size="13" font-weight="400" font-style="normal" 
>
<text fill="#d9d9d9" fill-opacity="1" stroke="none" xml:space="preserve" x="0" y="0" font-family="Helvetica" font-size="13" font-weight="400" font-style="normal" 
 >0.1</text>
</g>

<g fill="#d9d9d9" fill-opacity="1" stroke="#d9d9d9" stroke-opacity="1" stroke-width="1" stroke-linecap="square" stroke-linejoin="bevel" transform="matrix(0.719538,0,0,0.717448,4.31815,9.46225)"
font-family="Helvetica" font-size="13" font-weight="400" font-style="normal" 
>
<text fill="#d9d9d9" fill-opacity="1" stroke="none" xml:space="preserve" x="0" y="0" font-family="Helvetica" font-size="13" font-weight="400" font-style="normal" 
 >0.15</text>
</g>

<g fill="#2699d4" fill-opacity="0.14902" stroke="none" transform="matrix(7.19538e-05,0,0,7.17448e-05,-73.7118,-42.0261)"
font-family="Helvetica" font-size="13" font-weight="400" font-style="normal" 
>
<path vector-effect="none" fill-rule="evenodd" d="M9.71e+06,7.16416e+06 L9.71e+06,965390 L9.71e+06,605843 L1.39e+06,605843 L1.39e+06,7.16416e+06 L3.51123e+06,7.16416e+06 L9.71e+06,7.16416e+06"/>
</g>

<g fill="#75ab2e" fill-opacity="0.34902" stroke="none" transform="matrix(7.19538e-05,0,0,7.17448e-05,-73.7118,-42.0261)"
font-family="Helvetica" font-size="13" font-weight="400" font-style="normal" 
>
<path vector-effect="none" fill-rule="evenodd" d="M3.10011e+06,7.16416e+06 L3.5929e+06,7.16416e+06 L6.26258e+06,7.16416e+06 L6.26379e+06,7.16416e+06 L6.27862e+06,7.16416e+06 L6.27992e+06,7.16416e+06 L6.43984e+06,6.92044e+06 L6.39067e+06,6.8373e+06 L6.62431e+06,6.81154e+06 L6.85508e+06,6.78059e+06 L6.91083e+06,6.862e+06 L6.93151e+06,6.76926e+06 L6.90583e+06,6.56138e+06 L7.0437e+06,6.57996e+06 L7.25021e+06,6.62892e+06 L7.52912e+06,6.75809e+06 L7.61096e+06,6.69611e+06 L7.76508e+06,6.66622e+06 L8.07975e+06,6.41972e+06 L7.92913e+06,6.40744e+06 L7.70879e+06,6.41076e+06 L7.4792e+06,6.54275e+06 L7.39936e+06,6.60148e+06 L7.14765e+06,6.39957e+06 L7.16181e+06,6.31909e+06 L7.22543e+06,6.34562e+06 L7.37732e+06,6.23783e+06 L7.46066e+06,6.10696e+06 L7.55745e+06,6.14201e+06 L7.47753e+06,5.95836e+06 L7.43213e+06,5.79736e+06 L7.37216e+06,5.77858e+06 L7.19134e+06,5.75629e+06 L7.0366e+06,5.77504e+06 L7.46589e+06,6.06164e+06 L6.87501e+06,5.82413e+06 L6.83302e+06,5.74116e+06 L6.8182e+06,5.54198e+06 L6.91552e+06,5.60327e+06 L6.93862e+06,5.51529e+06 L6.88444e+06,5.49956e+06 L6.85375e+06,5.37061e+06 L6.84874e+06,5.25427e+06 L6.79107e+06,5.1305e+06 L6.75885e+06,5.01814e+06 L6.7173e+06,4.95865e+06 L6.65081e+06,4.89598e+06 L6.49009e+06,4.79022e+06 L6.3249e+06,4.83411e+06 L6.25306e+06,4.91267e+06 L6.21303e+06,4.85824e+06 L6.19237e+06,4.72056e+06 L6.11377e+06,4.82507e+06 L6.16187e+06,4.84805e+06 L6.07446e+06,4.96721e+06 L6.03499e+06,4.91232e+06 L6.00668e+06,4.81715e+06 L5.98652e+06,4.68522e+06 L6.13163e+06,4.75347e+06 L6.03852e+06,4.69414e+06 L6.06553e+06,4.57382e+06 L6.15941e+06,4.62942e+06 L6.22586e+06,4.55506e+06 L6.36834e+06,4.61782e+06 L6.32592e+06,4.56874e+06 L6.3393e+06,4.48585e+06 L6.23969e+06,4.47391e+06 L6.0773e+06,4.51452e+06 L5.99156e+06,4.40532e+06 L5.92526e+06,4.32228e+06 L5.96158e+06,4.25061e+06 L5.87117e+06,4.09868e+06 L5.71374e+06,4.02224e+06 L5.60371e+06,3.98528e+06 L5.48981e+06,3.95004e+06 L5.42958e+06,3.9812e+06 L5.36553e+06,4.04308e+06 L5.29012e+06,4.16585e+06 L5.11599e+06,4.00355e+06 L5.05362e+06,3.91411e+06 L5.04974e+06,3.76852e+06 L5.0373e+06,3.65168e+06 L4.96014e+06,3.59836e+06 L4.81426e+06,3.58169e+06 L4.77846e+06,3.44216e+06 L4.84952e+06,3.43305e+06 L4.66693e+06,3.34105e+06 L5.20499e+06,3.48442e+06 L5.27396e+06,3.50963e+06 L5.50682e+06,3.45325e+06 L5.30641e+06,3.37446e+06 L5.01484e+06,3.28442e+06 L4.89081e+06,3.33593e+06 L4.85742e+06,3.24677e+06 L4.80434e+06,3.12611e+06 L4.58283e+06,3.00962e+06 L4.43329e+06,2.91171e+06 L4.37547e+06,3.06533e+06 L4.18578e+06,2.95552e+06 L3.98214e+06,3.08352e+06 L3.96749e+06,3.17496e+06 L4.02704e+06,3.29566e+06 L4.1993e+06,3.25809e+06 L4.14853e+06,3.37485e+06 L4.22597e+06,3.51301e+06 L4.0462e+06,3.53606e+06 L4.09072e+06,3.68911e+06 L3.93843e+06,3.76216e+06 L3.93711e+06,3.86461e+06 L3.91342e+06,3.96594e+06 L4.01198e+06,3.96902e+06 L3.98577e+06,4.11629e+06 L4.06153e+06,4.19012e+06 L3.82171e+06,4.18417e+06 L3.71681e+06,4.25329e+06 L3.64876e+06,4.39183e+06 L3.66626e+06,4.52659e+06 L3.57311e+06,4.75892e+06 L3.59216e+06,4.47034e+06 L3.35549e+06,4.45238e+06 L3.2523e+06,4.55836e+06 L3.02164e+06,4.49938e+06 L3.02846e+06,4.62061e+06 L2.93281e+06,4.71209e+06 L2.85667e+06,4.79392e+06 L2.81472e+06,4.87263e+06 L2.80285e+06,4.98484e+06 L2.69757e+06,5.14342e+06 L3.03508e+06,5.26457e+06 L2.76923e+06,5.20913e+06 L2.53003e+06,5.3262e+06 L2.80437e+06,5.70254e+06 L2.72216e+06,6.06382e+06 L2.67787e+06,6.14274e+06 L2.6535e+06,6.10206e+06 L2.67146e+06,5.98474e+06 L2.74803e+06,5.73306e+06 L2.51809e+06,5.4344e+06 L2.31047e+06,5.42175e+06 L2.22317e+06,5.77442e+06 L2.5558e+06,5.939e+06 L2.26549e+06,5.86348e+06 L1.8082e+06,5.9404e+06 L1.42014e+06,6.31903e+06 L1.39e+06,6.33724e+06 L1.39e+06,7.16416e+06 L2.02853e+06,7.16416e+06 L3.10011e+06,7.16416e+06"/>
</g>

<g fill="none" stroke="#1a330d" stroke-opacity="1" stroke-width="0.486111" stroke-linecap="square" stroke-linejoin="miter" stroke-miterlimit="5" transform="matrix(0.719538,0,0,0.717448,-73.7118,-42.0261)"
font-family="Helvetica" font-size="13" font-weight="400" font-style="normal" 
>
<polyline fill="none" vector-effect="none" points="139,633.724 142.014,631.903 180.82,594.04 226.549,586.348 255.58,593.899 222.316,577.442 231.047,542.174 251.809,543.44 274.803,573.306 267.146,598.474 265.35,610.206 267.787,614.274 272.216,606.382 280.437,570.254 253.003,532.62 276.923,520.913 303.508,526.457 269.757,514.342 280.285,498.484 281.472,487.263 285.667,479.392 293.281,471.209 302.846,462.061 302.164,449.938 325.23,455.835 335.549,445.238 359.216,447.034 357.311,475.892 366.626,452.659 364.876,439.183 371.681,425.329 382.171,418.417 406.153,419.012 398.577,411.629 401.198,396.902 391.342,396.594 393.711,386.461 393.843,376.216 409.072,368.911 404.62,353.606 422.597,351.301 414.853,337.485 419.93,325.809 402.704,329.566 396.749,317.496 398.214,308.352 418.578,295.552 437.547,306.533 443.329,291.171 458.283,300.962 480.434,312.611 485.742,324.677 489.081,333.593 501.484,328.442 530.641,337.446 550.682,345.325 527.396,350.963 520.499,348.441 466.693,334.105 484.952,343.305 477.846,344.216 481.426,358.169 496.014,359.836 503.73,365.168 504.974,376.852 505.362,391.41 511.599,400.355 529.012,416.585 536.552,404.308 542.958,398.12 548.981,395.004 560.371,398.528 571.374,402.224 587.117,409.868 596.158,425.061 592.526,432.228 599.156,440.532 607.73,451.452 623.969,447.391 633.93,448.585 632.592,456.874 636.834,461.782 622.586,455.506 615.941,462.942 606.553,457.382 603.852,469.414 613.163,475.347 598.652,468.522 600.668,481.715 603.499,491.232 607.446,496.721 616.187,484.805 611.377,482.507 619.237,472.056 621.303,485.824 625.306,491.267 632.49,483.411 649.009,479.022 665.081,489.598 671.73,495.865 675.885,501.814 679.107,513.05 684.874,525.427 685.375,537.061 688.444,549.956 693.862,551.529 691.552,560.327 681.82,554.198 683.302,574.116 687.501,582.413 746.589,606.164 703.66,577.504 719.134,575.629 737.216,577.858 743.213,579.736 747.753,595.836 755.745,614.201 746.066,610.696 737.732,623.783 722.543,634.562 716.181,631.909 714.765,639.956 739.936,660.148 747.92,654.275 770.878,641.076 792.913,640.744 807.975,641.972 776.508,666.622 761.096,669.611 752.912,675.809 725.021,662.892 704.37,657.996 690.583,656.138 693.151,676.926 691.083,686.2 685.508,678.059 662.431,681.154 639.067,683.73 643.984,692.044 627.992,716.416 " />
</g>

<g fill="#75ab2e" fill-opacity="0.34902" stroke="none" transform="matrix(7.19538e-05,0,0,7.17448e-05,-73.7118,-42.0261)"
font-family="Helvetica" font-size="13" font-weight="400" font-style="normal" 
>
<path vector-effect="none" fill-rule="evenodd" d="M9.25684e+06,4.83546e+06 L9.18077e+06,4.95908e+06 L9.49434e+06,5.2874e+06 L9.71e+06,5.46397e+06 L9.71e+06,5.01414e+06 L9.71e+06,4.24985e+06 L9.71e+06,3.85647e+06 L9.71e+06,3.61078e+06 L9.68108e+06,3.62369e+06 L9.48348e+06,3.71932e+06 L9.25727e+06,3.76112e+06 L9.21374e+06,3.82342e+06 L9.19657e+06,3.885e+06 L9.2143e+06,4.00821e+06 L9.47343e+06,4.01225e+06 L9.48571e+06,4.1402e+06 L9.39503e+06,4.20074e+06 L9.2241e+06,4.35007e+06 L9.05579e+06,4.3095e+06 L8.98615e+06,4.55097e+06 L9.07919e+06,4.7496e+06 L9.25684e+06,4.83546e+06"/>
</g>

<g fill="none" stroke="#1a330d" stroke-opacity="1" stroke-width="0.486111" stroke-linecap="square" stroke-linejoin="miter" stroke-miterlimit="5" transform="matrix(0.719538,0,0,0.717448,-73.7118,-42.0261)"
font-family="Helvetica" font-size="13" font-weight="400" font-style="normal" 
>
<polyline fill="none" vector-effect="none" points="919.657,388.5 921.374,382.342 925.727,376.112 948.348,371.932 968.108,362.369 971,361.078 " />
<polyline fill="none" vector-effect="none" points="971,546.397 949.434,528.74 918.077,495.908 925.684,483.546 907.919,474.96 898.615,455.097 905.579,430.95 922.41,435.007 939.503,420.074 948.571,414.02 947.342,401.225 921.43,400.821 919.657,388.5 919.657,388.5 " />
</g>

<g fill="#75ab2e" fill-opacity="0.34902" stroke="none" transform="matrix(7.19538e-05,0,0,7.17448e-05,-73.7118,-42.0261)"
font-family="Helvetica" font-size="13" font-weight="400" font-style="normal" 
>
<path vector-effect="none" fill-rule="evenodd" d="M2.37203e+06,605843 L1.59869e+06,605843 L1.39e+06,605843 L1.39e+06,1.04175e+06 L1.39e+06,1.29424e+06 L1.39e+06,1.41076e+06 L1.39e+06,1.53041e+06 L1.65527e+06,1.77365e+06 L2.23775e+06,1.78535e+06 L2.24002e+06,1.56462e+06 L2.44224e+06,1.88129e+06 L2.81997e+06,2.38351e+06 L3.03623e+06,2.66039e+06 L3.40625e+06,2.64992e+06 L3.72262e+06,2.69422e+06 L3.63472e+06,2.4099e+06 L3.87582e+06,2.61812e+06 L3.88557e+06,2.52037e+06 L3.69506e+06,2.32606e+06 L3.88726e+06,2.36445e+06 L4.02895e+06,2.44395e+06 L4.14507e+06,2.24149e+06 L4.08719e+06,2.18486e+06 L4.28267e+06,2.06453e+06 L4.0004e+06,1.89383e+06 L4.26266e+06,1.93736e+06 L4.48094e+06,2.01212e+06 L4.32542e+06,1.89575e+06 L4.17298e+06,1.84682e+06 L3.62104e+06,1.77984e+06 L3.32699e+06,1.87423e+06 L3.01483e+06,1.55934e+06 L2.81682e+06,1.20941e+06 L2.73412e+06,920542 L2.44232e+06,730547 L2.37203e+06,605843 M3.68072e+06,2.3232e+06 L3.68771e+06,2.31856e+06 L3.69506e+06,2.32606e+06 L3.68072e+06,2.3232e+06"/>
</g>

<g fill="none" stroke="#1a330d" stroke-opacity="1" stroke-width="0.486111" stroke-linecap="square" stroke-linejoin="miter" stroke-miterlimit="5" transform="matrix(0.719538,0,0,0.717448,-73.7118,-42.0261)"
font-family="Helvetica" font-size="13" font-weight="400" font-style="normal" 
>
<polyline fill="none" vector-effect="none" points="237.203,60.5844 244.231,73.0547 273.412,92.0543 281.682,120.941 301.483,155.934 332.699,187.423 362.104,177.984 417.298,184.682 432.542,189.575 448.094,201.212 426.266,193.736 400.04,189.383 428.267,206.453 408.719,218.486 414.507,224.149 402.895,244.395 388.726,236.445 368.072,232.32 368.771,231.856 388.557,252.037 387.582,261.812 363.472,240.99 372.262,269.422 340.625,264.992 303.623,266.039 281.997,238.351 244.224,188.129 224.002,156.462 223.775,178.535 165.527,177.365 139,153.041 " />
</g>

<g fill="none" stroke="#000000" stroke-opacity="1" stroke-width="0.694444" stroke-linecap="butt" stroke-linejoin="round" transform="matrix(0.719538,0,0,0.717448,-73.7118,-42.0261)"
font-family="Helvetica" font-size="13" font-weight="400" font-style="normal" 
>
<polyline fill="none" vector-effect="none" points="891.807,716.416 889.632,715.476 879.415,711.064 869.513,706.788 859.905,702.638 850.572,698.608 841.497,694.689 832.665,690.874 824.061,687.158 815.671,683.535 807.482,679.998 799.482,676.543 791.66,673.165 784.005,669.859 776.508,666.622 769.16,663.448 761.951,660.335 754.874,657.278 747.92,654.275 741.083,651.323 734.356,648.417 727.731,645.556 721.202,642.737 714.765,639.956 708.412,637.213 702.138,634.503 695.938,631.826 689.808,629.178 683.742,626.559 677.735,623.965 671.784,621.394 665.884,618.846 660.03,616.318 654.218,613.808 648.446,611.315 642.708,608.837 637.001,606.372 631.321,603.92 625.664,601.477 620.028,599.043 614.409,596.616 608.802,594.194 603.205,591.777 597.614,589.362 592.025,586.949 586.437,584.535 580.844,582.12 575.243,579.701 569.632,577.278 564.006,574.848 558.362,572.411 552.697,569.964 547.007,567.507 541.288,565.037 535.537,562.553 529.749,560.054 523.921,557.537 518.05,555.001 512.13,552.444 506.157,549.865 500.128,547.261 494.037,544.631 487.879,541.972 481.651,539.282 475.347,536.559 468.961,533.801 462.488,531.006 455.922,528.17 449.258,525.292 442.488,522.368 435.605,519.396 428.604,516.372 421.476,513.294 414.213,510.157 406.807,506.959 399.249,503.695 391.53,500.361 383.639,496.953 375.565,493.466 367.298,489.896 " />
<polyline fill="none" vector-effect="none" points="971,641.429 970.116,641.162 958.519,637.664 947.351,634.295 936.58,631.046 926.18,627.909 916.126,624.876 906.395,621.941 896.966,619.097 887.82,616.338 878.939,613.659 870.306,611.055 861.907,608.521 853.726,606.053 845.751,603.648 837.969,601.3 830.368,599.008 822.939,596.767 815.671,594.574 808.554,592.427 801.58,590.324 794.739,588.26 788.026,586.235 781.431,584.246 774.947,582.29 768.569,580.366 762.29,578.472 756.104,576.606 750.004,574.766 743.986,572.951 738.045,571.158 732.175,569.388 726.371,567.637 720.63,565.905 714.946,564.19 709.315,562.492 703.733,560.808 698.197,559.138 692.702,557.481 687.244,555.834 681.82,554.198 676.426,552.571 671.06,550.952 665.716,549.34 660.392,547.734 655.085,546.133 649.791,544.536 644.507,542.943 639.229,541.351 633.956,539.76 628.682,538.169 623.406,536.577 618.123,534.984 612.832,533.388 607.527,531.788 602.207,530.183 596.867,528.572 591.505,526.954 586.116,525.329 580.699,523.695 575.248,522.05 569.76,520.395 564.231,518.727 558.659,517.046 553.038,515.351 547.364,513.639 541.634,511.911 535.842,510.164 529.985,508.397 524.057,506.609 518.054,504.798 511.971,502.963 505.801,501.102 499.54,499.213 493.181,497.295 486.718,495.346 480.145,493.363 473.454,491.345 466.639,489.289 459.69,487.193 452.601,485.054 445.362,482.871 437.964,480.639 430.397,478.356 422.65,476.02 414.712,473.625 406.572,471.169 398.214,468.648 389.627,466.058 " />
<polyline fill="none" vector-effect="none" points="971,555.453 963.438,553.947 952.957,551.861 942.845,549.847 933.076,547.902 923.628,546.021 914.479,544.199 905.61,542.433 897.003,540.719 888.643,539.055 880.512,537.436 872.599,535.86 864.888,534.325 857.368,532.828 850.028,531.366 842.857,529.938 835.845,528.542 828.982,527.176 822.26,525.837 815.671,524.525 809.206,523.238 802.859,521.974 796.622,520.732 790.489,519.511 784.453,518.309 778.51,517.126 772.652,515.96 766.875,514.809 761.174,513.674 755.544,512.553 749.98,511.445 744.477,510.35 739.032,509.265 733.64,508.192 728.297,507.128 722.999,506.073 717.743,505.026 712.525,503.987 707.341,502.955 702.187,501.929 697.062,500.909 691.96,499.893 686.879,498.881 681.816,497.873 676.767,496.868 671.73,495.865 666.701,494.863 661.677,493.863 656.655,492.863 651.632,491.863 646.605,490.862 641.572,489.86 636.528,488.855 631.47,487.849 626.397,486.838 621.303,485.824 616.187,484.805 611.045,483.782 605.873,482.752 600.668,481.715 595.427,480.672 590.146,479.62 584.821,478.56 579.448,477.49 574.024,476.41 568.544,475.319 563.004,474.216 557.4,473.1 551.727,471.971 545.98,470.826 540.154,469.666 534.244,468.49 528.245,467.295 522.15,466.081 515.954,464.848 509.65,463.593 503.231,462.314 496.691,461.012 490.021,459.684 483.213,458.329 476.26,456.944 469.151,455.529 461.877,454.08 454.428,452.597 446.793,451.077 438.959,449.517 430.914,447.915 422.643,446.268 414.133,444.574 405.368,442.829 " />
<polyline fill="none" vector-effect="none" points="971,481.994 963.034,481.105 953.057,479.993 943.426,478.919 934.117,477.881 925.109,476.877 916.383,475.904 907.919,474.96 899.703,474.044 891.717,473.153 883.948,472.287 876.383,471.444 869.009,470.621 861.815,469.819 854.79,469.036 847.924,468.27 841.208,467.522 834.632,466.788 828.189,466.07 821.871,465.365 815.671,464.674 809.581,463.995 803.595,463.328 797.706,462.671 791.91,462.025 786.2,461.388 780.571,460.76 775.018,460.141 769.536,459.53 764.121,458.926 758.768,458.329 753.472,457.739 748.23,457.154 743.038,456.575 737.891,456.001 732.787,455.432 727.722,454.867 722.691,454.307 717.692,453.749 712.722,453.195 707.776,452.644 702.853,452.095 697.949,451.548 693.06,451.003 688.184,450.459 683.317,449.916 678.458,449.374 673.602,448.833 668.746,448.292 663.889,447.75 659.026,447.208 654.156,446.665 649.274,446.12 644.378,445.574 639.465,445.027 634.532,444.477 629.575,443.924 624.591,443.368 619.578,442.809 614.531,442.246 609.447,441.68 604.324,441.108 599.156,440.532 593.94,439.95 588.674,439.363 583.351,438.77 577.969,438.17 572.522,437.562 567.007,436.947 561.419,436.324 555.752,435.692 550.002,435.051 544.162,434.4 538.228,433.738 532.194,433.066 526.052,432.381 519.797,431.683 513.42,430.972 506.915,430.247 500.274,429.506 493.488,428.75 486.547,427.976 479.443,427.184 472.165,426.372 464.702,425.54 457.042,424.686 449.171,423.808 441.078,422.906 432.746,421.977 424.159,421.019 415.301,420.032 " />
<polyline fill="none" vector-effect="none" points="968.108,414.631 958.166,414.32 948.571,414.02 939.302,413.73 930.336,413.45 921.654,413.178 913.237,412.915 905.068,412.66 897.132,412.411 889.414,412.17 881.901,411.935 874.58,411.706 867.441,411.483 860.471,411.265 853.661,411.052 847.002,410.844 840.484,410.64 834.1,410.44 827.841,410.244 821.7,410.052 815.671,409.864 809.746,409.679 803.919,409.496 798.185,409.317 792.538,409.14 786.972,408.966 781.483,408.795 776.065,408.625 770.715,408.458 765.427,408.293 760.197,408.129 755.021,407.967 749.896,407.807 744.817,407.648 739.781,407.491 734.785,407.334 729.824,407.179 724.895,407.025 719.995,406.872 715.122,406.719 710.271,406.568 705.439,406.417 700.625,406.266 695.823,406.116 691.033,405.966 686.25,405.817 681.471,405.667 676.695,405.518 671.917,405.368 667.136,405.219 662.347,405.069 657.549,404.919 652.738,404.769 647.911,404.618 643.065,404.466 638.197,404.314 633.304,404.161 628.382,404.007 623.43,403.852 618.442,403.696 613.416,403.539 608.347,403.38 603.234,403.22 598.071,403.059 592.855,402.896 587.581,402.731 582.246,402.564 576.845,402.395 571.374,402.224 565.827,402.051 560.2,401.875 554.487,401.696 548.684,401.515 542.783,401.33 536.779,401.142 530.666,400.951 524.436,400.756 518.083,400.558 511.599,400.355 504.974,400.148 498.202,399.936 491.272,399.719 484.174,399.497 476.899,399.27 469.433,399.036 461.766,398.796 453.884,398.55 445.773,398.296 437.417,398.035 428.801,397.766 419.905,397.487 " />
<polyline fill="none" vector-effect="none" points="968.679,349.197 958.693,349.666 949.057,350.119 939.749,350.557 930.746,350.98 922.029,351.39 913.578,351.787 905.377,352.172 897.411,352.547 889.664,352.911 882.123,353.265 874.776,353.611 867.611,353.947 860.617,354.276 853.784,354.597 847.102,354.911 840.563,355.219 834.158,355.52 827.879,355.815 821.719,356.105 815.671,356.389 809.728,356.668 803.884,356.943 798.133,357.213 792.469,357.479 786.888,357.742 781.383,358 775.951,358.256 770.586,358.508 765.284,358.757 760.041,359.004 754.852,359.248 749.714,359.489 744.623,359.728 739.575,359.966 734.567,360.201 729.594,360.435 724.654,360.667 719.744,360.898 714.859,361.127 709.998,361.356 705.157,361.583 700.332,361.81 695.521,362.036 690.721,362.262 685.929,362.487 681.142,362.712 676.357,362.937 671.57,363.162 666.781,363.387 661.984,363.613 657.177,363.839 652.358,364.065 647.524,364.292 642.67,364.521 637.795,364.75 632.895,364.98 627.967,365.212 623.007,365.445 618.013,365.68 612.98,365.916 607.906,366.155 602.787,366.395 597.618,366.638 592.396,366.884 587.117,367.132 581.777,367.383 576.37,367.637 570.894,367.894 565.343,368.155 559.711,368.42 553.994,368.689 548.187,368.962 542.282,369.239 536.275,369.522 530.159,369.809 523.926,370.102 517.57,370.401 511.083,370.706 504.457,371.017 497.683,371.336 490.751,371.661 483.653,371.995 476.377,372.337 468.912,372.688 461.245,373.048 453.364,373.419 445.255,373.8 436.902,374.193 428.289,374.597 419.397,375.015 " />
<polyline fill="none" vector-effect="none" points="971,280.975 964.721,281.781 954.611,283.077 944.854,284.328 935.426,285.537 926.305,286.707 917.47,287.84 908.905,288.938 900.59,290.004 892.512,291.04 884.655,292.048 877.005,293.029 869.55,293.985 862.278,294.917 855.179,295.828 848.242,296.717 841.457,297.588 834.815,298.439 828.309,299.274 821.93,300.092 815.671,300.894 809.524,301.683 803.483,302.457 797.542,303.219 791.695,303.969 785.935,304.707 780.259,305.435 774.659,306.153 769.132,306.862 763.673,307.562 758.278,308.254 752.941,308.939 747.659,309.616 742.428,310.287 737.244,310.951 732.104,311.611 727.002,312.265 721.937,312.914 716.905,313.56 711.901,314.201 706.924,314.84 701.969,315.475 697.034,316.108 692.116,316.739 687.211,317.368 682.316,317.995 677.429,318.622 672.546,319.248 667.665,319.874 662.782,320.5 657.894,321.127 652.999,321.755 648.094,322.384 643.175,323.015 638.239,323.648 633.284,324.283 628.305,324.921 623.301,325.563 618.267,326.209 613.201,326.858 608.098,327.513 602.956,328.172 597.77,328.837 592.537,329.508 587.253,330.186 581.915,330.87 576.517,331.563 571.055,332.263 565.526,332.972 559.924,333.69 554.244,334.419 548.481,335.158 542.631,335.908 536.686,336.67 530.641,337.446 524.49,338.234 518.227,339.038 511.843,339.856 505.332,340.691 498.685,341.543 491.895,342.414 484.952,343.305 477.846,344.216 470.568,345.149 463.106,346.106 455.448,347.088 447.583,348.097 439.496,349.134 431.172,350.201 422.597,351.301 413.752,352.435 " />
<polyline fill="none" vector-effect="none" points="971,205.609 966.398,206.612 955.672,208.952 945.329,211.208 935.341,213.387 925.685,215.493 916.339,217.531 907.284,219.506 898.5,221.422 889.971,223.283 881.679,225.091 873.612,226.851 865.755,228.565 858.095,230.235 850.621,231.866 843.322,233.458 836.186,235.014 829.205,236.537 822.37,238.028 815.671,239.489 809.101,240.922 802.652,242.329 796.318,243.71 790.091,245.069 783.965,246.405 777.933,247.721 771.991,249.017 766.133,250.295 760.352,251.555 754.645,252.8 749.007,254.03 743.432,255.246 737.917,256.449 732.458,257.64 727.049,258.819 721.688,259.989 716.369,261.149 711.091,262.3 705.849,263.444 700.638,264.58 695.457,265.71 690.302,266.835 685.169,267.954 680.055,269.07 674.957,270.182 669.871,271.291 664.796,272.398 659.726,273.504 654.66,274.609 649.594,275.714 644.526,276.819 639.451,277.926 634.368,279.035 629.272,280.147 624.161,281.261 619.032,282.38 613.88,283.504 608.704,284.633 603.499,285.768 598.263,286.91 592.991,288.06 587.68,289.219 582.326,290.387 576.926,291.564 571.476,292.753 565.971,293.954 560.407,295.168 554.78,296.395 549.085,297.637 543.318,298.895 537.473,300.17 531.546,301.463 525.531,302.775 519.422,304.107 513.213,305.462 506.897,306.839 500.469,308.241 493.921,309.67 487.245,311.126 480.434,312.611 473.479,314.128 466.372,315.679 459.101,317.264 451.658,318.888 444.032,320.551 436.21,322.258 428.181,324.009 419.93,325.809 411.443,327.66 402.704,329.566 " />
<polyline fill="none" vector-effect="none" points="971,116.059 962.816,118.718 951.256,122.474 940.117,126.093 929.37,129.585 918.988,132.959 908.947,136.221 899.224,139.38 889.799,142.443 880.654,145.414 871.769,148.301 863.13,151.108 854.721,153.84 846.529,156.502 838.539,159.098 830.74,161.632 823.121,164.108 815.671,166.529 808.38,168.898 801.238,171.218 794.238,173.493 787.37,175.724 780.627,177.915 774.001,180.068 767.486,182.185 761.075,184.268 754.761,186.319 748.539,188.341 742.403,190.335 736.347,192.303 730.366,194.246 724.456,196.166 718.612,198.065 712.828,199.944 707.101,201.805 701.426,203.649 695.8,205.477 690.217,207.291 684.675,209.092 679.17,210.881 673.697,212.659 668.253,214.428 662.835,216.188 657.439,217.941 652.063,219.688 646.701,221.43 641.352,223.168 636.011,224.904 630.677,226.637 625.344,228.37 620.011,230.102 614.673,231.837 609.328,233.573 603.972,235.314 598.603,237.058 593.216,238.809 587.808,240.566 582.376,242.331 576.916,244.105 571.425,245.889 565.899,247.684 560.335,249.492 554.728,251.314 549.075,253.151 543.371,255.004 537.612,256.875 531.795,258.766 525.914,260.676 519.965,262.609 513.942,264.566 507.842,266.548 501.658,268.558 495.385,270.596 489.017,272.665 482.547,274.767 475.971,276.904 469.279,279.078 462.467,281.292 455.525,283.547 448.446,285.847 441.221,288.195 433.841,290.593 426.297,293.044 418.578,295.552 410.672,298.121 402.569,300.754 394.256,303.455 385.719,306.229 " />
<polyline fill="none" vector-effect="none" points="840.596,60.5844 833.285,63.9702 824.363,68.102 815.671,72.1274 807.194,76.0529 798.92,79.8845 790.837,83.6278 782.934,87.2879 775.199,90.8699 767.624,94.3783 760.198,97.8173 752.912,101.191 745.76,104.504 738.732,107.758 731.821,110.959 725.021,114.108 718.324,117.209 711.725,120.265 705.217,123.279 698.794,126.253 692.452,129.191 686.184,132.093 679.985,134.964 673.852,137.804 667.779,140.617 661.761,143.404 655.794,146.167 649.874,148.908 643.997,151.63 638.159,154.334 632.356,157.021 626.584,159.694 620.839,162.355 615.118,165.004 609.417,167.645 603.732,170.277 598.06,172.904 592.398,175.526 586.742,178.145 581.089,180.763 575.434,183.382 569.775,186.003 564.109,188.627 558.431,191.256 552.738,193.892 547.028,196.537 541.295,199.192 535.537,201.859 529.749,204.539 523.929,207.234 518.071,209.947 512.173,212.678 506.23,215.431 500.238,218.206 494.192,221.006 488.089,223.832 481.923,226.687 475.69,229.574 469.384,232.494 463.002,235.45 456.536,238.444 449.983,241.479 443.334,244.558 436.586,247.683 429.73,250.858 422.761,254.085 415.671,257.369 408.451,260.712 401.096,264.119 393.595,267.593 385.939,271.138 378.12,274.759 370.126,278.461 361.948,282.248 " />
<polyline fill="none" vector-effect="none" points="971,459.783 970.53,454.583 969.977,447.819 969.484,441.105 969.052,434.435 968.679,427.803 968.365,421.204 968.108,414.631 967.909,408.08 967.767,401.544 967.682,395.019 967.654,388.5 967.682,381.981 967.767,375.456 967.909,368.92 968.108,362.369 968.365,355.796 968.679,349.197 969.052,342.565 969.484,335.895 969.977,329.181 970.53,322.417 971,317.217 " />
<polyline fill="none" vector-effect="none" points="909.888,716.416 909.313,712.452 907.627,700.618 906.032,689.211 904.521,678.201 903.089,667.561 901.732,657.266 900.445,647.293 899.224,637.62 898.066,628.227 896.966,619.097 895.923,610.212 894.932,601.558 893.992,593.12 893.1,584.883 892.254,576.836 891.452,568.966 890.691,561.264 889.971,553.717 889.288,546.317 888.643,539.055 888.032,531.921 887.456,524.908 886.913,518.007 886.402,511.212 885.921,504.516 885.47,497.911 885.048,491.392 884.655,484.952 884.288,478.586 883.948,472.287 883.634,466.051 883.346,459.873 883.082,453.747 882.843,447.668 882.628,441.632 882.436,435.634 882.268,429.67 882.123,423.735 882.001,417.825 881.901,411.935 881.823,406.062 881.768,400.201 881.735,394.349 881.724,388.5 881.735,382.651 881.768,376.799 881.823,370.938 881.901,365.065 882.001,359.175 882.123,353.265 882.268,347.33 882.436,341.366 882.628,335.368 882.843,329.332 883.082,323.253 883.346,317.127 883.634,310.949 883.948,304.713 884.288,298.414 884.655,292.048 885.048,285.608 885.47,279.089 885.921,272.484 886.402,265.788 886.913,258.993 887.456,252.092 888.032,245.079 888.643,237.945 889.288,230.683 889.971,223.283 890.691,215.736 891.452,208.034 892.254,200.164 893.1,192.117 893.992,183.881 894.932,175.442 895.923,166.788 896.966,157.903 898.066,148.773 899.224,139.38 900.445,129.707 901.732,119.734 903.089,109.439 904.521,98.7988 906.032,87.7893 907.627,76.3825 909.313,64.5484 909.888,60.5844 " />
<polyline fill="none" vector-effect="none" points="815.671,683.535 815.671,673.4 815.671,663.589 815.671,654.082 815.671,644.86 815.671,635.903 815.671,627.196 815.671,618.724 815.671,610.471 815.671,602.426 815.671,594.574 815.671,586.905 815.671,579.409 815.671,572.073 815.671,564.891 815.671,557.851 815.671,550.947 815.671,544.169 815.671,537.511 815.671,530.965 815.671,524.525 815.671,518.184 815.671,511.937 815.671,505.777 815.671,499.699 815.671,493.698 815.671,487.769 815.671,481.906 815.671,476.106 815.671,470.363 815.671,464.674 815.671,459.034 815.671,453.44 815.671,447.887 815.671,442.371 815.671,436.889 815.671,431.438 815.671,426.013 815.671,420.611 815.671,415.229 815.671,409.864 815.671,404.512 815.671,399.169 815.671,393.833 815.671,388.5 815.671,383.167 815.671,377.831 815.671,372.488 815.671,367.136 815.671,361.771 815.671,356.389 815.671,350.987 815.671,345.562 815.671,340.111 815.671,334.629 815.671,329.113 815.671,323.56 815.671,317.966 815.671,312.326 815.671,306.637 815.671,300.894 815.671,295.094 815.671,289.231 815.671,283.302 815.671,277.301 815.671,271.223 815.671,265.063 815.671,258.816 815.671,252.475 815.671,246.035 815.671,239.489 815.671,232.831 815.671,226.053 815.671,219.149 815.671,212.109 815.671,204.927 815.671,197.591 815.671,190.095 815.671,182.426 815.671,174.574 815.671,166.529 815.671,158.276 815.671,149.804 815.671,141.097 815.671,132.14 815.671,122.918 815.671,113.411 815.671,103.6 815.671,93.4652 815.671,82.9825 815.671,72.1274 " />
<polyline fill="none" vector-effect="none" points="741.083,651.323 742.177,642.75 743.219,634.415 744.213,626.303 745.161,618.4 746.066,610.696 746.929,603.178 747.753,595.836 748.539,588.659 749.289,581.639 750.004,574.766 750.687,568.032 751.337,561.431 751.958,554.953 752.55,548.593 753.113,542.343 753.649,536.199 754.16,530.153 754.645,524.2 755.106,518.335 755.544,512.553 755.959,506.849 756.352,501.219 756.723,495.658 757.073,490.161 757.404,484.726 757.714,479.347 758.005,474.022 758.278,468.746 758.532,463.516 758.768,458.329 758.986,453.182 759.187,448.07 759.37,442.992 759.537,437.945 759.688,432.924 759.822,427.927 759.939,422.953 760.041,417.996 760.127,413.056 760.197,408.129 760.251,403.213 760.29,398.304 760.313,393.401 760.321,388.5 760.313,383.599 760.29,378.696 760.251,373.787 760.197,368.871 760.127,363.944 760.041,359.004 759.939,354.047 759.822,349.073 759.688,344.076 759.537,339.055 759.37,334.008 759.187,328.93 758.986,323.818 758.768,318.671 758.532,313.484 758.278,308.254 758.005,302.978 757.714,297.653 757.404,292.274 757.073,286.839 756.723,281.342 756.352,275.781 755.959,270.151 755.544,264.447 755.106,258.665 754.645,252.8 754.16,246.847 753.649,240.801 753.113,234.657 752.55,228.407 751.958,222.047 751.337,215.569 750.687,208.968 750.004,202.234 749.289,195.361 748.539,188.341 747.753,181.164 746.929,173.822 746.066,166.304 745.161,158.6 744.213,150.697 743.219,142.585 742.177,134.25 741.083,125.677 739.936,116.852 738.732,107.758 " />
<polyline fill="none" vector-effect="none" points="677.735,623.965 679.55,616.633 681.285,609.475 682.944,602.484 684.531,595.648 686.049,588.961 687.501,582.413 688.889,575.999 690.217,569.709 691.487,563.539 692.702,557.481 693.862,551.529 694.971,545.679 696.03,539.924 697.042,534.261 698.007,528.683 698.927,523.186 699.804,517.767 700.638,512.42 701.433,507.142 702.187,501.929 702.904,496.778 703.583,491.684 704.225,486.645 704.833,481.658 705.405,476.719 705.944,471.824 706.45,466.973 706.924,462.16 707.366,457.385 707.776,452.644 708.157,447.934 708.507,443.253 708.827,438.599 709.118,433.969 709.381,429.361 709.615,424.772 709.82,420.2 709.998,415.644 710.148,411.101 710.271,406.568 710.366,402.043 710.434,397.525 710.474,393.012 710.488,388.5 710.474,383.988 710.434,379.475 710.366,374.957 710.271,370.432 710.148,365.899 709.998,361.356 709.82,356.8 709.615,352.228 709.381,347.639 709.118,343.031 708.827,338.401 708.507,333.747 708.157,329.066 707.776,324.356 707.366,319.615 706.924,314.84 706.45,310.027 705.944,305.176 705.405,300.281 704.833,295.342 704.225,290.355 703.583,285.316 702.904,280.222 702.187,275.071 701.433,269.858 700.638,264.58 699.804,259.233 698.927,253.814 698.007,248.317 697.042,242.739 696.03,237.076 694.971,231.321 693.862,225.471 692.702,219.519 691.487,213.461 690.217,207.291 688.889,201.001 687.501,194.587 686.049,188.039 684.531,181.352 682.944,174.516 681.285,167.525 679.55,160.367 677.735,153.035 675.838,145.518 673.852,137.804 " />
<polyline fill="none" vector-effect="none" points="620.028,599.043 622.332,592.771 624.542,586.627 626.66,580.603 628.692,574.694 630.639,568.895 632.506,563.198 634.296,557.601 636.011,552.096 637.655,546.681 639.229,541.351 640.737,536.1 642.18,530.927 643.561,525.825 644.881,520.793 646.143,515.826 647.348,510.921 648.498,506.076 649.594,501.286 650.639,496.549 651.632,491.863 652.576,487.224 653.472,482.63 654.321,478.078 655.124,473.567 655.882,469.092 656.596,464.654 657.266,460.248 657.894,455.873 658.481,451.527 659.026,447.208 659.532,442.913 659.997,438.642 660.424,434.391 660.811,430.159 661.161,425.945 661.473,421.746 661.747,417.561 661.984,413.387 662.184,409.224 662.347,405.069 662.474,400.921 662.565,396.778 662.619,392.638 662.637,388.5 662.619,384.362 662.565,380.222 662.474,376.079 662.347,371.931 662.184,367.776 661.984,363.613 661.747,359.439 661.473,355.254 661.161,351.055 660.811,346.841 660.424,342.609 659.997,338.358 659.532,334.087 659.026,329.792 658.481,325.473 657.894,321.127 657.266,316.752 656.596,312.346 655.882,307.908 655.124,303.433 654.321,298.922 653.472,294.37 652.576,289.776 651.632,285.137 650.639,280.451 649.594,275.714 648.498,270.924 647.348,266.079 646.143,261.174 644.881,256.207 643.561,251.175 642.18,246.073 640.737,240.9 639.229,235.649 637.655,230.319 636.011,224.904 634.296,219.399 632.506,213.802 630.639,208.105 628.692,202.306 626.66,196.397 624.542,190.373 622.332,184.229 620.028,177.957 617.625,171.552 615.118,165.004 " />
<polyline fill="none" vector-effect="none" points="564.006,574.848 566.633,569.542 569.158,564.325 571.586,559.193 573.92,554.141 576.162,549.166 578.317,544.265 580.388,539.433 582.376,534.669 584.284,529.969 586.116,525.329 587.874,520.748 589.559,516.221 591.174,511.748 592.721,507.325 594.202,502.95 595.618,498.621 596.971,494.334 598.263,490.09 599.495,485.884 600.668,481.715 601.785,477.582 602.846,473.482 603.852,469.414 604.804,465.376 605.704,461.366 606.553,457.382 607.35,453.423 608.098,449.487 608.797,445.573 609.447,441.68 610.05,437.804 610.606,433.947 611.115,430.105 611.578,426.277 611.996,422.463 612.369,418.66 612.697,414.867 612.98,411.084 613.22,407.308 613.416,403.539 613.568,399.775 613.676,396.014 613.741,392.257 613.763,388.5 613.741,384.743 613.676,380.986 613.568,377.225 613.416,373.461 613.22,369.692 612.98,365.916 612.697,362.133 612.369,358.34 611.996,354.537 611.578,350.723 611.115,346.895 610.606,343.053 610.05,339.196 609.447,335.32 608.797,331.427 608.098,327.513 607.35,323.577 606.553,319.618 605.704,315.634 604.804,311.624 603.852,307.586 602.846,303.518 601.785,299.418 600.668,295.285 599.495,291.116 598.263,286.91 596.971,282.666 595.618,278.379 594.202,274.05 592.721,269.675 591.174,265.252 589.559,260.779 587.874,256.252 586.116,251.671 584.284,247.031 582.376,242.331 580.388,237.567 578.317,232.735 576.162,227.834 573.92,222.859 571.586,217.807 569.158,212.675 566.633,207.458 564.006,202.152 561.273,196.753 558.431,191.256 " />
<polyline fill="none" vector-effect="none" points="506.157,549.865 508.959,545.49 511.659,541.172 514.263,536.908 516.771,532.695 519.188,528.533 521.516,524.418 523.757,520.349 525.914,516.324 527.989,512.34 529.985,508.397 531.903,504.492 533.746,500.625 535.516,496.792 537.213,492.993 538.841,489.226 540.4,485.49 541.892,481.784 543.318,478.105 544.68,474.453 545.98,470.826 547.217,467.224 548.395,463.644 549.512,460.086 550.572,456.548 551.574,453.03 552.519,449.53 553.409,446.048 554.244,442.581 555.025,439.13 555.752,435.692 556.426,432.268 557.049,428.856 557.619,425.454 558.138,422.063 558.607,418.681 559.025,415.307 559.393,411.94 559.711,408.58 559.98,405.225 560.2,401.875 560.371,398.528 560.492,395.184 560.565,391.841 560.59,388.5 560.565,385.159 560.492,381.816 560.371,378.472 560.2,375.125 559.98,371.775 559.711,368.42 559.393,365.06 559.025,361.693 558.607,358.319 558.138,354.937 557.619,351.546 557.049,348.144 556.426,344.732 555.752,341.308 555.025,337.87 554.244,334.419 553.409,330.952 552.519,327.47 551.574,323.97 550.572,320.452 549.512,316.914 548.395,313.356 547.217,309.776 545.98,306.174 544.68,302.547 543.318,298.895 541.892,295.216 540.4,291.51 538.841,287.774 537.213,284.007 535.516,280.208 533.746,276.375 531.903,272.508 529.985,268.603 527.989,264.66 525.914,260.676 523.757,256.651 521.516,252.582 519.188,248.467 516.771,244.305 514.263,240.092 511.659,235.828 508.959,231.51 506.157,227.135 503.251,222.701 500.238,218.206 " />
<polyline fill="none" vector-effect="none" points="442.488,522.368 445.294,518.94 448.008,515.541 450.632,512.171 453.167,508.827 455.616,505.51 457.981,502.219 460.264,498.952 462.467,495.708 464.591,492.488 466.639,489.289 468.611,486.111 470.51,482.953 472.336,479.815 474.092,476.695 475.779,473.594 477.397,470.509 478.949,467.441 480.434,464.389 481.856,461.352 483.213,458.329 484.508,455.319 485.742,452.323 486.915,449.34 488.027,446.368 489.081,443.407 490.076,440.457 491.014,437.517 491.895,434.586 492.719,431.664 493.488,428.75 494.201,425.843 494.859,422.944 495.464,420.051 496.014,417.164 496.511,414.283 496.954,411.406 497.345,408.533 497.683,405.664 497.968,402.799 498.202,399.936 498.383,397.075 498.513,394.216 498.59,391.358 498.616,388.5 498.59,385.642 498.513,382.784 498.383,379.925 498.202,377.064 497.968,374.201 497.683,371.336 497.345,368.467 496.954,365.594 496.511,362.717 496.014,359.836 495.464,356.949 494.859,354.056 494.201,351.157 493.488,348.25 492.719,345.336 491.895,342.414 491.014,339.483 490.076,336.543 489.081,333.593 488.027,330.632 486.915,327.66 485.742,324.677 484.508,321.681 483.213,318.671 481.856,315.648 480.434,312.611 478.949,309.559 477.397,306.491 475.779,303.406 474.092,300.305 472.336,297.185 470.51,294.047 468.611,290.889 466.639,287.711 464.591,284.512 462.467,281.292 460.264,278.048 457.981,274.781 455.616,271.49 453.167,268.173 450.632,264.829 448.008,261.459 445.294,258.06 442.488,254.632 439.586,251.173 436.586,247.683 " />
<polyline fill="none" vector-effect="none" points="367.298,489.896 369.857,487.48 372.34,485.072 374.749,482.671 377.085,480.277 379.348,477.89 381.541,475.511 383.664,473.138 385.719,470.771 387.706,468.412 389.627,466.058 391.482,463.711 393.272,461.369 394.999,459.033 396.663,456.703 398.264,454.378 399.805,452.059 401.284,449.744 402.704,447.434 404.065,445.129 405.368,442.829 406.612,440.532 407.8,438.24 408.931,435.952 410.005,433.668 411.024,431.387 411.988,429.11 412.897,426.836 413.752,424.565 414.554,422.297 415.301,420.032 415.996,417.769 416.638,415.508 417.228,413.25 417.765,410.994 418.25,408.739 418.684,406.486 419.066,404.235 419.397,401.985 419.677,399.736 419.905,397.487 420.083,395.24 420.21,392.993 420.286,390.746 420.312,388.5 420.286,386.254 420.21,384.007 420.083,381.76 419.905,379.513 419.677,377.264 419.397,375.015 419.066,372.765 418.684,370.514 418.25,368.261 417.765,366.006 417.228,363.75 416.638,361.492 415.996,359.231 415.301,356.968 414.554,354.703 413.752,352.435 412.897,350.164 411.988,347.89 411.024,345.613 410.005,343.332 408.931,341.048 407.8,338.76 406.612,336.468 405.368,334.171 404.065,331.871 402.704,329.566 401.284,327.256 399.805,324.941 398.264,322.622 396.663,320.297 394.999,317.967 393.272,315.631 391.482,313.289 389.627,310.942 387.706,308.588 385.719,306.229 383.664,303.862 381.541,301.489 379.348,299.11 377.085,296.723 374.749,294.329 372.34,291.928 369.857,289.52 367.298,287.104 364.662,284.68 361.948,282.248 " />
</g>

<g fill="none" stroke="#ff0000" stroke-opacity="1" stroke-width="4.16667" stroke-linecap="butt" stroke-linejoin="round" transform="matrix(0.719538,0,0,0.717448,-73.7118,-42.0261)"
font-family="Helvetica" font-size="13" font-weight="400" font-style="normal" 
>
<polyline fill="none" vector-effect="none" points="887.794,388.5 743.548,189.963 510.154,265.797 510.154,511.203 743.548,587.037 887.794,388.5 " />
</g>
</g>
</svg>
