<?xml version="1.0" encoding="UTF-8" standalone="no"?>
<svg width="220.839mm" height="171.45mm"
 viewBox="0 0 626 486"
 xmlns="http://www.w3.org/2000/svg" xmlns:xlink="http://www.w3.org/1999/xlink"  version="1.2" baseProfile="tiny">
<title>Qt SVG Document</title>
<desc>MATLAB, The MathWorks, Inc. Version 25.2.0.3150157 R2025b Update 4</desc>
<defs>
</defs>
<g fill="none" stroke="black" stroke-width="1" fill-rule="evenodd" stroke-linecap="square" stroke-linejoin="bevel" >

<g fill="#000000" fill-opacity="1" stroke="none" transform="matrix(0.719538,0,0,0.717448,-73.7118,-42.0261)"
font-family="Sans Serif" font-size="9" font-weight="400" font-style="normal" 
>
<path vector-effect="none" fill-rule="evenodd" d="M101,57 L973,57 L973,736 L101,736 L101,57"/>
</g>

<g fill="#121212" fill-opacity="1" stroke="none" transform="matrix(7.19538e-05,0,0,7.17448e-05,-73.7118,-42.0261)"
font-family="Sans Serif" font-size="9" font-weight="400" font-style="normal" 
>
<path vector-effect="none" fill-rule="evenodd" d="M1.39e+06,605843 L1.39e+06,7.16416e+06 L9.71e+06,7.16416e+06 L9.71e+06,605843 L1.39e+06,605843"/>
</g>

<g fill="#d9d9d9" fill-opacity="1" stroke="#d9d9d9" stroke-opacity="1" stroke-width="0.694444" stroke-linecap="square" stroke-linejoin="round" transform="matrix(0.719538,0,0,0.717448,-73.7118,-42.0261)"
font-family="Sans Serif" font-size="9" font-weight="400" font-style="normal" 
>
<polyline fill="none" vector-effect="none" points="139,716.416 971,716.416 " />
<polyline fill="none" vector-effect="none" points="170.931,716.416 170.931,708.096 " />
<polyline fill="none" vector-effect="none" points="278.009,716.416 278.009,708.096 " />
<polyline fill="none" vector-effect="none" points="385.087,716.416 385.087,708.096 " />
<polyline fill="none" vector-effect="none" points="492.165,716.416 492.165,708.096 " />
<polyline fill="none" vector-effect="none" points="599.243,716.416 599.243,708.096 " />
<polyline fill="none" vector-effect="none" points="706.321,716.416 706.321,708.096 " />
<polyline fill="none" vector-effect="none" points="813.399,716.416 813.399,708.096 " />
<polyline fill="none" vector-effect="none" points="920.477,716.416 920.477,708.096 " />
</g>

<g fill="#d9d9d9" fill-opacity="1" stroke="#d9d9d9" stroke-opacity="1" stroke-width="1" stroke-linecap="square" stroke-linejoin="bevel" transform="matrix(0.719538,0,0,0.717448,38.4866,484.56)"
font-family="Helvetica" font-size="13" font-weight="400" font-style="normal" 
>
<text fill="#d9d9d9" fill-opacity="1" stroke="none" xml:space="preserve" x="0" y="0" font-family="Helvetica" font-size="13" font-weight="400" font-style="normal" 
 >-0.25</text>
</g>

<g fill="#d9d9d9" fill-opacity="1" stroke="#d9d9d9" stroke-opacity="1" stroke-width="1" stroke-linecap="square" stroke-linejoin="bevel" transform="matrix(0.719538,0,0,0.717448,118.411,484.56)"
font-family="Helvetica" font-size="13" font-weight="400" font-style="normal" 
>
<text fill="#d9d9d9" fill-opacity="1" stroke="none" xml:space="preserve" x="0" y="0" font-family="Helvetica" font-size="13" font-weight="400" font-style="normal" 
 >-0.2</text>
</g>

<g fill="#d9d9d9" fill-opacity="1" stroke="#d9d9d9" stroke-opacity="1" stroke-width="1" stroke-linecap="square" stroke-linejoin="bevel" transform="matrix(0.719538,0,0,0.717448,192.58,484.56)"
font-family="Helvetica" font-size="13" font-weight="400" font-style="normal" 
>
<text fill="#d9d9d9" fill-opacity="1" stroke="none" xml:space="preserve" x="0" y="0" font-family="Helvetica" font-size="13" font-weight="400" font-style="normal" 
 >-0.15</text>
</g>

<g fill="#d9d9d9" fill-opacity="1" stroke="#d9d9d9" stroke-opacity="1" stroke-width="1" stroke-linecap="square" stroke-linejoin="bevel" transform="matrix(0.719538,0,0,0.717448,272.505,484.56)"
font-family="Helvetica" font-size="13" font-weight="400" font-style="normal" 
>
<text fill="#d9d9d9" fill-opacity="1" stroke="none" xml:space="preserve" x="0" y="0" font-family="Helvetica" font-size="13" font-weight="400" font-style="normal" 
 >-0.1</text>
</g>

<g fill="#d9d9d9" fill-opacity="1" stroke="#d9d9d9" stroke-opacity="1" stroke-width="1" stroke-linecap="square" stroke-linejoin="bevel" transform="matrix(0.719538,0,0,0.717448,346.673,484.56)"
font-family="Helvetica" font-size="13" font-weight="400" font-style="normal" 
>
<text fill="#d9d9d9" fill-opacity="1" stroke="none" xml:space="preserve" x="0" y="0" font-family="Helvetica" font-size="13" font-weight="400" font-style="normal" 
 >-0.05</text>
</g>

<g fill="#d9d9d9" fill-opacity="1" stroke="#d9d9d9" stroke-opacity="1" stroke-width="1" stroke-linecap="square" stroke-linejoin="bevel" transform="matrix(0.719538,0,0,0.717448,431.995,484.56)"
font-family="Helvetica" font-size="13" font-weight="400" font-style="normal" 
>
<text fill="#d9d9d9" fill-opacity="1" stroke="none" xml:space="preserve" x="0" y="0" font-family="Helvetica" font-size="13" font-weight="400" font-style="normal" 
 >0</text>
</g>

<g fill="#d9d9d9" fill-opacity="1" stroke="#d9d9d9" stroke-opacity="1" stroke-width="1" stroke-linecap="square" stroke-linejoin="bevel" transform="matrix(0.719538,0,0,0.717448,502.566,484.56)"
font-family="Helvetica" font-size="13" font-weight="400" font-style="normal" 
>
<text fill="#d9d9d9" fill-opacity="1" stroke="none" xml:space="preserve" x="0" y="0" font-family="Helvetica" font-size="13" font-weight="400" font-style="normal" 
 >0.05</text>
</g>

<g fill="#d9d9d9" fill-opacity="1" stroke="#d9d9d9" stroke-opacity="1" stroke-width="1" stroke-linecap="square" stroke-linejoin="bevel" transform="matrix(0.719538,0,0,0.717448,582.131,484.56)"
font-family="Helvetica" font-size="13" font-weight="400" font-style="normal" 
>
<text fill="#d9d9d9" fill-opacity="1" stroke="none" xml:space="preserve" x="0" y="0" font-family="Helvetica" font-size="13" font-weight="400" font-style="normal" 
 >0.1</text>
</g>

<g fill="#d9d9d9" fill-opacity="1" stroke="#d9d9d9" stroke-opacity="1" stroke-width="0.694444" stroke-linecap="square" stroke-linejoin="round" transform="matrix(0.719538,0,0,0.717448,-73.7118,-42.0261)"
font-family="Helvetica" font-size="13" font-weight="400" font-style="normal" 
>
<polyline fill="none" vector-effect="none" points="139,716.416 139,60.5844 " />
<polyline fill="none" vector-effect="none" points="139,709.734 147.32,709.734 " />
<polyline fill="none" vector-effect="none" points="139,602.656 147.32,602.656 " />
<polyline fill="none" vector-effect="none" points="139,495.578 147.32,495.578 " />
<polyline fill="none" vector-effect="none" points="139,388.5 147.32,388.5 " />
<polyline fill="none" vector-effect="none" points="139,281.422 147.32,281.422 " />
<polyline fill="none" vector-effect="none" points="139,174.344 147.32,174.344 " />
<polyline fill="none" vector-effect="none" points="139,67.266 147.32,67.266 " />
</g>

<g fill="#d9d9d9" fill-opacity="1" stroke="#d9d9d9" stroke-opacity="1" stroke-width="1" stroke-linecap="square" stroke-linejoin="bevel" transform="matrix(0.719538,0,0,0.717448,0.720462,470.4)"
font-family="Helvetica" font-size="13" font-weight="400" font-style="normal" 
>
<text fill="#d9d9d9" fill-opacity="1" stroke="none" xml:space="preserve" x="0" y="0" font-family="Helvetica" font-size="13" font-weight="400" font-style="normal" 
 >-0.15</text>
</g>

<g fill="#d9d9d9" fill-opacity="1" stroke="#d9d9d9" stroke-opacity="1" stroke-width="1" stroke-linecap="square" stroke-linejoin="bevel" transform="matrix(0.719538,0,0,0.717448,6.47677,393.577)"
font-family="Helvetica" font-size="13" font-weight="400" font-style="normal" 
>
<text fill="#d9d9d9" fill-opacity="1" stroke="none" xml:space="preserve" x="0" y="0" font-family="Helvetica" font-size="13" font-weight="400" font-style="normal" 
 >-0.1</text>
</g>

<g fill="#d9d9d9" fill-opacity="1" stroke="#d9d9d9" stroke-opacity="1" stroke-width="1" stroke-linecap="square" stroke-linejoin="bevel" transform="matrix(0.719538,0,0,0.717448,0.720462,316.754)"
font-family="Helvetica" font-size="13" font-weight="400" font-style="normal" 
>
<text fill="#d9d9d9" fill-opacity="1" stroke="none" xml:space="preserve" x="0" y="0" font-family="Helvetica" font-size="13" font-weight="400" font-style="normal" 
 >-0.05</text>
</g>

<g fill="#d9d9d9" fill-opacity="1" stroke="#d9d9d9" stroke-opacity="1" stroke-width="1" stroke-linecap="square" stroke-linejoin="bevel" transform="matrix(0.719538,0,0,0.717448,17.2698,239.931)"
font-family="Helvetica" font-size="13" font-weight="400" font-style="normal" 
>
<text fill="#d9d9d9" fill-opacity="1" stroke="none" xml:space="preserve" x="0" y="0" font-family="Helvetica" font-size="13" font-weight="400" font-style="normal" 
 >0</text>
</g>

<g fill="#d9d9d9" fill-opacity="1" stroke="#d9d9d9" stroke-opacity="1" stroke-width="1" stroke-linecap="square" stroke-linejoin="bevel" transform="matrix(0.719538,0,0,0.717448,4.31815,163.108)"
font-family="Helvetica" font-size="13" font-weight="400" font-style="normal" 
>
<text fill="#d9d9d9" fill-opacity="1" stroke="none" xml:space="preserve" x="0" y="0" font-family="Helvetica" font-size="13" font-weight="400" font-style="normal" 
 >0.05</text>
</g>

<g fill="#d9d9d9" fill-opacity="1" stroke="#d9d9d9" stroke-opacity="1" stroke-width="1" stroke-linecap="square" stroke-linejoin="bevel" transform="matrix(0.719538,0,0,0.717448,9.35492,86.2851)"
font-family="Helvetica" font-size="13" font-weight="400" font-style="normal" 
>
<text fill="#d9d9d9" fill-opacity="1" stroke="none" xml:space="preserve" x="0" y="0" font-family="Helvetica" font-size="13" font-weight="400" font-style="normal" 
 >0.1</text>
</g>

<g fill="#d9d9d9" fill-opacity="1" stroke="#d9d9d9" stroke-opacity="1" stroke-width="1" stroke-linecap="square" stroke-linejoin="bevel" transform="matrix(0.719538,0,0,0.717448,4.31815,9.46225)"
font-family="Helvetica" font-size="13" font-weight="400" font-style="normal" 
>
<text fill="#d9d9d9" fill-opacity="1" stroke="none" xml:space="preserve" x="0" y="0" font-family="Helvetica" font-size="13" font-weight="400" font-style="normal" 
 >0.15</text>
</g>

<g fill="#2699d4" fill-opacity="0.14902" stroke="none" transform="matrix(7.19538e-05,0,0,7.17448e-05,-73.7118,-42.0261)"
font-family="Helvetica" font-size="13" font-weight="400" font-style="normal" 
>
<path vector-effect="none" fill-rule="evenodd" d="M9.71e+06,7.16416e+06 L9.71e+06,1.23821e+06 L9.71e+06,605843 L1.59795e+06,605843 L1.59795e+06,7.16416e+06 L3.78405e+06,7.16416e+06 L9.71e+06,7.16416e+06"/>
</g>

<g fill="#75ab2e" fill-opacity="0.34902" stroke="none" transform="matrix(7.19538e-05,0,0,7.17448e-05,-73.7118,-42.0261)"
font-family="Helvetica" font-size="13" font-weight="400" font-style="normal" 
>
<path vector-effect="none" fill-rule="evenodd" d="M2.49691e+06,7.16416e+06 L2.70862e+06,7.16416e+06 L2.93354e+06,7.16416e+06 L3.18391e+06,6.72969e+06 L3.37416e+06,6.48317e+06 L3.71866e+06,6.23239e+06 L3.95509e+06,6.04631e+06 L3.99948e+06,5.90489e+06 L3.92189e+06,5.75994e+06 L4.14549e+06,5.57407e+06 L4.21233e+06,5.61839e+06 L4.23166e+06,5.39255e+06 L4.39861e+06,5.9695e+06 L4.41145e+06,6.06432e+06 L4.70485e+06,6.19743e+06 L4.6605e+06,5.91553e+06 L4.56861e+06,5.58542e+06 L4.3989e+06,5.54728e+06 L4.50836e+06,5.43615e+06 L4.63868e+06,5.29317e+06 L4.63963e+06,5.06747e+06 L4.66319e+06,4.91798e+06 L4.43511e+06,4.98796e+06 L4.4586e+06,4.81448e+06 L4.17304e+06,4.78474e+06 L4.03725e+06,4.83329e+06 L3.8923e+06,4.94752e+06 L4.05402e+06,5.02241e+06 L3.83948e+06,5.07966e+06 L3.64989e+06,5.24548e+06 L3.49731e+06,5.14431e+06 L3.22509e+06,5.31314e+06 L2.97896e+06,5.27216e+06 L2.74395e+06,5.37341e+06 L2.4783e+06,5.46405e+06 L2.52605e+06,5.54969e+06 L2.09929e+06,5.71096e+06 L1.91109e+06,5.88763e+06 L1.80468e+06,5.64903e+06 L1.52935e+06,5.64279e+06 L1.39e+06,5.67677e+06 L1.39e+06,5.82027e+06 L1.39e+06,5.92942e+06 L1.39e+06,6.53355e+06 L1.39e+06,7.16416e+06 L2.49691e+06,7.16416e+06"/>
</g>

<g fill="#75ab2e" fill-opacity="0.34902" stroke="none" transform="matrix(7.19538e-05,0,0,7.17448e-05,-73.7118,-42.0261)"
font-family="Helvetica" font-size="13" font-weight="400" font-style="normal" 
>
<path vector-effect="none" fill-rule="evenodd" d="M3.51497e+06,7.08454e+06 L3.2809e+06,7.14503e+06 L3.23871e+06,7.16416e+06 L3.29719e+06,7.16416e+06 L3.3192e+06,7.16416e+06 L3.56267e+06,7.16416e+06 L3.6581e+06,7.16416e+06 L3.65455e+06,7.09251e+06 L3.51497e+06,7.08454e+06"/>
</g>

<g fill="none" stroke="#1a330d" stroke-opacity="1" stroke-width="0.486111" stroke-linecap="square" stroke-linejoin="miter" stroke-miterlimit="5" transform="matrix(0.719538,0,0,0.717448,-73.7118,-42.0261)"
font-family="Helvetica" font-size="13" font-weight="400" font-style="normal" 
>
<polyline fill="none" vector-effect="none" points="139,567.677 152.935,564.279 180.468,564.903 191.109,588.763 209.929,571.096 252.605,554.969 247.83,546.404 274.395,537.341 297.896,527.216 322.509,531.314 349.731,514.431 364.989,524.548 383.948,507.966 405.402,502.241 389.23,494.752 403.725,483.329 417.304,478.474 445.86,481.448 443.511,498.796 466.319,491.798 463.963,506.747 463.868,529.317 450.836,543.615 439.89,554.728 456.861,558.542 466.05,591.553 470.485,619.743 441.145,606.432 439.861,596.95 423.166,539.255 421.233,561.839 414.549,557.407 392.189,575.994 399.948,590.489 395.509,604.631 371.866,623.239 337.416,648.317 318.391,672.969 293.354,716.416 " />
<polyline fill="none" vector-effect="none" points="323.871,716.416 328.09,714.503 351.497,708.454 365.455,709.251 365.81,716.416 " />
</g>

<g fill="#75ab2e" fill-opacity="0.34902" stroke="none" transform="matrix(7.19538e-05,0,0,7.17448e-05,-73.7118,-42.0261)"
font-family="Helvetica" font-size="13" font-weight="400" font-style="normal" 
>
<path vector-effect="none" fill-rule="evenodd" d="M3.47681e+06,2.30472e+06 L3.38e+06,2.44726e+06 L3.46081e+06,2.4985e+06 L3.72413e+06,2.4753e+06 L3.7257e+06,2.58009e+06 L3.57604e+06,2.8956e+06 L3.9164e+06,2.73347e+06 L4.10921e+06,2.80047e+06 L4.1508e+06,2.9605e+06 L4.37954e+06,2.98121e+06 L4.39574e+06,3.04105e+06 L4.46818e+06,3.17349e+06 L4.49925e+06,3.30732e+06 L4.55682e+06,3.42937e+06 L4.42583e+06,3.56968e+06 L4.63848e+06,3.71804e+06 L4.79917e+06,3.6838e+06 L4.64699e+06,3.78965e+06 L4.3749e+06,4.01553e+06 L4.19123e+06,4.17416e+06 L4.38306e+06,4.31387e+06 L4.49925e+06,4.46268e+06 L4.73987e+06,4.31459e+06 L4.66241e+06,4.49517e+06 L4.76591e+06,4.45741e+06 L4.84755e+06,4.30749e+06 L4.84278e+06,4.3011e+06 L4.85049e+06,4.30209e+06 L4.84755e+06,4.30749e+06 L4.91324e+06,4.39551e+06 L4.91688e+06,4.48468e+06 L5.15844e+06,4.44886e+06 L5.17358e+06,4.40457e+06 L5.37323e+06,4.43358e+06 L5.34906e+06,4.27229e+06 L5.45509e+06,4.37962e+06 L5.52107e+06,4.48911e+06 L5.51772e+06,4.38766e+06 L5.47079e+06,4.31683e+06 L5.24236e+06,4.11406e+06 L5.03659e+06,4.04663e+06 L5.11872e+06,3.885e+06 L5.25484e+06,3.77064e+06 L5.38365e+06,3.70706e+06 L5.37201e+06,3.61768e+06 L5.59476e+06,3.43934e+06 L5.69913e+06,3.35908e+06 L5.80691e+06,3.30952e+06 L6.04683e+06,3.12126e+06 L6.32086e+06,3.11624e+06 L6.53679e+06,2.90162e+06 L6.51443e+06,2.81261e+06 L6.73425e+06,2.61174e+06 L6.80115e+06,2.53057e+06 L6.82493e+06,2.5354e+06 L6.83558e+06,2.54792e+06 L6.87666e+06,2.52204e+06 L7.10341e+06,2.28608e+06 L7.03708e+06,2.24429e+06 L6.80115e+06,2.53057e+06 L6.70843e+06,2.51175e+06 L7.03708e+06,2.24429e+06 L6.90117e+06,2.16188e+06 L7.02009e+06,1.92139e+06 L7.14783e+06,1.94587e+06 L7.2322e+06,1.45174e+06 L7.23355e+06,1.13456e+06 L7.13854e+06,1.03459e+06 L7.18018e+06,605843 L7.08124e+06,605843 L7.04738e+06,605843 L6.9535e+06,605843 L6.80459e+06,605843 L6.6318e+06,605843 L6.71266e+06,849562 L7.0032e+06,790997 L7.07359e+06,1.068e+06 L6.9688e+06,1.2174e+06 L6.81957e+06,1.42424e+06 L6.63014e+06,1.47168e+06 L6.31231e+06,1.37239e+06 L6.27541e+06,1.10906e+06 L6.14237e+06,982539 L5.95778e+06,764708 L5.93828e+06,605843 L5.87739e+06,605843 L5.81321e+06,605843 L5.17421e+06,605843 L4.73477e+06,605843 L4.52247e+06,605843 L4.45998e+06,605843 L3.97342e+06,605843 L3.90279e+06,605843 L3.70049e+06,605843 L3.42295e+06,605843 L3.22708e+06,605843 L2.7239e+06,605843 L2.57094e+06,605843 L2.79075e+06,1.14072e+06 L3.00694e+06,920542 L3.34831e+06,1.15512e+06 L3.24734e+06,1.3126e+06 L3.28765e+06,1.55934e+06 L3.54347e+06,1.83527e+06 L3.39455e+06,1.4122e+06 L3.89892e+06,1.67826e+06 L4.01405e+06,1.33948e+06 L4.19709e+06,1.39229e+06 L4.24094e+06,1.23024e+06 L4.37515e+06,1.33853e+06 L4.3078e+06,1.60578e+06 L4.45043e+06,1.95768e+06 L4.61443e+06,2.12694e+06 L4.6055e+06,2.22405e+06 L4.60959e+06,2.33563e+06 L4.47451e+06,2.40513e+06 L4.07989e+06,2.34601e+06 L3.79365e+06,2.37294e+06 L3.47681e+06,2.30472e+06"/>
</g>

<g fill="#75ab2e" fill-opacity="0.34902" stroke="none" transform="matrix(7.19538e-05,0,0,7.17448e-05,-73.7118,-42.0261)"
font-family="Helvetica" font-size="13" font-weight="400" font-style="normal" 
>
<path vector-effect="none" fill-rule="evenodd" d="M6.86275e+06,2.57989e+06 L6.83558e+06,2.54792e+06 L6.73425e+06,2.61174e+06 L6.86275e+06,2.57989e+06"/>
</g>

<g fill="none" stroke="#1a330d" stroke-opacity="1" stroke-width="0.486111" stroke-linecap="square" stroke-linejoin="miter" stroke-miterlimit="5" transform="matrix(0.719538,0,0,0.717448,-73.7118,-42.0261)"
font-family="Helvetica" font-size="13" font-weight="400" font-style="normal" 
>
<polyline fill="none" vector-effect="none" points="354.346,183.527 328.765,155.934 324.734,131.26 334.831,115.512 300.694,92.0543 279.075,114.072 257.094,60.5844 " />
<polyline fill="none" vector-effect="none" points="593.828,60.5844 595.778,76.4708 614.237,98.254 627.541,110.906 631.231,137.239 663.014,147.168 681.957,142.424 696.88,121.74 707.359,106.8 700.32,79.0997 671.266,84.9563 663.18,60.5844 " />
<polyline fill="none" vector-effect="none" points="718.018,60.5844 713.854,103.459 723.355,113.456 723.22,145.174 714.783,194.587 702.009,192.139 690.117,216.188 703.708,224.429 670.843,251.175 682.493,253.54 686.274,257.989 673.425,261.174 703.708,224.429 710.341,228.608 687.666,252.204 673.425,261.174 651.443,281.261 653.679,290.162 632.086,311.624 604.683,312.126 580.691,330.952 569.913,335.908 559.476,343.934 537.201,361.768 538.365,370.706 525.484,377.064 511.872,388.5 503.659,404.663 524.236,411.406 547.079,431.683 551.772,438.766 552.107,448.911 545.509,437.962 534.906,427.229 537.323,443.358 517.358,440.457 515.844,444.886 491.688,448.468 491.324,439.551 484.278,430.11 485.049,430.209 476.591,445.74 466.241,449.517 473.987,431.458 449.925,446.268 438.306,431.387 419.123,417.416 437.49,401.553 464.699,378.965 479.917,368.38 463.848,371.804 442.583,356.968 455.682,342.937 449.925,330.732 446.818,317.349 439.574,304.105 437.954,298.121 415.08,296.05 410.921,280.047 391.64,273.347 357.604,289.56 372.57,258.009 372.413,247.53 346.081,249.85 338,244.726 347.681,230.472 379.365,237.294 407.989,234.601 447.451,240.513 460.959,233.563 460.55,222.405 461.443,212.694 445.043,195.768 430.78,160.578 437.515,133.853 424.093,123.024 419.709,139.229 401.405,133.948 389.892,167.826 339.455,141.22 354.346,183.527 354.346,183.527 " />
</g>

<g fill="none" stroke="#000000" stroke-opacity="1" stroke-width="0.694444" stroke-linecap="butt" stroke-linejoin="round" transform="matrix(0.719538,0,0,0.717448,-73.7118,-42.0261)"
font-family="Helvetica" font-size="13" font-weight="400" font-style="normal" 
>
<polyline fill="none" vector-effect="none" points="867.878,716.416 860.567,713.03 851.645,708.898 842.953,704.873 834.476,700.947 826.203,697.115 818.12,693.372 810.216,689.712 802.481,686.13 794.906,682.622 787.479,679.183 780.194,675.809 773.042,672.496 766.014,669.242 759.103,666.042 752.303,662.892 745.606,659.791 739.007,656.735 732.499,653.721 726.076,650.747 719.734,647.809 713.466,644.907 707.267,642.036 701.134,639.196 695.061,636.383 689.043,633.596 683.076,630.833 677.156,628.092 671.279,625.37 665.441,622.666 659.638,619.979 653.866,617.306 648.121,614.645 642.4,611.996 636.699,609.355 631.014,606.723 625.342,604.096 619.68,601.474 614.024,598.855 608.371,596.237 602.716,593.618 597.057,590.997 591.391,588.373 585.713,585.744 580.021,583.108 574.31,580.463 568.577,577.808 562.819,575.141 557.031,572.461 551.211,569.766 545.353,567.053 539.455,564.322 533.512,561.569 527.52,558.794 521.474,555.995 515.371,553.168 509.205,550.313 502.972,547.426 496.666,544.506 490.284,541.55 483.818,538.556 477.265,535.521 470.616,532.442 463.868,529.317 457.012,526.142 450.043,522.914 442.953,519.631 435.733,516.288 428.378,512.881 420.877,509.407 413.221,505.862 405.402,502.241 397.408,498.539 389.23,494.752 " />
<polyline fill="none" vector-effect="none" points="971,652.077 967.399,650.907 956.652,647.415 946.27,644.041 936.229,640.779 926.506,637.62 917.081,634.557 907.936,631.586 899.051,628.699 890.412,625.892 882.003,623.16 873.811,620.498 865.821,617.902 858.022,615.368 850.403,612.892 842.953,610.471 835.662,608.102 828.52,605.782 821.52,603.507 814.652,601.276 807.909,599.085 801.283,596.932 794.768,594.815 788.357,592.732 782.043,590.681 775.821,588.659 769.685,586.665 763.629,584.698 757.648,582.754 751.738,580.834 745.894,578.935 740.11,577.056 734.383,575.195 728.708,573.351 723.082,571.523 717.499,569.709 711.957,567.908 706.452,566.119 700.979,564.341 695.535,562.572 690.117,560.812 684.721,559.059 679.345,557.312 673.983,555.57 668.634,553.832 663.293,552.096 657.959,550.363 652.626,548.63 647.293,546.898 641.955,545.163 636.61,543.427 631.254,541.686 625.885,539.942 620.498,538.191 615.09,536.434 609.658,534.669 604.198,532.895 598.707,531.111 593.181,529.316 587.617,527.508 582.01,525.686 576.357,523.849 570.653,521.996 564.894,520.125 559.077,518.234 553.196,516.324 547.247,514.391 541.224,512.434 535.124,510.452 528.94,508.442 522.667,506.404 516.299,504.335 509.829,502.233 503.253,500.096 496.561,497.922 489.749,495.708 482.807,493.453 475.728,491.153 468.503,488.805 461.123,486.407 453.579,483.956 445.86,481.448 437.954,478.879 429.851,476.246 421.538,473.545 413.001,470.771 " />
<polyline fill="none" vector-effect="none" points="971,565.441 962.623,563.613 952.967,561.507 943.621,559.469 934.566,557.494 925.782,555.578 917.253,553.717 908.961,551.909 900.894,550.149 893.037,548.435 885.377,546.765 877.903,545.134 870.604,543.542 863.468,541.986 856.487,540.463 849.651,538.972 842.953,537.511 836.383,536.078 829.934,534.671 823.6,533.29 817.373,531.931 811.247,530.595 805.215,529.279 799.273,527.983 793.414,526.706 787.634,525.445 781.927,524.2 776.289,522.97 770.714,521.754 765.199,520.551 759.74,519.36 754.331,518.181 748.97,517.011 743.651,515.851 738.373,514.7 733.13,513.556 727.92,512.42 722.739,511.29 717.584,510.165 712.451,509.046 707.337,507.93 702.239,506.818 697.153,505.709 692.078,504.602 687.008,503.496 681.942,502.391 676.876,501.286 671.808,500.181 666.733,499.074 661.65,497.965 656.554,496.853 651.443,495.739 646.314,494.62 641.162,493.496 635.986,492.367 630.781,491.232 625.545,490.09 620.273,488.94 614.962,487.781 609.608,486.613 604.208,485.436 598.758,484.247 593.253,483.046 587.689,481.832 582.062,480.605 576.367,479.363 570.6,478.105 564.755,476.83 558.828,475.537 552.813,474.225 546.704,472.893 540.495,471.538 534.179,470.161 527.751,468.759 521.203,467.33 514.527,465.874 507.716,464.389 500.761,462.872 493.654,461.321 486.383,459.736 478.94,458.112 471.314,456.449 463.492,454.742 455.463,452.991 447.212,451.191 438.725,449.34 429.986,447.434 " />
<polyline fill="none" vector-effect="none" points="971,492.526 962.708,491.463 953.587,490.293 944.752,489.16 936.187,488.062 927.872,486.996 919.794,485.96 911.937,484.952 904.287,483.971 896.832,483.015 889.56,482.083 882.461,481.172 875.524,480.283 868.739,479.412 862.097,478.561 855.591,477.726 849.212,476.908 842.953,476.106 836.806,475.317 830.765,474.543 824.824,473.781 818.977,473.031 813.217,472.293 807.541,471.565 801.941,470.847 796.414,470.138 790.956,469.438 785.56,468.746 780.223,468.061 774.941,467.384 769.71,466.713 764.526,466.049 759.386,465.389 754.284,464.735 749.219,464.086 744.187,463.44 739.183,462.799 734.206,462.16 729.251,461.525 724.316,460.892 719.398,460.261 714.493,459.632 709.598,459.005 704.711,458.378 699.828,457.752 694.947,457.126 690.064,456.5 685.176,455.873 680.281,455.245 675.376,454.616 670.457,453.985 665.521,453.352 660.566,452.717 655.587,452.079 650.583,451.437 645.549,450.791 640.483,450.142 635.38,449.487 630.238,448.828 625.052,448.163 619.819,447.492 614.535,446.814 609.197,446.13 603.799,445.437 598.337,444.737 592.808,444.028 587.206,443.31 581.526,442.581 575.763,441.842 569.913,441.092 563.968,440.33 557.923,439.554 551.772,438.766 545.509,437.962 539.125,437.144 532.614,436.309 525.967,435.457 519.177,434.586 512.234,433.695 505.128,432.784 497.85,431.851 490.388,430.894 482.73,429.912 474.865,428.903 466.778,427.866 458.454,426.799 449.879,425.699 441.034,424.565 " />
<polyline fill="none" vector-effect="none" points="971,426.63 967.031,426.443 958.028,426.02 949.311,425.61 940.86,425.213 932.659,424.828 924.693,424.453 916.946,424.089 909.405,423.735 902.058,423.389 894.893,423.053 887.899,422.724 881.066,422.403 874.384,422.089 867.845,421.781 861.44,421.48 855.161,421.185 849.001,420.895 842.953,420.611 837.01,420.332 831.166,420.057 825.415,419.787 819.751,419.521 814.17,419.258 808.665,419 803.233,418.744 797.868,418.492 792.566,418.243 787.323,417.996 782.134,417.752 776.996,417.511 771.905,417.272 766.857,417.034 761.849,416.799 756.876,416.565 751.936,416.333 747.026,416.102 742.142,415.873 737.28,415.644 732.439,415.417 727.614,415.19 722.803,414.964 718.003,414.738 713.211,414.513 708.424,414.288 703.639,414.063 698.852,413.838 694.063,413.613 689.266,413.387 684.459,413.161 679.64,412.935 674.806,412.708 669.952,412.479 665.077,412.25 660.177,412.02 655.249,411.788 650.289,411.555 645.295,411.32 640.262,411.084 635.188,410.845 630.069,410.605 624.9,410.362 619.678,410.116 614.399,409.868 609.059,409.617 603.653,409.363 598.176,409.106 592.625,408.845 586.993,408.58 581.276,408.311 575.469,408.038 569.564,407.761 563.557,407.478 557.441,407.191 551.208,406.898 544.852,406.599 538.365,406.294 531.739,405.983 524.965,405.664 518.034,405.339 510.935,405.005 503.659,404.663 496.194,404.312 488.527,403.952 480.646,403.581 472.537,403.2 464.184,402.807 455.571,402.403 446.679,401.985 " />
<polyline fill="none" vector-effect="none" points="971,363.132 966.584,363.27 957.618,363.55 948.936,363.822 940.519,364.085 932.35,364.34 924.414,364.589 916.696,364.83 909.183,365.065 901.862,365.294 894.723,365.517 887.753,365.735 880.943,365.948 874.284,366.156 867.766,366.36 861.382,366.56 855.123,366.756 848.982,366.948 842.953,367.136 837.028,367.321 831.201,367.504 825.467,367.683 819.82,367.86 814.254,368.034 808.765,368.205 803.347,368.375 797.997,368.542 792.709,368.707 787.479,368.871 782.303,369.033 777.178,369.193 772.099,369.352 767.063,369.509 762.067,369.666 757.106,369.821 752.177,369.975 747.277,370.128 742.404,370.281 737.553,370.432 732.721,370.583 727.907,370.734 723.105,370.884 718.315,371.034 713.532,371.183 708.753,371.333 703.977,371.482 699.199,371.632 694.418,371.781 689.629,371.931 684.831,372.081 680.02,372.231 675.193,372.382 670.347,372.534 665.479,372.686 660.586,372.839 655.664,372.993 650.712,373.148 645.724,373.304 640.698,373.461 635.63,373.62 630.516,373.78 625.353,373.941 620.137,374.104 614.863,374.269 609.528,374.436 604.127,374.605 598.656,374.776 593.109,374.949 587.482,375.125 581.769,375.304 575.966,375.485 570.065,375.67 564.061,375.858 557.948,376.049 551.718,376.244 545.365,376.442 538.88,376.645 532.256,376.852 525.484,377.064 518.554,377.281 511.456,377.503 504.181,377.73 496.715,377.964 489.048,378.204 481.166,378.45 473.055,378.704 464.699,378.965 456.083,379.234 447.187,379.513 " />
<polyline fill="none" vector-effect="none" points="971,298.048 970.708,298.081 961.399,299.119 952.391,300.123 943.665,301.096 935.201,302.04 926.985,302.956 918.999,303.847 911.23,304.713 903.665,305.556 896.291,306.379 889.097,307.181 882.072,307.964 875.206,308.73 868.49,309.478 861.914,310.212 855.471,310.93 849.153,311.635 842.953,312.326 836.863,313.005 830.877,313.672 824.989,314.329 819.192,314.975 813.482,315.612 807.853,316.24 802.3,316.859 796.818,317.47 791.403,318.074 786.05,318.671 780.754,319.261 775.512,319.846 770.32,320.425 765.173,320.999 760.069,321.568 755.004,322.133 749.973,322.693 744.974,323.251 740.004,323.805 735.058,324.356 730.135,324.905 725.231,325.452 720.342,325.997 715.466,326.541 710.599,327.084 705.74,327.626 700.884,328.167 696.028,328.708 691.171,329.25 686.308,329.792 681.438,330.335 676.556,330.88 671.66,331.426 666.747,331.973 661.814,332.523 656.857,333.076 651.873,333.632 646.86,334.191 641.813,334.754 636.729,335.32 631.606,335.892 626.438,336.468 621.222,337.05 615.956,337.637 610.633,338.23 605.251,338.83 599.804,339.438 594.289,340.053 588.701,340.676 583.034,341.308 577.284,341.949 571.444,342.6 565.51,343.262 559.476,343.934 553.334,344.619 547.079,345.317 540.702,346.028 534.197,346.753 527.556,347.494 520.77,348.25 513.829,349.024 506.725,349.816 499.447,350.628 491.984,351.46 484.324,352.314 476.453,353.192 468.36,354.094 460.028,355.023 451.441,355.981 442.583,356.968 " />
<polyline fill="none" vector-effect="none" points="971,226.979 970.127,227.153 960.358,229.098 950.91,230.979 941.761,232.801 932.892,234.567 924.285,236.281 915.925,237.945 907.794,239.564 899.881,241.14 892.17,242.675 884.65,244.172 877.31,245.634 870.139,247.062 863.127,248.458 856.264,249.824 849.542,251.163 842.953,252.475 836.488,253.762 830.141,255.026 823.904,256.268 817.771,257.489 811.735,258.691 805.792,259.874 799.934,261.04 794.157,262.191 788.456,263.326 782.826,264.447 777.262,265.555 771.759,266.65 766.314,267.735 760.922,268.808 755.579,269.872 750.281,270.927 745.025,271.974 739.807,273.013 734.623,274.045 729.469,275.071 724.344,276.091 719.242,277.107 714.161,278.119 709.098,279.127 704.049,280.132 699.012,281.135 693.983,282.137 688.959,283.137 683.937,284.137 678.914,285.137 673.887,286.138 668.854,287.14 663.81,288.145 658.752,289.151 653.679,290.162 648.585,291.176 643.469,292.195 638.327,293.218 633.155,294.248 627.95,295.285 622.709,296.328 617.428,297.38 612.103,298.44 606.73,299.51 601.306,300.59 595.826,301.681 590.286,302.784 584.682,303.9 579.009,305.029 573.262,306.174 567.436,307.334 561.526,308.51 555.527,309.705 549.432,310.919 543.236,312.152 536.932,313.407 530.513,314.686 523.973,315.988 517.303,317.316 510.495,318.671 503.542,320.056 496.433,321.471 489.159,322.92 481.71,324.403 474.075,325.923 466.241,327.483 458.196,329.085 449.925,330.732 441.415,332.426 432.65,334.171 " />
<polyline fill="none" vector-effect="none" points="971,143.8 963.862,145.954 953.462,149.091 943.408,152.124 933.677,155.059 924.248,157.903 915.102,160.662 906.221,163.341 897.588,165.945 889.189,168.479 881.008,170.947 873.033,173.352 865.251,175.7 857.65,177.992 850.221,180.233 842.953,182.426 835.836,184.573 828.862,186.676 822.021,188.74 815.308,190.765 808.713,192.754 802.229,194.71 795.851,196.634 789.572,198.528 783.385,200.394 777.286,202.234 771.268,204.049 765.327,205.842 759.457,207.612 753.653,209.363 747.912,211.095 742.228,212.81 736.597,214.508 731.015,216.192 725.479,217.862 719.984,219.519 714.526,221.166 709.102,222.802 703.708,224.429 698.341,226.048 692.998,227.66 687.674,229.266 682.367,230.867 677.073,232.464 671.789,234.057 666.512,235.649 661.238,237.24 655.964,238.831 650.688,240.423 645.405,242.016 640.114,243.612 634.809,245.212 629.489,246.817 624.149,248.428 618.787,250.046 613.398,251.671 607.981,253.305 602.53,254.95 597.042,256.605 591.513,258.273 585.941,259.954 580.32,261.649 574.646,263.361 568.916,265.089 563.124,266.836 557.267,268.603 551.339,270.391 545.336,272.202 539.253,274.037 533.083,275.898 526.822,277.787 520.463,279.705 514,281.654 507.427,283.637 500.736,285.655 493.921,287.711 486.972,289.807 479.883,291.946 472.644,294.129 465.246,296.361 457.679,298.644 449.932,300.98 441.994,303.375 433.854,305.831 425.496,308.352 416.909,310.942 " />
<polyline fill="none" vector-effect="none" points="919.089,60.5844 916.914,61.5237 906.697,65.9358 896.795,70.2123 887.187,74.3618 877.854,78.3924 868.779,82.3114 859.947,86.1257 851.343,89.8417 842.953,93.4652 834.764,97.0018 826.764,100.457 818.942,103.835 811.287,107.141 803.79,110.378 796.442,113.552 789.233,116.665 782.156,119.722 775.202,122.725 768.365,125.677 761.638,128.583 755.013,131.444 748.484,134.263 742.047,137.044 735.694,139.787 729.42,142.497 723.22,145.174 717.09,147.822 711.024,150.441 705.017,153.035 699.066,155.606 693.166,158.154 687.312,160.682 681.5,163.192 675.728,165.685 669.99,168.163 664.283,170.628 658.603,173.08 652.946,175.523 647.31,177.957 641.69,180.384 636.084,182.806 630.487,185.223 624.896,187.637 619.307,190.051 613.719,192.465 608.126,194.88 602.525,197.299 596.914,199.722 591.288,202.152 585.644,204.589 579.979,207.036 574.289,209.493 568.57,211.963 562.819,214.447 557.031,216.946 551.203,219.463 545.332,221.999 539.412,224.556 533.439,227.135 527.409,229.739 521.319,232.369 515.161,235.028 508.933,237.718 502.629,240.441 496.243,243.199 489.77,245.994 483.204,248.83 476.54,251.708 469.77,254.632 462.887,257.604 455.886,260.628 448.758,263.706 441.495,266.843 434.089,270.041 426.531,273.305 418.812,276.639 410.921,280.047 402.847,283.534 394.58,287.104 " />
<polyline fill="none" vector-effect="none" points="937.169,716.416 936.595,712.452 934.909,700.618 933.314,689.211 931.803,678.201 930.371,667.561 929.014,657.266 927.727,647.293 926.506,637.62 925.348,628.227 924.248,619.097 923.205,610.212 922.214,601.558 921.274,593.12 920.383,584.883 919.536,576.836 918.734,568.966 917.973,561.264 917.253,553.717 916.57,546.317 915.925,539.055 915.315,531.921 914.738,524.908 914.195,518.007 913.684,511.212 913.203,504.516 912.752,497.911 912.33,491.392 911.937,484.952 911.57,478.586 911.23,472.287 910.916,466.051 910.628,459.873 910.364,453.747 910.125,447.668 909.91,441.632 909.719,435.634 909.55,429.67 909.405,423.735 909.283,417.825 909.183,411.935 909.105,406.062 909.05,400.201 909.017,394.349 909.006,388.5 909.017,382.651 909.05,376.799 909.105,370.938 909.183,365.065 909.283,359.175 909.405,353.265 909.55,347.33 909.719,341.366 909.91,335.368 910.125,329.332 910.364,323.253 910.628,317.127 910.916,310.949 911.23,304.713 911.57,298.414 911.937,292.048 912.33,285.608 912.752,279.089 913.203,272.484 913.684,265.788 914.195,258.993 914.738,252.092 915.315,245.079 915.925,237.945 916.57,230.683 917.253,223.283 917.973,215.736 918.734,208.034 919.536,200.164 920.383,192.117 921.274,183.881 922.214,175.442 923.205,166.788 924.248,157.903 925.348,148.773 926.506,139.38 927.727,129.707 929.014,119.734 930.371,109.439 931.803,98.7988 933.314,87.7893 934.909,76.3825 936.595,64.5484 937.169,60.5844 " />
<polyline fill="none" vector-effect="none" points="842.953,704.873 842.953,694.017 842.953,683.535 842.953,673.4 842.953,663.589 842.953,654.082 842.953,644.86 842.953,635.903 842.953,627.196 842.953,618.724 842.953,610.471 842.953,602.426 842.953,594.574 842.953,586.905 842.953,579.409 842.953,572.073 842.953,564.891 842.953,557.851 842.953,550.947 842.953,544.169 842.953,537.511 842.953,530.965 842.953,524.525 842.953,518.184 842.953,511.937 842.953,505.777 842.953,499.699 842.953,493.698 842.953,487.769 842.953,481.906 842.953,476.106 842.953,470.363 842.953,464.674 842.953,459.034 842.953,453.44 842.953,447.887 842.953,442.371 842.953,436.889 842.953,431.438 842.953,426.013 842.953,420.611 842.953,415.229 842.953,409.864 842.953,404.512 842.953,399.169 842.953,393.833 842.953,388.5 842.953,383.167 842.953,377.831 842.953,372.488 842.953,367.136 842.953,361.771 842.953,356.389 842.953,350.987 842.953,345.562 842.953,340.111 842.953,334.629 842.953,329.113 842.953,323.56 842.953,317.966 842.953,312.326 842.953,306.637 842.953,300.894 842.953,295.094 842.953,289.231 842.953,283.302 842.953,277.301 842.953,271.223 842.953,265.063 842.953,258.816 842.953,252.475 842.953,246.035 842.953,239.489 842.953,232.831 842.953,226.053 842.953,219.149 842.953,212.109 842.953,204.927 842.953,197.591 842.953,190.095 842.953,182.426 842.953,174.574 842.953,166.529 842.953,158.276 842.953,149.804 842.953,141.097 842.953,132.14 842.953,122.918 842.953,113.411 842.953,103.6 842.953,93.4652 " />
<polyline fill="none" vector-effect="none" points="766.014,669.242 767.218,660.148 768.365,651.323 769.459,642.75 770.501,634.415 771.495,626.303 772.443,618.4 773.348,610.696 774.211,603.178 775.035,595.836 775.821,588.659 776.571,581.639 777.286,574.766 777.969,568.032 778.62,561.431 779.24,554.953 779.832,548.593 780.395,542.343 780.931,536.199 781.442,530.153 781.927,524.2 782.388,518.335 782.826,512.553 783.241,506.849 783.634,501.219 784.005,495.658 784.355,490.161 784.686,484.726 784.996,479.347 785.287,474.022 785.56,468.746 785.814,463.516 786.05,458.329 786.268,453.182 786.469,448.07 786.652,442.992 786.819,437.945 786.97,432.924 787.104,427.927 787.221,422.953 787.323,417.996 787.409,413.056 787.479,408.129 787.533,403.213 787.572,398.304 787.595,393.401 787.603,388.5 787.595,383.599 787.572,378.696 787.533,373.787 787.479,368.871 787.409,363.944 787.323,359.004 787.221,354.047 787.104,349.073 786.97,344.076 786.819,339.055 786.652,334.008 786.469,328.93 786.268,323.818 786.05,318.671 785.814,313.484 785.56,308.254 785.287,302.978 784.996,297.653 784.686,292.274 784.355,286.839 784.005,281.342 783.634,275.781 783.241,270.151 782.826,264.447 782.388,258.665 781.927,252.8 781.442,246.847 780.931,240.801 780.395,234.657 779.832,228.407 779.24,222.047 778.62,215.569 777.969,208.968 777.286,202.234 776.571,195.361 775.821,188.341 775.035,181.164 774.211,173.822 773.348,166.304 772.443,158.6 771.495,150.697 770.501,142.585 769.459,134.25 768.365,125.677 " />
<polyline fill="none" vector-effect="none" points="701.134,639.196 703.12,631.482 705.017,623.965 706.832,616.633 708.567,609.475 710.226,602.484 711.813,595.648 713.331,588.961 714.783,582.413 716.171,575.999 717.499,569.709 718.769,563.539 719.984,557.481 721.144,551.529 722.253,545.679 723.312,539.924 724.324,534.261 725.289,528.683 726.209,523.186 727.086,517.767 727.92,512.42 728.715,507.142 729.469,501.929 730.186,496.778 730.865,491.684 731.507,486.645 732.115,481.658 732.687,476.719 733.226,471.824 733.732,466.973 734.206,462.16 734.648,457.385 735.058,452.644 735.439,447.934 735.789,443.253 736.109,438.599 736.4,433.969 736.663,429.361 736.897,424.772 737.102,420.2 737.28,415.644 737.43,411.101 737.553,406.568 737.648,402.043 737.716,397.525 737.756,393.012 737.77,388.5 737.756,383.988 737.716,379.475 737.648,374.957 737.553,370.432 737.43,365.899 737.28,361.356 737.102,356.8 736.897,352.228 736.663,347.639 736.4,343.031 736.109,338.401 735.789,333.747 735.439,329.066 735.058,324.356 734.648,319.615 734.206,314.84 733.732,310.027 733.226,305.176 732.687,300.281 732.115,295.342 731.507,290.355 730.865,285.316 730.186,280.222 729.469,275.071 728.715,269.858 727.92,264.58 727.086,259.233 726.209,253.814 725.289,248.317 724.324,242.739 723.312,237.076 722.253,231.321 721.144,225.471 719.984,219.519 718.769,213.461 717.499,207.291 716.171,201.001 714.783,194.587 713.331,188.039 711.813,181.352 710.226,174.516 708.567,167.525 706.832,160.367 705.017,153.035 " />
<polyline fill="none" vector-effect="none" points="642.4,611.996 644.907,605.448 647.31,599.043 649.615,592.771 651.824,586.627 653.942,580.603 655.974,574.694 657.921,568.895 659.788,563.198 661.578,557.601 663.293,552.096 664.937,546.681 666.512,541.351 668.019,536.1 669.462,530.927 670.843,525.825 672.163,520.793 673.425,515.826 674.63,510.921 675.78,506.076 676.876,501.286 677.921,496.549 678.914,491.863 679.858,487.224 680.754,482.63 681.603,478.078 682.406,473.567 683.164,469.092 683.878,464.654 684.548,460.248 685.176,455.873 685.763,451.527 686.308,447.208 686.814,442.913 687.279,438.642 687.706,434.391 688.094,430.159 688.443,425.945 688.755,421.746 689.029,417.561 689.266,413.387 689.466,409.224 689.629,405.069 689.756,400.921 689.847,396.778 689.901,392.638 689.919,388.5 689.901,384.362 689.847,380.222 689.756,376.079 689.629,371.931 689.466,367.776 689.266,363.613 689.029,359.439 688.755,355.254 688.443,351.055 688.094,346.841 687.706,342.609 687.279,338.358 686.814,334.087 686.308,329.792 685.763,325.473 685.176,321.127 684.548,316.752 683.878,312.346 683.164,307.908 682.406,303.433 681.603,298.922 680.754,294.37 679.858,289.776 678.914,285.137 677.921,280.451 676.876,275.714 675.78,270.924 674.63,266.079 673.425,261.174 672.163,256.207 670.843,251.175 669.462,246.073 668.019,240.9 666.512,235.649 664.937,230.319 663.293,224.904 661.578,219.399 659.788,213.802 657.921,208.105 655.974,202.306 653.942,196.397 651.824,190.373 649.615,184.229 647.31,177.957 " />
<polyline fill="none" vector-effect="none" points="585.713,585.744 588.555,580.247 591.288,574.848 593.915,569.542 596.44,564.325 598.868,559.193 601.202,554.141 603.444,549.166 605.599,544.265 607.669,539.433 609.658,534.669 611.566,529.969 613.398,525.329 615.156,520.748 616.841,516.221 618.456,511.748 620.003,507.325 621.484,502.95 622.9,498.621 624.253,494.334 625.545,490.09 626.777,485.884 627.95,481.715 629.067,477.582 630.128,473.482 631.134,469.414 632.086,465.376 632.986,461.366 633.835,457.382 634.632,453.423 635.38,449.487 636.079,445.573 636.729,441.68 637.332,437.804 637.888,433.947 638.397,430.105 638.86,426.277 639.278,422.463 639.651,418.66 639.979,414.867 640.262,411.084 640.502,407.308 640.698,403.539 640.85,399.775 640.958,396.014 641.023,392.257 641.045,388.5 641.023,384.743 640.958,380.986 640.85,377.225 640.698,373.461 640.502,369.692 640.262,365.916 639.979,362.133 639.651,358.34 639.278,354.537 638.86,350.723 638.397,346.895 637.888,343.053 637.332,339.196 636.729,335.32 636.079,331.427 635.38,327.513 634.632,323.577 633.835,319.618 632.986,315.634 632.086,311.624 631.134,307.586 630.128,303.518 629.067,299.418 627.95,295.285 626.777,291.116 625.545,286.91 624.253,282.666 622.9,278.379 621.484,274.05 620.003,269.675 618.456,265.252 616.841,260.779 615.156,256.252 613.398,251.671 611.566,247.031 609.658,242.331 607.669,237.567 605.599,232.735 603.444,227.834 601.202,222.859 598.868,217.807 596.44,212.675 593.915,207.458 591.288,202.152 " />
<polyline fill="none" vector-effect="none" points="527.52,558.794 530.533,554.299 533.439,549.865 536.241,545.49 538.941,541.172 541.545,536.908 544.053,532.695 546.47,528.533 548.798,524.418 551.039,520.349 553.196,516.324 555.271,512.34 557.267,508.397 559.185,504.492 561.028,500.625 562.798,496.792 564.495,492.993 566.123,489.226 567.682,485.49 569.174,481.784 570.6,478.105 571.962,474.453 573.262,470.826 574.499,467.224 575.677,463.644 576.794,460.086 577.854,456.548 578.856,453.03 579.801,449.53 580.691,446.048 581.526,442.581 582.307,439.13 583.034,435.692 583.708,432.268 584.331,428.856 584.901,425.454 585.42,422.063 585.889,418.681 586.307,415.307 586.675,411.94 586.993,408.58 587.262,405.225 587.482,401.875 587.653,398.528 587.774,395.184 587.847,391.841 587.872,388.5 587.847,385.159 587.774,381.816 587.653,378.472 587.482,375.125 587.262,371.775 586.993,368.42 586.675,365.06 586.307,361.693 585.889,358.319 585.42,354.937 584.901,351.546 584.331,348.144 583.708,344.732 583.034,341.308 582.307,337.87 581.526,334.419 580.691,330.952 579.801,327.47 578.856,323.97 577.854,320.452 576.794,316.914 575.677,313.356 574.499,309.776 573.262,306.174 571.962,302.547 570.6,298.895 569.174,295.216 567.682,291.51 566.123,287.774 564.495,284.007 562.798,280.208 561.028,276.375 559.185,272.508 557.267,268.603 555.271,264.66 553.196,260.676 551.039,256.651 548.798,252.582 546.47,248.467 544.053,244.305 541.545,240.092 538.941,235.828 536.241,231.51 533.439,227.135 " />
<polyline fill="none" vector-effect="none" points="463.868,529.317 466.868,525.827 469.77,522.368 472.576,518.94 475.29,515.541 477.914,512.171 480.449,508.827 482.898,505.51 485.263,502.219 487.546,498.952 489.749,495.708 491.873,492.488 493.921,489.289 495.893,486.111 497.792,482.953 499.618,479.815 501.374,476.695 503.061,473.594 504.679,470.509 506.231,467.441 507.716,464.389 509.138,461.352 510.495,458.329 511.79,455.319 513.024,452.323 514.197,449.34 515.309,446.368 516.363,443.407 517.358,440.457 518.296,437.517 519.177,434.586 520.001,431.664 520.77,428.75 521.483,425.843 522.141,422.944 522.746,420.051 523.296,417.164 523.793,414.283 524.236,411.406 524.627,408.533 524.965,405.664 525.25,402.799 525.484,399.936 525.665,397.075 525.795,394.216 525.872,391.358 525.898,388.5 525.872,385.642 525.795,382.784 525.665,379.925 525.484,377.064 525.25,374.201 524.965,371.336 524.627,368.467 524.236,365.594 523.793,362.717 523.296,359.836 522.746,356.949 522.141,354.056 521.483,351.157 520.77,348.25 520.001,345.336 519.177,342.414 518.296,339.483 517.358,336.543 516.363,333.593 515.309,330.632 514.197,327.66 513.024,324.677 511.79,321.681 510.495,318.671 509.138,315.648 507.716,312.611 506.231,309.559 504.679,306.491 503.061,303.406 501.374,300.305 499.618,297.185 497.792,294.047 495.893,290.889 493.921,287.711 491.873,284.512 489.749,281.292 487.546,278.048 485.263,274.781 482.898,271.49 480.449,268.173 477.914,264.829 475.29,261.459 472.576,258.06 469.77,254.632 " />
<polyline fill="none" vector-effect="none" points="389.23,494.752 391.944,492.32 394.58,489.896 397.139,487.48 399.622,485.072 402.031,482.671 404.367,480.277 406.63,477.89 408.823,475.511 410.946,473.138 413.001,470.771 414.988,468.412 416.909,466.058 418.764,463.711 420.554,461.369 422.281,459.033 423.945,456.703 425.546,454.378 427.087,452.059 428.566,449.744 429.986,447.434 431.347,445.129 432.65,442.829 433.894,440.532 435.082,438.24 436.213,435.952 437.287,433.668 438.306,431.387 439.27,429.11 440.179,426.836 441.034,424.565 441.836,422.297 442.583,420.032 443.278,417.769 443.92,415.508 444.51,413.25 445.047,410.994 445.532,408.739 445.966,406.486 446.348,404.235 446.679,401.985 446.959,399.736 447.187,397.487 447.365,395.24 447.492,392.993 447.568,390.746 447.594,388.5 447.568,386.254 447.492,384.007 447.365,381.76 447.187,379.513 446.959,377.264 446.679,375.015 446.348,372.765 445.966,370.514 445.532,368.261 445.047,366.006 444.51,363.75 443.92,361.492 443.278,359.231 442.583,356.968 441.836,354.703 441.034,352.435 440.179,350.164 439.27,347.89 438.306,345.613 437.287,343.332 436.213,341.048 435.082,338.76 433.894,336.468 432.65,334.171 431.347,331.871 429.986,329.566 428.566,327.256 427.087,324.941 425.546,322.622 423.945,320.297 422.281,317.967 420.554,315.631 418.764,313.289 416.909,310.942 414.988,308.588 413.001,306.229 410.946,303.862 408.823,301.489 406.63,299.11 404.367,296.723 402.031,294.329 399.622,291.928 397.139,289.52 394.58,287.104 " />
</g>

<g fill="none" stroke="#ff0000" stroke-opacity="1" stroke-width="4.16667" stroke-linecap="butt" stroke-linejoin="round" transform="matrix(0.719538,0,0,0.717448,-73.7118,-42.0261)"
font-family="Helvetica" font-size="13" font-weight="400" font-style="normal" 
>
<polyline fill="none" vector-effect="none" points="915.076,388.5 770.83,189.963 537.436,265.797 537.436,511.203 770.83,587.037 915.076,388.5 " />
</g>
</g>
</svg>
