<?xml version="1.0" encoding="UTF-8" standalone="no"?>
<svg width="220.839mm" height="171.45mm"
 viewBox="0 0 626 486"
 xmlns="http://www.w3.org/2000/svg" xmlns:xlink="http://www.w3.org/1999/xlink"  version="1.2" baseProfile="tiny">
<title>Qt SVG Document</title>
<desc>MATLAB, The MathWorks, Inc. Version 25.2.0.3150157 R2025b Update 4</desc>
<defs>
</defs>
<g fill="none" stroke="black" stroke-width="1" fill-rule="evenodd" stroke-linecap="square" stroke-linejoin="bevel" >

<g fill="#000000" fill-opacity="1" stroke="none" transform="matrix(0.719538,0,0,0.718517,-73.7118,-42.8094)"
font-family="Sans Serif" font-size="9" font-weight="400" font-style="normal" 
>
<path vector-effect="none" fill-rule="evenodd" d="M101,58 L973,58 L973,737 L101,737 L101,58"/>
</g>

<g fill="#121212" fill-opacity="1" stroke="none" transform="matrix(7.19538e-05,0,0,7.18517e-05,-73.7118,-42.8094)"
font-family="Sans Serif" font-size="9" font-weight="400" font-style="normal" 
>
<path vector-effect="none" fill-rule="evenodd" d="M1.39e+06,615843 L1.39e+06,7.17416e+06 L9.71e+06,7.17416e+06 L9.71e+06,615843 L1.39e+06,615843"/>
</g>

<g fill="#d9d9d9" fill-opacity="1" stroke="#d9d9d9" stroke-opacity="1" stroke-width="0.694444" stroke-linecap="square" stroke-linejoin="round" transform="matrix(0.719538,0,0,0.718517,-73.7118,-42.8094)"
font-family="Sans Serif" font-size="9" font-weight="400" font-style="normal" 
>
<polyline fill="none" vector-effect="none" points="139,717.416 971,717.416 " />
<polyline fill="none" vector-effect="none" points="208.765,717.416 208.765,709.096 " />
<polyline fill="none" vector-effect="none" points="315.843,717.416 315.843,709.096 " />
<polyline fill="none" vector-effect="none" points="422.921,717.416 422.921,709.096 " />
<polyline fill="none" vector-effect="none" points="529.999,717.416 529.999,709.096 " />
<polyline fill="none" vector-effect="none" points="637.077,717.416 637.077,709.096 " />
<polyline fill="none" vector-effect="none" points="744.155,717.416 744.155,709.096 " />
<polyline fill="none" vector-effect="none" points="851.233,717.416 851.233,709.096 " />
<polyline fill="none" vector-effect="none" points="958.311,717.416 958.311,709.096 " />
</g>

<g fill="#d9d9d9" fill-opacity="1" stroke="#d9d9d9" stroke-opacity="1" stroke-width="1" stroke-linecap="square" stroke-linejoin="bevel" transform="matrix(0.719538,0,0,0.718517,65.7094,485.28)"
font-family="Helvetica" font-size="13" font-weight="400" font-style="normal" 
>
<text fill="#d9d9d9" fill-opacity="1" stroke="none" xml:space="preserve" x="0" y="0" font-family="Helvetica" font-size="13" font-weight="400" font-style="normal" 
 >-0.15</text>
</g>

<g fill="#d9d9d9" fill-opacity="1" stroke="#d9d9d9" stroke-opacity="1" stroke-width="1" stroke-linecap="square" stroke-linejoin="bevel" transform="matrix(0.719538,0,0,0.718517,145.634,485.28)"
font-family="Helvetica" font-size="13" font-weight="400" font-style="normal" 
>
<text fill="#d9d9d9" fill-opacity="1" stroke="none" xml:space="preserve" x="0" y="0" font-family="Helvetica" font-size="13" font-weight="400" font-style="normal" 
 >-0.1</text>
</g>

<g fill="#d9d9d9" fill-opacity="1" stroke="#d9d9d9" stroke-opacity="1" stroke-width="1" stroke-linecap="square" stroke-linejoin="bevel" transform="matrix(0.719538,0,0,0.718517,219.803,485.28)"
font-family="Helvetica" font-size="13" font-weight="400" font-style="normal" 
>
<text fill="#d9d9d9" fill-opacity="1" stroke="none" xml:space="preserve" x="0" y="0" font-family="Helvetica" font-size="13" font-weight="400" font-style="normal" 
 >-0.05</text>
</g>

<g fill="#d9d9d9" fill-opacity="1" stroke="#d9d9d9" stroke-opacity="1" stroke-width="1" stroke-linecap="square" stroke-linejoin="bevel" transform="matrix(0.719538,0,0,0.718517,305.124,485.28)"
font-family="Helvetica" font-size="13" font-weight="400" font-style="normal" 
>
<text fill="#d9d9d9" fill-opacity="1" stroke="none" xml:space="preserve" x="0" y="0" font-family="Helvetica" font-size="13" font-weight="400" font-style="normal" 
 >0</text>
</g>

<g fill="#d9d9d9" fill-opacity="1" stroke="#d9d9d9" stroke-opacity="1" stroke-width="1" stroke-linecap="square" stroke-linejoin="bevel" transform="matrix(0.719538,0,0,0.718517,375.695,485.28)"
font-family="Helvetica" font-size="13" font-weight="400" font-style="normal" 
>
<text fill="#d9d9d9" fill-opacity="1" stroke="none" xml:space="preserve" x="0" y="0" font-family="Helvetica" font-size="13" font-weight="400" font-style="normal" 
 >0.05</text>
</g>

<g fill="#d9d9d9" fill-opacity="1" stroke="#d9d9d9" stroke-opacity="1" stroke-width="1" stroke-linecap="square" stroke-linejoin="bevel" transform="matrix(0.719538,0,0,0.718517,455.26,485.28)"
font-family="Helvetica" font-size="13" font-weight="400" font-style="normal" 
>
<text fill="#d9d9d9" fill-opacity="1" stroke="none" xml:space="preserve" x="0" y="0" font-family="Helvetica" font-size="13" font-weight="400" font-style="normal" 
 >0.1</text>
</g>

<g fill="#d9d9d9" fill-opacity="1" stroke="#d9d9d9" stroke-opacity="1" stroke-width="1" stroke-linecap="square" stroke-linejoin="bevel" transform="matrix(0.719538,0,0,0.718517,529.789,485.28)"
font-family="Helvetica" font-size="13" font-weight="400" font-style="normal" 
>
<text fill="#d9d9d9" fill-opacity="1" stroke="none" xml:space="preserve" x="0" y="0" font-family="Helvetica" font-size="13" font-weight="400" font-style="normal" 
 >0.15</text>
</g>

<g fill="#d9d9d9" fill-opacity="1" stroke="#d9d9d9" stroke-opacity="1" stroke-width="1" stroke-linecap="square" stroke-linejoin="bevel" transform="matrix(0.719538,0,0,0.718517,609.354,485.28)"
font-family="Helvetica" font-size="13" font-weight="400" font-style="normal" 
>
<text fill="#d9d9d9" fill-opacity="1" stroke="none" xml:space="preserve" x="0" y="0" font-family="Helvetica" font-size="13" font-weight="400" font-style="normal" 
 >0.2</text>
</g>

<g fill="#d9d9d9" fill-opacity="1" stroke="#d9d9d9" stroke-opacity="1" stroke-width="0.694444" stroke-linecap="square" stroke-linejoin="round" transform="matrix(0.719538,0,0,0.718517,-73.7118,-42.8094)"
font-family="Helvetica" font-size="13" font-weight="400" font-style="normal" 
>
<polyline fill="none" vector-effect="none" points="139,717.416 139,61.5844 " />
<polyline fill="none" vector-effect="none" points="139,710.734 147.32,710.734 " />
<polyline fill="none" vector-effect="none" points="139,603.656 147.32,603.656 " />
<polyline fill="none" vector-effect="none" points="139,496.578 147.32,496.578 " />
<polyline fill="none" vector-effect="none" points="139,389.5 147.32,389.5 " />
<polyline fill="none" vector-effect="none" points="139,282.422 147.32,282.422 " />
<polyline fill="none" vector-effect="none" points="139,175.344 147.32,175.344 " />
<polyline fill="none" vector-effect="none" points="139,68.266 147.32,68.266 " />
</g>

<g fill="#d9d9d9" fill-opacity="1" stroke="#d9d9d9" stroke-opacity="1" stroke-width="1" stroke-linecap="square" stroke-linejoin="bevel" transform="matrix(0.719538,0,0,0.718517,0.720462,471.098)"
font-family="Helvetica" font-size="13" font-weight="400" font-style="normal" 
>
<text fill="#d9d9d9" fill-opacity="1" stroke="none" xml:space="preserve" x="0" y="0" font-family="Helvetica" font-size="13" font-weight="400" font-style="normal" 
 >-0.15</text>
</g>

<g fill="#d9d9d9" fill-opacity="1" stroke="#d9d9d9" stroke-opacity="1" stroke-width="1" stroke-linecap="square" stroke-linejoin="bevel" transform="matrix(0.719538,0,0,0.718517,6.47677,394.161)"
font-family="Helvetica" font-size="13" font-weight="400" font-style="normal" 
>
<text fill="#d9d9d9" fill-opacity="1" stroke="none" xml:space="preserve" x="0" y="0" font-family="Helvetica" font-size="13" font-weight="400" font-style="normal" 
 >-0.1</text>
</g>

<g fill="#d9d9d9" fill-opacity="1" stroke="#d9d9d9" stroke-opacity="1" stroke-width="1" stroke-linecap="square" stroke-linejoin="bevel" transform="matrix(0.719538,0,0,0.718517,0.720462,317.224)"
font-family="Helvetica" font-size="13" font-weight="400" font-style="normal" 
>
<text fill="#d9d9d9" fill-opacity="1" stroke="none" xml:space="preserve" x="0" y="0" font-family="Helvetica" font-size="13" font-weight="400" font-style="normal" 
 >-0.05</text>
</g>

<g fill="#d9d9d9" fill-opacity="1" stroke="#d9d9d9" stroke-opacity="1" stroke-width="1" stroke-linecap="square" stroke-linejoin="bevel" transform="matrix(0.719538,0,0,0.718517,17.2698,240.286)"
font-family="Helvetica" font-size="13" font-weight="400" font-style="normal" 
>
<text fill="#d9d9d9" fill-opacity="1" stroke="none" xml:space="preserve" x="0" y="0" font-family="Helvetica" font-size="13" font-weight="400" font-style="normal" 
 >0</text>
</g>

<g fill="#d9d9d9" fill-opacity="1" stroke="#d9d9d9" stroke-opacity="1" stroke-width="1" stroke-linecap="square" stroke-linejoin="bevel" transform="matrix(0.719538,0,0,0.718517,4.31815,163.349)"
font-family="Helvetica" font-size="13" font-weight="400" font-style="normal" 
>
<text fill="#d9d9d9" fill-opacity="1" stroke="none" xml:space="preserve" x="0" y="0" font-family="Helvetica" font-size="13" font-weight="400" font-style="normal" 
 >0.05</text>
</g>

<g fill="#d9d9d9" fill-opacity="1" stroke="#d9d9d9" stroke-opacity="1" stroke-width="1" stroke-linecap="square" stroke-linejoin="bevel" transform="matrix(0.719538,0,0,0.718517,9.35492,86.4116)"
font-family="Helvetica" font-size="13" font-weight="400" font-style="normal" 
>
<text fill="#d9d9d9" fill-opacity="1" stroke="none" xml:space="preserve" x="0" y="0" font-family="Helvetica" font-size="13" font-weight="400" font-style="normal" 
 >0.1</text>
</g>

<g fill="#d9d9d9" fill-opacity="1" stroke="#d9d9d9" stroke-opacity="1" stroke-width="1" stroke-linecap="square" stroke-linejoin="bevel" transform="matrix(0.719538,0,0,0.718517,4.31815,9.47421)"
font-family="Helvetica" font-size="13" font-weight="400" font-style="normal" 
>
<text fill="#d9d9d9" fill-opacity="1" stroke="none" xml:space="preserve" x="0" y="0" font-family="Helvetica" font-size="13" font-weight="400" font-style="normal" 
 >0.15</text>
</g>

<g fill="#2699d4" fill-opacity="0.14902" stroke="none" transform="matrix(7.19538e-05,0,0,7.18517e-05,-73.7118,-42.8094)"
font-family="Helvetica" font-size="13" font-weight="400" font-style="normal" 
>
<path vector-effect="none" fill-rule="evenodd" d="M9.71e+06,7.17416e+06 L9.71e+06,615843 L8.57914e+06,615843 L1.39e+06,615843 L1.39e+06,7.17416e+06 L2.02083e+06,7.17416e+06 L9.71e+06,7.17416e+06"/>
</g>

<g fill="#75ab2e" fill-opacity="0.34902" stroke="none" transform="matrix(7.19538e-05,0,0,7.18517e-05,-73.7118,-42.8094)"
font-family="Helvetica" font-size="13" font-weight="400" font-style="normal" 
>
<path vector-effect="none" fill-rule="evenodd" d="M3.22242e+06,959701 L3.35501e+06,805235 L3.52936e+06,720984 L3.51251e+06,680875 L3.56799e+06,618297 L3.56639e+06,615843 L3.49529e+06,615843 L3.40128e+06,615843 L2.99081e+06,615843 L2.89694e+06,615843 L2.91988e+06,644588 L3.22242e+06,959701"/>
</g>

<g fill="#75ab2e" fill-opacity="0.34902" stroke="none" transform="matrix(7.19538e-05,0,0,7.18517e-05,-73.7118,-42.8094)"
font-family="Helvetica" font-size="13" font-weight="400" font-style="normal" 
>
<path vector-effect="none" fill-rule="evenodd" d="M1.39e+06,615843 L1.39e+06,689169 L1.39e+06,848494 L1.39e+06,920399 L1.39e+06,976538 L1.39e+06,1.04495e+06 L1.39e+06,1.26601e+06 L1.39e+06,2.2839e+06 L1.39e+06,2.3733e+06 L2.60348e+06,884133 L2.6563e+06,922284 L2.63549e+06,844840 L2.8221e+06,615843 L2.57397e+06,615843 L2.63549e+06,844840 L2.60348e+06,884133 L2.232e+06,615843 L1.96517e+06,615843 L1.92938e+06,615843 L1.76155e+06,615843 L1.66003e+06,621006 L1.51768e+06,634974 L1.48298e+06,615843 L1.39e+06,615843"/>
</g>

<g fill="#75ab2e" fill-opacity="0.34902" stroke="none" transform="matrix(7.19538e-05,0,0,7.18517e-05,-73.7118,-42.8094)"
font-family="Helvetica" font-size="13" font-weight="400" font-style="normal" 
>
<path vector-effect="none" fill-rule="evenodd" d="M4.35941e+06,615843 L4.38399e+06,639134 L4.46554e+06,615843 L4.35941e+06,615843"/>
</g>

<g fill="none" stroke="#1a330d" stroke-opacity="1" stroke-width="0.486111" stroke-linecap="square" stroke-linejoin="miter" stroke-miterlimit="5" transform="matrix(0.719538,0,0,0.718517,-73.7118,-42.8094)"
font-family="Helvetica" font-size="13" font-weight="400" font-style="normal" 
>
<polyline fill="none" vector-effect="none" points="356.799,61.8297 351.251,68.0875 352.936,72.0984 335.5,80.5235 322.242,95.9702 291.988,64.4588 289.694,61.5844 " />
<polyline fill="none" vector-effect="none" points="257.397,61.5844 265.63,92.2285 223.2,61.5844 " />
<polyline fill="none" vector-effect="none" points="176.155,61.5844 166.003,62.1007 151.768,63.4975 148.298,61.5844 " />
</g>

<g fill="#1a330d" fill-opacity="1" stroke="#1a330d" stroke-opacity="1" stroke-width="0.486111" stroke-linecap="square" stroke-linejoin="miter" stroke-miterlimit="5" transform="matrix(0.719538,0,0,0.718517,-73.7118,-42.8094)"
font-family="Helvetica" font-size="13" font-weight="400" font-style="normal" 
>
<polyline fill="none" vector-effect="none" points="139,237.33 282.21,61.5844 " />
</g>

<g fill="none" stroke="#1a330d" stroke-opacity="1" stroke-width="0.486111" stroke-linecap="square" stroke-linejoin="miter" stroke-miterlimit="5" transform="matrix(0.719538,0,0,0.718517,-73.7118,-42.8094)"
font-family="Helvetica" font-size="13" font-weight="400" font-style="normal" 
>
<polyline fill="none" vector-effect="none" points="446.554,61.5844 438.399,63.9134 435.941,61.5844 " />
<polyline fill="none" vector-effect="none" points="356.639,61.5844 356.799,61.8297 356.799,61.8297 " />
</g>

<g fill="#75ab2e" fill-opacity="0.34902" stroke="none" transform="matrix(7.19538e-05,0,0,7.18517e-05,-73.7118,-42.8094)"
font-family="Helvetica" font-size="13" font-weight="400" font-style="normal" 
>
<path vector-effect="none" fill-rule="evenodd" d="M5.21784e+06,5.01759e+06 L5.04432e+06,4.8363e+06 L5.11773e+06,4.70852e+06 L5.08226e+06,4.61248e+06 L5.05116e+06,4.47665e+06 L5.10957e+06,4.39642e+06 L5.25863e+06,4.3665e+06 L5.35854e+06,4.33058e+06 L5.36163e+06,4.28648e+06 L5.31638e+06,4.23953e+06 L5.06939e+06,4.30778e+06 L4.9794e+06,4.21835e+06 L4.8408e+06,4.09087e+06 L4.74389e+06,4.04852e+06 L4.59571e+06,3.96935e+06 L4.54461e+06,3.82145e+06 L4.42399e+06,3.78744e+06 L4.37774e+06,3.64554e+06 L4.42248e+06,3.67211e+06 L4.44106e+06,3.64206e+06 L4.40282e+06,3.4942e+06 L4.34485e+06,3.50294e+06 L4.37027e+06,3.57374e+06 L4.28108e+06,3.65085e+06 L4.26081e+06,3.56731e+06 L4.17999e+06,3.58722e+06 L4.22621e+06,3.82642e+06 L4.1094e+06,3.72775e+06 L4.08008e+06,3.49144e+06 L3.9359e+06,3.36908e+06 L3.81601e+06,3.38446e+06 L3.72107e+06,3.52557e+06 L3.41372e+06,3.69847e+06 L3.62043e+06,3.71706e+06 L3.62867e+06,3.83575e+06 L3.49473e+06,3.83784e+06 L3.3555e+06,3.895e+06 L3.27624e+06,4.02965e+06 L3.49576e+06,3.895e+06 L3.5508e+06,4.09905e+06 L3.81398e+06,4.05069e+06 L3.86906e+06,4.11653e+06 L3.97973e+06,4.08983e+06 L3.98448e+06,4.15582e+06 L3.79486e+06,4.20728e+06 L3.63218e+06,4.36597e+06 L3.59499e+06,4.4905e+06 L3.51337e+06,4.52651e+06 L3.42274e+06,4.57611e+06 L3.28516e+06,4.55e+06 L3.12437e+06,4.36734e+06 L2.95348e+06,4.26872e+06 L2.86206e+06,4.13372e+06 L2.68187e+06,4.1425e+06 L2.66956e+06,4.18769e+06 L2.82132e+06,4.27799e+06 L2.71682e+06,4.31628e+06 L2.28558e+06,4.37842e+06 L2.65093e+06,4.45574e+06 L2.67932e+06,4.57141e+06 L2.51052e+06,4.67211e+06 L2.61632e+06,4.79879e+06 L2.54907e+06,4.8434e+06 L2.41219e+06,4.96988e+06 L2.23221e+06,5.08578e+06 L2.06994e+06,5.22153e+06 L1.73643e+06,5.25603e+06 L1.57381e+06,5.56286e+06 L1.75275e+06,5.65367e+06 L1.42215e+06,5.6521e+06 L1.39e+06,5.65399e+06 L1.39e+06,5.71392e+06 L1.39e+06,6.27149e+06 L1.52443e+06,6.22066e+06 L1.89751e+06,6.17828e+06 L2.13703e+06,6.20756e+06 L2.30768e+06,6.06552e+06 L2.8067e+06,6.02201e+06 L3.02042e+06,6.00718e+06 L3.18538e+06,6.03502e+06 L3.64167e+06,5.99743e+06 L3.89761e+06,6.22062e+06 L4.31968e+06,6.12259e+06 L4.37702e+06,5.99855e+06 L4.73292e+06,5.93771e+06 L4.87316e+06,5.9962e+06 L4.8682e+06,5.94192e+06 L4.73292e+06,5.93771e+06 L4.84759e+06,5.89926e+06 L4.8663e+06,5.92108e+06 L4.8682e+06,5.94192e+06 L4.92222e+06,5.9436e+06 L5.25686e+06,5.85861e+06 L5.21675e+06,5.77549e+06 L4.84759e+06,5.89926e+06 L4.7762e+06,5.81603e+06 L5.21675e+06,5.77549e+06 L5.13795e+06,5.61812e+06 L5.34019e+06,5.49392e+06 L5.43661e+06,5.58481e+06 L5.6581e+06,5.27973e+06 L5.73644e+06,5.09781e+06 L5.69338e+06,5.00715e+06 L5.87845e+06,4.72134e+06 L5.93388e+06,4.67713e+06 L6.09727e+06,4.59329e+06 L6.29468e+06,4.30102e+06 L6.21462e+06,4.24533e+06 L6.2422e+06,4.19618e+06 L6.43467e+06,4.15323e+06 L6.66631e+06,4.32438e+06 L6.78925e+06,4.3876e+06 L6.98386e+06,4.45875e+06 L7.11783e+06,4.35276e+06 L7.33083e+06,4.24735e+06 L7.81051e+06,4.01956e+06 L7.99169e+06,3.83133e+06 L8.18727e+06,3.76456e+06 L8.74381e+06,3.82545e+06 L9.43885e+06,3.86501e+06 L9.71e+06,3.87657e+06 L9.71e+06,3.50924e+06 L9.71e+06,2.35305e+06 L9.71e+06,2.10052e+06 L9.00733e+06,2.06862e+06 L8.82807e+06,1.75649e+06 L8.74469e+06,1.59446e+06 L8.53287e+06,1.4643e+06 L7.7714e+06,1.50091e+06 L7.49025e+06,1.49773e+06 L7.3254e+06,1.37065e+06 L7.05681e+06,1.5484e+06 L6.88413e+06,1.92505e+06 L6.87525e+06,2.22085e+06 L6.80285e+06,2.3072e+06 L6.67938e+06,2.53214e+06 L6.66631e+06,2.66063e+06 L6.79565e+06,2.76195e+06 L6.54003e+06,2.68344e+06 L6.40941e+06,2.82482e+06 L6.28022e+06,2.95841e+06 L6.31218e+06,3.06435e+06 L6.25978e+06,3.17859e+06 L6.15464e+06,3.29424e+06 L6.05266e+06,3.40468e+06 L6.10899e+06,3.55047e+06 L6.05981e+06,3.70033e+06 L6.00965e+06,3.79857e+06 L6.06082e+06,3.99223e+06 L5.95922e+06,3.94281e+06 L6.11157e+06,4.09129e+06 L6.21617e+06,4.14468e+06 L6.13932e+06,4.29125e+06 L6.21182e+06,4.37737e+06 L5.99788e+06,4.45576e+06 L5.79567e+06,4.41318e+06 L5.84332e+06,4.46617e+06 L5.82877e+06,4.68903e+06 L5.67864e+06,4.6444e+06 L5.48468e+06,4.57204e+06 L5.46366e+06,4.76179e+06 L5.65931e+06,4.84308e+06 L5.64147e+06,4.9973e+06 L5.53147e+06,5.02929e+06 L5.36573e+06,5.07482e+06 L5.21784e+06,5.01759e+06"/>
</g>

<g fill="none" stroke="#1a330d" stroke-opacity="1" stroke-width="0.486111" stroke-linecap="square" stroke-linejoin="miter" stroke-miterlimit="5" transform="matrix(0.719538,0,0,0.718517,-73.7118,-42.8094)"
font-family="Helvetica" font-size="13" font-weight="400" font-style="normal" 
>
<polyline fill="none" vector-effect="none" points="327.624,402.965 335.55,389.5 349.473,383.784 362.867,383.575 362.043,371.706 341.372,369.847 372.107,352.557 381.601,338.446 393.59,336.908 408.008,349.144 410.94,372.775 422.62,382.642 417.999,358.722 426.081,356.731 428.108,365.085 437.027,357.374 434.485,350.294 440.282,349.42 444.106,364.206 442.248,367.211 437.774,364.554 442.399,378.744 454.461,382.145 459.571,396.935 474.389,404.852 484.08,409.087 497.94,421.835 506.939,430.778 531.638,423.953 536.162,428.648 535.854,433.058 525.863,436.65 510.957,439.642 505.116,447.665 508.226,461.248 511.773,470.852 504.432,483.63 521.784,501.759 536.573,507.482 553.147,502.929 564.147,499.73 565.931,484.308 546.366,476.179 548.468,457.204 567.864,464.44 582.877,468.903 584.332,446.617 579.567,441.318 599.788,445.576 621.182,437.737 613.932,429.125 621.617,414.468 611.157,409.129 595.922,394.281 606.082,399.223 600.965,379.857 605.981,370.033 610.899,355.047 605.266,340.468 615.464,329.424 625.978,317.859 631.218,306.435 628.022,295.841 640.94,282.482 654.003,268.344 679.565,276.195 666.63,266.063 667.938,253.214 680.285,230.72 687.525,222.085 688.412,192.505 705.681,154.84 732.54,137.065 749.025,149.773 777.14,150.091 853.287,146.43 874.469,159.446 882.807,175.649 900.733,206.862 971,210.052 " />
<polyline fill="none" vector-effect="none" points="971,387.657 943.885,386.501 874.381,382.545 818.727,376.456 799.169,383.133 781.051,401.956 733.083,424.735 711.783,435.276 698.386,445.875 678.925,438.76 666.63,432.438 643.467,415.323 624.22,419.618 621.462,424.533 629.468,430.102 609.727,459.329 593.388,467.713 587.845,472.134 569.338,500.715 573.644,509.781 565.81,527.973 543.661,558.481 534.019,549.392 513.795,561.812 521.675,577.549 477.62,581.603 486.63,592.108 487.316,599.62 473.292,593.771 521.675,577.549 525.686,585.861 492.222,594.36 473.292,593.771 437.702,599.855 431.968,612.259 389.761,622.062 364.167,599.743 318.538,603.502 302.042,600.718 280.67,602.201 230.768,606.552 213.703,620.756 189.751,617.828 152.443,622.066 139,627.148 " />
<polyline fill="none" vector-effect="none" points="139,565.399 142.215,565.21 175.275,565.367 157.381,556.286 173.643,525.603 206.994,522.153 223.221,508.578 241.219,496.988 254.907,484.34 261.632,479.879 251.052,467.211 267.932,457.141 265.093,445.574 228.558,437.842 271.682,431.628 282.132,427.799 266.956,418.769 268.187,414.25 286.206,413.372 295.348,426.872 312.437,436.734 328.516,455 342.274,457.611 351.337,452.651 359.499,449.05 363.218,436.597 379.486,420.728 398.448,415.582 397.973,408.983 386.906,411.653 381.398,405.069 355.08,409.905 349.576,389.5 327.624,402.965 327.624,402.965 " />
</g>

<g fill="none" stroke="#000000" stroke-opacity="1" stroke-width="0.694444" stroke-linecap="butt" stroke-linejoin="round" transform="matrix(0.719538,0,0,0.718517,-73.7118,-42.8094)"
font-family="Helvetica" font-size="13" font-weight="400" font-style="normal" 
>
<polyline fill="none" vector-effect="none" points="643.686,717.416 640.885,716.024 632.707,711.962 624.71,707.99 616.884,704.103 609.219,700.296 601.705,696.564 594.334,692.903 587.098,689.309 579.988,685.778 572.996,682.305 566.117,678.888 559.342,675.523 552.666,672.207 546.082,668.937 539.585,665.71 533.169,662.523 526.828,659.374 520.558,656.26 514.354,653.178 508.21,650.127 502.123,647.104 496.088,644.106 490.1,641.132 484.155,638.18 478.25,635.247 472.381,632.331 466.543,629.431 460.732,626.546 454.946,623.672 449.18,620.808 443.43,617.952 437.694,615.103 431.968,612.259 426.248,609.418 420.53,606.578 414.812,603.738 409.089,600.896 403.359,598.049 397.617,595.198 391.861,592.338 386.086,589.47 380.289,586.591 374.466,583.699 368.613,580.792 362.728,577.869 356.805,574.927 350.841,571.965 344.832,568.98 338.773,565.971 332.66,562.935 326.489,559.87 320.255,556.773 313.953,553.643 307.578,550.477 301.125,547.272 294.589,544.025 287.963,540.734 281.242,537.396 274.419,534.007 267.489,530.565 260.443,527.066 253.276,523.506 245.978,519.881 238.542,516.188 230.96,512.422 223.221,508.578 215.317,504.653 207.238,500.639 " />
<polyline fill="none" vector-effect="none" points="871.778,699.875 857.612,694.926 844.051,690.188 831.052,685.646 818.57,681.285 806.571,677.092 795.018,673.055 783.881,669.164 773.131,665.408 762.743,661.778 752.692,658.266 742.956,654.865 733.515,651.566 724.351,648.364 715.445,645.253 706.783,642.226 698.349,639.279 690.129,636.407 682.111,633.605 674.281,630.87 666.63,628.196 659.147,625.582 651.822,623.022 644.644,620.514 637.607,618.056 630.701,615.643 623.919,613.273 617.254,610.944 610.698,608.654 604.245,606.399 597.889,604.178 591.624,601.989 585.443,599.829 579.343,597.698 573.317,595.592 567.36,593.511 561.468,591.453 555.637,589.415 549.861,587.397 544.137,585.397 538.46,583.413 532.827,581.445 527.233,579.491 521.675,577.549 516.149,575.618 510.651,573.697 505.178,571.785 499.726,569.88 494.293,567.981 488.874,566.088 483.466,564.198 478.066,562.312 472.671,560.426 467.277,558.542 461.881,556.656 456.479,554.769 451.069,552.879 445.648,550.985 440.211,549.085 434.755,547.179 429.277,545.265 423.774,543.342 418.241,541.409 412.676,539.464 407.074,537.507 401.432,535.535 395.745,533.549 390.011,531.545 384.224,529.523 378.38,527.481 372.475,525.418 366.505,523.332 360.464,521.221 354.347,519.084 348.149,516.918 341.865,514.723 335.489,512.495 329.015,510.233 322.437,507.935 315.748,505.597 308.941,503.219 302.008,500.797 294.942,498.328 287.735,495.81 280.377,493.239 272.86,490.612 265.172,487.926 257.305,485.177 249.245,482.361 240.982,479.474 232.501,476.511 " />
<polyline fill="none" vector-effect="none" points="843.993,594.121 832.103,591.294 820.673,588.576 809.671,585.96 799.066,583.438 788.832,581.005 778.944,578.653 769.378,576.379 760.113,574.176 751.13,572.04 742.412,569.966 733.941,567.952 725.702,565.993 717.681,564.086 709.865,562.227 702.241,560.414 694.798,558.644 687.525,556.915 680.413,555.224 673.451,553.568 666.63,551.947 659.944,550.357 653.383,548.796 646.94,547.264 640.609,545.759 634.382,544.278 628.254,542.821 622.218,541.386 616.269,539.971 610.401,538.576 604.609,537.199 598.889,535.838 593.235,534.494 587.643,533.164 582.109,531.848 576.628,530.545 571.196,529.253 565.81,527.973 560.465,526.702 555.159,525.44 549.886,524.186 544.645,522.94 539.431,521.7 534.24,520.466 529.071,519.236 523.919,518.011 518.781,516.79 513.654,515.57 508.535,514.353 503.421,513.137 498.308,511.921 493.194,510.705 488.075,509.488 482.948,508.269 477.811,507.048 472.66,505.823 467.491,504.593 462.302,503.36 457.089,502.12 451.848,500.874 446.577,499.621 441.272,498.359 435.93,497.089 430.545,495.808 425.116,494.517 419.637,493.214 414.105,491.899 408.516,490.57 402.865,489.226 397.148,487.867 391.359,486.49 385.495,485.096 379.55,483.682 373.518,482.248 367.393,480.792 361.171,479.312 354.845,477.808 348.407,476.277 341.852,474.718 335.171,473.129 328.357,471.509 321.401,469.855 314.296,468.165 307.03,466.438 299.595,464.67 291.98,462.859 284.172,461.003 276.161,459.097 267.932,457.141 259.472,455.129 250.764,453.059 " />
<polyline fill="none" vector-effect="none" points="828.286,512.259 817.634,510.711 807.369,509.219 797.465,507.78 787.899,506.39 778.646,505.046 769.687,503.744 761.003,502.482 752.576,501.257 744.39,500.068 736.43,498.911 728.682,497.785 721.134,496.688 713.773,495.619 706.587,494.575 699.568,493.555 692.704,492.557 685.986,491.581 679.407,490.625 672.958,489.688 666.63,488.769 660.418,487.866 654.315,486.979 648.313,486.107 642.406,485.249 636.59,484.404 630.858,483.571 625.206,482.749 619.627,481.939 614.118,481.138 608.674,480.347 603.29,479.565 597.963,478.791 592.687,478.024 587.46,477.264 582.277,476.511 577.135,475.764 572.03,475.022 566.959,474.286 561.918,473.553 556.904,472.824 551.914,472.099 546.944,471.377 541.992,470.658 537.054,469.94 532.127,469.224 527.208,468.509 522.294,467.795 517.383,467.082 512.471,466.368 507.555,465.654 502.633,464.938 497.7,464.222 492.755,463.503 487.793,462.782 482.813,462.058 477.81,461.331 472.782,460.601 467.726,459.866 462.637,459.127 457.512,458.382 452.349,457.632 447.143,456.875 441.89,456.112 436.588,455.341 431.23,454.563 425.815,453.776 420.337,452.98 414.791,452.174 409.173,451.358 403.479,450.53 397.703,449.691 391.839,448.839 385.882,447.973 379.826,447.094 373.665,446.198 367.393,445.287 361.001,444.358 354.483,443.411 347.831,442.444 341.036,441.457 334.09,440.448 326.983,439.415 319.705,438.357 312.245,437.273 304.591,436.161 296.732,435.019 288.652,433.845 280.339,432.637 271.777,431.393 262.948,430.11 " />
<polyline fill="none" vector-effect="none" points="820.444,442.105 810.396,441.474 800.702,440.864 791.339,440.276 782.284,439.707 773.517,439.156 765.019,438.622 756.773,438.103 748.764,437.6 740.976,437.11 733.396,436.634 726.012,436.17 718.811,435.717 711.783,435.276 704.917,434.844 698.203,434.422 691.634,434.009 685.199,433.605 678.892,433.208 672.705,432.819 666.63,432.438 660.662,432.063 654.794,431.694 649.019,431.331 643.333,430.973 637.729,430.621 632.203,430.274 626.75,429.931 621.365,429.593 616.044,429.258 610.781,428.927 605.574,428.6 600.418,428.276 595.31,427.955 590.245,427.637 585.219,427.321 580.231,427.007 575.275,426.696 570.35,426.386 565.45,426.078 560.574,425.772 555.719,425.467 550.88,425.163 546.056,424.859 541.243,424.557 536.438,424.255 531.638,423.953 526.84,423.652 522.042,423.35 517.24,423.048 512.432,422.746 507.615,422.443 502.785,422.14 497.94,421.835 493.076,421.529 488.19,421.222 483.28,420.914 478.343,420.603 473.374,420.291 468.37,419.977 463.329,419.66 458.246,419.34 453.118,419.018 447.941,418.693 442.711,418.364 437.424,418.032 432.077,417.696 426.663,417.355 421.18,417.011 415.622,416.661 409.984,416.307 404.262,415.947 398.448,415.582 392.539,415.211 386.527,414.833 380.406,414.448 374.169,414.056 367.809,413.656 361.319,413.248 354.69,412.832 347.914,412.406 340.981,411.97 333.881,411.524 326.605,411.066 319.14,410.597 311.474,410.115 303.595,409.62 295.488,409.111 287.138,408.586 278.53,408.045 269.644,407.486 " />
<polyline fill="none" vector-effect="none" points="818.727,376.456 808.811,376.611 799.241,376.76 789.995,376.905 781.051,377.044 772.39,377.179 763.993,377.311 755.843,377.438 747.925,377.562 740.224,377.682 732.728,377.799 725.423,377.913 718.299,378.024 711.343,378.133 704.548,378.239 697.902,378.343 691.397,378.444 685.025,378.544 678.778,378.641 672.649,378.737 666.63,378.831 660.716,378.923 654.9,379.014 649.176,379.104 643.538,379.192 637.982,379.279 632.502,379.364 627.093,379.449 621.751,379.532 616.471,379.614 611.25,379.696 606.082,379.777 600.965,379.857 595.893,379.936 590.864,380.014 585.875,380.092 580.921,380.17 575.999,380.246 571.106,380.323 566.238,380.399 561.393,380.475 556.568,380.55 551.759,380.625 546.964,380.7 542.179,380.775 537.401,380.849 532.628,380.924 527.857,380.998 523.085,381.073 518.308,381.147 513.524,381.222 508.731,381.297 503.924,381.372 499.102,381.447 494.26,381.523 489.397,381.599 484.508,381.675 479.591,381.752 474.642,381.829 469.658,381.907 464.636,381.986 459.571,382.065 454.461,382.145 449.302,382.225 444.089,382.307 438.819,382.389 433.487,382.472 428.089,382.556 422.62,382.642 417.077,382.728 411.452,382.816 405.742,382.905 399.941,382.996 394.042,383.088 388.041,383.182 381.93,383.277 375.702,383.375 369.35,383.474 362.867,383.575 356.244,383.678 349.473,383.784 342.543,383.892 335.446,384.003 328.171,384.117 320.705,384.233 313.038,384.353 305.155,384.476 297.043,384.603 288.686,384.733 280.068,384.868 271.17,385.007 " />
<polyline fill="none" vector-effect="none" points="822.785,309.716 812.558,310.689 802.695,311.626 793.171,312.532 783.963,313.407 775.051,314.254 766.416,315.075 758.039,315.871 749.906,316.644 741.999,317.396 734.305,318.127 726.812,318.839 719.508,319.534 712.38,320.211 705.418,320.873 698.613,321.52 691.955,322.153 685.436,322.773 679.047,323.38 672.781,323.976 666.63,324.56 660.589,325.135 654.65,325.699 648.807,326.255 643.054,326.801 637.386,327.34 631.798,327.871 626.285,328.395 620.842,328.913 615.464,329.424 610.146,329.93 604.886,330.43 599.678,330.925 594.519,331.415 589.405,331.901 584.332,332.383 579.297,332.862 574.296,333.337 569.326,333.81 564.384,334.28 559.466,334.747 554.57,335.213 549.691,335.676 544.828,336.139 539.977,336.6 535.135,337.06 530.299,337.52 525.466,337.979 520.633,338.439 515.798,338.898 510.957,339.358 506.107,339.819 501.246,340.281 496.37,340.745 491.477,341.21 486.562,341.677 481.624,342.147 476.658,342.619 471.662,343.094 466.633,343.572 461.566,344.053 456.458,344.539 451.306,345.029 446.106,345.523 440.853,346.022 435.545,346.527 430.176,347.037 424.743,347.554 419.24,348.077 413.664,348.607 408.008,349.144 402.269,349.69 396.44,350.244 390.515,350.807 384.489,351.38 378.356,351.963 372.107,352.557 365.737,353.163 359.238,353.78 352.602,354.411 345.819,355.056 338.882,355.716 331.779,356.391 324.501,357.082 317.037,357.792 309.375,358.52 301.501,359.269 293.402,360.039 285.063,360.831 276.467,361.649 267.598,362.492 " />
<polyline fill="none" vector-effect="none" points="833.465,235.918 822.408,237.916 811.762,239.84 801.499,241.694 791.592,243.484 782.017,245.214 772.753,246.888 763.778,248.51 755.075,250.082 746.627,251.609 738.416,253.092 730.429,254.535 722.652,255.941 715.073,257.31 707.678,258.646 700.458,259.951 693.401,261.226 686.499,262.473 679.742,263.694 673.122,264.89 666.63,266.063 660.26,267.214 654.003,268.344 647.854,269.456 641.805,270.549 635.851,271.624 629.987,272.684 624.205,273.729 618.502,274.759 612.872,275.776 607.311,276.781 601.814,277.774 596.377,278.757 590.994,279.729 585.663,280.693 580.38,281.647 575.14,282.594 569.939,283.534 564.775,284.467 559.644,285.394 554.542,286.316 549.467,287.233 544.414,288.146 539.38,289.055 534.363,289.962 529.359,290.866 524.366,291.768 519.379,292.669 514.397,293.569 509.415,294.47 504.432,295.37 499.443,296.271 494.447,297.174 489.439,298.079 484.417,298.986 479.377,299.897 474.317,300.811 469.233,301.73 464.122,302.653 458.981,303.582 453.805,304.518 448.593,305.459 443.339,306.409 438.04,307.366 432.693,308.332 427.293,309.308 421.836,310.294 416.319,311.291 410.736,312.3 405.082,313.321 399.354,314.356 393.546,315.405 387.653,316.47 381.669,317.552 375.588,318.65 369.404,319.768 363.111,320.905 356.702,322.063 350.169,323.243 343.505,324.447 336.702,325.677 329.75,326.933 322.641,328.217 315.365,329.532 307.911,330.879 300.269,332.26 292.424,333.677 284.366,335.133 276.079,336.63 267.549,338.171 258.759,339.76 " />
<polyline fill="none" vector-effect="none" points="853.287,146.43 840.647,149.962 828.515,153.353 816.852,156.612 805.625,159.749 794.805,162.773 784.362,165.691 774.272,168.511 764.511,171.239 755.058,173.88 745.892,176.442 736.996,178.928 728.352,181.343 719.946,183.693 711.761,185.98 703.786,188.208 696.007,190.382 688.412,192.505 680.992,194.578 673.734,196.606 666.63,198.591 659.672,200.536 652.849,202.443 646.154,204.314 639.58,206.151 633.12,207.956 626.767,209.731 620.514,211.479 614.355,213.2 608.284,214.896 602.297,216.569 596.388,218.221 590.551,219.852 584.782,221.464 579.076,223.059 573.429,224.637 567.837,226.199 562.295,227.748 556.799,229.284 551.346,230.808 545.931,232.321 540.551,233.824 535.203,235.319 529.883,236.806 524.587,238.286 519.312,239.76 514.055,241.229 508.813,242.694 503.582,244.156 498.358,245.615 493.14,247.073 487.923,248.531 482.705,249.99 477.482,251.449 472.252,252.911 467.01,254.376 461.753,255.844 456.48,257.318 451.185,258.798 445.866,260.284 440.519,261.779 435.141,263.281 429.728,264.794 424.276,266.317 418.783,267.853 413.243,269.401 407.653,270.963 402.008,272.54 396.306,274.134 390.54,275.745 384.706,277.375 378.8,279.026 372.816,280.698 366.75,282.393 360.596,284.113 354.347,285.859 347.998,287.633 341.543,289.437 334.975,291.273 328.286,293.142 321.469,295.047 314.517,296.99 307.42,298.973 300.17,300.999 292.757,303.071 285.171,305.191 277.401,307.362 269.435,309.588 261.26,311.872 252.864,314.219 244.232,316.631 " />
<polyline fill="none" vector-effect="none" points="797.82,61.5844 792.261,63.8226 780.634,68.5047 769.418,73.0209 758.587,77.3825 748.113,81.5998 737.975,85.6823 728.149,89.6388 718.617,93.4773 709.359,97.2052 700.359,100.829 691.6,104.356 683.068,107.792 674.749,111.142 666.63,114.411 658.701,117.604 650.948,120.726 643.362,123.78 635.934,126.772 628.653,129.703 621.511,132.579 614.5,135.402 607.613,138.176 600.841,140.902 594.179,143.585 587.619,146.227 581.155,148.83 574.781,151.396 568.492,153.928 562.282,156.429 556.146,158.9 550.079,161.343 544.076,163.76 538.133,166.153 532.244,168.525 526.407,170.875 520.616,173.207 514.868,175.522 509.158,177.821 503.483,180.106 497.839,182.379 492.222,184.64 486.63,186.892 481.057,189.136 475.502,191.373 469.959,193.605 464.427,195.833 458.901,198.058 453.378,200.282 447.855,202.506 442.328,204.731 436.795,206.96 431.251,209.192 425.693,211.43 420.118,213.675 414.522,215.928 408.902,218.191 403.255,220.465 397.575,222.752 391.861,225.053 386.107,227.37 380.31,229.705 374.466,232.058 368.57,234.432 362.619,236.828 356.608,239.249 350.532,241.695 344.386,244.17 338.166,246.675 331.866,249.212 325.481,251.783 319.004,254.391 312.431,257.038 305.755,259.726 298.968,262.459 292.065,265.239 285.037,268.069 277.877,270.952 270.577,273.891 263.128,276.891 255.521,279.954 247.745,283.085 239.791,286.288 231.646,289.568 223.3,292.928 " />
<polyline fill="none" vector-effect="none" points="876.987,717.416 875.523,712.553 871.778,699.875 868.243,687.668 864.905,675.895 861.752,664.526 858.771,653.533 855.952,642.889 853.287,632.57 850.766,622.553 848.381,612.818 846.126,603.347 843.993,594.121 841.977,585.125 840.072,576.342 838.273,567.759 836.575,559.363 834.974,551.141 833.465,543.082 832.045,535.174 830.711,527.407 829.459,519.772 828.286,512.259 827.19,504.859 826.169,497.564 825.22,490.367 824.341,483.259 823.53,476.234 822.785,469.284 822.106,462.402 821.49,455.583 820.936,448.819 820.444,442.105 820.012,435.435 819.639,428.803 819.324,422.204 819.068,415.631 818.869,409.08 818.727,402.544 818.642,396.019 818.614,389.5 818.642,382.981 818.727,376.456 818.869,369.92 819.068,363.369 819.324,356.796 819.639,350.197 820.012,343.565 820.444,336.895 820.936,330.181 821.49,323.417 822.106,316.598 822.785,309.716 823.53,302.766 824.341,295.741 825.22,288.633 826.169,281.436 827.19,274.141 828.286,266.741 829.459,259.228 830.711,251.593 832.045,243.826 833.465,235.918 834.974,227.859 836.575,219.637 838.273,211.241 840.072,202.658 841.977,193.875 843.993,184.879 846.126,175.653 848.381,166.182 850.766,156.447 853.287,146.43 855.952,136.111 858.771,125.467 861.752,114.474 864.905,103.105 868.243,91.3325 871.778,79.1246 875.523,66.447 876.987,61.5844 " />
<polyline fill="none" vector-effect="none" points="760.847,717.416 760.273,713.452 758.587,701.618 756.991,690.211 755.48,679.201 754.049,668.561 752.692,658.266 751.405,648.293 750.184,638.62 749.025,629.227 747.926,620.097 746.882,611.212 745.892,602.558 744.952,594.12 744.06,585.883 743.214,577.836 742.412,569.966 741.651,562.264 740.93,554.717 740.248,547.317 739.602,540.055 738.992,532.921 738.416,525.908 737.873,519.007 737.362,512.212 736.881,505.516 736.43,498.911 736.008,492.392 735.614,485.952 735.248,479.586 734.908,473.287 734.594,467.051 734.305,460.873 734.042,454.747 733.803,448.668 733.588,442.632 733.396,436.634 733.228,430.67 733.083,424.735 732.96,418.825 732.861,412.935 732.783,407.062 732.728,401.201 732.695,395.349 732.684,389.5 732.695,383.651 732.728,377.799 732.783,371.938 732.861,366.065 732.96,360.175 733.083,354.265 733.228,348.33 733.396,342.366 733.588,336.368 733.803,330.332 734.042,324.253 734.305,318.127 734.594,311.949 734.908,305.713 735.248,299.414 735.614,293.048 736.008,286.608 736.43,280.089 736.881,273.484 737.362,266.788 737.873,259.993 738.416,253.092 738.992,246.079 739.602,238.945 740.248,231.683 740.93,224.283 741.651,216.736 742.412,209.034 743.214,201.164 744.06,193.117 744.952,184.881 745.892,176.442 746.882,167.788 747.926,158.903 749.025,149.773 750.184,140.38 751.405,130.707 752.692,120.734 754.049,110.439 755.48,99.7988 756.991,88.7893 758.587,77.3825 " />
<polyline fill="none" vector-effect="none" points="666.63,717.416 666.63,717.127 666.63,705.873 666.63,695.017 666.63,684.535 666.63,674.4 666.63,664.589 666.63,655.082 666.63,645.86 666.63,636.903 666.63,628.196 666.63,619.724 666.63,611.471 666.63,603.426 666.63,595.574 666.63,587.905 666.63,580.409 666.63,573.073 666.63,565.891 666.63,558.851 666.63,551.947 666.63,545.169 666.63,538.511 666.63,531.965 666.63,525.525 666.63,519.184 666.63,512.937 666.63,506.777 666.63,500.699 666.63,494.698 666.63,488.769 666.63,482.906 666.63,477.106 666.63,471.363 666.63,465.674 666.63,460.034 666.63,454.44 666.63,448.887 666.63,443.371 666.63,437.889 666.63,432.438 666.63,427.013 666.63,421.611 666.63,416.229 666.63,410.864 666.63,405.512 666.63,400.169 666.63,394.833 666.63,389.5 666.63,384.167 666.63,378.831 666.63,373.488 666.63,368.136 666.63,362.771 666.63,357.389 666.63,351.987 666.63,346.562 666.63,341.111 666.63,335.629 666.63,330.113 666.63,324.56 666.63,318.966 666.63,313.326 666.63,307.637 666.63,301.894 666.63,296.094 666.63,290.231 666.63,284.302 666.63,278.301 666.63,272.223 666.63,266.063 666.63,259.816 666.63,253.475 666.63,247.035 666.63,240.489 666.63,233.831 666.63,227.053 666.63,220.149 666.63,213.109 666.63,205.927 666.63,198.591 666.63,191.095 666.63,183.426 666.63,175.574 666.63,167.529 666.63,159.276 666.63,150.804 666.63,142.097 666.63,133.14 666.63,123.918 666.63,114.411 " />
<polyline fill="none" vector-effect="none" points="587.098,689.309 588.427,679.622 589.691,670.242 590.896,661.148 592.043,652.323 593.137,643.75 594.179,635.415 595.173,627.303 596.121,619.4 597.026,611.696 597.889,604.178 598.713,596.836 599.498,589.659 600.248,582.639 600.964,575.766 601.646,569.032 602.297,562.431 602.918,555.953 603.509,549.593 604.073,543.343 604.609,537.199 605.12,531.153 605.605,525.2 606.066,519.335 606.504,513.553 606.919,507.849 607.311,502.219 607.683,496.658 608.033,491.161 608.363,485.726 608.674,480.347 608.965,475.022 609.238,469.746 609.492,464.516 609.727,459.329 609.946,454.182 610.146,449.07 610.33,443.992 610.497,438.945 610.647,433.924 610.781,428.927 610.899,423.953 611.001,418.996 611.087,414.056 611.157,409.129 611.211,404.213 611.25,399.304 611.273,394.401 611.281,389.5 611.273,384.599 611.25,379.696 611.211,374.787 611.157,369.871 611.087,364.944 611.001,360.004 610.899,355.047 610.781,350.073 610.647,345.076 610.497,340.055 610.33,335.008 610.146,329.93 609.946,324.818 609.727,319.671 609.492,314.484 609.238,309.254 608.965,303.978 608.674,298.653 608.363,293.274 608.033,287.839 607.683,282.342 607.311,276.781 606.919,271.151 606.504,265.447 606.066,259.665 605.605,253.8 605.12,247.847 604.609,241.801 604.073,235.657 603.509,229.407 602.918,223.047 602.297,216.569 601.646,209.968 600.964,203.234 600.248,196.361 599.498,189.341 598.713,182.164 597.889,174.822 597.026,167.304 596.121,159.6 595.173,151.697 594.179,143.585 " />
<polyline fill="none" vector-effect="none" points="520.558,656.26 522.734,648.117 524.812,640.196 526.797,632.482 528.695,624.965 530.51,617.633 532.244,610.475 533.904,603.484 535.491,596.648 537.008,589.961 538.46,583.413 539.849,576.999 541.177,570.709 542.447,564.539 543.661,558.481 544.822,552.529 545.931,546.679 546.99,540.924 548.001,535.261 548.966,529.683 549.886,524.186 550.763,518.767 551.598,513.42 552.392,508.142 553.147,502.929 553.863,497.778 554.542,492.684 555.185,487.645 555.792,482.658 556.365,477.719 556.904,472.824 557.41,467.973 557.884,463.16 558.325,458.385 558.736,453.644 559.116,448.934 559.466,444.253 559.787,439.599 560.078,434.969 560.341,430.361 560.574,425.772 560.78,421.2 560.958,416.644 561.108,412.101 561.23,407.568 561.326,403.043 561.393,398.525 561.434,394.012 561.448,389.5 561.434,384.988 561.393,380.475 561.326,375.957 561.23,371.432 561.108,366.899 560.958,362.356 560.78,357.8 560.574,353.228 560.341,348.639 560.078,344.031 559.787,339.401 559.466,334.747 559.116,330.066 558.736,325.356 558.325,320.615 557.884,315.84 557.41,311.027 556.904,306.176 556.365,301.281 555.792,296.342 555.185,291.355 554.542,286.316 553.863,281.222 553.147,276.071 552.392,270.858 551.598,265.58 550.763,260.233 549.886,254.814 548.966,249.317 548.001,243.739 546.99,238.076 545.931,232.321 544.822,226.471 543.661,220.519 542.447,214.461 541.177,208.291 539.849,202.001 538.46,195.587 537.008,189.039 535.491,182.352 533.904,175.516 532.244,168.525 " />
<polyline fill="none" vector-effect="none" points="460.732,626.546 463.462,619.692 466.077,612.996 468.585,606.448 470.988,600.043 473.292,593.771 475.502,587.627 477.62,581.603 479.651,575.694 481.599,569.895 483.466,564.198 485.256,558.601 486.971,553.096 488.615,547.681 490.189,542.351 491.697,537.1 493.14,531.927 494.521,526.825 495.841,521.793 497.103,516.826 498.308,511.921 499.458,507.076 500.554,502.286 501.598,497.549 502.592,492.863 503.536,488.224 504.432,483.63 505.281,479.078 506.084,474.567 506.841,470.092 507.555,465.654 508.226,461.248 508.854,456.873 509.441,452.527 509.986,448.208 510.491,443.913 510.957,439.642 511.383,435.391 511.771,431.159 512.121,426.945 512.432,422.746 512.707,418.561 512.944,414.387 513.144,410.224 513.307,406.069 513.434,401.921 513.524,397.778 513.579,393.638 513.597,389.5 513.579,385.362 513.524,381.222 513.434,377.079 513.307,372.931 513.144,368.776 512.944,364.613 512.707,360.439 512.432,356.254 512.121,352.055 511.771,347.841 511.383,343.609 510.957,339.358 510.491,335.087 509.986,330.792 509.441,326.473 508.854,322.127 508.226,317.752 507.555,313.346 506.841,308.908 506.084,304.433 505.281,299.922 504.432,295.37 503.536,290.776 502.592,286.137 501.598,281.451 500.554,276.714 499.458,271.924 498.308,267.079 497.103,262.174 495.841,257.207 494.521,252.175 493.14,247.073 491.697,241.9 490.189,236.649 488.615,231.319 486.971,225.904 485.256,220.399 483.466,214.802 481.599,209.105 479.651,203.306 477.62,197.397 475.502,191.373 " />
<polyline fill="none" vector-effect="none" points="403.359,598.049 406.434,592.343 409.391,586.744 412.233,581.247 414.966,575.848 417.593,570.542 420.118,565.325 422.546,560.193 424.879,555.141 427.122,550.166 429.277,545.265 431.347,540.433 433.335,535.669 435.244,530.969 437.076,526.329 438.834,521.748 440.519,517.221 442.134,512.748 443.681,508.325 445.161,503.95 446.577,499.621 447.931,495.334 449.222,491.09 450.454,486.884 451.628,482.715 452.745,478.582 453.805,474.482 454.812,470.414 455.764,466.376 456.664,462.366 457.512,458.382 458.31,454.423 459.058,450.487 459.757,446.573 460.407,442.68 461.01,438.804 461.566,434.947 462.075,431.105 462.538,427.277 462.956,423.463 463.329,419.66 463.657,415.867 463.94,412.084 464.18,408.308 464.375,404.539 464.527,400.775 464.636,397.014 464.701,393.257 464.722,389.5 464.701,385.743 464.636,381.986 464.527,378.225 464.375,374.461 464.18,370.692 463.94,366.916 463.657,363.133 463.329,359.34 462.956,355.537 462.538,351.723 462.075,347.895 461.566,344.053 461.01,340.196 460.407,336.32 459.757,332.427 459.058,328.513 458.31,324.577 457.512,320.618 456.664,316.634 455.764,312.624 454.812,308.586 453.805,304.518 452.745,300.418 451.628,296.285 450.454,292.116 449.222,287.91 447.931,283.666 446.577,279.379 445.161,275.05 443.681,270.675 442.134,266.252 440.519,261.779 438.834,257.252 437.076,252.671 435.244,248.031 433.335,243.331 431.347,238.567 429.277,233.735 427.122,228.834 424.879,223.859 422.546,218.807 420.118,213.675 " />
<polyline fill="none" vector-effect="none" points="344.832,568.98 348.072,564.354 351.197,559.794 354.211,555.299 357.117,550.865 359.918,546.49 362.619,542.172 365.222,537.908 367.731,533.695 370.148,529.533 372.475,525.418 374.716,521.349 376.874,517.324 378.949,513.34 380.945,509.397 382.863,505.492 384.706,501.625 386.475,497.792 388.173,493.993 389.8,490.226 391.359,486.49 392.851,482.784 394.278,479.105 395.64,475.453 396.939,471.826 398.177,468.224 399.354,464.644 400.472,461.086 401.532,457.548 402.534,454.03 403.479,450.53 404.369,447.048 405.204,443.581 405.984,440.13 406.712,436.692 407.386,433.268 408.008,429.856 408.579,426.454 409.098,423.063 409.566,419.681 409.984,416.307 410.353,412.94 410.671,409.58 410.94,406.225 411.16,402.875 411.33,399.528 411.452,396.184 411.525,392.841 411.55,389.5 411.525,386.159 411.452,382.816 411.33,379.472 411.16,376.125 410.94,372.775 410.671,369.42 410.353,366.06 409.984,362.693 409.566,359.319 409.098,355.937 408.579,352.546 408.008,349.144 407.386,345.732 406.712,342.308 405.984,338.87 405.204,335.419 404.369,331.952 403.479,328.47 402.534,324.97 401.532,321.452 400.472,317.914 399.354,314.356 398.177,310.776 396.939,307.174 395.64,303.547 394.278,299.895 392.851,296.216 391.359,292.51 389.8,288.774 388.173,285.007 386.475,281.208 384.706,277.375 382.863,273.508 380.945,269.603 378.949,265.66 376.874,261.676 374.716,257.651 372.475,253.582 370.148,249.467 367.731,245.305 365.222,241.092 362.619,236.828 " />
<polyline fill="none" vector-effect="none" points="281.242,537.396 284.445,533.84 287.546,530.317 290.545,526.827 293.447,523.368 296.254,519.94 298.968,516.541 301.591,513.171 304.127,509.827 306.576,506.51 308.941,503.219 311.224,499.952 313.427,496.708 315.551,493.488 317.598,490.289 319.571,487.111 321.469,483.953 323.296,480.815 325.052,477.695 326.738,474.594 328.357,471.509 329.908,468.441 331.394,465.389 332.815,462.352 334.173,459.329 335.468,456.319 336.702,453.323 337.874,450.34 338.987,447.368 340.041,444.407 341.036,441.457 341.974,438.517 342.855,435.586 343.679,432.664 344.447,429.75 345.161,426.843 345.819,423.944 346.423,421.051 346.974,418.164 347.47,415.283 347.914,412.406 348.304,409.533 348.643,406.664 348.928,403.799 349.162,400.936 349.343,398.075 349.473,395.216 349.55,392.358 349.576,389.5 349.55,386.642 349.473,383.784 349.343,380.925 349.162,378.064 348.928,375.201 348.643,372.336 348.304,369.467 347.914,366.594 347.47,363.717 346.974,360.836 346.423,357.949 345.819,355.056 345.161,352.157 344.447,349.25 343.679,346.336 342.855,343.414 341.974,340.483 341.036,337.543 340.041,334.593 338.987,331.632 337.874,328.66 336.702,325.677 335.468,322.681 334.173,319.671 332.815,316.648 331.394,313.611 329.908,310.559 328.357,307.491 326.738,304.406 325.052,301.305 323.296,298.185 321.469,295.047 319.571,291.889 317.598,288.711 315.551,285.512 313.427,282.292 311.224,279.048 308.941,275.781 306.576,272.49 304.127,269.173 301.591,265.829 298.968,262.459 " />
<polyline fill="none" vector-effect="none" points="207.238,500.639 210.113,498.191 212.907,495.752 215.622,493.32 218.258,490.896 220.817,488.48 223.3,486.072 225.709,483.671 228.044,481.277 230.308,478.89 232.501,476.511 234.624,474.138 236.679,471.771 238.666,469.412 240.587,467.058 242.442,464.711 244.232,462.369 245.959,460.033 247.622,457.703 249.224,455.378 250.764,453.059 252.244,450.744 253.664,448.434 255.025,446.129 256.328,443.829 257.572,441.532 258.759,439.24 259.89,436.952 260.965,434.668 261.984,432.387 262.948,430.11 263.857,427.836 264.712,425.565 265.513,423.297 266.261,421.032 266.956,418.769 267.598,416.508 268.187,414.25 268.725,411.994 269.21,409.739 269.644,407.486 270.026,405.235 270.357,402.985 270.636,400.736 270.865,398.487 271.043,396.24 271.17,393.993 271.246,391.746 271.271,389.5 271.246,387.254 271.17,385.007 271.043,382.76 270.865,380.513 270.636,378.264 270.357,376.015 270.026,373.765 269.644,371.514 269.21,369.261 268.725,367.006 268.187,364.75 267.598,362.492 266.956,360.231 266.261,357.968 265.513,355.703 264.712,353.435 263.857,351.164 262.948,348.89 261.984,346.613 260.965,344.332 259.89,342.048 258.759,339.76 257.572,337.468 256.328,335.171 255.025,332.871 253.664,330.566 252.244,328.256 250.764,325.941 249.224,323.622 247.622,321.297 245.959,318.967 244.232,316.631 242.442,314.289 240.587,311.942 238.666,309.588 236.679,307.229 234.624,304.862 232.501,302.489 230.308,300.11 228.044,297.723 225.709,295.329 223.3,292.928 " />
</g>

<g fill="none" stroke="#ff0000" stroke-opacity="1" stroke-width="4.16667" stroke-linecap="butt" stroke-linejoin="round" transform="matrix(0.719538,0,0,0.718517,-73.7118,-42.8094)"
font-family="Helvetica" font-size="13" font-weight="400" font-style="normal" 
>
<polyline fill="none" vector-effect="none" points="738.753,389.5 594.508,190.963 361.113,266.797 361.113,512.203 594.508,588.037 738.753,389.5 " />
</g>
</g>
</svg>
