<?xml version="1.0" encoding="UTF-8" standalone="no"?>
<svg width="220.839mm" height="171.45mm"
 viewBox="0 0 626 486"
 xmlns="http://www.w3.org/2000/svg" xmlns:xlink="http://www.w3.org/1999/xlink"  version="1.2" baseProfile="tiny">
<title>Qt SVG Document</title>
<desc>MATLAB, The MathWorks, Inc. Version 25.2.0.3150157 R2025b Update 4</desc>
<defs>
</defs>
<g fill="none" stroke="black" stroke-width="1" fill-rule="evenodd" stroke-linecap="square" stroke-linejoin="bevel" >

<g fill="#000000" fill-opacity="1" stroke="none" transform="matrix(0.719538,0,0,0.717448,-73.7118,-42.0261)"
font-family="Sans Serif" font-size="9" font-weight="400" font-style="normal" 
>
<path vector-effect="none" fill-rule="evenodd" d="M101,57 L973,57 L973,736 L101,736 L101,57"/>
</g>

<g fill="#121212" fill-opacity="1" stroke="none" transform="matrix(7.19538e-05,0,0,7.17448e-05,-73.7118,-42.0261)"
font-family="Sans Serif" font-size="9" font-weight="400" font-style="normal" 
>
<path vector-effect="none" fill-rule="evenodd" d="M1.39e+06,605843 L1.39e+06,7.16416e+06 L9.71e+06,7.16416e+06 L9.71e+06,605843 L1.39e+06,605843"/>
</g>

<g fill="#d9d9d9" fill-opacity="1" stroke="#d9d9d9" stroke-opacity="1" stroke-width="0.694444" stroke-linecap="square" stroke-linejoin="round" transform="matrix(0.719538,0,0,0.717448,-73.7118,-42.0261)"
font-family="Sans Serif" font-size="9" font-weight="400" font-style="normal" 
>
<polyline fill="none" vector-effect="none" points="139,716.416 971,716.416 " />
<polyline fill="none" vector-effect="none" points="206.526,716.416 206.526,708.096 " />
<polyline fill="none" vector-effect="none" points="313.604,716.416 313.604,708.096 " />
<polyline fill="none" vector-effect="none" points="420.682,716.416 420.682,708.096 " />
<polyline fill="none" vector-effect="none" points="527.76,716.416 527.76,708.096 " />
<polyline fill="none" vector-effect="none" points="634.838,716.416 634.838,708.096 " />
<polyline fill="none" vector-effect="none" points="741.916,716.416 741.916,708.096 " />
<polyline fill="none" vector-effect="none" points="848.994,716.416 848.994,708.096 " />
<polyline fill="none" vector-effect="none" points="956.072,716.416 956.072,708.096 " />
</g>

<g fill="#d9d9d9" fill-opacity="1" stroke="#d9d9d9" stroke-opacity="1" stroke-width="1" stroke-linecap="square" stroke-linejoin="bevel" transform="matrix(0.719538,0,0,0.717448,64.0984,484.56)"
font-family="Helvetica" font-size="13" font-weight="400" font-style="normal" 
>
<text fill="#d9d9d9" fill-opacity="1" stroke="none" xml:space="preserve" x="0" y="0" font-family="Helvetica" font-size="13" font-weight="400" font-style="normal" 
 >-0.15</text>
</g>

<g fill="#d9d9d9" fill-opacity="1" stroke="#d9d9d9" stroke-opacity="1" stroke-width="1" stroke-linecap="square" stroke-linejoin="bevel" transform="matrix(0.719538,0,0,0.717448,144.023,484.56)"
font-family="Helvetica" font-size="13" font-weight="400" font-style="normal" 
>
<text fill="#d9d9d9" fill-opacity="1" stroke="none" xml:space="preserve" x="0" y="0" font-family="Helvetica" font-size="13" font-weight="400" font-style="normal" 
 >-0.1</text>
</g>

<g fill="#d9d9d9" fill-opacity="1" stroke="#d9d9d9" stroke-opacity="1" stroke-width="1" stroke-linecap="square" stroke-linejoin="bevel" transform="matrix(0.719538,0,0,0.717448,218.192,484.56)"
font-family="Helvetica" font-size="13" font-weight="400" font-style="normal" 
>
<text fill="#d9d9d9" fill-opacity="1" stroke="none" xml:space="preserve" x="0" y="0" font-family="Helvetica" font-size="13" font-weight="400" font-style="normal" 
 >-0.05</text>
</g>

<g fill="#d9d9d9" fill-opacity="1" stroke="#d9d9d9" stroke-opacity="1" stroke-width="1" stroke-linecap="square" stroke-linejoin="bevel" transform="matrix(0.719538,0,0,0.717448,303.513,484.56)"
font-family="Helvetica" font-size="13" font-weight="400" font-style="normal" 
>
<text fill="#d9d9d9" fill-opacity="1" stroke="none" xml:space="preserve" x="0" y="0" font-family="Helvetica" font-size="13" font-weight="400" font-style="normal" 
 >0</text>
</g>

<g fill="#d9d9d9" fill-opacity="1" stroke="#d9d9d9" stroke-opacity="1" stroke-width="1" stroke-linecap="square" stroke-linejoin="bevel" transform="matrix(0.719538,0,0,0.717448,374.084,484.56)"
font-family="Helvetica" font-size="13" font-weight="400" font-style="normal" 
>
<text fill="#d9d9d9" fill-opacity="1" stroke="none" xml:space="preserve" x="0" y="0" font-family="Helvetica" font-size="13" font-weight="400" font-style="normal" 
 >0.05</text>
</g>

<g fill="#d9d9d9" fill-opacity="1" stroke="#d9d9d9" stroke-opacity="1" stroke-width="1" stroke-linecap="square" stroke-linejoin="bevel" transform="matrix(0.719538,0,0,0.717448,453.649,484.56)"
font-family="Helvetica" font-size="13" font-weight="400" font-style="normal" 
>
<text fill="#d9d9d9" fill-opacity="1" stroke="none" xml:space="preserve" x="0" y="0" font-family="Helvetica" font-size="13" font-weight="400" font-style="normal" 
 >0.1</text>
</g>

<g fill="#d9d9d9" fill-opacity="1" stroke="#d9d9d9" stroke-opacity="1" stroke-width="1" stroke-linecap="square" stroke-linejoin="bevel" transform="matrix(0.719538,0,0,0.717448,528.178,484.56)"
font-family="Helvetica" font-size="13" font-weight="400" font-style="normal" 
>
<text fill="#d9d9d9" fill-opacity="1" stroke="none" xml:space="preserve" x="0" y="0" font-family="Helvetica" font-size="13" font-weight="400" font-style="normal" 
 >0.15</text>
</g>

<g fill="#d9d9d9" fill-opacity="1" stroke="#d9d9d9" stroke-opacity="1" stroke-width="1" stroke-linecap="square" stroke-linejoin="bevel" transform="matrix(0.719538,0,0,0.717448,607.743,484.56)"
font-family="Helvetica" font-size="13" font-weight="400" font-style="normal" 
>
<text fill="#d9d9d9" fill-opacity="1" stroke="none" xml:space="preserve" x="0" y="0" font-family="Helvetica" font-size="13" font-weight="400" font-style="normal" 
 >0.2</text>
</g>

<g fill="#d9d9d9" fill-opacity="1" stroke="#d9d9d9" stroke-opacity="1" stroke-width="0.694444" stroke-linecap="square" stroke-linejoin="round" transform="matrix(0.719538,0,0,0.717448,-73.7118,-42.0261)"
font-family="Helvetica" font-size="13" font-weight="400" font-style="normal" 
>
<polyline fill="none" vector-effect="none" points="139,716.416 139,60.5844 " />
<polyline fill="none" vector-effect="none" points="139,709.734 147.32,709.734 " />
<polyline fill="none" vector-effect="none" points="139,602.656 147.32,602.656 " />
<polyline fill="none" vector-effect="none" points="139,495.578 147.32,495.578 " />
<polyline fill="none" vector-effect="none" points="139,388.5 147.32,388.5 " />
<polyline fill="none" vector-effect="none" points="139,281.422 147.32,281.422 " />
<polyline fill="none" vector-effect="none" points="139,174.344 147.32,174.344 " />
<polyline fill="none" vector-effect="none" points="139,67.266 147.32,67.266 " />
</g>

<g fill="#d9d9d9" fill-opacity="1" stroke="#d9d9d9" stroke-opacity="1" stroke-width="1" stroke-linecap="square" stroke-linejoin="bevel" transform="matrix(0.719538,0,0,0.717448,0.720462,470.4)"
font-family="Helvetica" font-size="13" font-weight="400" font-style="normal" 
>
<text fill="#d9d9d9" fill-opacity="1" stroke="none" xml:space="preserve" x="0" y="0" font-family="Helvetica" font-size="13" font-weight="400" font-style="normal" 
 >-0.15</text>
</g>

<g fill="#d9d9d9" fill-opacity="1" stroke="#d9d9d9" stroke-opacity="1" stroke-width="1" stroke-linecap="square" stroke-linejoin="bevel" transform="matrix(0.719538,0,0,0.717448,6.47677,393.577)"
font-family="Helvetica" font-size="13" font-weight="400" font-style="normal" 
>
<text fill="#d9d9d9" fill-opacity="1" stroke="none" xml:space="preserve" x="0" y="0" font-family="Helvetica" font-size="13" font-weight="400" font-style="normal" 
 >-0.1</text>
</g>

<g fill="#d9d9d9" fill-opacity="1" stroke="#d9d9d9" stroke-opacity="1" stroke-width="1" stroke-linecap="square" stroke-linejoin="bevel" transform="matrix(0.719538,0,0,0.717448,0.720462,316.754)"
font-family="Helvetica" font-size="13" font-weight="400" font-style="normal" 
>
<text fill="#d9d9d9" fill-opacity="1" stroke="none" xml:space="preserve" x="0" y="0" font-family="Helvetica" font-size="13" font-weight="400" font-style="normal" 
 >-0.05</text>
</g>

<g fill="#d9d9d9" fill-opacity="1" stroke="#d9d9d9" stroke-opacity="1" stroke-width="1" stroke-linecap="square" stroke-linejoin="bevel" transform="matrix(0.719538,0,0,0.717448,17.2698,239.931)"
font-family="Helvetica" font-size="13" font-weight="400" font-style="normal" 
>
<text fill="#d9d9d9" fill-opacity="1" stroke="none" xml:space="preserve" x="0" y="0" font-family="Helvetica" font-size="13" font-weight="400" font-style="normal" 
 >0</text>
</g>

<g fill="#d9d9d9" fill-opacity="1" stroke="#d9d9d9" stroke-opacity="1" stroke-width="1" stroke-linecap="square" stroke-linejoin="bevel" transform="matrix(0.719538,0,0,0.717448,4.31815,163.108)"
font-family="Helvetica" font-size="13" font-weight="400" font-style="normal" 
>
<text fill="#d9d9d9" fill-opacity="1" stroke="none" xml:space="preserve" x="0" y="0" font-family="Helvetica" font-size="13" font-weight="400" font-style="normal" 
 >0.05</text>
</g>

<g fill="#d9d9d9" fill-opacity="1" stroke="#d9d9d9" stroke-opacity="1" stroke-width="1" stroke-linecap="square" stroke-linejoin="bevel" transform="matrix(0.719538,0,0,0.717448,9.35492,86.2851)"
font-family="Helvetica" font-size="13" font-weight="400" font-style="normal" 
>
<text fill="#d9d9d9" fill-opacity="1" stroke="none" xml:space="preserve" x="0" y="0" font-family="Helvetica" font-size="13" font-weight="400" font-style="normal" 
 >0.1</text>
</g>

<g fill="#d9d9d9" fill-opacity="1" stroke="#d9d9d9" stroke-opacity="1" stroke-width="1" stroke-linecap="square" stroke-linejoin="bevel" transform="matrix(0.719538,0,0,0.717448,4.31815,9.46225)"
font-family="Helvetica" font-size="13" font-weight="400" font-style="normal" 
>
<text fill="#d9d9d9" fill-opacity="1" stroke="none" xml:space="preserve" x="0" y="0" font-family="Helvetica" font-size="13" font-weight="400" font-style="normal" 
 >0.15</text>
</g>

<g fill="#2699d4" fill-opacity="0.14902" stroke="none" transform="matrix(7.19538e-05,0,0,7.17448e-05,-73.7118,-42.0261)"
font-family="Helvetica" font-size="13" font-weight="400" font-style="normal" 
>
<path vector-effect="none" fill-rule="evenodd" d="M9.71e+06,7.16416e+06 L9.71e+06,605843 L8.55676e+06,605843 L1.39e+06,605843 L1.39e+06,7.16416e+06 L1.99844e+06,7.16416e+06 L9.71e+06,7.16416e+06"/>
</g>

<g fill="#75ab2e" fill-opacity="0.34902" stroke="none" transform="matrix(7.19538e-05,0,0,7.17448e-05,-73.7118,-42.0261)"
font-family="Helvetica" font-size="13" font-weight="400" font-style="normal" 
>
<path vector-effect="none" fill-rule="evenodd" d="M5.09216e+06,7.16416e+06 L5.19963e+06,7.16416e+06 L5.633e+06,7.16416e+06 L5.74859e+06,7.16416e+06 L6.0095e+06,7.16416e+06 L6.10907e+06,7.16416e+06 L6.50948e+06,7.16416e+06 L6.70556e+06,7.16416e+06 L6.79971e+06,7.16416e+06 L6.68782e+06,7.02602e+06 L6.44082e+06,6.63266e+06 L6.30545e+06,6.51848e+06 L6.08725e+06,6.36629e+06 L6.06113e+06,5.97873e+06 L6.14773e+06,5.86949e+06 L6.01177e+06,5.85802e+06 L6.19344e+06,5.82249e+06 L6.09904e+06,5.75494e+06 L6.16358e+06,5.6034e+06 L6.18991e+06,5.36434e+06 L6.1172e+06,5.33349e+06 L6.15294e+06,5.26954e+06 L6.03492e+06,5.10058e+06 L5.81245e+06,5.10722e+06 L5.58754e+06,5.08007e+06 L5.52139e+06,5.02391e+06 L5.4324e+06,5.10554e+06 L5.32817e+06,5.11883e+06 L5.25596e+06,5.30171e+06 L5.11828e+06,5.45679e+06 L5.02413e+06,5.57135e+06 L4.89018e+06,5.65046e+06 L4.87155e+06,5.72356e+06 L4.87023e+06,5.79313e+06 L4.90398e+06,5.92511e+06 L5.07322e+06,5.86598e+06 L5.1066e+06,6.00004e+06 L5.06194e+06,6.0935e+06 L4.97634e+06,6.33225e+06 L4.84256e+06,6.34562e+06 L4.83234e+06,6.71955e+06 L4.95134e+06,6.9717e+06 L5.11037e+06,6.99561e+06 L5.09216e+06,7.16416e+06"/>
</g>

<g fill="none" stroke="#1a330d" stroke-opacity="1" stroke-width="0.486111" stroke-linecap="square" stroke-linejoin="miter" stroke-miterlimit="5" transform="matrix(0.719538,0,0,0.717448,-73.7118,-42.0261)"
font-family="Helvetica" font-size="13" font-weight="400" font-style="normal" 
>
<polyline fill="none" vector-effect="none" points="487.023,579.313 487.155,572.356 489.018,565.046 502.413,557.135 511.828,545.679 525.596,530.171 532.817,511.883 543.24,510.554 552.139,502.391 558.754,508.007 581.245,510.722 603.492,510.058 615.294,526.954 611.72,533.349 618.991,536.434 616.358,560.34 609.904,575.494 619.344,582.249 601.177,585.802 614.773,586.949 606.113,597.873 608.725,636.629 630.545,651.848 644.082,663.266 668.782,702.602 679.971,716.416 " />
<polyline fill="none" vector-effect="none" points="509.216,716.416 511.037,699.561 495.134,697.169 483.234,671.955 484.256,634.562 497.634,633.225 506.194,609.349 510.66,600.004 507.322,586.598 490.398,592.511 487.023,579.313 487.023,579.313 " />
</g>

<g fill="#75ab2e" fill-opacity="0.34902" stroke="none" transform="matrix(7.19538e-05,0,0,7.17448e-05,-73.7118,-42.0261)"
font-family="Helvetica" font-size="13" font-weight="400" font-style="normal" 
>
<path vector-effect="none" fill-rule="evenodd" d="M8.70713e+06,5.46186e+06 L9.03404e+06,5.77646e+06 L9.46778e+06,5.87362e+06 L9.63848e+06,6.02426e+06 L9.71e+06,6.05167e+06 L9.71e+06,6.01839e+06 L9.71e+06,4.80838e+06 L9.71e+06,3.8983e+06 L9.71e+06,3.82809e+06 L9.71e+06,3.81826e+06 L9.55623e+06,3.885e+06 L9.41246e+06,3.98991e+06 L9.3228e+06,4.12878e+06 L8.91494e+06,4.18253e+06 L8.73644e+06,4.07573e+06 L8.43649e+06,4.22013e+06 L8.20618e+06,4.18897e+06 L8.07696e+06,4.09522e+06 L8.02911e+06,4.09899e+06 L8.01386e+06,4.21202e+06 L7.96794e+06,4.33668e+06 L7.9722e+06,4.60038e+06 L8.02194e+06,4.73703e+06 L8.0906e+06,4.88027e+06 L8.3462e+06,5.16234e+06 L8.40749e+06,5.12967e+06 L8.49109e+06,5.32317e+06 L8.70713e+06,5.46186e+06"/>
</g>

<g fill="#75ab2e" fill-opacity="0.34902" stroke="none" transform="matrix(7.19538e-05,0,0,7.17448e-05,-73.7118,-42.0261)"
font-family="Helvetica" font-size="13" font-weight="400" font-style="normal" 
>
<path vector-effect="none" fill-rule="evenodd" d="M8.90454e+06,3.41035e+06 L8.6929e+06,3.51832e+06 L8.81142e+06,3.53602e+06 L9.3089e+06,3.46855e+06 L9.35586e+06,3.59576e+06 L9.69984e+06,3.60473e+06 L9.71e+06,3.60772e+06 L9.71e+06,3.52905e+06 L9.71e+06,2.82362e+06 L9.71e+06,2.59256e+06 L9.68466e+06,2.58479e+06 L9.22047e+06,2.70577e+06 L8.90281e+06,2.90432e+06 L8.77181e+06,3.00352e+06 L8.75457e+06,3.13889e+06 L8.76161e+06,3.26459e+06 L8.90454e+06,3.41035e+06"/>
</g>

<g fill="none" stroke="#1a330d" stroke-opacity="1" stroke-width="0.486111" stroke-linecap="square" stroke-linejoin="miter" stroke-miterlimit="5" transform="matrix(0.719538,0,0,0.717448,-73.7118,-42.0261)"
font-family="Helvetica" font-size="13" font-weight="400" font-style="normal" 
>
<polyline fill="none" vector-effect="none" points="971,605.167 963.848,602.426 946.778,587.362 903.404,577.646 870.713,546.186 849.109,532.317 840.749,512.967 834.62,516.234 809.06,488.027 802.194,473.703 797.22,460.038 796.794,433.668 801.386,421.202 802.911,409.899 807.696,409.522 820.617,418.897 843.649,422.013 873.644,407.573 891.494,418.253 932.28,412.878 941.245,398.991 955.623,388.5 971,381.826 " />
<polyline fill="none" vector-effect="none" points="971,360.772 969.984,360.473 935.586,359.576 930.889,346.855 881.142,353.602 869.29,351.832 890.454,341.035 876.161,326.459 875.457,313.889 877.181,300.352 890.281,290.432 922.047,270.577 968.466,258.479 971,259.256 " />
</g>

<g fill="none" stroke="#000000" stroke-opacity="1" stroke-width="0.694444" stroke-linecap="butt" stroke-linejoin="round" transform="matrix(0.719538,0,0,0.717448,-73.7118,-42.0261)"
font-family="Helvetica" font-size="13" font-weight="400" font-style="normal" 
>
<polyline fill="none" vector-effect="none" points="856.522,504.561 848.553,508.808 840.749,512.967 833.102,517.043 825.603,521.04 818.242,524.963 811.011,528.817 803.904,532.605 796.911,536.332 790.027,540 783.245,543.615 776.559,547.179 769.962,550.695 763.449,554.166 757.014,557.596 750.652,560.986 744.359,564.34 738.129,567.661 731.957,570.95 725.839,574.211 719.77,577.445 713.747,580.655 707.766,583.843 701.821,587.012 695.91,590.162 690.028,593.297 684.171,596.419 678.337,599.528 672.52,602.628 666.719,605.72 660.928,608.806 655.145,611.889 649.366,614.969 643.587,618.049 637.805,621.13 632.016,624.215 626.218,627.306 620.405,630.404 614.576,633.511 608.725,636.629 602.849,639.76 596.946,642.907 591.009,646.071 585.037,649.254 579.025,652.458 572.968,655.687 566.862,658.941 560.704,662.223 554.488,665.536 548.211,668.881 541.866,672.263 535.45,675.683 528.956,679.143 522.38,682.648 515.716,686.2 508.958,689.802 502.099,693.457 495.134,697.169 488.055,700.942 480.855,704.78 473.527,708.685 466.062,712.664 459.023,716.416 " />
<polyline fill="none" vector-effect="none" points="829.714,480.277 821.297,483.436 813.089,486.515 805.079,489.521 797.254,492.458 789.604,495.328 782.118,498.138 774.787,500.889 767.601,503.585 760.552,506.231 753.632,508.827 746.833,511.379 740.149,513.887 733.571,516.355 727.095,518.786 720.713,521.18 714.42,523.542 708.21,525.872 702.078,528.173 696.019,530.447 690.028,532.695 684.099,534.92 678.229,537.123 672.414,539.305 666.648,541.469 660.928,543.615 655.25,545.746 649.61,547.862 644.004,549.966 638.428,552.058 632.879,554.141 627.354,556.214 621.848,558.28 616.358,560.34 610.882,562.395 605.415,564.447 599.954,566.496 594.497,568.544 589.038,570.592 583.576,572.642 578.107,574.694 572.628,576.75 567.134,578.812 561.624,580.88 556.092,582.956 550.537,585.04 544.953,587.135 539.339,589.243 533.689,591.363 528,593.497 522.268,595.648 516.489,597.817 510.66,600.004 504.775,602.213 498.83,604.444 492.821,606.698 486.743,608.979 480.591,611.288 474.36,613.626 468.044,615.996 461.637,618.4 455.135,620.841 448.53,623.319 441.815,625.839 434.985,628.402 428.032,631.011 420.947,633.67 413.724,636.38 406.352,639.147 398.824,641.972 391.128,644.86 383.255,647.814 375.194,650.839 366.932,653.939 358.457,657.12 349.754,660.385 340.81,663.742 331.608,667.195 322.132,670.751 312.362,674.417 302.278,678.201 291.859,682.111 281.082,686.155 269.919,690.344 258.344,694.688 246.325,699.198 233.828,703.888 220.817,708.77 207.25,713.861 200.443,716.416 " />
<polyline fill="none" vector-effect="none" points="810.136,456.703 801.464,458.942 793.034,461.119 784.831,463.237 776.84,465.3 769.05,467.311 761.448,469.274 754.022,471.191 746.764,473.066 739.661,474.9 732.707,476.695 725.891,478.455 719.206,480.181 712.643,481.876 706.196,483.54 699.859,485.177 693.623,486.787 687.484,488.372 681.435,489.934 675.471,491.474 669.586,492.993 663.775,494.493 658.034,495.976 652.357,497.441 646.741,498.891 641.181,500.327 635.673,501.749 630.212,503.159 624.795,504.558 619.418,505.946 614.078,507.325 608.77,508.696 603.492,510.058 598.239,511.415 593.009,512.765 587.798,514.111 582.603,515.452 577.421,516.79 572.248,518.126 567.081,519.46 561.917,520.793 556.754,522.126 551.587,523.46 546.414,524.796 541.232,526.134 536.037,527.475 530.826,528.821 525.596,530.171 520.343,531.527 515.065,532.89 509.757,534.261 504.417,535.64 499.04,537.028 493.623,538.426 488.162,539.836 482.654,541.259 477.094,542.694 471.477,544.144 465.801,545.61 460.06,547.092 454.249,548.593 448.364,550.112 442.4,551.652 436.351,553.214 430.212,554.799 423.976,556.409 417.638,558.046 411.192,559.71 404.629,561.405 397.944,563.131 391.128,564.891 384.173,566.686 377.071,568.52 369.812,570.394 362.387,572.312 354.785,574.274 346.995,576.286 339.004,578.349 330.801,580.467 322.37,582.644 313.698,584.883 304.768,587.189 295.563,589.565 286.065,592.018 276.251,594.552 266.101,597.172 255.591,599.886 244.694,602.7 233.38,605.621 221.62,608.657 209.378,611.818 " />
<polyline fill="none" vector-effect="none" points="796.794,433.668 787.983,435.102 779.435,436.493 771.135,437.845 763.065,439.158 755.212,440.436 747.563,441.681 740.106,442.895 732.829,444.08 725.72,445.237 718.771,446.368 711.972,447.475 705.314,448.558 698.789,449.62 692.389,450.662 686.106,451.685 679.934,452.69 673.866,453.677 667.896,454.649 662.018,455.606 656.227,456.548 650.516,457.478 644.882,458.395 639.318,459.301 633.821,460.195 628.386,461.08 623.009,461.955 617.685,462.822 612.41,463.681 607.181,464.532 601.995,465.376 596.846,466.214 591.732,467.046 586.65,467.874 581.595,468.696 576.565,469.515 571.557,470.33 566.567,471.143 561.592,471.952 556.629,472.76 551.675,473.567 546.727,474.372 541.782,475.177 536.837,475.982 531.889,476.787 526.935,477.594 521.972,478.401 516.997,479.211 512.006,480.024 506.997,480.839 501.966,481.658 496.911,482.481 491.827,483.308 486.712,484.141 481.562,484.979 476.374,485.824 471.144,486.675 465.868,487.534 460.542,488.401 455.163,489.276 449.725,490.161 444.226,491.056 438.66,491.962 433.023,492.88 427.31,493.81 421.516,494.753 415.635,495.71 409.661,496.683 403.59,497.671 397.415,498.676 391.128,499.699 384.724,500.742 378.194,501.805 371.531,502.889 364.727,503.997 357.773,505.129 350.659,506.286 343.376,507.472 335.912,508.687 328.257,509.933 320.397,511.212 312.32,512.527 304.011,513.88 295.454,515.272 286.634,516.708 277.533,518.19 268.129,519.72 258.404,521.303 248.332,522.943 237.889,524.642 227.048,526.407 " />
<polyline fill="none" vector-effect="none" points="789.034,410.994 780.156,411.694 771.553,412.372 763.208,413.03 755.104,413.669 747.227,414.29 739.563,414.895 732.098,415.483 724.821,416.057 717.72,416.617 710.785,417.164 704.006,417.699 697.373,418.222 690.879,418.734 684.515,419.236 678.273,419.728 672.146,420.211 666.128,420.686 660.211,421.152 654.391,421.611 648.661,422.063 643.015,422.508 637.449,422.947 631.957,423.38 626.534,423.808 621.177,424.23 615.881,424.648 610.641,425.061 605.453,425.47 600.315,425.875 595.22,426.277 590.168,426.676 585.152,427.071 580.171,427.464 575.221,427.854 570.298,428.242 565.4,428.629 560.522,429.013 555.663,429.396 550.819,429.778 545.987,430.159 541.164,430.54 536.348,430.92 531.534,431.299 526.721,431.679 521.905,432.058 517.083,432.439 512.253,432.82 507.411,433.201 502.554,433.584 497.68,433.969 492.786,434.355 487.867,434.743 482.922,435.133 477.946,435.525 472.936,435.92 467.89,436.318 462.803,436.719 457.672,437.124 452.493,437.532 447.262,437.945 441.975,438.361 436.628,438.783 431.217,439.21 425.736,439.642 420.183,440.08 414.55,440.524 408.834,440.975 403.029,441.432 397.129,441.898 391.128,442.371 385.02,442.853 378.797,443.343 372.454,443.844 365.981,444.354 359.372,444.875 352.618,445.408 345.709,445.953 338.636,446.51 331.389,447.082 323.956,447.668 316.325,448.27 308.484,448.888 300.419,449.524 292.115,450.179 283.556,450.854 274.724,451.55 265.601,452.27 256.166,453.014 246.397,453.784 236.269,454.583 " />
<polyline fill="none" vector-effect="none" points="786.487,388.5 777.589,388.5 768.97,388.5 760.612,388.5 752.5,388.5 744.617,388.5 736.949,388.5 729.484,388.5 722.208,388.5 715.112,388.5 708.183,388.5 701.411,388.5 694.789,388.5 688.306,388.5 681.955,388.5 675.728,388.5 669.617,388.5 663.616,388.5 657.719,388.5 651.918,388.5 646.209,388.5 640.586,388.5 635.043,388.5 629.575,388.5 624.178,388.5 618.847,388.5 613.578,388.5 608.366,388.5 603.208,388.5 598.099,388.5 593.036,388.5 588.015,388.5 583.033,388.5 578.085,388.5 573.169,388.5 568.282,388.5 563.42,388.5 558.58,388.5 553.759,388.5 548.954,388.5 544.162,388.5 539.38,388.5 534.605,388.5 529.834,388.5 525.065,388.5 520.294,388.5 515.518,388.5 510.735,388.5 505.941,388.5 501.134,388.5 496.311,388.5 491.468,388.5 486.603,388.5 481.712,388.5 476.792,388.5 471.84,388.5 466.853,388.5 461.827,388.5 456.758,388.5 451.643,388.5 446.478,388.5 441.259,388.5 435.982,388.5 430.643,388.5 425.237,388.5 419.76,388.5 414.207,388.5 408.572,388.5 402.852,388.5 397.039,388.5 391.128,388.5 385.113,388.5 378.988,388.5 372.745,388.5 366.377,388.5 359.877,388.5 353.235,388.5 346.444,388.5 339.494,388.5 332.374,388.5 325.075,388.5 317.584,388.5 309.889,388.5 301.977,388.5 293.834,388.5 285.443,388.5 276.789,388.5 267.852,388.5 258.614,388.5 249.053,388.5 239.145,388.5 " />
<polyline fill="none" vector-effect="none" points="789.034,366.006 780.156,365.306 771.553,364.628 763.208,363.97 755.104,363.331 747.227,362.71 739.563,362.105 732.098,361.517 724.821,360.943 717.72,360.383 710.785,359.836 704.006,359.301 697.373,358.778 690.879,358.266 684.515,357.764 678.273,357.272 672.146,356.789 666.128,356.314 660.211,355.848 654.391,355.389 648.661,354.937 643.015,354.492 637.449,354.053 631.957,353.62 626.534,353.192 621.177,352.77 615.881,352.352 610.641,351.939 605.453,351.53 600.315,351.125 595.22,350.723 590.168,350.324 585.152,349.929 580.171,349.536 575.221,349.146 570.298,348.758 565.4,348.371 560.522,347.987 555.663,347.604 550.819,347.222 545.987,346.841 541.164,346.46 536.348,346.08 531.534,345.701 526.721,345.321 521.905,344.942 517.083,344.561 512.253,344.18 507.411,343.799 502.554,343.416 497.68,343.031 492.786,342.645 487.867,342.257 482.922,341.867 477.946,341.475 472.936,341.08 467.89,340.682 462.803,340.281 457.672,339.876 452.493,339.468 447.262,339.055 441.975,338.639 436.628,338.217 431.217,337.79 425.736,337.358 420.183,336.92 414.55,336.476 408.834,336.025 403.029,335.568 397.129,335.102 391.128,334.629 385.02,334.147 378.797,333.657 372.454,333.156 365.981,332.646 359.372,332.125 352.618,331.592 345.709,331.047 338.636,330.49 331.389,329.918 323.956,329.332 316.325,328.73 308.484,328.112 300.419,327.476 292.115,326.821 283.556,326.146 274.724,325.45 265.601,324.73 256.166,323.986 246.397,323.216 236.269,322.417 " />
<polyline fill="none" vector-effect="none" points="796.794,343.332 787.983,341.898 779.435,340.507 771.135,339.155 763.065,337.842 755.212,336.564 747.563,335.319 740.106,334.105 732.829,332.92 725.72,331.763 718.771,330.632 711.972,329.525 705.314,328.442 698.789,327.38 692.389,326.338 686.106,325.315 679.934,324.31 673.866,323.323 667.896,322.351 662.018,321.394 656.227,320.452 650.516,319.522 644.882,318.605 639.318,317.699 633.821,316.805 628.386,315.92 623.009,315.045 617.685,314.178 612.41,313.319 607.181,312.468 601.995,311.624 596.846,310.786 591.732,309.954 586.65,309.126 581.595,308.304 576.565,307.485 571.557,306.67 566.567,305.857 561.592,305.048 556.629,304.24 551.675,303.433 546.727,302.628 541.782,301.823 536.837,301.018 531.889,300.213 526.935,299.406 521.972,298.599 516.997,297.789 512.006,296.976 506.997,296.161 501.966,295.342 496.911,294.519 491.827,293.692 486.712,292.859 481.562,292.021 476.374,291.176 471.144,290.325 465.868,289.466 460.542,288.599 455.163,287.724 449.725,286.839 444.226,285.944 438.66,285.038 433.023,284.12 427.31,283.19 421.516,282.247 415.635,281.29 409.661,280.317 403.59,279.329 397.415,278.324 391.128,277.301 384.724,276.258 378.194,275.195 371.531,274.111 364.727,273.003 357.773,271.871 350.659,270.714 343.376,269.528 335.912,268.313 328.257,267.067 320.397,265.788 312.32,264.473 304.011,263.12 295.454,261.728 286.634,260.292 277.533,258.811 268.129,257.28 258.404,255.697 248.332,254.057 237.889,252.358 227.048,250.593 " />
<polyline fill="none" vector-effect="none" points="810.136,320.297 801.464,318.058 793.034,315.881 784.831,313.763 776.84,311.7 769.05,309.689 761.448,307.726 754.022,305.809 746.764,303.934 739.661,302.1 732.707,300.305 725.891,298.545 719.206,296.819 712.643,295.124 706.196,293.46 699.859,291.823 693.623,290.213 687.484,288.628 681.435,287.066 675.471,285.526 669.586,284.007 663.775,282.507 658.034,281.024 652.357,279.559 646.741,278.109 641.181,276.673 635.673,275.251 630.212,273.841 624.795,272.442 619.418,271.054 614.078,269.675 608.77,268.304 603.492,266.942 598.239,265.585 593.009,264.235 587.798,262.889 582.603,261.548 577.421,260.21 572.248,258.874 567.081,257.54 561.917,256.207 556.754,254.874 551.587,253.54 546.414,252.204 541.232,250.866 536.037,249.525 530.826,248.179 525.596,246.829 520.343,245.473 515.065,244.11 509.757,242.739 504.417,241.36 499.04,239.972 493.623,238.574 488.162,237.164 482.654,235.741 477.094,234.306 471.477,232.856 465.801,231.39 460.06,229.908 454.249,228.407 448.364,226.888 442.4,225.348 436.351,223.786 430.212,222.201 423.976,220.591 417.638,218.954 411.192,217.29 404.629,215.595 397.944,213.869 391.128,212.109 384.173,210.314 377.071,208.48 369.812,206.606 362.387,204.688 354.785,202.726 346.995,200.714 339.004,198.651 330.801,196.533 322.37,194.356 313.698,192.117 304.768,189.811 295.563,187.435 286.065,184.982 276.251,182.448 266.101,179.828 255.591,177.114 244.694,174.3 233.38,171.379 221.62,168.343 209.378,165.182 " />
<polyline fill="none" vector-effect="none" points="829.714,296.723 821.297,293.564 813.089,290.485 805.079,287.479 797.254,284.542 789.604,281.672 782.118,278.862 774.787,276.111 767.601,273.415 760.552,270.769 753.632,268.173 746.833,265.621 740.149,263.113 733.571,260.645 727.095,258.214 720.713,255.82 714.42,253.458 708.21,251.128 702.078,248.827 696.019,246.553 690.028,244.305 684.099,242.08 678.229,239.877 672.414,237.695 666.648,235.531 660.928,233.385 655.25,231.254 649.61,229.138 644.004,227.034 638.428,224.941 632.879,222.859 627.354,220.786 621.848,218.72 616.358,216.66 610.882,214.605 605.415,212.553 599.954,210.504 594.497,208.456 589.038,206.408 583.576,204.358 578.107,202.306 572.628,200.249 567.134,198.188 561.624,196.12 556.092,194.044 550.537,191.96 544.953,189.864 539.339,187.757 533.689,185.637 528,183.503 522.268,181.352 516.489,179.183 510.66,176.996 504.775,174.787 498.83,172.556 492.821,170.302 486.743,168.021 480.591,165.712 474.36,163.374 468.044,161.004 461.637,158.6 455.135,156.159 448.53,153.681 441.815,151.161 434.985,148.598 428.032,145.989 420.947,143.33 413.724,140.62 406.352,137.853 398.824,135.028 391.128,132.14 383.255,129.186 375.194,126.161 366.932,123.061 358.457,119.88 349.754,116.615 340.81,113.258 331.608,109.805 322.132,106.249 312.362,102.583 302.278,98.7988 291.859,94.8891 281.082,90.8447 269.919,86.6558 258.344,82.3121 246.325,77.8018 233.828,73.1124 220.817,68.2299 207.25,63.1389 200.443,60.5844 " />
<polyline fill="none" vector-effect="none" points="856.522,272.439 848.553,268.192 840.749,264.033 833.102,259.957 825.603,255.96 818.242,252.037 811.011,248.183 803.904,244.395 796.911,240.668 790.027,237 783.245,233.385 776.559,229.821 769.962,226.305 763.449,222.834 757.014,219.404 750.652,216.014 744.359,212.66 738.129,209.339 731.957,206.05 725.839,202.789 719.77,199.555 713.747,196.345 707.766,193.157 701.821,189.988 695.91,186.838 690.028,183.703 684.171,180.581 678.337,177.472 672.52,174.372 666.719,171.28 660.928,168.194 655.145,165.111 649.366,162.031 643.587,158.951 637.805,155.87 632.016,152.785 626.218,149.694 620.405,146.596 614.576,143.489 608.725,140.371 602.849,137.239 596.946,134.093 591.009,130.929 585.037,127.746 579.025,124.542 572.968,121.313 566.862,118.059 560.704,114.777 554.488,111.464 548.211,108.119 541.866,104.737 535.45,101.317 528.956,97.8566 522.38,94.3518 515.716,90.8001 508.958,87.1982 502.099,83.5428 495.134,79.8305 488.055,76.0577 480.855,72.2204 473.527,68.3145 466.062,64.336 459.023,60.5844 " />
<polyline fill="none" vector-effect="none" points="856.522,504.561 853.479,502.096 850.521,499.639 847.645,497.191 844.851,494.752 842.137,492.32 839.501,489.896 836.942,487.48 834.459,485.072 832.05,482.671 829.714,480.277 827.451,477.89 825.258,475.511 823.134,473.138 821.08,470.771 819.093,468.412 817.172,466.058 815.317,463.711 813.527,461.369 811.8,459.033 810.136,456.703 808.535,454.378 806.994,452.059 805.514,449.744 804.094,447.434 802.734,445.129 801.431,442.829 800.186,440.532 798.999,438.24 797.868,435.952 796.794,433.668 795.775,431.387 794.811,429.11 793.901,426.836 793.046,424.565 792.245,422.297 791.497,420.032 790.803,417.769 790.161,415.508 789.571,413.25 789.034,410.994 788.549,408.739 788.115,406.486 787.733,404.235 787.402,401.985 787.122,399.736 786.893,397.487 786.716,395.24 786.589,392.993 786.513,390.746 786.487,388.5 786.513,386.254 786.589,384.007 786.716,381.76 786.893,379.513 787.122,377.264 787.402,375.015 787.733,372.765 788.115,370.514 788.549,368.261 789.034,366.006 789.571,363.75 790.161,361.492 790.803,359.231 791.497,356.968 792.245,354.703 793.046,352.435 793.901,350.164 794.811,347.89 795.775,345.613 796.794,343.332 797.868,341.048 798.999,338.76 800.186,336.468 801.431,334.171 802.734,331.871 804.094,329.566 805.514,327.256 806.994,324.941 808.535,322.622 810.136,320.297 811.8,317.967 813.527,315.631 815.317,313.289 817.172,310.942 819.093,308.588 821.08,306.229 823.134,303.862 825.258,301.489 827.451,299.11 829.714,296.723 832.05,294.329 834.459,291.928 836.942,289.52 839.501,287.104 842.137,284.68 844.851,282.248 847.645,279.809 850.521,277.361 853.479,274.904 856.522,272.439 " />
<polyline fill="none" vector-effect="none" points="783.245,543.615 779.826,539.987 776.517,536.396 773.313,532.84 770.213,529.317 767.213,525.827 764.311,522.368 761.505,518.94 758.791,515.541 756.167,512.171 753.632,508.827 751.183,505.51 748.818,502.219 746.535,498.952 744.332,495.708 742.208,492.488 740.16,489.289 738.188,486.111 736.289,482.953 734.463,479.815 732.707,476.695 731.02,473.594 729.402,470.509 727.85,467.441 726.364,464.389 724.943,461.352 723.586,458.329 722.29,455.319 721.057,452.323 719.884,449.34 718.771,446.368 717.718,443.407 716.722,440.457 715.785,437.517 714.904,434.586 714.08,431.664 713.311,428.75 712.598,425.843 711.939,422.944 711.335,420.051 710.785,417.164 710.288,414.283 709.845,411.406 709.454,408.533 709.116,405.664 708.83,402.799 708.597,399.936 708.416,397.075 708.286,394.216 708.208,391.358 708.183,388.5 708.208,385.642 708.286,382.784 708.416,379.925 708.597,377.064 708.83,374.201 709.116,371.336 709.454,368.467 709.845,365.594 710.288,362.717 710.785,359.836 711.335,356.949 711.939,354.056 712.598,351.157 713.311,348.25 714.08,345.336 714.904,342.414 715.785,339.483 716.722,336.543 717.718,333.593 718.771,330.632 719.884,327.66 721.057,324.677 722.29,321.681 723.586,318.671 724.943,315.648 726.364,312.611 727.85,309.559 729.402,306.491 731.02,303.406 732.707,300.305 734.463,297.185 736.289,294.047 738.188,290.889 740.16,287.711 742.208,284.512 744.332,281.292 746.535,278.048 748.818,274.781 751.183,271.49 753.632,268.173 756.167,264.829 758.791,261.459 761.505,258.06 764.311,254.632 767.213,251.173 770.213,247.683 773.313,244.16 776.517,240.604 779.826,237.013 783.245,233.385 " />
<polyline fill="none" vector-effect="none" points="719.77,577.445 716.287,572.676 712.927,567.98 709.686,563.354 706.561,558.794 703.548,554.299 700.642,549.865 697.84,545.49 695.139,541.172 692.536,536.908 690.028,532.695 687.611,528.533 685.283,524.418 683.042,520.349 680.885,516.324 678.81,512.34 676.814,508.397 674.895,504.492 673.052,500.625 671.283,496.792 669.586,492.993 667.958,489.226 666.399,485.49 664.907,481.784 663.481,478.105 662.119,474.453 660.819,470.826 659.581,467.224 658.404,463.644 657.286,460.086 656.227,456.548 655.225,453.03 654.279,449.53 653.39,446.048 652.555,442.581 651.774,439.13 651.047,435.692 650.372,432.268 649.75,428.856 649.18,425.454 648.661,422.063 648.192,418.681 647.774,415.307 647.406,411.94 647.088,408.58 646.819,405.225 646.599,401.875 646.428,398.528 646.306,395.184 646.233,391.841 646.209,388.5 646.233,385.159 646.306,381.816 646.428,378.472 646.599,375.125 646.819,371.775 647.088,368.42 647.406,365.06 647.774,361.693 648.192,358.319 648.661,354.937 649.18,351.546 649.75,348.144 650.372,344.732 651.047,341.308 651.774,337.87 652.555,334.419 653.39,330.952 654.279,327.47 655.225,323.97 656.227,320.452 657.286,316.914 658.404,313.356 659.581,309.776 660.819,306.174 662.119,302.547 663.481,298.895 664.907,295.216 666.399,291.51 667.958,287.774 669.586,284.007 671.283,280.208 673.052,276.375 674.895,272.508 676.814,268.603 678.81,264.66 680.885,260.676 683.042,256.651 685.283,252.582 687.611,248.467 690.028,244.305 692.536,240.092 695.139,235.828 697.84,231.51 700.642,227.135 703.548,222.701 706.561,218.206 709.686,213.646 712.927,209.02 716.287,204.324 719.77,199.555 " />
<polyline fill="none" vector-effect="none" points="660.928,608.806 657.599,602.869 654.4,597.049 651.324,591.343 648.368,585.744 645.526,580.247 642.793,574.848 640.166,569.542 637.64,564.325 635.213,559.193 632.879,554.141 630.636,549.166 628.482,544.265 626.411,539.433 624.423,534.669 622.514,529.969 620.682,525.329 618.925,520.748 617.24,516.221 615.625,511.748 614.078,507.325 612.597,502.95 611.181,498.621 609.828,494.334 608.536,490.09 607.304,485.884 606.13,481.715 605.014,477.582 603.953,473.482 602.947,469.414 601.995,465.376 601.095,461.366 600.246,457.382 599.449,453.423 598.701,449.487 598.002,445.573 597.351,441.68 596.749,437.804 596.193,433.947 595.684,430.105 595.22,426.277 594.803,422.463 594.43,418.66 594.102,414.867 593.818,411.084 593.579,407.308 593.383,403.539 593.231,399.775 593.123,396.014 593.058,392.257 593.036,388.5 593.058,384.743 593.123,380.986 593.231,377.225 593.383,373.461 593.579,369.692 593.818,365.916 594.102,362.133 594.43,358.34 594.803,354.537 595.22,350.723 595.684,346.895 596.193,343.053 596.749,339.196 597.351,335.32 598.002,331.427 598.701,327.513 599.449,323.577 600.246,319.618 601.095,315.634 601.995,311.624 602.947,307.586 603.953,303.518 605.014,299.418 606.13,295.285 607.304,291.116 608.536,286.91 609.828,282.666 611.181,278.379 612.597,274.05 614.078,269.675 615.625,265.252 617.24,260.779 618.925,256.252 620.682,251.671 622.514,247.031 624.423,242.331 626.411,237.567 628.482,232.735 630.636,227.834 632.879,222.859 635.213,217.807 637.64,212.675 640.166,207.458 642.793,202.152 645.526,196.753 648.368,191.256 651.324,185.657 654.4,179.951 657.599,174.131 660.928,168.194 " />
<polyline fill="none" vector-effect="none" points="602.849,639.76 599.875,632.565 597.026,625.546 594.297,618.692 591.681,611.996 589.174,605.448 586.771,599.043 584.466,592.771 582.257,586.627 580.139,580.603 578.107,574.694 576.16,568.895 574.293,563.198 572.503,557.601 570.787,552.096 569.144,546.681 567.569,541.351 566.062,536.1 564.619,530.927 563.238,525.825 561.917,520.793 560.656,515.826 559.451,510.921 558.301,506.076 557.204,501.286 556.16,496.549 555.167,491.863 554.223,487.224 553.327,482.63 552.478,478.078 551.675,473.567 550.917,469.092 550.203,464.654 549.533,460.248 548.905,455.873 548.318,451.527 547.772,447.208 547.267,442.913 546.802,438.642 546.375,434.391 545.987,430.159 545.638,425.945 545.326,421.746 545.052,417.561 544.815,413.387 544.615,409.224 544.452,405.069 544.325,400.921 544.234,396.778 544.18,392.638 544.162,388.5 544.18,384.362 544.234,380.222 544.325,376.079 544.452,371.931 544.615,367.776 544.815,363.613 545.052,359.439 545.326,355.254 545.638,351.055 545.987,346.841 546.375,342.609 546.802,338.358 547.267,334.087 547.772,329.792 548.318,325.473 548.905,321.127 549.533,316.752 550.203,312.346 550.917,307.908 551.675,303.433 552.478,298.922 553.327,294.37 554.223,289.776 555.167,285.137 556.16,280.451 557.204,275.714 558.301,270.924 559.451,266.079 560.656,261.174 561.917,256.207 563.238,251.175 564.619,246.073 566.062,240.9 567.569,235.649 569.144,230.319 570.787,224.904 572.503,219.399 574.293,213.802 576.16,208.105 578.107,202.306 580.139,196.397 582.257,190.373 584.466,184.229 586.771,177.957 589.174,171.552 591.681,165.004 594.297,158.308 597.026,151.454 599.875,144.435 602.849,137.239 " />
<polyline fill="none" vector-effect="none" points="541.866,672.263 539.479,663.637 537.201,655.26 535.025,647.117 532.947,639.196 530.961,631.482 529.063,623.965 527.249,616.633 525.514,609.475 523.855,602.484 522.268,595.648 520.75,588.961 519.298,582.413 517.91,575.999 516.581,569.709 515.311,563.539 514.097,557.481 512.937,551.529 511.828,545.679 510.768,539.924 509.757,534.261 508.792,528.683 507.872,523.186 506.995,517.767 506.16,512.42 505.366,507.142 504.611,501.929 503.895,496.778 503.216,491.684 502.573,486.645 501.966,481.658 501.393,476.719 500.854,471.824 500.349,466.973 499.875,462.16 499.433,457.385 499.022,452.644 498.642,447.934 498.292,443.253 497.972,438.599 497.68,433.969 497.418,429.361 497.184,424.772 496.978,420.2 496.801,415.644 496.651,411.101 496.528,406.568 496.433,402.043 496.365,397.525 496.324,393.012 496.311,388.5 496.324,383.988 496.365,379.475 496.433,374.957 496.528,370.432 496.651,365.899 496.801,361.356 496.978,356.8 497.184,352.228 497.418,347.639 497.68,343.031 497.972,338.401 498.292,333.747 498.642,329.066 499.022,324.356 499.433,319.615 499.875,314.84 500.349,310.027 500.854,305.176 501.393,300.281 501.966,295.342 502.573,290.355 503.216,285.316 503.895,280.222 504.611,275.071 505.366,269.858 506.16,264.58 506.995,259.233 507.872,253.814 508.792,248.317 509.757,242.739 510.768,237.076 511.828,231.321 512.937,225.471 514.097,219.519 515.311,213.461 516.581,207.291 517.91,201.001 519.298,194.587 520.75,188.039 522.268,181.352 523.855,174.516 525.514,167.525 527.249,160.367 529.063,153.035 530.961,145.518 532.947,137.804 535.025,129.883 537.201,121.74 539.479,113.363 541.866,104.737 " />
<polyline fill="none" vector-effect="none" points="473.527,708.685 472.058,698.323 470.661,688.309 469.332,678.622 468.067,669.242 466.863,660.148 465.715,651.323 464.622,642.75 463.58,634.415 462.586,626.303 461.637,618.4 460.733,610.696 459.87,603.178 459.046,595.836 458.26,588.659 457.51,581.639 456.795,574.766 456.112,568.032 455.461,561.431 454.841,554.953 454.249,548.593 453.686,542.343 453.149,536.199 452.639,530.153 452.154,524.2 451.692,518.335 451.255,512.553 450.84,506.849 450.447,501.219 450.076,495.658 449.725,490.161 449.395,484.726 449.085,479.347 448.793,474.022 448.521,468.746 448.267,463.516 448.031,458.329 447.813,453.182 447.612,448.07 447.428,442.992 447.262,437.945 447.111,432.924 446.977,427.927 446.86,422.953 446.758,417.996 446.672,413.056 446.602,408.129 446.548,403.213 446.509,398.304 446.486,393.401 446.478,388.5 446.486,383.599 446.509,378.696 446.548,373.787 446.602,368.871 446.672,363.944 446.758,359.004 446.86,354.047 446.977,349.073 447.111,344.076 447.262,339.055 447.428,334.008 447.612,328.93 447.813,323.818 448.031,318.671 448.267,313.484 448.521,308.254 448.793,302.978 449.085,297.653 449.395,292.274 449.725,286.839 450.076,281.342 450.447,275.781 450.84,270.151 451.255,264.447 451.692,258.665 452.154,252.8 452.639,246.847 453.149,240.801 453.686,234.657 454.249,228.407 454.841,222.047 455.461,215.569 456.112,208.968 456.795,202.234 457.51,195.361 458.26,188.341 459.046,181.164 459.87,173.822 460.733,166.304 461.637,158.6 462.586,150.697 463.58,142.585 464.622,134.25 465.715,125.677 466.863,116.852 468.067,107.758 469.332,98.3775 470.661,88.6909 472.058,78.6775 473.527,68.3145 " />
<polyline fill="none" vector-effect="none" points="391.128,716.416 391.128,716.127 391.128,704.873 391.128,694.017 391.128,683.535 391.128,673.4 391.128,663.589 391.128,654.082 391.128,644.86 391.128,635.903 391.128,627.196 391.128,618.724 391.128,610.471 391.128,602.426 391.128,594.574 391.128,586.905 391.128,579.409 391.128,572.073 391.128,564.891 391.128,557.851 391.128,550.947 391.128,544.169 391.128,537.511 391.128,530.965 391.128,524.525 391.128,518.184 391.128,511.937 391.128,505.777 391.128,499.699 391.128,493.698 391.128,487.769 391.128,481.906 391.128,476.106 391.128,470.363 391.128,464.674 391.128,459.034 391.128,453.44 391.128,447.887 391.128,442.371 391.128,436.889 391.128,431.438 391.128,426.013 391.128,420.611 391.128,415.229 391.128,409.864 391.128,404.512 391.128,399.169 391.128,393.833 391.128,388.5 391.128,383.167 391.128,377.831 391.128,372.488 391.128,367.136 391.128,361.771 391.128,356.389 391.128,350.987 391.128,345.562 391.128,340.111 391.128,334.629 391.128,329.113 391.128,323.56 391.128,317.966 391.128,312.326 391.128,306.637 391.128,300.894 391.128,295.094 391.128,289.231 391.128,283.302 391.128,277.301 391.128,271.223 391.128,265.063 391.128,258.816 391.128,252.475 391.128,246.035 391.128,239.489 391.128,232.831 391.128,226.053 391.128,219.149 391.128,212.109 391.128,204.927 391.128,197.591 391.128,190.095 391.128,182.426 391.128,174.574 391.128,166.529 391.128,158.276 391.128,149.804 391.128,141.097 391.128,132.14 391.128,122.918 391.128,113.411 391.128,103.6 391.128,93.4652 391.128,82.9825 391.128,72.1274 391.128,60.8726 391.128,60.5844 " />
<polyline fill="none" vector-effect="none" points="296.911,716.416 297.486,712.452 299.172,700.618 300.767,689.211 302.278,678.201 303.71,667.561 305.067,657.266 306.354,647.293 307.575,637.62 308.733,628.227 309.833,619.097 310.876,610.212 311.867,601.558 312.806,593.12 313.698,584.883 314.544,576.836 315.347,568.966 316.108,561.264 316.828,553.717 317.511,546.317 318.156,539.055 318.766,531.921 319.342,524.908 319.886,518.007 320.397,511.212 320.878,504.516 321.328,497.911 321.75,491.392 322.144,484.952 322.511,478.586 322.851,472.287 323.165,466.051 323.453,459.873 323.717,453.747 323.956,447.668 324.171,441.632 324.362,435.634 324.531,429.67 324.676,423.735 324.798,417.825 324.898,411.935 324.976,406.062 325.031,400.201 325.064,394.349 325.075,388.5 325.064,382.651 325.031,376.799 324.976,370.938 324.898,365.065 324.798,359.175 324.676,353.265 324.531,347.33 324.362,341.366 324.171,335.368 323.956,329.332 323.717,323.253 323.453,317.127 323.165,310.949 322.851,304.713 322.511,298.414 322.144,292.048 321.75,285.608 321.328,279.089 320.878,272.484 320.397,265.788 319.886,258.993 319.342,252.092 318.766,245.079 318.156,237.945 317.511,230.683 316.828,223.283 316.108,215.736 315.347,208.034 314.544,200.164 313.698,192.117 312.806,183.881 311.867,175.442 310.876,166.788 309.833,157.903 308.733,148.773 307.575,139.38 306.354,129.707 305.067,119.734 303.71,109.439 302.278,98.7988 300.767,87.7893 299.172,76.3825 297.486,64.5484 296.911,60.5844 " />
<polyline fill="none" vector-effect="none" points="180.771,716.416 182.235,711.553 185.98,698.875 189.515,686.668 192.853,674.895 196.007,663.526 198.988,652.533 201.807,641.889 204.472,631.57 206.993,621.553 209.378,611.818 211.633,602.347 213.765,593.121 215.781,584.125 217.686,575.342 219.485,566.759 221.184,558.363 222.785,550.141 224.294,542.082 225.714,534.174 227.048,526.407 228.3,518.772 229.472,511.259 230.568,503.859 231.589,496.564 232.539,489.367 233.418,482.259 234.229,475.234 234.973,468.284 235.653,461.402 236.269,454.583 236.822,447.819 237.315,441.105 237.747,434.435 238.12,427.803 238.434,421.204 238.691,414.631 238.89,408.08 239.031,401.544 239.116,395.019 239.145,388.5 239.116,381.981 239.031,375.456 238.89,368.92 238.691,362.369 238.434,355.796 238.12,349.197 237.747,342.565 237.315,335.895 236.822,329.181 236.269,322.417 235.653,315.598 234.973,308.716 234.229,301.766 233.418,294.741 232.539,287.633 231.589,280.436 230.568,273.141 229.472,265.741 228.3,258.228 227.048,250.593 225.714,242.826 224.294,234.918 222.785,226.859 221.184,218.637 219.485,210.241 217.686,201.658 215.781,192.875 213.765,183.879 211.633,174.653 209.378,165.182 206.993,155.447 204.472,145.43 201.807,135.111 198.988,124.467 196.007,113.474 192.853,102.105 189.515,90.3325 185.98,78.1246 182.235,65.447 180.771,60.5844 " />
</g>

<g fill="none" stroke="#ff0000" stroke-opacity="1" stroke-width="4.16667" stroke-linecap="butt" stroke-linejoin="round" transform="matrix(0.719538,0,0,0.717448,-73.7118,-42.0261)"
font-family="Helvetica" font-size="13" font-weight="400" font-style="normal" 
>
<polyline fill="none" vector-effect="none" points="463.251,587.037 696.645,511.203 696.645,265.797 463.251,189.963 319.005,388.5 463.251,587.037 " />
</g>
</g>
</svg>
