<?xml version="1.0" encoding="UTF-8" standalone="no"?>
<svg width="221.897mm" height="171.45mm"
 viewBox="0 0 629 486"
 xmlns="http://www.w3.org/2000/svg" xmlns:xlink="http://www.w3.org/1999/xlink"  version="1.2" baseProfile="tiny">
<title>Qt SVG Document</title>
<desc>MATLAB, The MathWorks, Inc. Version 25.2.0.3150157 R2025b Update 4</desc>
<defs>
</defs>
<g fill="none" stroke="black" stroke-width="1" fill-rule="evenodd" stroke-linecap="square" stroke-linejoin="bevel" >

<g fill="#000000" fill-opacity="1" stroke="none" transform="matrix(0.722738,0,0,0.719404,-75.9696,-41.7243)"
font-family="Sans Serif" font-size="9" font-weight="400" font-style="normal" 
>
<path vector-effect="none" fill-rule="evenodd" d="M105,57 L976,57 L976,734 L105,734 L105,57"/>
</g>

<g fill="#121212" fill-opacity="1" stroke="none" transform="matrix(7.22738e-05,0,0,7.19404e-05,-75.9696,-41.7243)"
font-family="Sans Serif" font-size="9" font-weight="400" font-style="normal" 
>
<path vector-effect="none" fill-rule="evenodd" d="M1.41662e+06,600000 L1.41662e+06,7.14e+06 L9.71338e+06,7.14e+06 L9.71338e+06,600000 L1.41662e+06,600000"/>
</g>

<g fill="#d9d9d9" fill-opacity="1" stroke="#d9d9d9" stroke-opacity="1" stroke-width="0.694444" stroke-linecap="square" stroke-linejoin="round" transform="matrix(0.722738,0,0,0.719404,-75.9696,-41.7243)"
font-family="Sans Serif" font-size="9" font-weight="400" font-style="normal" 
>
<polyline fill="none" vector-effect="none" points="141.662,714 971.338,714 " />
<polyline fill="none" vector-effect="none" points="218.358,714 218.358,705.703 " />
<polyline fill="none" vector-effect="none" points="325.137,714 325.137,705.703 " />
<polyline fill="none" vector-effect="none" points="431.916,714 431.916,705.703 " />
<polyline fill="none" vector-effect="none" points="538.695,714 538.695,705.703 " />
<polyline fill="none" vector-effect="none" points="645.474,714 645.474,705.703 " />
<polyline fill="none" vector-effect="none" points="752.253,714 752.253,705.703 " />
<polyline fill="none" vector-effect="none" points="859.032,714 859.032,705.703 " />
<polyline fill="none" vector-effect="none" points="965.811,714 965.811,705.703 " />
</g>

<g fill="#d9d9d9" fill-opacity="1" stroke="#d9d9d9" stroke-opacity="1" stroke-width="1" stroke-linecap="square" stroke-linejoin="bevel" transform="matrix(0.722738,0,0,0.719404,71.0047,484.56)"
font-family="Helvetica" font-size="13" font-weight="400" font-style="normal" 
>
<text fill="#d9d9d9" fill-opacity="1" stroke="none" xml:space="preserve" x="0" y="0" font-family="Helvetica" font-size="13" font-weight="400" font-style="normal" 
 >-0.15</text>
</g>

<g fill="#d9d9d9" fill-opacity="1" stroke="#d9d9d9" stroke-opacity="1" stroke-width="1" stroke-linecap="square" stroke-linejoin="bevel" transform="matrix(0.722738,0,0,0.719404,151.069,484.56)"
font-family="Helvetica" font-size="13" font-weight="400" font-style="normal" 
>
<text fill="#d9d9d9" fill-opacity="1" stroke="none" xml:space="preserve" x="0" y="0" font-family="Helvetica" font-size="13" font-weight="400" font-style="normal" 
 >-0.1</text>
</g>

<g fill="#d9d9d9" fill-opacity="1" stroke="#d9d9d9" stroke-opacity="1" stroke-width="1" stroke-linecap="square" stroke-linejoin="bevel" transform="matrix(0.722738,0,0,0.719404,225.351,484.56)"
font-family="Helvetica" font-size="13" font-weight="400" font-style="normal" 
>
<text fill="#d9d9d9" fill-opacity="1" stroke="none" xml:space="preserve" x="0" y="0" font-family="Helvetica" font-size="13" font-weight="400" font-style="normal" 
 >-0.05</text>
</g>

<g fill="#d9d9d9" fill-opacity="1" stroke="#d9d9d9" stroke-opacity="1" stroke-width="1" stroke-linecap="square" stroke-linejoin="bevel" transform="matrix(0.722738,0,0,0.719404,310.836,484.56)"
font-family="Helvetica" font-size="13" font-weight="400" font-style="normal" 
>
<text fill="#d9d9d9" fill-opacity="1" stroke="none" xml:space="preserve" x="0" y="0" font-family="Helvetica" font-size="13" font-weight="400" font-style="normal" 
 >0</text>
</g>

<g fill="#d9d9d9" fill-opacity="1" stroke="#d9d9d9" stroke-opacity="1" stroke-width="1" stroke-linecap="square" stroke-linejoin="bevel" transform="matrix(0.722738,0,0,0.719404,381.504,484.56)"
font-family="Helvetica" font-size="13" font-weight="400" font-style="normal" 
>
<text fill="#d9d9d9" fill-opacity="1" stroke="none" xml:space="preserve" x="0" y="0" font-family="Helvetica" font-size="13" font-weight="400" font-style="normal" 
 >0.05</text>
</g>

<g fill="#d9d9d9" fill-opacity="1" stroke="#d9d9d9" stroke-opacity="1" stroke-width="1" stroke-linecap="square" stroke-linejoin="bevel" transform="matrix(0.722738,0,0,0.719404,461.207,484.56)"
font-family="Helvetica" font-size="13" font-weight="400" font-style="normal" 
>
<text fill="#d9d9d9" fill-opacity="1" stroke="none" xml:space="preserve" x="0" y="0" font-family="Helvetica" font-size="13" font-weight="400" font-style="normal" 
 >0.1</text>
</g>

<g fill="#d9d9d9" fill-opacity="1" stroke="#d9d9d9" stroke-opacity="1" stroke-width="1" stroke-linecap="square" stroke-linejoin="bevel" transform="matrix(0.722738,0,0,0.719404,535.851,484.56)"
font-family="Helvetica" font-size="13" font-weight="400" font-style="normal" 
>
<text fill="#d9d9d9" fill-opacity="1" stroke="none" xml:space="preserve" x="0" y="0" font-family="Helvetica" font-size="13" font-weight="400" font-style="normal" 
 >0.15</text>
</g>

<g fill="#d9d9d9" fill-opacity="1" stroke="#d9d9d9" stroke-opacity="1" stroke-width="1" stroke-linecap="square" stroke-linejoin="bevel" transform="matrix(0.722738,0,0,0.719404,615.553,484.56)"
font-family="Helvetica" font-size="13" font-weight="400" font-style="normal" 
>
<text fill="#d9d9d9" fill-opacity="1" stroke="none" xml:space="preserve" x="0" y="0" font-family="Helvetica" font-size="13" font-weight="400" font-style="normal" 
 >0.2</text>
</g>

<g fill="#d9d9d9" fill-opacity="1" stroke="#d9d9d9" stroke-opacity="1" stroke-width="0.694444" stroke-linecap="square" stroke-linejoin="round" transform="matrix(0.722738,0,0,0.719404,-75.9696,-41.7243)"
font-family="Helvetica" font-size="13" font-weight="400" font-style="normal" 
>
<polyline fill="none" vector-effect="none" points="141.662,714 141.662,60 " />
<polyline fill="none" vector-effect="none" points="141.662,707.337 149.958,707.337 " />
<polyline fill="none" vector-effect="none" points="141.662,600.558 149.958,600.558 " />
<polyline fill="none" vector-effect="none" points="141.662,493.779 149.958,493.779 " />
<polyline fill="none" vector-effect="none" points="141.662,387 149.958,387 " />
<polyline fill="none" vector-effect="none" points="141.662,280.221 149.958,280.221 " />
<polyline fill="none" vector-effect="none" points="141.662,173.442 149.958,173.442 " />
<polyline fill="none" vector-effect="none" points="141.662,66.663 149.958,66.663 " />
</g>

<g fill="#d9d9d9" fill-opacity="1" stroke="#d9d9d9" stroke-opacity="1" stroke-width="1" stroke-linecap="square" stroke-linejoin="bevel" transform="matrix(0.722738,0,0,0.719404,0.717263,470.374)"
font-family="Helvetica" font-size="13" font-weight="400" font-style="normal" 
>
<text fill="#d9d9d9" fill-opacity="1" stroke="none" xml:space="preserve" x="0" y="0" font-family="Helvetica" font-size="13" font-weight="400" font-style="normal" 
 >-0.15</text>
</g>

<g fill="#d9d9d9" fill-opacity="1" stroke="#d9d9d9" stroke-opacity="1" stroke-width="1" stroke-linecap="square" stroke-linejoin="bevel" transform="matrix(0.722738,0,0,0.719404,6.49916,393.557)"
font-family="Helvetica" font-size="13" font-weight="400" font-style="normal" 
>
<text fill="#d9d9d9" fill-opacity="1" stroke="none" xml:space="preserve" x="0" y="0" font-family="Helvetica" font-size="13" font-weight="400" font-style="normal" 
 >-0.1</text>
</g>

<g fill="#d9d9d9" fill-opacity="1" stroke="#d9d9d9" stroke-opacity="1" stroke-width="1" stroke-linecap="square" stroke-linejoin="bevel" transform="matrix(0.722738,0,0,0.719404,0.717263,316.74)"
font-family="Helvetica" font-size="13" font-weight="400" font-style="normal" 
>
<text fill="#d9d9d9" fill-opacity="1" stroke="none" xml:space="preserve" x="0" y="0" font-family="Helvetica" font-size="13" font-weight="400" font-style="normal" 
 >-0.05</text>
</g>

<g fill="#d9d9d9" fill-opacity="1" stroke="#d9d9d9" stroke-opacity="1" stroke-width="1" stroke-linecap="square" stroke-linejoin="bevel" transform="matrix(0.722738,0,0,0.719404,17.3402,239.923)"
font-family="Helvetica" font-size="13" font-weight="400" font-style="normal" 
>
<text fill="#d9d9d9" fill-opacity="1" stroke="none" xml:space="preserve" x="0" y="0" font-family="Helvetica" font-size="13" font-weight="400" font-style="normal" 
 >0</text>
</g>

<g fill="#d9d9d9" fill-opacity="1" stroke="#d9d9d9" stroke-opacity="1" stroke-width="1" stroke-linecap="square" stroke-linejoin="bevel" transform="matrix(0.722738,0,0,0.719404,4.33095,163.105)"
font-family="Helvetica" font-size="13" font-weight="400" font-style="normal" 
>
<text fill="#d9d9d9" fill-opacity="1" stroke="none" xml:space="preserve" x="0" y="0" font-family="Helvetica" font-size="13" font-weight="400" font-style="normal" 
 >0.05</text>
</g>

<g fill="#d9d9d9" fill-opacity="1" stroke="#d9d9d9" stroke-opacity="1" stroke-width="1" stroke-linecap="square" stroke-linejoin="bevel" transform="matrix(0.722738,0,0,0.719404,9.39011,86.288)"
font-family="Helvetica" font-size="13" font-weight="400" font-style="normal" 
>
<text fill="#d9d9d9" fill-opacity="1" stroke="none" xml:space="preserve" x="0" y="0" font-family="Helvetica" font-size="13" font-weight="400" font-style="normal" 
 >0.1</text>
</g>

<g fill="#d9d9d9" fill-opacity="1" stroke="#d9d9d9" stroke-opacity="1" stroke-width="1" stroke-linecap="square" stroke-linejoin="bevel" transform="matrix(0.722738,0,0,0.719404,4.33095,9.47071)"
font-family="Helvetica" font-size="13" font-weight="400" font-style="normal" 
>
<text fill="#d9d9d9" fill-opacity="1" stroke="none" xml:space="preserve" x="0" y="0" font-family="Helvetica" font-size="13" font-weight="400" font-style="normal" 
 >0.15</text>
</g>

<g fill="#2699d4" fill-opacity="0.14902" stroke="none" transform="matrix(7.22738e-05,0,0,7.19404e-05,-75.9696,-41.7243)"
font-family="Helvetica" font-size="13" font-weight="400" font-style="normal" 
>
<path vector-effect="none" fill-rule="evenodd" d="M9.71338e+06,7.14e+06 L9.71338e+06,600000 L8.65695e+06,600000 L1.41662e+06,600000 L1.41662e+06,7.14e+06 L2.11695e+06,7.14e+06 L9.71338e+06,7.14e+06"/>
</g>

<g fill="#75ab2e" fill-opacity="0.34902" stroke="none" transform="matrix(7.22738e-05,0,0,7.19404e-05,-75.9696,-41.7243)"
font-family="Helvetica" font-size="13" font-weight="400" font-style="normal" 
>
<path vector-effect="none" fill-rule="evenodd" d="M1.41662e+06,2.03884e+06 L1.41662e+06,2.185e+06 L1.9582e+06,2.35374e+06 L2.38823e+06,2.49478e+06 L2.99676e+06,2.73075e+06 L3.1557e+06,2.61971e+06 L3.30859e+06,2.50973e+06 L3.67592e+06,2.30803e+06 L3.75556e+06,2.11456e+06 L3.72808e+06,1.80542e+06 L3.62404e+06,1.3498e+06 L3.68811e+06,991355 L3.66629e+06,600000 L3.61419e+06,600000 L3.53178e+06,600000 L3.47782e+06,600000 L2.74598e+06,600000 L1.41662e+06,600000 L1.41662e+06,675495 L1.41662e+06,1.17869e+06 L1.41662e+06,1.43733e+06 L1.41662e+06,2.03884e+06"/>
</g>

<g fill="#75ab2e" fill-opacity="0.34902" stroke="none" transform="matrix(7.22738e-05,0,0,7.19404e-05,-75.9696,-41.7243)"
font-family="Helvetica" font-size="13" font-weight="400" font-style="normal" 
>
<path vector-effect="none" fill-rule="evenodd" d="M3.84503e+06,600000 L3.71293e+06,600000 L3.85197e+06,746221 L4.27651e+06,723760 L4.36274e+06,654382 L4.84613e+06,677085 L5.27183e+06,1.20109e+06 L5.48109e+06,1.20985e+06 L5.83776e+06,1.20559e+06 L6.23289e+06,1.13762e+06 L6.50817e+06,1.20548e+06 L6.64744e+06,1.09227e+06 L6.84637e+06,600000 L6.80393e+06,600000 L6.53926e+06,600000 L6.35262e+06,600000 L5.0612e+06,600000 L4.9507e+06,600000 L4.89856e+06,600000 L4.41179e+06,600000 L4.00557e+06,600000 L3.84503e+06,600000"/>
</g>

<g fill="none" stroke="#1a330d" stroke-opacity="1" stroke-width="0.486111" stroke-linecap="square" stroke-linejoin="miter" stroke-miterlimit="5" transform="matrix(0.722738,0,0,0.719404,-75.9696,-41.7243)"
font-family="Helvetica" font-size="13" font-weight="400" font-style="normal" 
>
<polyline fill="none" vector-effect="none" points="684.637,60 664.744,109.227 650.817,120.548 623.289,113.762 583.776,120.559 548.109,120.985 527.183,120.109 484.613,67.7086 436.274,65.4382 427.651,72.376 385.197,74.6221 371.293,60 " />
<polyline fill="none" vector-effect="none" points="366.629,60 368.811,99.1355 362.404,134.98 372.808,180.542 375.556,211.456 367.592,230.803 330.859,250.973 315.57,261.97 299.676,273.075 238.823,249.478 195.82,235.374 141.662,218.5 " />
</g>

<g fill="#75ab2e" fill-opacity="0.34902" stroke="none" transform="matrix(7.22738e-05,0,0,7.19404e-05,-75.9696,-41.7243)"
font-family="Helvetica" font-size="13" font-weight="400" font-style="normal" 
>
<path vector-effect="none" fill-rule="evenodd" d="M8.05071e+06,4.87902e+06 L8.30074e+06,5.0863e+06 L9.11331e+06,4.92321e+06 L9.35489e+06,5.06571e+06 L9.24426e+06,5.05541e+06 L9.4801e+06,5.23289e+06 L9.61489e+06,4.99053e+06 L9.71338e+06,5.03196e+06 L9.71338e+06,4.82233e+06 L9.71338e+06,4.63299e+06 L9.71338e+06,4.48805e+06 L9.71338e+06,4.13089e+06 L9.71338e+06,2.11549e+06 L9.71338e+06,2.081e+06 L9.71338e+06,2.06547e+06 L9.69846e+06,2.09441e+06 L9.36184e+06,2.05753e+06 L9.28067e+06,2.3068e+06 L9.01553e+06,2.56644e+06 L8.85092e+06,2.55322e+06 L8.54901e+06,2.81045e+06 L8.39947e+06,3.07802e+06 L8.23239e+06,3.30189e+06 L8.41599e+06,3.55955e+06 L8.69307e+06,3.76923e+06 L8.74512e+06,3.83733e+06 L8.80476e+06,3.87e+06 L9.06164e+06,3.89773e+06 L9.34506e+06,3.91665e+06 L9.48057e+06,4.02124e+06 L9.58867e+06,4.11855e+06 L9.54946e+06,4.25837e+06 L9.45845e+06,4.46533e+06 L8.75584e+06,4.76876e+06 L8.54524e+06,4.56129e+06 L8.51063e+06,4.52009e+06 L8.25449e+06,4.62001e+06 L8.86393e+06,4.33916e+06 L8.59792e+06,4.31582e+06 L8.29674e+06,4.37104e+06 L7.78105e+06,4.47847e+06 L7.54143e+06,4.40642e+06 L7.49396e+06,4.38478e+06 L7.70293e+06,4.49402e+06 L7.96757e+06,4.64104e+06 L8.10401e+06,4.69439e+06 L8.05071e+06,4.87902e+06"/>
</g>

<g fill="none" stroke="#1a330d" stroke-opacity="1" stroke-width="0.486111" stroke-linecap="square" stroke-linejoin="miter" stroke-miterlimit="5" transform="matrix(0.722738,0,0,0.719404,-75.9696,-41.7243)"
font-family="Helvetica" font-size="13" font-weight="400" font-style="normal" 
>
<polyline fill="none" vector-effect="none" points="839.947,307.802 854.901,281.045 885.092,255.322 901.553,256.644 928.067,230.68 936.184,205.753 969.846,209.441 971.338,206.547 " />
<polyline fill="none" vector-effect="none" points="971.338,503.196 961.489,499.053 948.01,523.289 924.426,505.541 935.489,506.571 911.331,492.321 830.074,508.63 805.071,487.902 810.401,469.439 796.757,464.104 770.293,449.402 749.396,438.478 754.143,440.642 778.105,447.847 829.674,437.104 859.792,431.582 886.393,433.916 825.449,462.001 851.063,452.009 854.524,456.129 875.584,476.876 945.845,446.533 954.946,425.837 958.867,411.855 948.057,402.124 934.506,391.665 906.164,389.772 880.476,387 874.512,383.733 869.307,376.923 841.599,355.955 823.239,330.189 839.947,307.802 839.947,307.802 " />
</g>

<g fill="#75ab2e" fill-opacity="0.34902" stroke="none" transform="matrix(7.22738e-05,0,0,7.19404e-05,-75.9696,-41.7243)"
font-family="Helvetica" font-size="13" font-weight="400" font-style="normal" 
>
<path vector-effect="none" fill-rule="evenodd" d="M3.4018e+06,7.14e+06 L3.43853e+06,7.06515e+06 L3.3003e+06,7.01303e+06 L3.36236e+06,6.87981e+06 L3.69351e+06,6.64706e+06 L4.02444e+06,6.81211e+06 L4.18861e+06,6.84323e+06 L4.42803e+06,6.83799e+06 L4.56014e+06,6.58076e+06 L4.74694e+06,6.32228e+06 L5.07313e+06,5.88389e+06 L5.15194e+06,5.65022e+06 L5.2507e+06,5.55509e+06 L5.53386e+06,5.53062e+06 L5.80938e+06,5.47969e+06 L6.02881e+06,5.43226e+06 L6.26215e+06,5.4117e+06 L6.39135e+06,5.4233e+06 L6.47553e+06,5.35587e+06 L6.46008e+06,5.29213e+06 L6.7484e+06,5.35065e+06 L6.95778e+06,5.22538e+06 L7.11593e+06,5.12398e+06 L7.18953e+06,4.97024e+06 L7.08648e+06,4.79972e+06 L7.01488e+06,4.93808e+06 L6.84491e+06,5.00736e+06 L6.68605e+06,4.94176e+06 L6.66328e+06,5.03633e+06 L6.5024e+06,4.94451e+06 L6.28603e+06,4.99815e+06 L6.31119e+06,4.90127e+06 L6.12688e+06,4.94327e+06 L6.11656e+06,4.80989e+06 L5.9742e+06,4.66152e+06 L5.84149e+06,4.77261e+06 L5.86532e+06,4.63557e+06 L5.80059e+06,4.55861e+06 L5.58651e+06,4.45544e+06 L5.33573e+06,4.39294e+06 L5.22682e+06,4.22261e+06 L5.17461e+06,4.13615e+06 L5.0755e+06,4.05017e+06 L4.72984e+06,3.96537e+06 L4.57647e+06,3.91887e+06 L4.47179e+06,3.82031e+06 L4.30996e+06,3.87e+06 L4.19881e+06,4.07759e+06 L4.20007e+06,4.28714e+06 L4.14278e+06,4.34416e+06 L4.03658e+06,4.51643e+06 L4.02444e+06,4.62961e+06 L4.14598e+06,4.72803e+06 L3.89961e+06,4.64353e+06 L3.75389e+06,4.77831e+06 L3.59038e+06,4.92299e+06 L3.62089e+06,5.04458e+06 L3.54138e+06,5.18821e+06 L3.37784e+06,5.3552e+06 L3.19847e+06,5.53611e+06 L3.26075e+06,5.7481e+06 L3.14264e+06,6.02017e+06 L3.0227e+06,6.22716e+06 L3.06601e+06,6.58518e+06 L2.8734e+06,6.55371e+06 L3.13843e+06,6.75892e+06 L3.32501e+06,6.79032e+06 L3.1638e+06,7.14e+06 L3.18727e+06,7.14e+06 L3.28563e+06,7.14e+06 L3.38888e+06,7.14e+06 L3.4018e+06,7.14e+06"/>
</g>

<g fill="none" stroke="#1a330d" stroke-opacity="1" stroke-width="0.486111" stroke-linecap="square" stroke-linejoin="miter" stroke-miterlimit="5" transform="matrix(0.722738,0,0,0.719404,-75.9696,-41.7243)"
font-family="Helvetica" font-size="13" font-weight="400" font-style="normal" 
>
<polyline fill="none" vector-effect="none" points="316.38,714 332.501,679.032 313.843,675.892 287.34,655.371 306.601,658.518 302.27,622.716 314.264,602.017 326.075,574.81 319.846,553.611 337.784,535.52 354.138,518.821 362.089,504.458 359.038,492.299 375.389,477.831 389.961,464.353 414.598,472.803 402.444,462.961 403.658,451.643 414.278,434.416 420.007,428.714 419.881,407.759 430.996,387 447.179,382.031 457.647,391.887 472.984,396.537 507.55,405.017 517.461,413.615 522.682,422.261 533.573,439.294 558.651,445.544 580.059,455.861 586.532,463.557 584.149,477.261 597.42,466.152 611.656,480.989 612.688,494.327 631.119,490.127 628.603,499.815 650.24,494.451 666.328,503.633 668.605,494.176 684.491,500.736 701.487,493.808 708.648,479.972 718.953,497.024 711.593,512.398 695.778,522.538 674.84,535.065 646.008,529.213 647.553,535.587 639.135,542.33 626.215,541.17 602.881,543.226 580.938,547.969 553.385,553.062 525.07,555.509 515.194,565.022 507.313,588.389 474.694,632.228 456.014,658.076 442.803,683.799 418.861,684.323 402.444,681.211 369.351,664.706 336.236,687.981 330.03,701.303 343.853,706.515 340.18,714 " />
</g>

<g fill="none" stroke="#000000" stroke-opacity="1" stroke-width="0.694444" stroke-linecap="butt" stroke-linejoin="round" transform="matrix(0.722738,0,0,0.719404,-75.9696,-41.7243)"
font-family="Helvetica" font-size="13" font-weight="400" font-style="normal" 
>
<polyline fill="none" vector-effect="none" points="879.552,512.657 871.864,517.389 864.321,522.032 856.914,526.591 849.635,531.072 842.478,535.477 835.434,539.813 828.496,544.084 821.659,548.292 814.916,552.443 808.26,556.539 801.687,560.585 795.191,564.584 788.767,568.539 782.409,572.452 776.112,576.328 769.873,580.168 763.686,583.977 757.548,587.755 751.453,591.507 745.398,595.234 739.379,598.939 733.391,602.624 727.432,606.293 721.496,609.946 715.581,613.587 709.682,617.218 703.797,620.841 697.92,624.458 692.05,628.072 686.182,631.684 680.312,635.297 674.437,638.913 668.554,642.534 662.659,646.163 656.748,649.801 650.817,653.452 644.863,657.117 638.882,660.798 632.871,664.499 626.824,668.22 620.739,671.966 614.611,675.738 608.435,679.539 602.208,683.372 595.925,687.24 589.582,691.144 583.173,695.089 576.693,699.078 570.138,703.113 563.502,707.198 556.779,711.336 552.451,714 " />
<polyline fill="none" vector-effect="none" points="849.565,488.113 841.321,491.673 833.27,495.15 825.401,498.549 817.704,501.873 810.167,505.128 802.781,508.318 795.539,511.445 788.431,514.515 781.449,517.531 774.586,520.494 767.834,523.41 761.188,526.28 754.641,529.108 748.186,531.896 741.818,534.646 735.531,537.361 729.321,540.043 723.181,542.695 717.107,545.318 711.094,547.915 705.138,550.487 699.235,553.036 693.379,555.565 687.568,558.075 681.796,560.567 676.061,563.044 670.358,565.507 664.684,567.958 659.035,570.397 653.407,572.828 647.797,575.251 642.201,577.667 636.616,580.079 631.039,582.488 625.465,584.895 619.893,587.302 614.317,589.709 608.736,592.12 603.145,594.535 597.541,596.955 591.92,599.382 586.28,601.818 580.616,604.264 574.925,606.722 569.203,609.193 563.446,611.679 557.651,614.182 551.813,616.703 545.929,619.244 539.995,621.807 534.005,624.394 527.956,627.006 521.842,629.647 515.66,632.316 509.404,635.018 503.069,637.754 496.649,640.527 490.139,643.338 483.533,646.191 476.824,649.089 470.006,652.033 463.072,655.028 456.014,658.076 448.826,661.18 441.498,664.345 434.022,667.574 426.389,670.87 418.588,674.239 410.611,677.684 402.444,681.211 394.078,684.824 385.497,688.53 376.69,692.334 367.641,696.242 358.334,700.261 348.752,704.399 338.878,708.664 328.69,713.063 326.521,714 " />
<polyline fill="none" vector-effect="none" points="827.299,464.341 818.735,466.925 810.401,469.439 802.283,471.887 794.368,474.275 786.643,476.605 779.097,478.882 771.719,481.107 764.5,483.285 757.431,485.417 750.502,487.507 743.706,489.557 737.033,491.57 730.478,493.547 724.034,495.491 717.693,497.404 711.449,499.288 705.296,501.143 699.23,502.973 693.244,504.779 687.333,506.562 681.492,508.324 675.716,510.066 670.002,511.79 664.344,513.497 658.739,515.188 653.182,516.864 647.669,518.527 642.196,520.178 636.761,521.817 631.358,523.447 625.985,525.068 620.637,526.681 615.313,528.287 610.007,529.888 604.717,531.483 599.44,533.075 594.172,534.664 588.911,536.251 583.652,537.837 578.393,539.424 573.131,541.011 567.861,542.601 562.582,544.193 557.29,545.79 551.981,547.391 546.652,548.999 541.3,550.613 535.921,552.235 530.513,553.867 525.07,555.509 519.59,557.162 514.069,558.827 508.503,560.506 502.888,562.2 497.22,563.91 491.495,565.637 485.707,567.382 479.854,569.148 473.929,570.935 467.928,572.746 461.845,574.58 455.676,576.441 449.414,578.33 443.054,580.249 436.589,582.199 430.013,584.183 423.317,586.202 416.496,588.26 409.541,590.358 402.444,592.499 395.196,594.685 387.788,596.92 380.209,599.206 372.449,601.547 364.496,603.946 356.338,606.407 347.962,608.933 339.353,611.53 330.497,614.202 321.376,616.953 311.974,619.789 302.27,622.716 292.244,625.741 281.873,628.869 271.132,632.109 259.995,635.469 248.431,638.957 236.408,642.583 223.892,646.359 210.841,650.296 " />
<polyline fill="none" vector-effect="none" points="811.602,441.177 802.861,442.917 794.374,444.607 786.127,446.249 778.105,447.847 770.293,449.402 762.678,450.918 755.25,452.397 747.997,453.841 740.908,455.253 733.974,456.634 727.185,457.985 720.534,459.31 714.012,460.608 707.611,461.883 701.324,463.135 695.146,464.365 689.068,465.575 683.085,466.766 677.192,467.94 671.383,469.096 665.652,470.237 659.994,471.364 654.406,472.477 648.881,473.577 643.417,474.665 638.007,475.742 632.65,476.809 627.34,477.866 622.073,478.914 616.846,479.955 611.656,480.989 606.499,482.016 601.371,483.037 596.269,484.052 591.19,485.064 586.131,486.071 581.087,487.075 576.058,488.077 571.038,489.076 566.025,490.074 561.016,491.072 556.009,492.069 550.999,493.066 545.984,494.065 540.96,495.065 535.926,496.068 530.877,497.073 525.81,498.082 520.723,499.095 515.611,500.112 510.472,501.136 505.303,502.165 500.099,503.201 494.857,504.245 489.574,505.297 484.246,506.358 478.869,507.428 473.439,508.509 467.952,509.602 462.403,510.707 456.789,511.825 451.104,512.957 445.343,514.104 439.502,515.267 433.575,516.447 427.556,517.645 421.44,518.863 415.221,520.101 408.891,521.362 402.444,522.645 395.873,523.954 389.17,525.288 382.327,526.651 375.334,528.043 368.183,529.467 360.863,530.925 353.365,532.418 345.676,533.949 337.784,535.52 329.676,537.134 321.339,538.794 312.757,540.503 303.912,542.264 294.789,544.081 285.367,545.957 275.625,547.897 265.541,549.905 255.09,551.985 244.244,554.145 232.974,556.389 " />
<polyline fill="none" vector-effect="none" points="801.696,418.444 792.863,419.429 784.3,420.383 775.992,421.31 767.92,422.21 760.072,423.085 752.433,423.937 744.991,424.766 737.733,425.576 730.649,426.366 723.728,427.137 716.961,427.892 710.338,428.63 703.851,429.354 697.493,430.063 691.255,430.758 685.13,431.441 679.112,432.112 673.195,432.772 667.372,433.421 661.638,434.061 655.987,434.691 650.414,435.312 644.914,435.925 639.483,436.531 634.116,437.129 628.808,437.721 623.556,438.307 618.355,438.887 613.202,439.461 608.092,440.031 603.023,440.596 597.99,441.157 592.991,441.715 588.021,442.269 583.078,442.82 578.158,443.369 573.259,443.915 568.377,444.459 563.508,445.002 558.651,445.544 553.802,446.084 548.959,446.625 544.117,447.164 539.275,447.704 534.428,448.245 529.576,448.786 524.713,449.328 519.838,449.872 514.947,450.417 510.038,450.964 505.106,451.514 500.149,452.067 495.165,452.623 490.148,453.182 485.097,453.745 480.007,454.313 474.875,454.885 469.697,455.463 464.469,456.045 459.189,456.634 453.85,457.229 448.45,457.832 442.983,458.441 437.446,459.059 431.833,459.684 426.139,460.319 420.359,460.964 414.487,461.619 408.517,462.284 402.444,462.961 396.261,463.651 389.961,464.353 383.536,465.07 376.979,465.801 370.281,466.548 363.434,467.311 356.429,468.092 349.255,468.892 341.902,469.712 334.358,470.553 326.611,471.417 318.647,472.305 310.453,473.219 302.014,474.16 293.311,475.13 284.329,476.132 275.046,477.167 265.441,478.238 255.493,479.347 245.175,480.497 " />
<polyline fill="none" vector-effect="none" points="797.105,395.962 788.234,396.24 779.642,396.508 771.309,396.769 763.221,397.022 755.361,397.268 747.715,397.507 740.271,397.74 733.015,397.966 725.938,398.188 719.027,398.404 712.273,398.615 705.668,398.822 699.201,399.024 692.866,399.222 686.653,399.416 680.557,399.607 674.57,399.794 668.686,399.978 662.899,400.159 657.202,400.337 651.591,400.513 646.059,400.686 640.603,400.856 635.217,401.025 629.897,401.191 624.638,401.356 619.437,401.518 614.288,401.679 609.189,401.839 604.135,401.997 599.123,402.154 594.149,402.309 589.21,402.464 584.302,402.617 579.423,402.77 574.569,402.922 569.736,403.073 564.923,403.223 560.125,403.373 555.34,403.523 550.565,403.672 545.796,403.821 541.032,403.97 536.269,404.119 531.504,404.268 526.735,404.417 521.957,404.567 517.169,404.716 512.368,404.867 507.55,405.017 502.713,405.169 497.853,405.321 492.967,405.473 488.052,405.627 483.105,405.782 478.122,405.938 473.1,406.095 468.035,406.253 462.925,406.413 457.764,406.574 452.548,406.737 447.275,406.902 441.94,407.069 436.537,407.238 431.063,407.409 425.513,407.583 419.881,407.759 414.163,407.938 408.353,408.119 402.444,408.304 396.432,408.492 390.308,408.684 384.067,408.879 377.7,409.078 371.201,409.281 364.56,409.489 357.769,409.701 350.819,409.919 343.699,410.141 336.399,410.37 328.907,410.604 321.211,410.845 313.297,411.092 305.151,411.347 296.757,411.609 288.099,411.88 279.158,412.16 269.915,412.449 260.348,412.748 250.433,413.058 " />
<polyline fill="none" vector-effect="none" points="797.612,373.553 788.745,373.136 780.156,372.732 771.826,372.341 763.739,371.961 755.88,371.591 748.235,371.232 740.791,370.882 733.535,370.541 726.456,370.208 719.545,369.883 712.789,369.566 706.182,369.255 699.713,368.951 693.375,368.653 687.159,368.361 681.06,368.075 675.07,367.793 669.182,367.516 663.39,367.244 657.689,366.976 652.074,366.712 646.538,366.452 641.077,366.195 635.686,365.942 630.36,365.691 625.096,365.444 619.889,365.199 614.734,364.957 609.629,364.717 604.569,364.479 599.55,364.243 594.57,364.009 589.624,363.777 584.71,363.546 579.823,363.316 574.962,363.088 570.122,362.86 565.301,362.633 560.495,362.408 555.702,362.182 550.919,361.957 546.142,361.733 541.37,361.509 536.598,361.284 531.824,361.06 527.045,360.835 522.259,360.61 517.461,360.385 512.65,360.159 507.822,359.932 502.974,359.704 498.104,359.475 493.207,359.245 488.281,359.013 483.322,358.78 478.328,358.545 473.294,358.309 468.217,358.07 463.093,357.829 457.919,357.586 452.69,357.34 447.403,357.092 442.053,356.84 436.636,356.586 431.147,356.328 425.581,356.066 419.933,355.801 414.199,355.531 408.371,355.257 402.444,354.978 396.413,354.695 390.27,354.406 384.009,354.112 377.622,353.812 371.101,353.505 364.438,353.192 357.624,352.872 350.649,352.544 343.504,352.208 336.178,351.864 328.658,351.51 320.933,351.147 312.989,350.774 304.811,350.389 296.384,349.993 287.69,349.585 278.713,349.163 269.43,348.726 259.822,348.275 249.864,347.807 " />
<polyline fill="none" vector-effect="none" points="803.241,351.036 794.421,349.905 785.869,348.808 777.569,347.744 769.505,346.709 761.661,345.704 754.025,344.724 746.584,343.77 739.326,342.839 732.24,341.931 725.316,341.043 718.545,340.175 711.917,339.325 705.424,338.492 699.058,337.676 692.812,336.875 686.678,336.088 680.65,335.315 674.722,334.555 668.888,333.807 663.141,333.07 657.477,332.343 651.891,331.627 646.377,330.92 640.931,330.222 635.548,329.531 630.224,328.849 624.955,328.173 619.737,327.504 614.565,326.841 609.438,326.183 604.349,325.53 599.297,324.883 594.277,324.239 589.287,323.599 584.322,322.962 579.381,322.329 574.459,321.697 569.554,321.068 564.662,320.441 559.78,319.815 554.907,319.19 550.037,318.566 545.17,317.941 540.3,317.317 535.427,316.692 530.546,316.066 525.654,315.439 520.75,314.81 515.828,314.179 510.888,313.545 505.924,312.909 500.935,312.269 495.916,311.625 490.865,310.978 485.778,310.325 480.652,309.668 475.482,309.005 470.266,308.336 464.999,307.661 459.677,306.978 454.297,306.288 448.853,305.59 443.342,304.883 437.758,304.167 432.097,303.441 426.354,302.705 420.522,301.957 414.598,301.197 408.574,300.425 402.444,299.639 396.203,298.838 389.841,298.023 383.353,297.191 376.73,296.341 369.965,295.474 363.047,294.587 355.967,293.679 348.716,292.749 341.282,291.796 333.653,290.817 325.818,289.813 317.762,288.779 309.471,287.716 300.929,286.621 292.12,285.491 283.024,284.325 273.622,283.119 263.892,281.871 253.811,280.579 243.351,279.237 " />
<polyline fill="none" vector-effect="none" points="814.258,328.23 805.544,326.33 797.081,324.484 788.853,322.689 780.846,320.942 773.046,319.241 765.44,317.582 758.018,315.963 750.768,314.382 743.68,312.836 736.745,311.323 729.953,309.842 723.296,308.39 716.766,306.965 710.356,305.567 704.058,304.194 697.866,302.843 691.774,301.514 685.776,300.206 679.865,298.917 674.037,297.645 668.286,296.391 662.607,295.152 656.996,293.928 651.448,292.718 645.958,291.521 640.523,290.335 635.138,289.16 629.799,287.996 624.503,286.841 619.246,285.694 614.024,284.555 608.833,283.423 603.672,282.297 598.535,281.177 593.419,280.061 588.323,278.949 583.241,277.841 578.172,276.735 573.112,275.631 568.057,274.529 563.006,273.427 557.954,272.325 552.898,271.222 547.837,270.118 542.766,269.012 537.682,267.903 532.582,266.791 527.463,265.674 522.322,264.553 517.156,263.426 511.96,262.293 506.732,261.153 501.469,260.004 496.165,258.848 490.819,257.682 485.425,256.505 479.981,255.318 474.481,254.118 468.922,252.905 463.3,251.679 457.609,250.438 451.844,249.18 446.002,247.906 440.077,246.614 434.062,245.302 427.953,243.969 421.743,242.615 415.427,241.237 408.996,239.834 402.444,238.405 395.764,236.948 388.948,235.461 381.987,233.943 374.871,232.391 367.592,230.803 360.138,229.177 352.5,227.511 344.665,225.802 336.62,224.048 328.352,222.244 319.846,220.389 311.087,218.478 302.057,216.509 292.738,214.476 283.109,212.376 273.149,210.203 262.834,207.953 252.138,205.62 241.033,203.198 229.487,200.68 " />
<polyline fill="none" vector-effect="none" points="831.196,304.958 822.682,302.192 814.392,299.499 806.312,296.873 798.429,294.312 790.731,291.811 783.208,289.366 775.849,286.975 768.644,284.634 761.585,282.34 754.662,280.091 747.869,277.884 741.196,275.716 734.638,273.585 728.187,271.489 721.836,269.425 715.581,267.393 709.414,265.389 703.33,263.412 697.325,261.461 691.392,259.533 685.528,257.628 679.727,255.743 673.984,253.877 668.296,252.029 662.659,250.197 657.068,248.381 651.519,246.578 646.008,244.787 640.533,243.008 635.088,241.239 629.671,239.479 624.279,237.727 618.906,235.981 613.552,234.241 608.211,232.506 602.881,230.774 597.558,229.045 592.24,227.317 586.922,225.589 581.602,223.86 576.277,222.13 570.942,220.397 565.596,218.66 560.234,216.917 554.853,215.169 549.451,213.414 544.022,211.65 538.565,209.877 533.074,208.093 527.548,206.297 521.981,204.488 516.37,202.665 510.711,200.826 505,198.971 499.232,197.097 493.404,195.203 487.511,193.288 481.547,191.35 475.508,189.388 469.389,187.4 463.184,185.384 456.888,183.338 450.495,181.261 443.998,179.15 437.391,177.003 430.667,174.818 423.818,172.593 416.837,170.325 409.715,168.011 402.444,165.648 395.015,163.234 387.417,160.766 379.64,158.239 371.673,155.65 363.503,152.995 355.118,150.271 346.503,147.472 337.643,144.593 328.523,141.63 319.125,138.576 309.429,135.426 299.416,132.172 289.063,128.808 278.346,125.326 267.238,121.717 255.71,117.971 243.732,114.079 231.267,110.029 218.278,105.809 204.723,101.405 " />
<polyline fill="none" vector-effect="none" points="854.901,281.045 846.745,277.268 838.774,273.577 830.976,269.966 823.342,266.43 815.862,262.966 808.527,259.569 801.328,256.235 794.257,252.961 787.307,249.742 780.471,246.576 773.741,243.46 767.112,240.39 760.576,237.363 754.129,234.377 747.764,231.43 741.476,228.518 735.261,225.639 729.112,222.792 723.026,219.973 716.997,217.181 711.021,214.414 705.095,211.669 699.213,208.946 693.372,206.241 687.568,203.553 681.796,200.88 676.054,198.221 670.338,195.573 664.643,192.936 658.966,190.307 653.304,187.685 647.653,185.068 642.01,182.455 636.372,179.843 630.734,177.233 625.094,174.621 619.447,172.006 613.792,169.386 608.123,166.761 602.438,164.128 596.732,161.486 591.004,158.833 585.248,156.168 579.461,153.488 573.639,150.792 567.778,148.077 561.875,145.344 555.925,142.588 549.924,139.809 543.867,137.004 537.751,134.172 531.57,131.309 525.32,128.415 518.995,125.486 512.59,122.52 506.1,119.514 499.519,116.466 492.841,113.374 486.06,110.233 479.169,107.042 472.16,103.797 465.028,100.493 457.763,97.129 450.358,93.6995 442.803,90.201 435.09,86.629 427.208,82.9791 419.148,79.2463 410.897,75.4254 402.444,71.5108 393.776,67.4966 384.88,63.3764 377.589,60 " />
<polyline fill="none" vector-effect="none" points="879.552,512.657 876.164,510.163 872.867,507.679 869.659,505.203 866.539,502.737 863.505,500.279 860.555,497.829 857.687,495.388 854.901,492.955 852.194,490.53 849.565,488.113 847.014,485.704 844.537,483.302 842.135,480.908 839.806,478.521 837.549,476.141 835.362,473.768 833.245,471.401 831.196,469.042 829.214,466.688 827.299,464.341 825.449,462.001 823.664,459.666 821.942,457.336 820.283,455.013 818.685,452.694 817.149,450.381 815.674,448.073 814.258,445.77 812.901,443.471 811.602,441.177 810.361,438.887 809.177,436.601 808.049,434.32 806.977,432.042 805.961,429.768 805,427.497 804.093,425.229 803.241,422.964 802.442,420.703 801.696,418.444 801.003,416.187 800.363,413.933 799.775,411.681 799.239,409.431 798.755,407.183 798.323,404.936 797.942,402.691 797.612,400.447 797.333,398.204 797.105,395.962 796.928,393.721 796.801,391.48 796.725,389.24 796.7,387 796.725,384.76 796.801,382.52 796.928,380.279 797.105,378.038 797.333,375.796 797.612,373.553 797.942,371.309 798.323,369.064 798.755,366.817 799.239,364.569 799.775,362.319 800.363,360.067 801.003,357.813 801.696,355.556 802.442,353.297 803.241,351.036 804.093,348.771 805,346.503 805.961,344.232 806.977,341.958 808.049,339.68 809.177,337.399 810.361,335.113 811.602,332.823 812.901,330.529 814.258,328.23 815.674,325.927 817.149,323.619 818.685,321.306 820.283,318.987 821.942,316.664 823.664,314.334 825.449,311.999 827.299,309.659 829.214,307.312 831.196,304.958 833.245,302.599 835.362,300.232 837.549,297.859 839.806,295.479 842.135,293.092 844.537,290.698 847.014,288.296 849.565,285.887 852.194,283.47 854.901,281.045 " />
<polyline fill="none" vector-effect="none" points="808.26,556.539 804.382,552.764 800.625,549.031 796.988,545.337 793.467,541.682 790.057,538.064 786.757,534.483 783.562,530.937 780.471,527.424 777.479,523.943 774.586,520.494 771.787,517.076 769.08,513.686 766.464,510.325 763.936,506.991 761.494,503.684 759.135,500.401 756.859,497.143 754.662,493.909 752.544,490.697 750.502,487.507 748.535,484.338 746.642,481.189 744.82,478.06 743.069,474.949 741.388,471.856 739.774,468.78 738.226,465.721 736.745,462.677 735.328,459.648 733.974,456.634 732.682,453.633 731.452,450.645 730.283,447.67 729.173,444.706 728.122,441.754 727.13,438.812 726.195,435.88 725.316,432.957 724.494,430.043 723.728,427.137 723.017,424.239 722.36,421.348 721.758,418.463 721.209,415.584 720.714,412.711 720.271,409.842 719.882,406.977 719.545,404.117 719.26,401.259 719.027,398.404 718.846,395.551 718.717,392.7 718.639,389.85 718.614,387 718.639,384.15 718.717,381.3 718.846,378.449 719.027,375.596 719.26,372.741 719.545,369.883 719.882,367.023 720.271,364.158 720.714,361.289 721.209,358.416 721.758,355.537 722.36,352.652 723.017,349.761 723.728,346.863 724.494,343.957 725.316,341.043 726.195,338.12 727.13,335.188 728.122,332.246 729.173,329.294 730.283,326.33 731.452,323.355 732.682,320.367 733.974,317.366 735.328,314.352 736.745,311.323 738.226,308.279 739.774,305.22 741.388,302.144 743.069,299.051 744.82,295.94 746.642,292.811 748.535,289.662 750.502,286.493 752.544,283.303 754.662,280.091 756.859,276.857 759.135,273.599 761.494,270.316 763.936,267.009 766.464,263.675 769.08,260.314 771.787,256.924 774.586,253.506 777.479,250.057 780.471,246.576 " />
<polyline fill="none" vector-effect="none" points="745.398,595.234 741.381,590.154 737.507,585.16 733.772,580.249 730.169,575.418 726.695,570.662 723.345,565.979 720.113,561.365 716.997,556.819 713.992,552.336 711.094,547.915 708.3,543.552 705.607,539.246 703.011,534.993 700.509,530.793 698.099,526.642 695.778,522.538 693.543,518.481 691.392,514.467 689.323,510.494 687.333,506.562 685.419,502.669 683.582,498.811 681.817,494.99 680.125,491.201 678.502,487.445 676.947,483.719 675.459,480.023 674.037,476.355 672.678,472.713 671.383,469.096 670.148,465.504 668.974,461.934 667.86,458.386 666.803,454.858 665.804,451.35 664.861,447.86 663.974,444.387 663.141,440.93 662.363,437.488 661.638,434.061 660.965,430.646 660.345,427.243 659.776,423.851 659.258,420.469 658.791,417.097 658.374,413.732 658.007,410.375 657.689,407.024 657.421,403.678 657.202,400.337 657.032,397 656.91,393.665 656.837,390.332 656.813,387 656.837,383.668 656.91,380.335 657.032,377 657.202,373.663 657.421,370.322 657.689,366.976 658.007,363.625 658.374,360.268 658.791,356.903 659.258,353.531 659.776,350.149 660.345,346.757 660.965,343.354 661.638,339.939 662.363,336.512 663.141,333.07 663.974,329.613 664.861,326.14 665.804,322.65 666.803,319.142 667.86,315.614 668.974,312.066 670.148,308.496 671.383,304.904 672.678,301.287 674.037,297.645 675.459,293.977 676.947,290.281 678.502,286.555 680.125,282.799 681.817,279.01 683.582,275.189 685.419,271.331 687.333,267.438 689.323,263.506 691.392,259.533 693.543,255.519 695.778,251.462 698.099,247.358 700.509,243.207 703.011,239.007 705.607,234.754 708.3,230.448 711.094,226.085 713.992,221.664 716.997,217.181 " />
<polyline fill="none" vector-effect="none" points="686.182,631.684 682.284,625.226 678.541,618.913 674.946,612.737 671.491,606.691 668.171,600.77 664.981,594.967 661.914,589.276 658.966,583.693 656.132,578.212 653.407,572.828 650.787,567.537 648.269,562.334 645.848,557.216 643.521,552.178 641.284,547.217 639.135,542.33 637.071,537.512 635.088,532.761 633.185,528.074 631.358,523.447 629.605,518.878 627.925,514.365 626.314,509.904 624.772,505.493 623.295,501.13 621.883,496.813 620.534,492.539 619.246,488.306 618.017,484.112 616.846,479.955 615.733,475.834 614.675,471.745 613.672,467.688 612.722,463.661 611.825,459.662 610.979,455.69 610.183,451.742 609.438,447.817 608.741,443.914 608.092,440.031 607.491,436.167 606.937,432.32 606.429,428.488 605.967,424.672 605.55,420.868 605.179,417.076 604.852,413.294 604.569,409.521 604.33,405.756 604.135,401.997 603.983,398.243 603.875,394.493 603.81,390.746 603.789,387 603.81,383.254 603.875,379.507 603.983,375.757 604.135,372.003 604.33,368.244 604.569,364.479 604.852,360.706 605.179,356.924 605.55,353.132 605.967,349.328 606.429,345.512 606.937,341.68 607.491,337.833 608.092,333.969 608.741,330.086 609.438,326.183 610.183,322.258 610.979,318.31 611.825,314.338 612.722,310.339 613.672,306.312 614.675,302.255 615.733,298.166 616.846,294.045 618.017,289.888 619.246,285.694 620.534,281.461 621.883,277.187 623.295,272.87 624.772,268.507 626.314,264.096 627.925,259.635 629.605,255.122 631.358,250.553 633.185,245.926 635.088,241.239 637.071,236.488 639.135,231.67 641.284,226.783 643.521,221.822 645.848,216.784 648.269,211.666 650.787,206.463 653.407,201.172 656.132,195.788 658.966,190.307 " />
<polyline fill="none" vector-effect="none" points="626.824,668.22 623.289,660.238 619.908,652.475 616.672,644.919 613.575,637.559 610.609,630.384 607.768,623.384 605.046,616.549 602.438,609.872 599.938,603.343 597.541,596.955 595.243,590.701 593.04,584.573 590.927,578.567 588.902,572.674 586.959,566.891 585.098,561.211 583.313,555.628 581.602,550.14 579.963,544.74 578.393,539.424 576.89,534.188 575.451,529.029 574.074,523.942 572.757,518.923 571.499,513.971 570.297,509.08 569.15,504.247 568.057,499.471 567.016,494.748 566.025,490.074 565.084,485.448 564.19,480.867 563.344,476.328 562.543,471.829 561.787,467.367 561.076,462.941 560.407,458.548 559.78,454.185 559.195,449.851 558.651,445.544 558.148,441.261 557.683,437.002 557.258,432.763 556.871,428.543 556.523,424.34 556.212,420.153 555.939,415.98 555.702,411.818 555.503,407.666 555.34,403.523 555.213,399.386 555.123,395.255 555.069,391.127 555.051,387 555.069,382.873 555.123,378.745 555.213,374.614 555.34,370.477 555.503,366.334 555.702,362.182 555.939,358.02 556.212,353.847 556.523,349.66 556.871,345.457 557.258,341.237 557.683,336.998 558.148,332.739 558.651,328.456 559.195,324.149 559.78,319.815 560.407,315.452 561.076,311.059 561.787,306.633 562.543,302.171 563.344,297.672 564.19,293.133 565.084,288.552 566.025,283.926 567.016,279.252 568.057,274.529 569.15,269.753 570.297,264.92 571.499,260.029 572.757,255.077 574.074,250.058 575.451,244.971 576.89,239.812 578.393,234.576 579.963,229.26 581.602,223.86 583.313,218.372 585.098,212.789 586.959,207.109 588.902,201.326 590.927,195.433 593.04,189.427 595.243,183.299 597.541,177.045 599.938,170.657 602.438,164.128 " />
<polyline fill="none" vector-effect="none" points="563.502,707.198 560.619,697.431 557.873,687.984 555.257,678.837 552.762,669.971 550.381,661.369 548.109,653.015 545.94,644.895 543.867,636.996 541.887,629.304 539.995,621.807 538.185,614.496 536.455,607.358 534.801,600.386 533.218,593.57 531.705,586.901 530.257,580.372 528.872,573.975 527.548,567.703 526.281,561.55 525.07,555.509 523.913,549.574 522.807,543.74 521.751,538.002 520.742,532.354 519.78,526.791 518.863,521.31 517.988,515.906 517.156,510.574 516.364,505.311 515.611,500.112 514.897,494.975 514.22,489.896 513.579,484.871 512.973,479.898 512.402,474.972 511.864,470.092 511.36,465.254 510.888,460.455 510.447,455.693 510.038,450.964 509.658,446.268 509.309,441.6 508.99,436.959 508.699,432.342 508.438,427.746 508.204,423.171 507.999,418.612 507.822,414.068 507.672,409.538 507.55,405.017 507.455,400.506 507.388,396 507.347,391.499 507.334,387 507.347,382.501 507.388,378 507.455,373.494 507.55,368.983 507.672,364.462 507.822,359.932 507.999,355.388 508.204,350.829 508.438,346.254 508.699,341.658 508.99,337.041 509.309,332.4 509.658,327.732 510.038,323.036 510.447,318.307 510.888,313.545 511.36,308.746 511.864,303.908 512.402,299.028 512.973,294.102 513.579,289.129 514.22,284.104 514.897,279.025 515.611,273.888 516.364,268.689 517.156,263.426 517.988,258.094 518.863,252.69 519.78,247.209 520.742,241.646 521.751,235.998 522.807,230.26 523.913,224.426 525.07,218.491 526.281,212.45 527.548,206.297 528.872,200.025 530.257,193.628 531.705,187.099 533.218,180.43 534.801,173.614 536.455,166.642 538.185,159.504 539.995,152.193 541.887,144.696 543.867,137.004 " />
<polyline fill="none" vector-effect="none" points="485.724,714 484.613,706.291 483.148,695.957 481.755,685.972 480.43,676.312 479.169,666.958 477.968,657.889 476.824,649.089 475.733,640.54 474.694,632.228 473.702,624.139 472.757,616.259 471.855,608.576 470.994,601.078 470.173,593.757 469.389,586.6 468.641,579.599 467.928,572.746 467.247,566.031 466.598,559.448 465.979,552.988 465.389,546.646 464.828,540.414 464.293,534.286 463.784,528.257 463.3,522.321 462.84,516.473 462.403,510.707 461.99,505.019 461.598,499.404 461.228,493.858 460.878,488.377 460.549,482.957 460.239,477.593 459.949,472.283 459.677,467.022 459.424,461.807 459.189,456.634 458.971,451.501 458.771,446.404 458.588,441.34 458.421,436.306 458.271,431.3 458.138,426.317 458.02,421.356 457.919,416.414 457.833,411.488 457.764,406.574 457.709,401.672 457.671,396.777 457.647,391.887 457.64,387 457.647,382.113 457.671,377.223 457.709,372.328 457.764,367.426 457.833,362.512 457.919,357.586 458.02,352.644 458.138,347.683 458.271,342.7 458.421,337.694 458.588,332.66 458.771,327.596 458.971,322.499 459.189,317.366 459.424,312.193 459.677,306.978 459.949,301.717 460.239,296.407 460.549,291.043 460.878,285.623 461.228,280.142 461.598,274.596 461.99,268.981 462.403,263.293 462.84,257.527 463.3,251.679 463.784,245.743 464.293,239.714 464.828,233.586 465.389,227.354 465.979,221.012 466.598,214.552 467.247,207.969 467.928,201.254 468.641,194.401 469.389,187.4 470.173,180.243 470.994,172.921 471.855,165.424 472.757,157.741 473.702,149.861 474.694,141.772 475.733,133.46 476.824,124.911 477.968,116.111 479.169,107.042 " />
<polyline fill="none" vector-effect="none" points="402.444,714 402.444,713.713 402.444,702.489 402.444,691.664 402.444,681.211 402.444,671.104 402.444,661.321 402.444,651.841 402.444,642.644 402.444,633.712 402.444,625.03 402.444,616.581 402.444,608.352 402.444,600.328 402.444,592.499 402.444,584.851 402.444,577.375 402.444,570.061 402.444,562.898 402.444,555.878 402.444,548.993 402.444,542.234 402.444,535.595 402.444,529.067 402.444,522.645 402.444,516.322 402.444,510.092 402.444,503.95 402.444,497.889 402.444,491.904 402.444,485.991 402.444,480.145 402.444,474.361 402.444,468.635 402.444,462.961 402.444,457.337 402.444,451.758 402.444,446.221 402.444,440.721 402.444,435.254 402.444,429.818 402.444,424.408 402.444,419.022 402.444,413.655 402.444,408.304 402.444,402.967 402.444,397.639 402.444,392.318 402.444,387 402.444,381.682 402.444,376.361 402.444,371.033 402.444,365.696 402.444,360.345 402.444,354.978 402.444,349.592 402.444,344.182 402.444,338.746 402.444,333.279 402.444,327.779 402.444,322.242 402.444,316.663 402.444,311.039 402.444,305.365 402.444,299.639 402.444,293.855 402.444,288.009 402.444,282.096 402.444,276.111 402.444,270.05 402.444,263.908 402.444,257.678 402.444,251.355 402.444,244.933 402.444,238.405 402.444,231.766 402.444,225.007 402.444,218.122 402.444,211.102 402.444,203.939 402.444,196.625 402.444,189.149 402.444,181.501 402.444,173.672 402.444,165.648 402.444,157.419 402.444,148.97 402.444,140.288 402.444,131.356 402.444,122.159 402.444,112.679 402.444,102.896 402.444,92.789 402.444,82.3356 402.444,71.5108 " />
<polyline fill="none" vector-effect="none" points="308.491,714 309.064,710.047 310.745,698.246 312.336,686.871 313.843,675.892 315.27,665.282 316.624,655.016 317.907,645.07 319.125,635.424 320.28,626.058 321.376,616.953 322.417,608.093 323.404,599.463 324.342,591.048 325.231,582.835 326.075,574.81 326.875,566.962 327.634,559.281 328.352,551.756 329.033,544.377 329.676,537.134 330.285,530.021 330.859,523.027 331.401,516.146 331.911,509.37 332.39,502.692 332.84,496.106 333.261,489.605 333.653,483.183 334.019,476.834 334.358,470.553 334.671,464.335 334.958,458.174 335.221,452.064 335.46,446.003 335.674,439.984 335.865,434.002 336.033,428.055 336.178,422.136 336.3,416.243 336.399,410.37 336.477,404.513 336.532,398.668 336.565,392.832 336.576,387 336.565,381.168 336.532,375.332 336.477,369.487 336.399,363.63 336.3,357.757 336.178,351.864 336.033,345.945 335.865,339.998 335.674,334.016 335.46,327.997 335.221,321.936 334.958,315.826 334.671,309.665 334.358,303.447 334.019,297.166 333.653,290.817 333.261,284.395 332.84,277.894 332.39,271.308 331.911,264.63 331.401,257.854 330.859,250.973 330.285,243.979 329.676,236.866 329.033,229.623 328.352,222.244 327.634,214.719 326.875,207.038 326.075,199.19 325.231,191.165 324.342,182.952 323.404,174.537 322.417,165.907 321.376,157.047 320.28,147.942 319.125,138.576 317.907,128.93 316.624,118.984 315.27,108.718 313.843,98.1078 312.336,87.129 310.745,75.754 309.064,63.953 308.491,60 " />
<polyline fill="none" vector-effect="none" points="192.675,714 194.135,709.151 197.87,696.509 201.394,684.335 204.723,672.595 207.868,661.258 210.841,650.296 213.652,639.681 216.31,629.391 218.824,619.402 221.201,609.695 223.45,600.25 225.577,591.05 227.587,582.078 229.487,573.32 231.281,564.762 232.974,556.389 234.571,548.19 236.076,540.153 237.492,532.267 238.823,524.522 240.071,516.908 241.24,509.416 242.333,502.037 243.351,494.763 244.298,487.585 245.175,480.497 245.983,473.492 246.726,466.561 247.403,459.698 248.017,452.898 248.57,446.153 249.061,439.458 249.492,432.807 249.864,426.193 250.177,419.612 250.433,413.058 250.631,406.525 250.772,400.008 250.857,393.501 250.885,387 250.857,380.499 250.772,373.992 250.631,367.475 250.433,360.942 250.177,354.388 249.864,347.807 249.492,341.193 249.061,334.542 248.57,327.847 248.017,321.102 247.403,314.302 246.726,307.439 245.983,300.508 245.175,293.503 244.298,286.415 243.351,279.237 242.333,271.963 241.24,264.584 240.071,257.092 238.823,249.478 237.492,241.733 236.076,233.847 234.571,225.81 232.974,217.611 231.281,209.238 229.487,200.68 227.587,191.922 225.577,182.95 223.45,173.75 221.201,164.305 218.824,154.598 216.31,144.609 213.652,134.319 210.841,123.704 207.868,112.742 204.723,101.405 201.394,89.665 197.87,77.4912 194.135,64.849 192.675,60 " />
</g>

<g fill="none" stroke="#ff0000" stroke-opacity="1" stroke-width="4.16667" stroke-linecap="butt" stroke-linejoin="round" transform="matrix(0.722738,0,0,0.719404,-75.9696,-41.7243)"
font-family="Helvetica" font-size="13" font-weight="400" font-style="normal" 
>
<polyline fill="none" vector-effect="none" points="474.366,584.983 707.109,509.36 707.109,264.64 474.366,189.017 330.523,387 474.366,584.983 " />
</g>
</g>
</svg>
