<?xml version="1.0" encoding="UTF-8" standalone="no"?>
<svg width="220.839mm" height="171.45mm"
 viewBox="0 0 626 486"
 xmlns="http://www.w3.org/2000/svg" xmlns:xlink="http://www.w3.org/1999/xlink"  version="1.2" baseProfile="tiny">
<title>Qt SVG Document</title>
<desc>MATLAB, The MathWorks, Inc. Version 25.2.0.3150157 R2025b Update 4</desc>
<defs>
</defs>
<g fill="none" stroke="black" stroke-width="1" fill-rule="evenodd" stroke-linecap="square" stroke-linejoin="bevel" >

<g fill="#000000" fill-opacity="1" stroke="none" transform="matrix(0.719538,0,0,0.718517,-73.7118,-42.8094)"
font-family="Sans Serif" font-size="9" font-weight="400" font-style="normal" 
>
<path vector-effect="none" fill-rule="evenodd" d="M101,58 L973,58 L973,737 L101,737 L101,58"/>
</g>

<g fill="#121212" fill-opacity="1" stroke="none" transform="matrix(7.19538e-05,0,0,7.18517e-05,-73.7118,-42.8094)"
font-family="Sans Serif" font-size="9" font-weight="400" font-style="normal" 
>
<path vector-effect="none" fill-rule="evenodd" d="M1.39e+06,615843 L1.39e+06,7.17416e+06 L9.71e+06,7.17416e+06 L9.71e+06,615843 L1.39e+06,615843"/>
</g>

<g fill="#d9d9d9" fill-opacity="1" stroke="#d9d9d9" stroke-opacity="1" stroke-width="0.694444" stroke-linecap="square" stroke-linejoin="round" transform="matrix(0.719538,0,0,0.718517,-73.7118,-42.8094)"
font-family="Sans Serif" font-size="9" font-weight="400" font-style="normal" 
>
<polyline fill="none" vector-effect="none" points="139,717.416 971,717.416 " />
<polyline fill="none" vector-effect="none" points="142.825,717.416 142.825,709.096 " />
<polyline fill="none" vector-effect="none" points="249.903,717.416 249.903,709.096 " />
<polyline fill="none" vector-effect="none" points="356.981,717.416 356.981,709.096 " />
<polyline fill="none" vector-effect="none" points="464.059,717.416 464.059,709.096 " />
<polyline fill="none" vector-effect="none" points="571.137,717.416 571.137,709.096 " />
<polyline fill="none" vector-effect="none" points="678.215,717.416 678.215,709.096 " />
<polyline fill="none" vector-effect="none" points="785.293,717.416 785.293,709.096 " />
<polyline fill="none" vector-effect="none" points="892.371,717.416 892.371,709.096 " />
</g>

<g fill="#d9d9d9" fill-opacity="1" stroke="#d9d9d9" stroke-opacity="1" stroke-width="1" stroke-linecap="square" stroke-linejoin="bevel" transform="matrix(0.719538,0,0,0.718517,21.1415,485.28)"
font-family="Helvetica" font-size="13" font-weight="400" font-style="normal" 
>
<text fill="#d9d9d9" fill-opacity="1" stroke="none" xml:space="preserve" x="0" y="0" font-family="Helvetica" font-size="13" font-weight="400" font-style="normal" 
 >-0.1</text>
</g>

<g fill="#d9d9d9" fill-opacity="1" stroke="#d9d9d9" stroke-opacity="1" stroke-width="1" stroke-linecap="square" stroke-linejoin="bevel" transform="matrix(0.719538,0,0,0.718517,95.3101,485.28)"
font-family="Helvetica" font-size="13" font-weight="400" font-style="normal" 
>
<text fill="#d9d9d9" fill-opacity="1" stroke="none" xml:space="preserve" x="0" y="0" font-family="Helvetica" font-size="13" font-weight="400" font-style="normal" 
 >-0.05</text>
</g>

<g fill="#d9d9d9" fill-opacity="1" stroke="#d9d9d9" stroke-opacity="1" stroke-width="1" stroke-linecap="square" stroke-linejoin="bevel" transform="matrix(0.719538,0,0,0.718517,180.631,485.28)"
font-family="Helvetica" font-size="13" font-weight="400" font-style="normal" 
>
<text fill="#d9d9d9" fill-opacity="1" stroke="none" xml:space="preserve" x="0" y="0" font-family="Helvetica" font-size="13" font-weight="400" font-style="normal" 
 >0</text>
</g>

<g fill="#d9d9d9" fill-opacity="1" stroke="#d9d9d9" stroke-opacity="1" stroke-width="1" stroke-linecap="square" stroke-linejoin="bevel" transform="matrix(0.719538,0,0,0.718517,251.202,485.28)"
font-family="Helvetica" font-size="13" font-weight="400" font-style="normal" 
>
<text fill="#d9d9d9" fill-opacity="1" stroke="none" xml:space="preserve" x="0" y="0" font-family="Helvetica" font-size="13" font-weight="400" font-style="normal" 
 >0.05</text>
</g>

<g fill="#d9d9d9" fill-opacity="1" stroke="#d9d9d9" stroke-opacity="1" stroke-width="1" stroke-linecap="square" stroke-linejoin="bevel" transform="matrix(0.719538,0,0,0.718517,330.767,485.28)"
font-family="Helvetica" font-size="13" font-weight="400" font-style="normal" 
>
<text fill="#d9d9d9" fill-opacity="1" stroke="none" xml:space="preserve" x="0" y="0" font-family="Helvetica" font-size="13" font-weight="400" font-style="normal" 
 >0.1</text>
</g>

<g fill="#d9d9d9" fill-opacity="1" stroke="#d9d9d9" stroke-opacity="1" stroke-width="1" stroke-linecap="square" stroke-linejoin="bevel" transform="matrix(0.719538,0,0,0.718517,405.296,485.28)"
font-family="Helvetica" font-size="13" font-weight="400" font-style="normal" 
>
<text fill="#d9d9d9" fill-opacity="1" stroke="none" xml:space="preserve" x="0" y="0" font-family="Helvetica" font-size="13" font-weight="400" font-style="normal" 
 >0.15</text>
</g>

<g fill="#d9d9d9" fill-opacity="1" stroke="#d9d9d9" stroke-opacity="1" stroke-width="1" stroke-linecap="square" stroke-linejoin="bevel" transform="matrix(0.719538,0,0,0.718517,484.861,485.28)"
font-family="Helvetica" font-size="13" font-weight="400" font-style="normal" 
>
<text fill="#d9d9d9" fill-opacity="1" stroke="none" xml:space="preserve" x="0" y="0" font-family="Helvetica" font-size="13" font-weight="400" font-style="normal" 
 >0.2</text>
</g>

<g fill="#d9d9d9" fill-opacity="1" stroke="#d9d9d9" stroke-opacity="1" stroke-width="1" stroke-linecap="square" stroke-linejoin="bevel" transform="matrix(0.719538,0,0,0.718517,559.389,485.28)"
font-family="Helvetica" font-size="13" font-weight="400" font-style="normal" 
>
<text fill="#d9d9d9" fill-opacity="1" stroke="none" xml:space="preserve" x="0" y="0" font-family="Helvetica" font-size="13" font-weight="400" font-style="normal" 
 >0.25</text>
</g>

<g fill="#d9d9d9" fill-opacity="1" stroke="#d9d9d9" stroke-opacity="1" stroke-width="0.694444" stroke-linecap="square" stroke-linejoin="round" transform="matrix(0.719538,0,0,0.718517,-73.7118,-42.8094)"
font-family="Helvetica" font-size="13" font-weight="400" font-style="normal" 
>
<polyline fill="none" vector-effect="none" points="139,717.416 139,61.5844 " />
<polyline fill="none" vector-effect="none" points="139,710.734 147.32,710.734 " />
<polyline fill="none" vector-effect="none" points="139,603.656 147.32,603.656 " />
<polyline fill="none" vector-effect="none" points="139,496.578 147.32,496.578 " />
<polyline fill="none" vector-effect="none" points="139,389.5 147.32,389.5 " />
<polyline fill="none" vector-effect="none" points="139,282.422 147.32,282.422 " />
<polyline fill="none" vector-effect="none" points="139,175.344 147.32,175.344 " />
<polyline fill="none" vector-effect="none" points="139,68.266 147.32,68.266 " />
</g>

<g fill="#d9d9d9" fill-opacity="1" stroke="#d9d9d9" stroke-opacity="1" stroke-width="1" stroke-linecap="square" stroke-linejoin="bevel" transform="matrix(0.719538,0,0,0.718517,0.720462,471.098)"
font-family="Helvetica" font-size="13" font-weight="400" font-style="normal" 
>
<text fill="#d9d9d9" fill-opacity="1" stroke="none" xml:space="preserve" x="0" y="0" font-family="Helvetica" font-size="13" font-weight="400" font-style="normal" 
 >-0.15</text>
</g>

<g fill="#d9d9d9" fill-opacity="1" stroke="#d9d9d9" stroke-opacity="1" stroke-width="1" stroke-linecap="square" stroke-linejoin="bevel" transform="matrix(0.719538,0,0,0.718517,6.47677,394.161)"
font-family="Helvetica" font-size="13" font-weight="400" font-style="normal" 
>
<text fill="#d9d9d9" fill-opacity="1" stroke="none" xml:space="preserve" x="0" y="0" font-family="Helvetica" font-size="13" font-weight="400" font-style="normal" 
 >-0.1</text>
</g>

<g fill="#d9d9d9" fill-opacity="1" stroke="#d9d9d9" stroke-opacity="1" stroke-width="1" stroke-linecap="square" stroke-linejoin="bevel" transform="matrix(0.719538,0,0,0.718517,0.720462,317.224)"
font-family="Helvetica" font-size="13" font-weight="400" font-style="normal" 
>
<text fill="#d9d9d9" fill-opacity="1" stroke="none" xml:space="preserve" x="0" y="0" font-family="Helvetica" font-size="13" font-weight="400" font-style="normal" 
 >-0.05</text>
</g>

<g fill="#d9d9d9" fill-opacity="1" stroke="#d9d9d9" stroke-opacity="1" stroke-width="1" stroke-linecap="square" stroke-linejoin="bevel" transform="matrix(0.719538,0,0,0.718517,17.2698,240.286)"
font-family="Helvetica" font-size="13" font-weight="400" font-style="normal" 
>
<text fill="#d9d9d9" fill-opacity="1" stroke="none" xml:space="preserve" x="0" y="0" font-family="Helvetica" font-size="13" font-weight="400" font-style="normal" 
 >0</text>
</g>

<g fill="#d9d9d9" fill-opacity="1" stroke="#d9d9d9" stroke-opacity="1" stroke-width="1" stroke-linecap="square" stroke-linejoin="bevel" transform="matrix(0.719538,0,0,0.718517,4.31815,163.349)"
font-family="Helvetica" font-size="13" font-weight="400" font-style="normal" 
>
<text fill="#d9d9d9" fill-opacity="1" stroke="none" xml:space="preserve" x="0" y="0" font-family="Helvetica" font-size="13" font-weight="400" font-style="normal" 
 >0.05</text>
</g>

<g fill="#d9d9d9" fill-opacity="1" stroke="#d9d9d9" stroke-opacity="1" stroke-width="1" stroke-linecap="square" stroke-linejoin="bevel" transform="matrix(0.719538,0,0,0.718517,9.35492,86.4116)"
font-family="Helvetica" font-size="13" font-weight="400" font-style="normal" 
>
<text fill="#d9d9d9" fill-opacity="1" stroke="none" xml:space="preserve" x="0" y="0" font-family="Helvetica" font-size="13" font-weight="400" font-style="normal" 
 >0.1</text>
</g>

<g fill="#d9d9d9" fill-opacity="1" stroke="#d9d9d9" stroke-opacity="1" stroke-width="1" stroke-linecap="square" stroke-linejoin="bevel" transform="matrix(0.719538,0,0,0.718517,4.31815,9.47421)"
font-family="Helvetica" font-size="13" font-weight="400" font-style="normal" 
>
<text fill="#d9d9d9" fill-opacity="1" stroke="none" xml:space="preserve" x="0" y="0" font-family="Helvetica" font-size="13" font-weight="400" font-style="normal" 
 >0.15</text>
</g>

<g fill="#2699d4" fill-opacity="0.14902" stroke="none" transform="matrix(7.19538e-05,0,0,7.18517e-05,-73.7118,-42.8094)"
font-family="Helvetica" font-size="13" font-weight="400" font-style="normal" 
>
<path vector-effect="none" fill-rule="evenodd" d="M9.03507e+06,615843 L6.84897e+06,615843 L1.39e+06,615843 L1.39e+06,6.07481e+06 L1.39e+06,7.17416e+06 L9.03507e+06,7.17416e+06 L9.03507e+06,615843"/>
</g>

<g fill="#75ab2e" fill-opacity="0.34902" stroke="none" transform="matrix(7.19538e-05,0,0,7.18517e-05,-73.7118,-42.8094)"
font-family="Helvetica" font-size="13" font-weight="400" font-style="normal" 
>
<path vector-effect="none" fill-rule="evenodd" d="M2.14644e+06,3.37693e+06 L2.2314e+06,3.51122e+06 L1.87315e+06,3.17481e+06 L1.82183e+06,3.11675e+06 L1.53288e+06,3.03037e+06 L1.70417e+06,3.21596e+06 L1.92842e+06,3.42434e+06 L2.06106e+06,3.43373e+06 L2.03899e+06,3.51332e+06 L2.0161e+06,3.62104e+06 L2.12238e+06,3.76837e+06 L2.17768e+06,3.8707e+06 L2.28883e+06,3.78293e+06 L2.35317e+06,3.895e+06 L2.52149e+06,3.85839e+06 L2.56823e+06,3.80737e+06 L2.59033e+06,3.72229e+06 L2.48253e+06,3.70328e+06 L2.56262e+06,3.64388e+06 L2.58411e+06,3.53624e+06 L2.68564e+06,3.57319e+06 L2.73145e+06,3.46783e+06 L2.83272e+06,3.46944e+06 L2.8769e+06,3.40982e+06 L2.92982e+06,3.35798e+06 L2.88965e+06,3.32428e+06 L2.96428e+06,3.24564e+06 L2.965e+06,3.17421e+06 L3.05715e+06,3.26191e+06 L3.12333e+06,3.25736e+06 L3.20195e+06,3.20315e+06 L3.2501e+06,3.12315e+06 L3.37008e+06,3.02987e+06 L3.25111e+06,3.17917e+06 L3.31458e+06,3.26329e+06 L3.38201e+06,3.24007e+06 L3.41948e+06,3.33395e+06 L3.46026e+06,3.27371e+06 L3.51395e+06,3.25651e+06 L3.55836e+06,3.23905e+06 L3.59359e+06,3.21409e+06 L3.63363e+06,3.16558e+06 L3.70588e+06,3.12334e+06 L3.68448e+06,2.96109e+06 L3.71489e+06,3.07224e+06 L3.79308e+06,3.08994e+06 L3.87413e+06,2.83372e+06 L4.00563e+06,2.6976e+06 L4.03691e+06,2.67817e+06 L4.02646e+06,2.70539e+06 L3.98593e+06,2.75173e+06 L3.89261e+06,2.83919e+06 L3.8294e+06,3.04591e+06 L3.85555e+06,3.10993e+06 L3.97435e+06,2.98639e+06 L3.98549e+06,2.81211e+06 L3.99646e+06,2.93673e+06 L4.06711e+06,3.03365e+06 L4.20307e+06,2.99061e+06 L4.41496e+06,3.01982e+06 L4.37557e+06,3.06061e+06 L4.364e+06,3.12806e+06 L4.45961e+06,3.06525e+06 L4.54594e+06,3.07593e+06 L4.66157e+06,3.13054e+06 L4.54261e+06,3.26326e+06 L4.56009e+06,3.09309e+06 L4.50182e+06,3.11296e+06 L4.44522e+06,3.13402e+06 L4.43944e+06,3.30843e+06 L4.42258e+06,3.49735e+06 L4.50443e+06,3.55483e+06 L4.75527e+06,3.62131e+06 L4.88236e+06,3.66356e+06 L5.01725e+06,3.76837e+06 L5.20472e+06,3.74333e+06 L5.26073e+06,3.65736e+06 L5.11851e+06,3.59396e+06 L5.43418e+06,3.46458e+06 L5.33246e+06,3.35611e+06 L5.23462e+06,3.38602e+06 L5.06154e+06,3.38136e+06 L5.03851e+06,3.41212e+06 L5.0104e+06,3.42693e+06 L4.93515e+06,3.39806e+06 L4.68974e+06,3.41962e+06 L4.67247e+06,3.38082e+06 L4.86258e+06,3.37793e+06 L4.97424e+06,3.32758e+06 L5.01664e+06,3.2659e+06 L5.03163e+06,3.39166e+06 L5.05235e+06,3.3554e+06 L5.16393e+06,3.28307e+06 L5.08345e+06,3.25873e+06 L5.13551e+06,3.2304e+06 L5.12972e+06,3.20048e+06 L5.25364e+06,3.14531e+06 L5.1723e+06,3.21479e+06 L5.21518e+06,3.23023e+06 L5.27878e+06,3.20453e+06 L5.44702e+06,3.24863e+06 L5.38957e+06,3.30372e+06 L5.46215e+06,3.39856e+06 L5.42638e+06,3.4321e+06 L5.5118e+06,3.48222e+06 L5.45966e+06,3.59568e+06 L5.44481e+06,3.51353e+06 L5.24598e+06,3.56919e+06 L5.33118e+06,3.67873e+06 L5.50001e+06,3.62373e+06 L5.54763e+06,3.72196e+06 L5.62398e+06,3.75136e+06 L5.7813e+06,3.81777e+06 L5.94525e+06,3.895e+06 L6.02092e+06,4.10944e+06 L6.20691e+06,3.9917e+06 L6.30151e+06,3.96653e+06 L6.45773e+06,3.99585e+06 L6.43845e+06,4.14597e+06 L6.46168e+06,4.36856e+06 L6.72992e+06,4.39551e+06 L7.00707e+06,4.4702e+06 L7.0234e+06,4.44817e+06 L7.15149e+06,4.46228e+06 L7.1691e+06,4.33694e+06 L7.31035e+06,4.28815e+06 L7.32179e+06,4.15736e+06 L7.19393e+06,4.02156e+06 L7.1305e+06,3.95715e+06 L6.94433e+06,3.895e+06 L6.82643e+06,3.895e+06 L6.71286e+06,3.84014e+06 L6.59997e+06,3.72559e+06 L6.49618e+06,3.74164e+06 L6.41243e+06,3.69622e+06 L6.48415e+06,3.58869e+06 L6.37199e+06,3.50118e+06 L6.27243e+06,3.49109e+06 L6.35215e+06,3.37932e+06 L6.59099e+06,3.25283e+06 L6.70493e+06,3.01376e+06 L6.93193e+06,2.93093e+06 L6.64901e+06,2.83475e+06 L6.44763e+06,3.11311e+06 L6.32921e+06,3.26808e+06 L6.28464e+06,3.29314e+06 L6.23241e+06,3.28029e+06 L6.28991e+06,3.11502e+06 L6.43936e+06,2.90694e+06 L6.63004e+06,2.78117e+06 L6.93208e+06,2.53656e+06 L7.03196e+06,2.4254e+06 L6.89537e+06,2.44901e+06 L6.76504e+06,2.4724e+06 L6.66445e+06,2.54941e+06 L6.56755e+06,2.62254e+06 L6.46345e+06,2.66672e+06 L6.54488e+06,2.57041e+06 L6.41882e+06,2.56649e+06 L6.20289e+06,2.49497e+06 L6.1691e+06,2.5419e+06 L5.93634e+06,2.52868e+06 L5.79259e+06,2.55942e+06 L5.83461e+06,2.45216e+06 L5.87515e+06,2.34003e+06 L5.73775e+06,2.23148e+06 L5.77571e+06,2.04403e+06 L5.86027e+06,1.90393e+06 L5.9779e+06,1.87438e+06 L6.04695e+06,1.95965e+06 L6.08585e+06,2.19791e+06 L6.23602e+06,2.29298e+06 L6.35816e+06,2.44348e+06 L6.49684e+06,2.46739e+06 L6.74289e+06,2.27823e+06 L6.76799e+06,2.04853e+06 L6.72417e+06,1.84653e+06 L6.50357e+06,1.7635e+06 L6.72708e+06,1.60111e+06 L7.34016e+06,1.35187e+06 L7.27843e+06,1.5776e+06 L7.50837e+06,1.62107e+06 L7.53321e+06,2.04684e+06 L7.47129e+06,2.3187e+06 L7.6792e+06,2.3993e+06 L8.045e+06,2.35407e+06 L7.79589e+06,2.77053e+06 L7.55955e+06,3.1915e+06 L7.05301e+06,3.21794e+06 L7.12199e+06,3.39577e+06 L7.16115e+06,3.64387e+06 L7.19393e+06,3.76844e+06 L7.33095e+06,3.895e+06 L7.4567e+06,4.17187e+06 L7.34125e+06,4.25815e+06 L7.88909e+06,4.57911e+06 L8.23096e+06,4.71689e+06 L8.55648e+06,5.13832e+06 L9.63744e+06,5.53217e+06 L9.71e+06,5.55946e+06 L9.71e+06,4.54651e+06 L9.71e+06,615843 L8.93288e+06,615843 L8.3555e+06,615843 L8.29449e+06,615843 L7.58367e+06,1.38686e+06 L7.6925e+06,1.00826e+06 L8.0343e+06,615843 L7.54692e+06,615843 L7.09781e+06,615843 L6.88435e+06,615843 L6.73494e+06,615843 L6.69675e+06,615843 L6.58697e+06,615843 L6.47521e+06,615843 L6.45275e+06,615843 L3.46158e+06,615843 L2.27088e+06,615843 L2.07086e+06,615843 L2.05154e+06,615843 L1.8152e+06,615843 L1.68763e+06,615843 L1.68924e+06,637754 L1.59477e+06,853709 L1.80517e+06,875181 L1.75665e+06,754512 L1.98193e+06,778609 L1.98557e+06,915478 L1.9415e+06,1.07468e+06 L1.85772e+06,1.25861e+06 L1.71636e+06,928860 L1.79613e+06,1.16377e+06 L1.65562e+06,1.26034e+06 L1.56367e+06,1.02993e+06 L1.39e+06,999341 L1.39e+06,1.05944e+06 L1.39e+06,1.1569e+06 L1.58731e+06,1.31135e+06 L1.61902e+06,1.57014e+06 L1.64299e+06,1.75505e+06 L1.53419e+06,1.78706e+06 L1.53907e+06,2.06651e+06 L1.68498e+06,2.31344e+06 L1.78786e+06,2.452e+06 L1.88744e+06,2.58058e+06 L1.96952e+06,2.59911e+06 L2.07143e+06,2.59248e+06 L2.21683e+06,2.54202e+06 L2.26176e+06,2.79742e+06 L2.25851e+06,2.90686e+06 L2.17738e+06,3.02491e+06 L2.12007e+06,3.12416e+06 L2.1518e+06,3.20339e+06 L2.25298e+06,3.28095e+06 L2.20447e+06,3.39806e+06 L2.14644e+06,3.37693e+06 M7.48659e+06,4.23767e+06 L7.4567e+06,4.17187e+06 L7.46291e+06,4.16723e+06 L7.48659e+06,4.23767e+06"/>
</g>

<g fill="none" stroke="#1a330d" stroke-opacity="1" stroke-width="0.486111" stroke-linecap="square" stroke-linejoin="miter" stroke-miterlimit="5" transform="matrix(0.719538,0,0,0.718517,-73.7118,-42.8094)"
font-family="Helvetica" font-size="13" font-weight="400" font-style="normal" 
>
<polyline fill="none" vector-effect="none" points="715.149,446.228 702.34,444.817 700.707,447.02 672.992,439.551 646.168,436.856 643.845,414.597 645.773,399.585 630.151,396.653 620.691,399.17 602.092,410.944 594.525,389.5 578.13,381.777 562.398,375.136 554.763,372.196 550.001,362.373 533.117,367.873 524.598,356.919 544.481,351.353 545.966,359.568 551.18,348.222 542.638,343.21 546.215,339.856 538.957,330.372 544.702,324.863 527.878,320.453 521.518,323.023 517.23,321.479 525.364,314.531 512.972,320.048 513.551,323.04 508.345,325.873 516.393,328.307 505.235,335.54 503.163,339.166 501.664,326.59 497.424,332.758 486.258,337.793 467.247,338.082 468.974,341.962 493.515,339.806 501.04,342.693 503.851,341.212 506.154,338.136 523.462,338.602 533.246,335.611 543.418,346.458 511.851,359.396 526.073,365.736 520.472,374.333 501.725,376.837 488.236,366.356 475.527,362.131 450.443,355.483 442.257,349.735 443.944,330.843 444.522,313.402 450.182,311.296 456.009,309.309 454.261,326.326 466.157,313.054 454.594,307.593 445.961,306.525 436.4,312.806 437.557,306.061 441.496,301.982 420.307,299.061 406.711,303.365 399.646,293.673 398.549,281.211 397.435,298.639 385.555,310.993 382.94,304.591 389.261,283.919 398.593,275.173 402.646,270.539 403.691,267.817 400.563,269.76 387.413,283.371 379.308,308.994 371.489,307.224 368.448,296.109 370.588,312.333 363.363,316.558 359.359,321.409 355.836,323.905 351.395,325.651 346.026,327.371 341.948,333.395 338.201,324.007 331.458,326.329 325.111,317.917 337.008,302.987 325.01,312.315 320.195,320.315 312.333,325.736 305.715,326.191 296.5,317.421 296.428,324.564 288.965,332.428 292.982,335.798 287.69,340.982 283.272,346.944 273.145,346.783 268.564,357.319 258.411,353.624 256.262,364.388 248.253,370.328 259.033,372.229 256.823,380.737 252.149,385.839 235.317,389.5 228.883,378.293 217.768,387.07 212.238,376.837 201.61,362.104 203.899,351.332 206.106,343.373 192.842,342.434 170.417,321.596 153.288,303.037 182.183,311.675 187.315,317.481 223.14,351.122 214.644,337.693 220.447,339.806 225.298,328.095 215.18,320.339 212.007,312.416 217.738,302.491 225.851,290.686 226.176,279.742 221.683,254.202 207.143,259.248 196.952,259.911 188.744,258.058 178.786,245.2 168.498,231.344 153.907,206.651 153.419,178.706 164.299,175.505 161.902,157.014 158.731,131.135 139,115.69 " />
<polyline fill="none" vector-effect="none" points="139,99.9341 156.367,102.993 165.562,126.034 179.613,116.377 171.636,92.8861 185.772,125.861 194.15,107.468 198.557,91.5478 198.193,77.8609 175.665,75.4512 180.517,87.5181 159.477,85.371 168.924,63.7755 168.763,61.5844 " />
<polyline fill="none" vector-effect="none" points="803.43,61.5844 769.25,100.826 758.367,138.686 829.449,61.5844 " />
<polyline fill="none" vector-effect="none" points="971,555.946 963.744,553.217 855.648,513.832 823.096,471.689 788.909,457.911 734.125,425.815 746.291,416.723 748.659,423.767 733.095,389.5 719.393,376.844 716.115,364.387 712.199,339.577 705.301,321.793 755.955,319.15 779.589,277.053 804.5,235.407 767.92,239.93 747.129,231.87 753.321,204.684 750.837,162.107 727.843,157.76 734.016,135.187 672.708,160.111 650.357,176.35 672.417,184.653 676.799,204.853 674.289,227.823 649.684,246.739 635.816,244.348 623.602,229.298 608.585,219.791 604.695,195.965 597.79,187.438 586.027,190.393 577.571,204.403 573.775,223.148 587.515,234.003 583.461,245.216 579.259,255.942 593.634,252.868 616.91,254.19 620.289,249.497 641.882,256.649 654.488,257.041 646.345,266.672 656.755,262.254 666.445,254.941 676.503,247.24 689.537,244.901 703.196,242.54 693.208,253.656 663.003,278.117 643.936,290.694 628.991,311.502 623.24,328.029 628.464,329.314 632.921,326.808 644.763,311.311 664.901,283.475 693.193,293.093 670.493,301.376 659.099,325.283 635.215,337.932 627.243,349.109 637.199,350.118 648.415,358.869 641.243,369.622 649.618,374.164 659.997,372.559 671.286,384.014 682.643,389.5 694.433,389.5 713.05,395.715 719.393,402.156 732.179,415.736 731.035,428.815 716.91,433.694 715.149,446.228 715.149,446.228 " />
</g>

<g fill="#75ab2e" fill-opacity="0.34902" stroke="none" transform="matrix(7.19538e-05,0,0,7.18517e-05,-73.7118,-42.8094)"
font-family="Helvetica" font-size="13" font-weight="400" font-style="normal" 
>
<path vector-effect="none" fill-rule="evenodd" d="M3.42671e+06,5.53068e+06 L3.43779e+06,5.40396e+06 L3.57446e+06,5.22778e+06 L3.632e+06,5.08155e+06 L3.72347e+06,4.98831e+06 L3.69102e+06,4.88218e+06 L3.6565e+06,4.88581e+06 L3.60834e+06,4.99838e+06 L3.56798e+06,4.94396e+06 L3.48538e+06,4.72617e+06 L3.46017e+06,4.93821e+06 L3.37809e+06,4.98228e+06 L3.29832e+06,4.90822e+06 L3.21137e+06,4.99816e+06 L3.17885e+06,4.96915e+06 L3.09145e+06,4.92084e+06 L3.01778e+06,4.85114e+06 L2.93655e+06,4.79939e+06 L2.9305e+06,4.65691e+06 L2.76236e+06,4.64796e+06 L2.69463e+06,4.74015e+06 L2.72406e+06,4.60467e+06 L2.75495e+06,4.36546e+06 L2.77095e+06,4.21776e+06 L2.61867e+06,4.18579e+06 L2.48988e+06,4.12455e+06 L2.41945e+06,4.2911e+06 L2.37975e+06,4.14795e+06 L2.33342e+06,4.20327e+06 L2.3552e+06,4.33204e+06 L2.36148e+06,4.3348e+06 L2.356e+06,4.33679e+06 L2.3552e+06,4.33204e+06 L2.2669e+06,4.29334e+06 L2.21883e+06,4.23184e+06 L2.0571e+06,4.34309e+06 L2.06934e+06,4.38253e+06 L1.88208e+06,4.44338e+06 L1.99802e+06,4.56219e+06 L1.83779e+06,4.52541e+06 L1.70581e+06,4.46488e+06 L1.7718e+06,4.54942e+06 L1.86084e+06,4.58547e+06 L2.1768e+06,4.63568e+06 L2.36401e+06,4.59117e+06 L2.39434e+06,4.74903e+06 L2.36124e+06,4.90912e+06 L2.30086e+06,5.03757e+06 L2.3624e+06,5.10241e+06 L2.29364e+06,5.41588e+06 L2.2554e+06,5.57738e+06 L2.18988e+06,5.72623e+06 L2.08151e+06,6.18678e+06 L1.74873e+06,6.59486e+06 L1.63778e+06,7.17416e+06 L1.74013e+06,7.17416e+06 L1.7873e+06,7.17416e+06 L4.17327e+06,7.17416e+06 L4.37378e+06,7.17416e+06 L4.42222e+06,7.17416e+06 L4.43629e+06,6.91676e+06 L4.60781e+06,6.74687e+06 L4.57332e+06,6.50924e+06 L4.72467e+06,6.3716e+06 L4.72171e+06,6.45808e+06 L4.77409e+06,6.47758e+06 L4.93643e+06,6.35032e+06 L4.88082e+06,6.26011e+06 L4.8104e+06,6.32979e+06 L4.6543e+06,6.22069e+06 L4.7425e+06,6.15735e+06 L4.66739e+06,6.04912e+06 L4.41134e+06,6.20709e+06 L4.46574e+06,6.00567e+06 L4.71629e+06,5.88075e+06 L4.76367e+06,5.66497e+06 L4.68002e+06,5.54095e+06 L4.4914e+06,5.49124e+06 L4.20996e+06,5.2678e+06 L4.26433e+06,5.45491e+06 L4.15382e+06,5.49956e+06 L4.10941e+06,5.37754e+06 L4.0188e+06,5.27685e+06 L3.88302e+06,5.25166e+06 L4.05734e+06,5.39547e+06 L3.88311e+06,5.50676e+06 L4.00023e+06,5.75937e+06 L3.94864e+06,5.8439e+06 L4.01051e+06,5.96833e+06 L3.94054e+06,5.99753e+06 L3.83611e+06,5.78979e+06 L3.64722e+06,5.6679e+06 L3.52336e+06,5.66898e+06 L3.48045e+06,5.6002e+06 L3.42671e+06,5.53068e+06"/>
</g>

<g fill="none" stroke="#1a330d" stroke-opacity="1" stroke-width="0.486111" stroke-linecap="square" stroke-linejoin="miter" stroke-miterlimit="5" transform="matrix(0.719538,0,0,0.718517,-73.7118,-42.8094)"
font-family="Helvetica" font-size="13" font-weight="400" font-style="normal" 
>
<polyline fill="none" vector-effect="none" points="388.302,525.166 401.88,527.685 410.941,537.754 415.382,549.956 426.433,545.491 420.996,526.78 449.14,549.124 468.002,554.095 476.367,566.497 471.629,588.075 446.574,600.567 441.134,620.709 466.739,604.912 474.25,615.735 465.43,622.069 481.04,632.979 488.082,626.011 493.643,635.032 477.409,647.758 472.171,645.808 472.467,637.16 457.332,650.924 460.781,674.687 443.629,691.676 442.222,717.416 " />
<polyline fill="none" vector-effect="none" points="163.778,717.416 174.873,659.486 208.151,618.678 218.988,572.623 225.54,557.738 229.364,541.588 236.24,510.241 230.086,503.757 236.123,490.912 239.434,474.903 236.401,459.117 217.68,463.568 186.084,458.547 177.18,454.942 170.581,446.488 183.779,452.541 199.802,456.219 188.208,444.338 206.934,438.253 205.71,434.309 221.883,423.184 226.69,429.334 236.148,433.48 235.6,433.679 233.342,420.327 237.975,414.795 241.945,429.11 248.988,412.455 261.867,418.579 277.095,421.776 275.495,436.546 272.406,460.467 269.463,474.015 276.236,464.796 293.05,465.69 293.655,479.939 301.778,485.114 309.145,492.084 317.885,496.915 321.137,499.816 329.832,490.822 337.809,498.228 346.017,493.821 348.538,472.617 356.798,494.396 360.834,499.838 365.65,488.581 369.102,488.218 372.347,498.831 363.2,508.155 357.446,522.778 343.779,540.396 342.671,553.068 348.045,560.02 352.336,566.898 364.722,566.79 383.611,578.979 394.054,599.753 401.051,596.833 394.864,584.39 400.023,575.937 388.311,550.676 405.734,539.547 388.302,525.166 388.302,525.166 " />
</g>

<g fill="none" stroke="#000000" stroke-opacity="1" stroke-width="0.694444" stroke-linecap="butt" stroke-linejoin="round" transform="matrix(0.719538,0,0,0.718517,-73.7118,-42.8094)"
font-family="Helvetica" font-size="13" font-weight="400" font-style="normal" 
>
<polyline fill="none" vector-effect="none" points="139,389.5 143.485,389.5 151.063,389.5 158.444,389.5 165.64,389.5 172.663,389.5 179.522,389.5 186.227,389.5 192.788,389.5 199.213,389.5 205.509,389.5 211.685,389.5 217.747,389.5 223.702,389.5 229.557,389.5 235.317,389.5 240.988,389.5 246.576,389.5 252.085,389.5 257.522,389.5 262.889,389.5 268.193,389.5 273.436,389.5 278.624,389.5 283.761,389.5 288.849,389.5 293.893,389.5 298.897,389.5 303.864,389.5 308.798,389.5 313.701,389.5 318.577,389.5 323.429,389.5 328.26,389.5 333.074,389.5 337.873,389.5 342.66,389.5 347.439,389.5 352.211,389.5 356.981,389.5 " />
<polyline fill="none" vector-effect="none" points="139,427.936 139.059,427.926 146.728,426.573 154.191,425.257 161.46,423.976 168.547,422.726 175.463,421.507 182.218,420.315 188.822,419.151 195.283,418.012 201.61,416.896 207.81,415.803 213.892,414.73 219.862,413.678 225.727,412.644 231.492,411.627 237.165,410.627 242.75,409.642 248.253,408.672 253.679,407.715 259.033,406.771 264.319,405.839 269.542,404.918 274.706,404.007 279.815,403.107 284.873,402.215 289.884,401.331 294.852,400.455 299.78,399.586 304.671,398.724 309.53,397.867 314.358,397.016 319.16,396.169 323.938,395.326 328.696,394.487 333.437,393.651 338.163,392.818 342.878,391.987 347.584,391.157 352.284,390.328 356.981,389.5 " />
<polyline fill="none" vector-effect="none" points="139,468.839 141.514,467.923 149.042,465.184 156.36,462.52 163.481,459.928 170.417,457.404 177.18,454.942 183.779,452.541 190.224,450.195 196.525,447.901 202.69,445.657 208.727,443.46 214.644,441.307 220.447,439.194 226.144,437.121 231.74,435.084 237.241,433.082 242.654,431.112 247.983,429.172 253.234,427.261 258.411,425.376 263.52,423.517 268.564,421.681 273.547,419.867 278.475,418.074 283.35,416.3 288.176,414.543 292.958,412.803 297.698,411.077 302.4,409.366 307.068,407.667 311.703,405.98 316.311,404.303 320.893,402.635 325.452,400.976 329.992,399.323 334.516,397.677 339.025,396.035 343.524,394.398 348.014,392.764 352.499,391.131 356.981,389.5 " />
<polyline fill="none" vector-effect="none" points="139,515.352 143.898,512.524 151.262,508.272 158.406,504.147 165.344,500.142 172.088,496.248 178.651,492.459 185.043,488.769 191.275,485.17 197.357,481.659 203.297,478.23 209.104,474.877 214.786,471.596 220.35,468.384 225.802,465.236 231.151,462.148 236.401,459.117 241.558,456.14 246.628,453.212 251.617,450.332 256.528,447.497 261.367,444.703 266.139,441.948 270.847,439.23 275.495,436.546 280.088,433.894 284.629,431.272 289.122,428.678 293.57,426.11 297.977,423.566 302.346,421.044 306.679,418.542 310.981,416.058 315.253,413.592 319.499,411.14 323.722,408.702 327.924,406.276 332.108,403.861 336.277,401.454 340.433,399.054 344.579,396.661 348.717,394.271 352.85,391.885 356.981,389.5 " />
<polyline fill="none" vector-effect="none" points="139,572.408 140.212,571.391 147.65,565.15 154.832,559.123 161.776,553.296 168.498,547.656 175.012,542.19 181.331,536.888 187.468,531.739 193.433,526.733 199.238,521.862 204.893,517.117 210.406,512.492 215.785,507.977 221.04,503.569 226.176,499.258 231.202,495.041 236.123,490.912 240.947,486.864 245.678,482.895 250.321,478.998 254.883,475.17 259.368,471.407 263.781,467.704 268.125,464.059 272.406,460.467 276.626,456.926 280.791,453.431 284.902,449.981 288.965,446.572 292.982,443.202 296.956,439.867 300.891,436.565 304.789,433.294 308.653,430.052 312.486,426.836 316.291,423.643 320.07,420.472 323.826,417.32 327.562,414.186 331.278,411.067 334.98,407.962 338.667,404.867 342.343,401.783 346.011,398.705 349.671,395.634 353.327,392.566 356.981,389.5 " />
<polyline fill="none" vector-effect="none" points="147.65,638.972 154.919,630.308 161.902,621.986 168.619,613.981 175.09,606.269 181.331,598.832 187.358,591.649 193.185,584.705 198.825,577.983 204.291,571.469 209.593,565.15 214.743,559.013 219.748,553.048 224.619,547.243 229.364,541.588 233.99,536.076 238.504,530.696 242.913,525.442 247.223,520.305 251.44,515.279 255.57,510.358 259.617,505.534 263.586,500.804 267.483,496.16 271.311,491.598 275.074,487.113 278.777,482.7 282.422,478.356 286.014,474.075 289.555,469.855 293.05,465.69 296.5,461.579 299.909,457.516 303.28,453.499 306.614,449.525 309.916,445.59 313.187,441.692 316.429,437.828 319.646,433.995 322.838,430.19 326.009,426.411 329.161,422.655 332.295,418.92 335.414,415.203 338.52,411.502 341.614,407.814 344.698,404.138 347.776,400.471 350.847,396.81 353.915,393.154 356.981,389.5 " />
<polyline fill="none" vector-effect="none" points="194.15,671.532 199.805,661.738 205.236,652.329 210.462,643.279 215.495,634.561 220.35,626.153 225.038,618.033 229.57,610.182 233.958,602.583 238.209,595.219 242.334,588.075 246.339,581.138 250.233,574.393 254.022,567.831 257.713,561.438 261.311,555.206 264.822,549.124 268.252,543.184 271.604,537.377 274.885,531.695 278.097,526.132 281.245,520.679 284.333,515.331 287.364,510.081 290.342,504.923 293.269,499.853 296.149,494.865 298.985,489.953 301.778,485.114 304.533,480.342 307.251,475.635 309.935,470.986 312.587,466.393 315.209,461.852 317.803,457.359 320.371,452.911 322.915,448.504 325.437,444.136 327.939,439.802 330.423,435.501 332.889,431.228 335.341,426.982 337.779,422.759 340.205,418.557 342.621,414.373 345.027,410.204 347.427,406.048 349.821,401.902 352.21,397.764 354.596,393.631 356.981,389.5 " />
<polyline fill="none" vector-effect="none" points="245.598,695.522 249.466,684.895 253.182,674.687 256.756,664.866 260.199,655.407 263.52,646.283 266.726,637.473 269.827,628.954 272.828,620.709 275.736,612.718 278.558,604.967 281.298,597.439 283.961,590.121 286.553,583 289.077,576.064 291.539,569.302 293.941,562.703 296.287,556.257 298.58,549.956 300.824,543.791 303.021,537.754 305.175,531.837 307.287,526.034 309.36,520.338 311.397,514.742 313.399,509.24 315.369,503.827 317.309,498.498 319.22,493.247 321.105,488.07 322.964,482.961 324.8,477.918 326.614,472.934 328.407,468.007 330.182,463.131 331.938,458.305 333.679,453.523 335.404,448.783 337.115,444.081 338.814,439.414 340.501,434.778 342.178,430.17 343.846,425.589 345.506,421.029 347.158,416.489 348.804,411.966 350.446,407.456 352.083,402.957 353.717,398.467 355.35,393.982 356.981,389.5 " />
<polyline fill="none" vector-effect="none" points="300.431,710.215 302.394,699.077 304.281,688.379 306.096,678.087 307.844,668.173 309.53,658.612 311.158,649.378 312.732,640.451 314.256,631.809 315.732,623.435 317.165,615.311 318.556,607.422 319.908,599.753 321.224,592.29 322.506,585.021 323.755,577.934 324.975,571.018 326.166,564.263 327.33,557.66 328.469,551.199 329.585,544.872 330.678,538.671 331.751,532.589 332.803,526.619 333.837,520.754 334.854,514.989 335.854,509.316 336.839,503.731 337.809,498.228 338.766,492.802 339.71,487.449 340.642,482.163 341.563,476.94 342.474,471.776 343.375,466.667 344.267,461.608 345.15,456.597 346.026,451.629 346.895,446.701 347.757,441.81 348.614,436.952 349.466,432.123 350.312,427.321 351.155,422.543 351.994,417.785 352.83,413.044 353.663,408.318 354.494,403.604 355.324,398.898 356.153,394.197 356.981,389.5 " />
<polyline fill="none" vector-effect="none" points="356.981,715.162 356.981,703.853 356.981,692.989 356.981,682.539 356.981,672.472 356.981,662.763 356.981,653.387 356.981,644.322 356.981,635.547 356.981,627.044 356.981,618.795 356.981,610.784 356.981,602.996 356.981,595.418 356.981,588.037 356.981,580.841 356.981,573.818 356.981,566.959 356.981,560.254 356.981,553.693 356.981,547.268 356.981,540.972 356.981,534.797 356.981,528.734 356.981,522.779 356.981,516.925 356.981,511.165 356.981,505.493 356.981,499.905 356.981,494.396 356.981,488.96 356.981,483.592 356.981,478.289 356.981,473.045 356.981,467.857 356.981,462.721 356.981,457.632 356.981,452.588 356.981,447.584 356.981,442.617 356.981,437.684 356.981,432.781 356.981,427.905 356.981,423.052 356.981,418.221 356.981,413.407 356.981,408.608 356.981,403.821 356.981,399.043 356.981,394.27 356.981,389.5 " />
<polyline fill="none" vector-effect="none" points="413.532,710.215 411.568,699.077 409.682,688.379 407.867,678.087 406.119,668.173 404.433,658.612 402.805,649.378 401.23,640.451 399.707,631.809 398.23,623.435 396.798,615.311 395.407,607.422 394.054,599.753 392.739,592.29 391.457,585.021 390.207,577.934 388.988,571.018 387.797,564.263 386.632,557.66 385.493,551.199 384.377,544.872 383.284,538.671 382.212,532.589 381.159,526.619 380.125,520.754 379.108,514.989 378.108,509.316 377.123,503.731 376.153,498.228 375.196,492.802 374.252,487.449 373.32,482.163 372.399,476.94 371.489,471.776 370.588,466.667 369.696,461.608 368.812,456.597 367.936,451.629 367.067,446.701 366.205,441.81 365.348,436.952 364.497,432.123 363.65,427.321 362.807,422.543 361.969,417.785 361.133,413.044 360.299,408.318 359.468,403.604 358.638,398.898 357.809,394.197 356.981,389.5 " />
<polyline fill="none" vector-effect="none" points="468.364,695.522 464.496,684.895 460.781,674.687 457.206,664.866 453.763,655.407 450.443,646.283 447.236,637.473 444.135,628.954 441.134,620.709 438.226,612.718 435.405,604.967 432.665,597.439 430.001,590.121 427.409,583 424.885,576.064 422.424,569.302 420.022,562.703 417.676,556.257 415.382,549.956 413.138,543.791 410.941,537.754 408.788,531.837 406.675,526.034 404.602,520.338 402.565,514.742 400.563,509.24 398.593,503.827 396.653,498.498 394.742,493.247 392.858,488.07 390.998,482.961 389.163,477.918 387.349,472.934 385.555,468.007 383.781,463.131 382.024,458.305 380.284,453.523 378.558,448.783 376.847,444.081 375.148,439.414 373.461,434.778 371.784,430.17 370.116,425.589 368.457,421.029 366.804,416.489 365.158,411.966 363.517,407.456 361.879,402.957 360.245,398.467 358.613,393.982 356.981,389.5 " />
<polyline fill="none" vector-effect="none" points="519.812,671.532 514.158,661.738 508.726,652.329 503.501,643.279 498.467,634.561 493.613,626.153 488.925,618.033 484.392,610.182 480.005,602.583 475.753,595.219 471.629,588.075 467.623,581.138 463.729,574.393 459.94,567.831 456.25,561.438 452.652,555.206 449.14,549.124 445.711,543.184 442.358,537.377 439.078,531.695 435.865,526.132 432.717,520.679 429.629,515.331 426.598,510.081 423.621,504.923 420.693,499.853 417.813,494.865 414.978,489.953 412.184,485.114 409.429,480.342 406.711,475.635 404.027,470.986 401.375,466.393 398.754,461.852 396.16,457.359 393.591,452.911 391.047,448.504 388.525,444.136 386.023,439.802 383.54,435.501 381.073,431.228 378.621,426.982 376.183,422.759 373.757,418.557 371.342,414.373 368.935,410.204 366.535,406.048 364.142,401.902 361.752,397.764 359.366,393.631 356.981,389.5 " />
<polyline fill="none" vector-effect="none" points="566.313,638.972 559.043,630.308 552.06,621.986 545.343,613.981 538.872,606.269 532.631,598.832 526.604,591.649 520.778,584.705 515.137,577.983 509.671,571.469 504.369,565.15 499.22,559.013 494.214,553.048 489.343,547.243 484.598,541.588 479.973,536.076 475.459,530.696 471.05,525.442 466.74,520.305 462.522,515.279 458.393,510.358 454.346,505.534 450.376,500.804 446.479,496.16 442.651,491.598 438.888,487.113 435.186,482.7 431.54,478.356 427.948,474.075 424.407,469.855 420.913,465.69 417.462,461.579 414.053,457.516 410.683,453.499 407.348,449.525 404.046,445.59 400.776,441.692 397.533,437.828 394.317,433.995 391.124,430.19 387.953,426.411 384.801,422.655 381.667,418.92 378.548,415.203 375.443,411.502 372.349,407.814 369.264,404.138 366.187,400.471 363.115,396.81 360.047,393.154 356.981,389.5 " />
<polyline fill="none" vector-effect="none" points="606.453,598.832 597.79,591.562 589.467,584.579 581.462,577.862 573.75,571.391 566.313,565.15 559.13,559.123 552.186,553.296 545.464,547.656 538.95,542.19 532.631,536.888 526.495,531.739 520.529,526.733 514.724,521.862 509.069,517.117 503.557,512.492 498.177,507.977 492.923,503.569 487.786,499.258 482.76,495.041 477.839,490.912 473.016,486.864 468.285,482.895 463.641,478.998 459.079,475.17 454.594,471.407 450.182,467.704 445.837,464.059 441.557,460.467 437.336,456.926 433.172,453.431 429.06,449.981 424.997,446.572 420.98,443.202 417.006,439.867 413.071,436.565 409.173,433.294 405.309,430.052 401.476,426.836 397.671,423.643 393.892,420.472 390.136,417.32 386.401,414.186 382.684,411.067 378.983,407.962 375.295,404.867 371.619,401.783 367.952,398.705 364.291,395.634 360.635,392.566 356.981,389.5 " />
<polyline fill="none" vector-effect="none" points="639.013,552.331 629.219,546.677 619.811,541.245 610.76,536.019 602.042,530.986 593.634,526.132 585.514,521.444 577.663,516.911 570.064,512.524 562.7,508.272 555.556,504.147 548.619,500.142 541.875,496.248 535.312,492.459 528.919,488.769 522.687,485.17 516.605,481.659 510.665,478.23 504.858,474.877 499.176,471.596 493.613,468.384 488.16,465.236 482.812,462.148 477.562,459.117 472.404,456.14 467.334,453.212 462.346,450.332 457.434,447.497 452.595,444.703 447.824,441.948 443.116,439.23 438.467,436.546 433.874,433.894 429.333,431.272 424.84,428.678 420.392,426.11 415.985,423.566 411.617,421.044 407.283,418.542 402.982,416.058 398.709,413.592 394.463,411.14 390.241,408.702 386.038,406.276 381.854,403.861 377.686,401.454 373.53,399.054 369.384,396.661 365.245,394.271 361.112,391.885 356.981,389.5 " />
<polyline fill="none" vector-effect="none" points="663.003,500.883 652.376,497.015 642.168,493.299 632.347,489.725 622.888,486.282 613.764,482.961 604.954,479.755 596.435,476.654 588.19,473.653 580.199,470.745 572.448,467.923 564.92,465.184 557.602,462.52 550.481,459.928 543.545,457.404 536.783,454.942 530.184,452.541 523.738,450.195 517.437,447.901 511.272,445.657 505.235,443.46 499.318,441.307 493.515,439.194 487.819,437.121 482.223,435.084 476.721,433.082 471.308,431.112 465.979,429.172 460.728,427.261 455.551,425.376 450.443,423.517 445.399,421.681 440.415,419.867 435.488,418.074 430.613,416.3 425.786,414.543 421.004,412.803 416.264,411.077 411.562,409.366 406.895,407.667 402.259,405.98 397.652,404.303 393.07,402.635 388.51,400.976 383.97,399.323 379.447,397.677 374.937,396.035 370.439,394.398 365.948,392.764 361.463,391.131 356.981,389.5 " />
<polyline fill="none" vector-effect="none" points="677.696,446.051 666.559,444.087 655.86,442.2 645.568,440.386 635.654,438.638 626.093,436.952 616.859,435.323 607.932,433.749 599.29,432.226 590.916,430.749 582.793,429.317 574.903,427.926 567.234,426.573 559.771,425.257 552.502,423.976 545.415,422.726 538.499,421.507 531.744,420.315 525.141,419.151 518.68,418.012 512.353,416.896 506.152,415.803 500.07,414.73 494.1,413.678 488.236,412.644 482.47,411.627 476.797,410.627 471.212,409.642 465.709,408.672 460.283,407.715 454.93,406.771 449.644,405.839 444.421,404.918 439.257,404.007 434.148,403.107 429.089,402.215 424.078,401.331 419.11,400.455 414.183,399.586 409.291,398.724 404.433,397.867 399.604,397.016 394.802,396.169 390.024,395.326 385.266,394.487 380.525,393.651 375.799,392.818 371.085,391.987 366.379,391.157 361.678,390.328 356.981,389.5 " />
<polyline fill="none" vector-effect="none" points="682.643,389.5 671.334,389.5 660.47,389.5 650.02,389.5 639.953,389.5 630.244,389.5 620.868,389.5 611.803,389.5 603.028,389.5 594.525,389.5 586.276,389.5 578.265,389.5 570.478,389.5 562.9,389.5 555.518,389.5 548.322,389.5 541.299,389.5 534.44,389.5 527.735,389.5 521.174,389.5 514.75,389.5 508.453,389.5 502.278,389.5 496.216,389.5 490.26,389.5 484.406,389.5 478.646,389.5 472.974,389.5 467.387,389.5 461.877,389.5 456.441,389.5 451.073,389.5 445.77,389.5 440.526,389.5 435.338,389.5 430.202,389.5 425.113,389.5 420.069,389.5 415.065,389.5 410.098,389.5 405.165,389.5 400.262,389.5 395.386,389.5 390.534,389.5 385.702,389.5 380.889,389.5 376.09,389.5 371.302,389.5 366.524,389.5 361.751,389.5 356.981,389.5 " />
<polyline fill="none" vector-effect="none" points="677.696,332.949 666.559,334.913 655.86,336.8 645.568,338.614 635.654,340.362 626.093,342.048 616.859,343.677 607.932,345.251 599.29,346.774 590.916,348.251 582.793,349.683 574.903,351.074 567.234,352.427 559.771,353.743 552.502,355.024 545.415,356.274 538.499,357.493 531.744,358.685 525.141,359.849 518.68,360.988 512.353,362.104 506.152,363.197 500.07,364.27 494.1,365.322 488.236,366.356 482.47,367.373 476.797,368.373 471.212,369.358 465.709,370.328 460.283,371.285 454.93,372.229 449.644,373.161 444.421,374.082 439.257,374.993 434.148,375.893 429.089,376.785 424.078,377.669 419.11,378.545 414.183,379.414 409.291,380.276 404.433,381.133 399.604,381.984 394.802,382.831 390.024,383.674 385.266,384.513 380.525,385.349 375.799,386.182 371.085,387.013 366.379,387.843 361.678,388.672 356.981,389.5 " />
<polyline fill="none" vector-effect="none" points="663.003,278.117 652.376,281.985 642.168,285.701 632.347,289.275 622.888,292.718 613.764,296.039 604.954,299.245 596.435,302.346 588.19,305.347 580.199,308.255 572.448,311.077 564.92,313.816 557.602,316.48 550.481,319.072 543.545,321.596 536.783,324.058 530.184,326.459 523.738,328.805 517.437,331.099 511.272,333.343 505.235,335.54 499.318,337.693 493.515,339.806 487.819,341.879 482.223,343.916 476.721,345.918 471.308,347.888 465.979,349.828 460.728,351.739 455.551,353.624 450.443,355.483 445.399,357.319 440.415,359.133 435.488,360.926 430.613,362.7 425.786,364.457 421.004,366.197 416.264,367.923 411.562,369.634 406.895,371.333 402.259,373.02 397.652,374.697 393.07,376.365 388.51,378.024 383.97,379.677 379.447,381.323 374.937,382.965 370.439,384.602 365.948,386.236 361.463,387.869 356.981,389.5 " />
<polyline fill="none" vector-effect="none" points="639.013,226.669 629.219,232.323 619.811,237.755 610.76,242.981 602.042,248.014 593.634,252.868 585.514,257.556 577.663,262.089 570.064,266.476 562.7,270.728 555.556,274.853 548.619,278.858 541.875,282.752 535.312,286.541 528.919,290.231 522.687,293.83 516.605,297.341 510.665,300.77 504.858,304.123 499.176,307.404 493.613,310.616 488.16,313.764 482.812,316.852 477.562,319.883 472.404,322.86 467.334,325.788 462.346,328.668 457.434,331.503 452.595,334.297 447.824,337.052 443.116,339.77 438.467,342.454 433.874,345.106 429.333,347.728 424.84,350.322 420.392,352.89 415.985,355.434 411.617,357.956 407.283,360.458 402.982,362.942 398.709,365.408 394.463,367.86 390.241,370.298 386.038,372.724 381.854,375.139 377.686,377.546 373.53,379.946 369.384,382.339 365.245,384.729 361.112,387.115 356.981,389.5 " />
<polyline fill="none" vector-effect="none" points="606.453,180.168 597.79,187.438 589.467,194.421 581.462,201.138 573.75,207.609 566.313,213.85 559.13,219.877 552.186,225.704 545.464,231.344 538.95,236.81 532.631,242.112 526.495,247.261 520.529,252.267 514.724,257.138 509.069,261.883 503.557,266.508 498.177,271.023 492.923,275.431 487.786,279.742 482.76,283.959 477.839,288.088 473.016,292.136 468.285,296.105 463.641,300.002 459.079,303.83 454.594,307.593 450.182,311.296 445.837,314.941 441.557,318.533 437.336,322.074 433.172,325.569 429.06,329.019 424.997,332.428 420.98,335.798 417.006,339.133 413.071,342.435 409.173,345.706 405.309,348.948 401.476,352.164 397.671,355.357 393.892,358.528 390.136,361.68 386.401,364.814 382.684,367.933 378.983,371.038 375.295,374.133 371.619,377.217 367.952,380.295 364.291,383.366 360.635,386.434 356.981,389.5 " />
<polyline fill="none" vector-effect="none" points="566.313,140.028 559.043,148.692 552.06,157.014 545.343,165.019 538.872,172.731 532.631,180.168 526.604,187.351 520.778,194.295 515.137,201.017 509.671,207.531 504.369,213.85 499.22,219.987 494.214,225.952 489.343,231.757 484.598,237.412 479.973,242.924 475.459,248.304 471.05,253.558 466.74,258.695 462.522,263.721 458.393,268.642 454.346,273.466 450.376,278.196 446.479,282.84 442.651,287.402 438.888,291.887 435.186,296.3 431.54,300.644 427.948,304.925 424.407,309.145 420.913,313.31 417.462,317.421 414.053,321.484 410.683,325.501 407.348,329.475 404.046,333.41 400.776,337.308 397.533,341.172 394.317,345.005 391.124,348.81 387.953,352.589 384.801,356.345 381.667,360.08 378.548,363.797 375.443,367.498 372.349,371.186 369.264,374.862 366.187,378.529 363.115,382.19 360.047,385.846 356.981,389.5 " />
<polyline fill="none" vector-effect="none" points="519.812,107.468 514.158,117.262 508.726,126.671 503.501,135.721 498.467,144.439 493.613,152.847 488.925,160.967 484.392,168.818 480.005,176.417 475.753,183.781 471.629,190.925 467.623,197.862 463.729,204.607 459.94,211.169 456.25,217.562 452.652,223.794 449.14,229.876 445.711,235.816 442.358,241.623 439.078,247.305 435.865,252.868 432.717,258.321 429.629,263.67 426.598,268.919 423.621,274.077 420.693,279.147 417.813,284.135 414.978,289.047 412.184,293.886 409.429,298.658 406.711,303.365 404.027,308.014 401.375,312.607 398.754,317.148 396.16,321.641 393.591,326.089 391.047,330.496 388.525,334.864 386.023,339.198 383.54,343.499 381.073,347.772 378.621,352.018 376.183,356.241 373.757,360.443 371.342,364.627 368.935,368.796 366.535,372.952 364.142,377.098 361.752,381.236 359.366,385.369 356.981,389.5 " />
<polyline fill="none" vector-effect="none" points="468.364,83.4776 464.496,94.1047 460.781,104.313 457.206,114.134 453.763,123.593 450.443,132.717 447.236,141.527 444.135,150.046 441.134,158.291 438.226,166.282 435.405,174.033 432.665,181.561 430.001,188.879 427.409,196 424.885,202.936 422.424,209.698 420.022,216.298 417.676,222.743 415.382,229.044 413.138,235.209 410.941,241.246 408.788,247.163 406.675,252.966 404.602,258.662 402.565,264.258 400.563,269.76 398.593,275.173 396.653,280.502 394.742,285.753 392.858,290.93 390.998,296.039 389.163,301.082 387.349,306.066 385.555,310.993 383.781,315.869 382.024,320.695 380.284,325.477 378.558,330.217 376.847,334.919 375.148,339.586 373.461,344.222 371.784,348.83 370.116,353.411 368.457,357.971 366.804,362.511 365.158,367.034 363.517,371.544 361.879,376.043 360.245,380.533 358.613,385.018 356.981,389.5 " />
<polyline fill="none" vector-effect="none" points="413.532,68.7854 411.568,79.9226 409.682,90.6213 407.867,100.913 406.119,110.827 404.433,120.388 402.805,129.622 401.23,138.549 399.707,147.191 398.23,155.565 396.798,163.689 395.407,171.578 394.054,179.247 392.739,186.71 391.457,193.979 390.207,201.066 388.988,207.982 387.797,214.737 386.632,221.34 385.493,227.801 384.377,234.128 383.284,240.329 382.212,246.411 381.159,252.381 380.125,258.246 379.108,264.011 378.108,269.684 377.123,275.269 376.153,280.772 375.196,286.198 374.252,291.551 373.32,296.837 372.399,302.06 371.489,307.224 370.588,312.333 369.696,317.392 368.812,322.403 367.936,327.371 367.067,332.299 366.205,337.19 365.348,342.048 364.497,346.877 363.65,351.679 362.807,356.457 361.969,361.215 361.133,365.956 360.299,370.682 359.468,375.396 358.638,380.102 357.809,384.803 356.981,389.5 " />
<polyline fill="none" vector-effect="none" points="356.981,63.8378 356.981,75.1469 356.981,86.0107 356.981,96.4613 356.981,106.528 356.981,116.237 356.981,125.613 356.981,134.678 356.981,143.453 356.981,151.956 356.981,160.205 356.981,168.216 356.981,176.004 356.981,183.582 356.981,190.963 356.981,198.159 356.981,205.182 356.981,212.041 356.981,218.746 356.981,225.307 356.981,231.732 356.981,238.028 356.981,244.203 356.981,250.266 356.981,256.221 356.981,262.075 356.981,267.835 356.981,273.507 356.981,279.095 356.981,284.604 356.981,290.04 356.981,295.408 356.981,300.711 356.981,305.955 356.981,311.143 356.981,316.279 356.981,321.368 356.981,326.412 356.981,331.416 356.981,336.383 356.981,341.316 356.981,346.219 356.981,351.095 356.981,355.948 356.981,360.779 356.981,365.593 356.981,370.392 356.981,375.179 356.981,379.957 356.981,384.73 356.981,389.5 " />
<polyline fill="none" vector-effect="none" points="300.431,68.7854 302.394,79.9226 304.281,90.6213 306.096,100.913 307.844,110.827 309.53,120.388 311.158,129.622 312.732,138.549 314.256,147.191 315.732,155.565 317.165,163.689 318.556,171.578 319.908,179.247 321.224,186.71 322.506,193.979 323.755,201.066 324.975,207.982 326.166,214.737 327.33,221.34 328.469,227.801 329.585,234.128 330.678,240.329 331.751,246.411 332.803,252.381 333.837,258.246 334.854,264.011 335.854,269.684 336.839,275.269 337.809,280.772 338.766,286.198 339.71,291.551 340.642,296.837 341.563,302.06 342.474,307.224 343.375,312.333 344.267,317.392 345.15,322.403 346.026,327.371 346.895,332.299 347.757,337.19 348.614,342.048 349.466,346.877 350.312,351.679 351.155,356.457 351.994,361.215 352.83,365.956 353.663,370.682 354.494,375.396 355.324,380.102 356.153,384.803 356.981,389.5 " />
<polyline fill="none" vector-effect="none" points="245.598,83.4776 249.466,94.1047 253.182,104.313 256.756,114.134 260.199,123.593 263.52,132.717 266.726,141.527 269.827,150.046 272.828,158.291 275.736,166.282 278.558,174.033 281.298,181.561 283.961,188.879 286.553,196 289.077,202.936 291.539,209.698 293.941,216.298 296.287,222.743 298.58,229.044 300.824,235.209 303.021,241.246 305.175,247.163 307.287,252.966 309.36,258.662 311.397,264.258 313.399,269.76 315.369,275.173 317.309,280.502 319.22,285.753 321.105,290.93 322.964,296.039 324.8,301.082 326.614,306.066 328.407,310.993 330.182,315.869 331.938,320.695 333.679,325.477 335.404,330.217 337.115,334.919 338.814,339.586 340.501,344.222 342.178,348.83 343.846,353.411 345.506,357.971 347.158,362.511 348.804,367.034 350.446,371.544 352.083,376.043 353.717,380.533 355.35,385.018 356.981,389.5 " />
<polyline fill="none" vector-effect="none" points="194.15,107.468 199.805,117.262 205.236,126.671 210.462,135.721 215.495,144.439 220.35,152.847 225.038,160.967 229.57,168.818 233.958,176.417 238.209,183.781 242.334,190.925 246.339,197.862 250.233,204.607 254.022,211.169 257.713,217.562 261.311,223.794 264.822,229.876 268.252,235.816 271.604,241.623 274.885,247.305 278.097,252.868 281.245,258.321 284.333,263.67 287.364,268.919 290.342,274.077 293.269,279.147 296.149,284.135 298.985,289.047 301.778,293.886 304.533,298.658 307.251,303.365 309.935,308.014 312.587,312.607 315.209,317.148 317.803,321.641 320.371,326.089 322.915,330.496 325.437,334.864 327.939,339.198 330.423,343.499 332.889,347.772 335.341,352.018 337.779,356.241 340.205,360.443 342.621,364.627 345.027,368.796 347.427,372.952 349.821,377.098 352.21,381.236 354.596,385.369 356.981,389.5 " />
<polyline fill="none" vector-effect="none" points="147.65,140.028 154.919,148.692 161.902,157.014 168.619,165.019 175.09,172.731 181.331,180.168 187.358,187.351 193.185,194.295 198.825,201.017 204.291,207.531 209.593,213.85 214.743,219.987 219.748,225.952 224.619,231.757 229.364,237.412 233.99,242.924 238.504,248.304 242.913,253.558 247.223,258.695 251.44,263.721 255.57,268.642 259.617,273.466 263.586,278.196 267.483,282.84 271.311,287.402 275.074,291.887 278.777,296.3 282.422,300.644 286.014,304.925 289.555,309.145 293.05,313.31 296.5,317.421 299.909,321.484 303.28,325.501 306.614,329.475 309.916,333.41 313.187,337.308 316.429,341.172 319.646,345.005 322.838,348.81 326.009,352.589 329.161,356.345 332.295,360.08 335.414,363.797 338.52,367.498 341.614,371.186 344.698,374.862 347.776,378.529 350.847,382.19 353.915,385.846 356.981,389.5 " />
<polyline fill="none" vector-effect="none" points="139,206.592 140.212,207.609 147.65,213.85 154.832,219.877 161.776,225.704 168.498,231.344 175.012,236.81 181.331,242.112 187.468,247.261 193.433,252.267 199.238,257.138 204.893,261.883 210.406,266.508 215.785,271.023 221.04,275.431 226.176,279.742 231.202,283.959 236.123,288.088 240.947,292.136 245.678,296.105 250.321,300.002 254.883,303.83 259.368,307.593 263.781,311.296 268.125,314.941 272.406,318.533 276.626,322.074 280.791,325.569 284.902,329.019 288.965,332.428 292.982,335.798 296.956,339.133 300.891,342.435 304.789,345.706 308.653,348.948 312.486,352.164 316.291,355.357 320.07,358.528 323.826,361.68 327.562,364.814 331.278,367.933 334.98,371.038 338.667,374.133 342.343,377.217 346.011,380.295 349.671,383.366 353.327,386.434 356.981,389.5 " />
<polyline fill="none" vector-effect="none" points="139,263.649 143.898,266.476 151.262,270.728 158.406,274.853 165.344,278.858 172.088,282.752 178.651,286.541 185.043,290.231 191.275,293.83 197.357,297.341 203.297,300.77 209.104,304.123 214.786,307.404 220.35,310.616 225.802,313.764 231.151,316.852 236.401,319.883 241.558,322.86 246.628,325.788 251.617,328.668 256.528,331.503 261.367,334.297 266.139,337.052 270.847,339.77 275.495,342.454 280.088,345.106 284.629,347.728 289.122,350.322 293.57,352.89 297.977,355.434 302.346,357.956 306.679,360.458 310.981,362.942 315.253,365.408 319.499,367.86 323.722,370.298 327.924,372.724 332.108,375.139 336.277,377.546 340.433,379.946 344.579,382.339 348.717,384.729 352.85,387.115 356.981,389.5 " />
<polyline fill="none" vector-effect="none" points="139,310.161 141.514,311.077 149.042,313.816 156.36,316.48 163.481,319.072 170.417,321.596 177.18,324.058 183.779,326.459 190.224,328.805 196.525,331.099 202.69,333.343 208.727,335.54 214.644,337.693 220.447,339.806 226.144,341.879 231.74,343.916 237.241,345.918 242.654,347.888 247.983,349.828 253.234,351.739 258.411,353.624 263.52,355.483 268.564,357.319 273.547,359.133 278.475,360.926 283.35,362.7 288.176,364.457 292.958,366.197 297.698,367.923 302.4,369.634 307.068,371.333 311.703,373.02 316.311,374.697 320.893,376.365 325.452,378.024 329.992,379.677 334.516,381.323 339.025,382.965 343.524,384.602 348.014,386.236 352.499,387.869 356.981,389.5 " />
<polyline fill="none" vector-effect="none" points="139,351.064 139.059,351.074 146.728,352.427 154.191,353.743 161.46,355.024 168.547,356.274 175.463,357.493 182.218,358.685 188.822,359.849 195.283,360.988 201.61,362.104 207.81,363.197 213.892,364.27 219.862,365.322 225.727,366.356 231.492,367.373 237.165,368.373 242.75,369.358 248.253,370.328 253.679,371.285 259.033,372.229 264.319,373.161 269.542,374.082 274.706,374.993 279.815,375.893 284.873,376.785 289.884,377.669 294.852,378.545 299.78,379.414 304.671,380.276 309.53,381.133 314.358,381.984 319.16,382.831 323.938,383.674 328.696,384.513 333.437,385.349 338.163,386.182 342.878,387.013 347.584,387.843 352.284,388.672 356.981,389.5 " />
<polyline fill="none" vector-effect="none" points="139,389.5 143.485,389.5 151.063,389.5 158.444,389.5 165.64,389.5 172.663,389.5 179.522,389.5 186.227,389.5 192.788,389.5 199.213,389.5 205.509,389.5 211.685,389.5 217.747,389.5 223.702,389.5 229.557,389.5 235.317,389.5 240.988,389.5 246.576,389.5 252.085,389.5 257.522,389.5 262.889,389.5 268.193,389.5 273.436,389.5 278.624,389.5 283.761,389.5 288.849,389.5 293.893,389.5 298.897,389.5 303.864,389.5 308.798,389.5 313.701,389.5 318.577,389.5 323.429,389.5 328.26,389.5 333.074,389.5 337.873,389.5 342.66,389.5 347.439,389.5 352.211,389.5 356.981,389.5 " />
<polyline fill="none" vector-effect="none" points="139,631.449 139.071,631.514 143.328,635.28 147.65,638.972 152.035,642.587 156.483,646.125 160.993,649.585 165.562,652.966 170.189,656.267 174.873,659.486 179.613,662.623 184.406,665.677 189.253,668.647 194.15,671.532 199.097,674.331 204.092,677.043 209.134,679.667 214.22,682.203 219.35,684.65 224.522,687.007 229.735,689.274 234.986,691.449 240.274,693.532 245.598,695.522 250.956,697.42 256.346,699.223 261.767,700.932 267.216,702.547 272.694,704.065 278.196,705.489 283.723,706.815 289.272,708.046 294.842,709.179 300.431,710.215 306.036,711.153 311.658,711.993 317.293,712.735 322.94,713.378 328.598,713.923 334.264,714.369 339.937,714.716 345.616,714.964 351.298,715.113 356.981,715.162 362.665,715.113 368.347,714.964 374.025,714.716 379.698,714.369 385.364,713.923 391.022,713.378 396.669,712.735 402.305,711.993 407.926,711.153 413.532,710.215 419.12,709.179 424.69,708.046 430.239,706.815 435.766,705.489 441.269,704.065 446.746,702.547 452.196,700.932 457.616,699.223 463.006,697.42 468.364,695.522 473.688,693.532 478.976,691.449 484.228,689.274 489.44,687.007 494.612,684.65 499.742,682.203 504.829,679.667 509.87,677.043 514.865,674.331 519.812,671.532 524.71,668.647 529.556,665.677 534.349,662.623 539.089,659.486 543.773,656.267 548.401,652.966 552.97,649.585 557.479,646.125 561.927,642.587 566.313,638.972 570.635,635.28 574.892,631.514 579.082,627.674 583.205,623.762 587.259,619.778 591.243,615.724 595.155,611.601 598.995,607.411 602.762,603.154 606.453,598.832 610.068,594.446 613.606,589.998 617.067,585.488 620.447,580.919 623.748,576.292 626.967,571.608 630.104,566.868 633.158,562.075 636.128,557.228 639.013,552.331 641.812,547.384 644.524,542.389 647.148,537.348 649.684,532.261 652.131,527.131 654.488,521.959 656.755,516.746 658.93,511.495 661.013,506.207 663.003,500.883 664.901,495.525 666.704,490.135 668.413,484.714 670.028,479.265 671.547,473.788 672.97,468.285 674.297,462.758 675.527,457.209 676.66,451.639 677.696,446.051 678.634,440.445 679.474,434.823 680.216,429.188 680.859,423.541 681.404,417.883 681.85,412.217 682.197,406.544 682.445,400.865 682.594,395.184 682.643,389.5 682.594,383.816 682.445,378.135 682.197,372.456 681.85,366.783 681.404,361.117 680.859,355.459 680.216,349.812 679.474,344.177 678.634,338.555 677.696,332.949 676.66,327.361 675.527,321.791 674.297,316.242 672.97,310.715 671.547,305.212 670.028,299.735 668.413,294.286 666.704,288.865 664.901,283.475 663.003,278.117 661.013,272.793 658.93,267.505 656.755,262.254 654.488,257.041 652.131,251.869 649.684,246.739 647.148,241.652 644.524,236.611 641.812,231.616 639.013,226.669 636.128,221.772 633.158,216.925 630.104,212.132 626.967,207.392 623.748,202.708 620.447,198.081 617.067,193.512 613.606,189.002 610.068,184.554 606.453,180.168 602.762,175.846 598.995,171.589 595.155,167.399 591.243,163.276 587.259,159.222 583.205,155.238 579.082,151.326 574.892,147.486 570.635,143.72 566.313,140.028 561.927,136.413 557.479,132.875 552.97,129.415 548.401,126.034 543.773,122.733 539.089,119.514 534.349,116.377 529.556,113.323 524.71,110.353 519.812,107.468 514.865,104.669 509.87,101.957 504.829,99.3329 499.742,96.7968 494.612,94.3498 489.44,91.9928 484.228,89.7264 478.976,87.5513 473.688,85.4682 468.364,83.4776 463.006,81.5804 457.616,79.7768 452.196,78.0677 446.746,76.4534 441.269,74.9345 435.766,73.5114 430.239,72.1845 424.69,70.9543 419.12,69.8211 413.532,68.7854 407.926,67.8472 402.305,67.0071 396.669,66.2653 391.022,65.6218 385.364,65.077 379.698,64.6311 374.025,64.2841 368.347,64.0362 362.665,63.8874 356.981,63.8378 351.298,63.8874 345.616,64.0362 339.937,64.2841 334.264,64.6311 328.598,65.077 322.94,65.6218 317.293,66.2653 311.658,67.0071 306.036,67.8472 300.431,68.7854 294.842,69.8211 289.272,70.9543 283.723,72.1845 278.196,73.5114 272.694,74.9345 267.216,76.4534 261.767,78.0677 256.346,79.7768 250.956,81.5804 245.598,83.4776 240.274,85.4682 234.986,87.5513 229.735,89.7264 224.522,91.9928 219.35,94.3498 214.22,96.7968 209.134,99.3329 204.092,101.957 199.097,104.669 194.15,107.468 189.253,110.353 184.406,113.323 179.613,116.377 174.873,119.514 170.189,122.733 165.562,126.034 160.993,129.415 156.483,132.875 152.035,136.413 147.65,140.028 143.328,143.72 139.071,147.486 139,147.551 " />
<polyline fill="none" vector-effect="none" points="139,460.629 140.179,464.151 141.514,467.923 142.916,471.672 144.383,475.395 145.914,479.093 147.51,482.763 149.169,486.404 150.892,490.016 152.678,493.598 154.526,497.147 156.435,500.664 158.406,504.147 160.437,507.596 162.528,511.008 164.678,514.383 166.887,517.72 169.154,521.018 171.478,524.276 173.858,527.493 176.294,530.668 178.786,533.8 181.331,536.888 183.93,539.931 186.582,542.928 189.285,545.879 192.04,548.782 194.845,551.636 197.7,554.441 200.602,557.196 203.553,559.899 206.55,562.551 209.593,565.15 212.681,567.696 215.813,570.187 218.988,572.623 222.205,575.003 225.463,577.327 228.761,579.594 232.098,581.803 235.473,583.953 238.886,586.044 242.334,588.075 245.817,590.046 249.334,591.955 252.883,593.803 256.465,595.589 260.077,597.312 263.719,598.971 267.388,600.567 271.086,602.099 274.809,603.565 278.558,604.967 282.33,606.303 286.125,607.572 289.942,608.776 293.779,609.912 297.635,610.982 301.51,611.984 305.401,612.918 309.308,613.784 313.23,614.582 317.165,615.311 321.112,615.972 325.069,616.563 329.037,617.086 333.013,617.539 336.997,617.922 340.986,618.236 344.981,618.481 348.979,618.655 352.979,618.76 356.981,618.795 360.983,618.76 364.983,618.655 368.982,618.481 372.976,618.236 376.966,617.922 380.949,617.539 384.925,617.086 388.893,616.563 392.851,615.972 396.798,615.311 400.733,614.582 404.654,613.784 408.561,612.918 412.453,611.984 416.327,610.982 420.183,609.912 424.02,608.776 427.837,607.572 431.632,606.303 435.405,604.967 439.153,603.565 442.877,602.099 446.574,600.567 450.244,598.971 453.885,597.312 457.497,595.589 461.079,593.803 464.629,591.955 468.146,590.046 471.629,588.075 475.077,586.044 478.489,583.953 481.864,581.803 485.201,579.594 488.499,577.327 491.757,575.003 494.974,572.623 498.149,570.187 501.281,567.696 504.369,565.15 507.412,562.551 510.409,559.899 513.36,557.196 516.263,554.441 519.117,551.636 521.922,548.782 524.677,545.879 527.38,542.928 530.032,539.931 532.631,536.888 535.177,533.8 537.668,530.668 540.104,527.493 542.485,524.276 544.809,521.018 547.075,517.72 549.284,514.383 551.434,511.008 553.525,507.596 555.556,504.147 557.527,500.664 559.437,497.147 561.284,493.598 563.07,490.016 564.793,486.404 566.452,482.763 568.048,479.093 569.58,475.395 571.046,471.672 572.448,467.923 573.784,464.151 575.054,460.356 576.257,456.539 577.394,452.702 578.463,448.846 579.465,444.971 580.399,441.08 581.265,437.173 582.063,433.252 582.793,429.317 583.453,425.37 584.045,421.412 584.567,417.444 585.02,413.468 585.404,409.484 585.718,405.495 585.962,401.5 586.136,397.502 586.241,393.502 586.276,389.5 586.241,385.498 586.136,381.498 585.962,377.5 585.718,373.505 585.404,369.516 585.02,365.532 584.567,361.556 584.045,357.588 583.453,353.63 582.793,349.683 582.063,345.748 581.265,341.827 580.399,337.92 579.465,334.029 578.463,330.154 577.394,326.298 576.257,322.461 575.054,318.644 573.784,314.849 572.448,311.077 571.046,307.328 569.58,303.605 568.048,299.907 566.452,296.237 564.793,292.596 563.07,288.984 561.284,285.402 559.437,281.853 557.527,278.336 555.556,274.853 553.525,271.404 551.434,267.992 549.284,264.617 547.075,261.28 544.809,257.982 542.485,254.724 540.104,251.507 537.668,248.332 535.177,245.2 532.631,242.112 530.032,239.069 527.38,236.072 524.677,233.121 521.922,230.218 519.117,227.364 516.263,224.559 513.36,221.804 510.409,219.101 507.412,216.449 504.369,213.85 501.281,211.304 498.149,208.813 494.974,206.377 491.757,203.997 488.499,201.673 485.201,199.406 481.864,197.197 478.489,195.047 475.077,192.956 471.629,190.925 468.146,188.954 464.629,187.045 461.079,185.197 457.497,183.411 453.885,181.688 450.244,180.029 446.574,178.433 442.877,176.901 439.153,175.435 435.405,174.033 431.632,172.697 427.837,171.428 424.02,170.224 420.183,169.088 416.327,168.018 412.453,167.016 408.561,166.082 404.654,165.216 400.733,164.418 396.798,163.689 392.851,163.028 388.893,162.437 384.925,161.914 380.949,161.461 376.966,161.078 372.976,160.764 368.982,160.519 364.983,160.345 360.983,160.24 356.981,160.205 352.979,160.24 348.979,160.345 344.981,160.519 340.986,160.764 336.997,161.078 333.013,161.461 329.037,161.914 325.069,162.437 321.112,163.028 317.165,163.689 313.23,164.418 309.308,165.216 305.401,166.082 301.51,167.016 297.635,168.018 293.779,169.088 289.942,170.224 286.125,171.428 282.33,172.697 278.558,174.033 274.809,175.435 271.086,176.901 267.388,178.433 263.719,180.029 260.077,181.688 256.465,183.411 252.883,185.197 249.334,187.045 245.817,188.954 242.334,190.925 238.886,192.956 235.473,195.047 232.098,197.197 228.761,199.406 225.463,201.673 222.205,203.997 218.988,206.377 215.813,208.813 212.681,211.304 209.593,213.85 206.55,216.449 203.553,219.101 200.602,221.804 197.7,224.559 194.845,227.364 192.04,230.218 189.285,233.121 186.582,236.072 183.93,239.069 181.331,242.112 178.786,245.2 176.294,248.332 173.858,251.507 171.478,254.724 169.154,257.982 166.887,261.28 164.678,264.617 162.528,267.992 160.437,271.404 158.406,274.853 156.435,278.336 154.526,281.853 152.678,285.402 150.892,288.984 149.169,292.596 147.51,296.237 145.914,299.907 144.383,303.605 142.916,307.328 141.514,311.077 140.179,314.849 139,318.371 " />
<polyline fill="none" vector-effect="none" points="199.213,389.5 199.237,392.253 199.309,395.006 199.429,397.757 199.597,400.505 199.813,403.25 200.077,405.991 200.389,408.727 200.748,411.457 201.155,414.18 201.61,416.896 202.111,419.604 202.66,422.302 203.256,424.99 203.899,427.668 204.589,430.333 205.324,432.987 206.106,435.627 206.934,438.253 207.808,440.864 208.727,443.46 209.692,446.039 210.701,448.601 211.755,451.145 212.852,453.67 213.994,456.176 215.18,458.661 216.408,461.125 217.68,463.568 218.994,465.988 220.35,468.384 221.747,470.757 223.186,473.105 224.665,475.427 226.185,477.723 227.745,479.992 229.344,482.234 230.982,484.447 232.658,486.632 234.372,488.787 236.123,490.912 237.912,493.005 239.736,495.068 241.597,497.098 243.492,499.095 245.422,501.059 247.386,502.989 249.383,504.885 251.413,506.745 253.476,508.569 255.57,510.358 257.694,512.109 259.849,513.823 262.034,515.5 264.247,517.137 266.489,518.736 268.758,520.296 271.054,521.816 273.377,523.295 275.724,524.734 278.097,526.132 280.493,527.487 282.913,528.801 285.356,530.073 287.82,531.301 290.305,532.487 292.811,533.629 295.336,534.727 297.88,535.78 300.442,536.79 303.021,537.754 305.617,538.673 308.228,539.547 310.854,540.375 313.494,541.157 316.148,541.893 318.814,542.582 321.491,543.225 324.179,543.821 326.878,544.37 329.585,544.872 332.301,545.326 335.024,545.733 337.754,546.093 340.49,546.404 343.231,546.668 345.976,546.884 348.724,547.052 351.475,547.172 354.228,547.244 356.981,547.268 359.735,547.244 362.487,547.172 365.238,547.052 367.987,546.884 370.732,546.668 373.472,546.404 376.208,546.093 378.938,545.733 381.662,545.326 384.377,544.872 387.085,544.37 389.783,543.821 392.471,543.225 395.149,542.582 397.815,541.893 400.468,541.157 403.108,540.375 405.734,539.547 408.346,538.673 410.941,537.754 413.52,536.79 416.082,535.78 418.626,534.727 421.151,533.629 423.657,532.487 426.142,531.301 428.607,530.073 431.049,528.801 433.469,527.487 435.865,526.132 438.238,524.734 440.586,523.295 442.908,521.816 445.204,520.296 447.473,518.736 449.715,517.137 451.929,515.5 454.113,513.823 456.268,512.109 458.393,510.358 460.487,508.569 462.549,506.745 464.579,504.885 466.576,502.989 468.54,501.059 470.47,499.095 472.366,497.098 474.226,495.068 476.051,493.005 477.839,490.912 479.59,488.787 481.304,486.632 482.981,484.447 484.619,482.234 486.218,479.992 487.777,477.723 489.297,475.427 490.776,473.105 492.215,470.757 493.613,468.384 494.969,465.988 496.282,463.568 497.554,461.125 498.783,458.661 499.968,456.176 501.11,453.67 502.208,451.145 503.262,448.601 504.271,446.039 505.235,443.46 506.154,440.864 507.028,438.253 507.856,435.627 508.638,432.987 509.374,430.333 510.063,427.668 510.706,424.99 511.302,422.302 511.851,419.604 512.353,416.896 512.807,414.18 513.214,411.457 513.574,408.727 513.885,405.991 514.149,403.25 514.365,400.505 514.533,397.757 514.654,395.006 514.726,392.253 514.75,389.5 514.726,386.747 514.654,383.994 514.533,381.243 514.365,378.495 514.149,375.75 513.885,373.009 513.574,370.273 513.214,367.543 512.807,364.82 512.353,362.104 511.851,359.396 511.302,356.698 510.706,354.01 510.063,351.332 509.374,348.667 508.638,346.013 507.856,343.373 507.028,340.747 506.154,338.136 505.235,335.54 504.271,332.961 503.262,330.399 502.208,327.855 501.11,325.33 499.968,322.824 498.783,320.339 497.554,317.875 496.282,315.432 494.969,313.012 493.613,310.616 492.215,308.243 490.776,305.895 489.297,303.573 487.777,301.277 486.218,299.008 484.619,296.766 482.981,294.553 481.304,292.368 479.59,290.213 477.839,288.088 476.051,285.995 474.226,283.932 472.366,281.902 470.47,279.905 468.54,277.941 466.576,276.011 464.579,274.115 462.549,272.255 460.487,270.431 458.393,268.642 456.268,266.891 454.113,265.177 451.929,263.5 449.715,261.863 447.473,260.264 445.204,258.704 442.908,257.184 440.586,255.705 438.238,254.266 435.865,252.868 433.469,251.513 431.049,250.199 428.607,248.927 426.142,247.699 423.657,246.513 421.151,245.371 418.626,244.273 416.082,243.22 413.52,242.21 410.941,241.246 408.346,240.327 405.734,239.453 403.108,238.625 400.468,237.843 397.815,237.107 395.149,236.418 392.471,235.775 389.783,235.179 387.085,234.63 384.377,234.128 381.662,233.674 378.938,233.267 376.208,232.908 373.472,232.596 370.732,232.332 367.987,232.116 365.238,231.948 362.487,231.828 359.735,231.756 356.981,231.732 354.228,231.756 351.475,231.828 348.724,231.948 345.976,232.116 343.231,232.332 340.49,232.596 337.754,232.908 335.024,233.267 332.301,233.674 329.585,234.128 326.878,234.63 324.179,235.179 321.491,235.775 318.814,236.418 316.148,237.107 313.494,237.843 310.854,238.625 308.228,239.453 305.617,240.327 303.021,241.246 300.442,242.21 297.88,243.22 295.336,244.273 292.811,245.371 290.305,246.513 287.82,247.699 285.356,248.927 282.913,250.199 280.493,251.513 278.097,252.868 275.724,254.266 273.377,255.705 271.054,257.184 268.758,258.704 266.489,260.264 264.247,261.863 262.034,263.5 259.849,265.177 257.694,266.891 255.57,268.642 253.476,270.431 251.413,272.255 249.383,274.115 247.386,276.011 245.422,277.941 243.492,279.905 241.597,281.902 239.736,283.932 237.912,285.995 236.123,288.088 234.372,290.213 232.658,292.368 230.982,294.553 229.344,296.766 227.745,299.008 226.185,301.277 224.665,303.573 223.186,305.895 221.747,308.243 220.35,310.616 218.994,313.012 217.68,315.432 216.408,317.875 215.18,320.339 213.994,322.824 212.852,325.33 211.755,327.855 210.701,330.399 209.692,332.961 208.727,335.54 207.808,338.136 206.934,340.747 206.106,343.373 205.324,346.013 204.589,348.667 203.899,351.332 203.256,354.01 202.66,356.698 202.111,359.396 201.61,362.104 201.155,364.82 200.748,367.543 200.389,370.273 200.077,373.009 199.813,375.75 199.597,378.495 199.429,381.243 199.309,383.994 199.237,386.747 199.213,389.5 " />
<polyline fill="none" vector-effect="none" points="257.522,389.5 257.537,391.236 257.582,392.971 257.658,394.705 257.764,396.438 257.9,398.168 258.066,399.896 258.263,401.621 258.489,403.342 258.746,405.059 259.033,406.771 259.349,408.478 259.695,410.179 260.071,411.874 260.476,413.561 260.911,415.242 261.374,416.915 261.867,418.579 262.389,420.235 262.94,421.881 263.52,423.517 264.128,425.143 264.764,426.758 265.428,428.362 266.12,429.954 266.84,431.533 267.587,433.1 268.362,434.654 269.164,436.193 269.992,437.719 270.847,439.23 271.728,440.725 272.635,442.206 273.567,443.67 274.525,445.117 275.509,446.548 276.517,447.961 277.549,449.356 278.606,450.733 279.687,452.092 280.791,453.431 281.918,454.751 283.068,456.051 284.241,457.331 285.436,458.59 286.653,459.829 287.891,461.045 289.15,462.24 290.43,463.413 291.73,464.563 293.05,465.69 294.389,466.795 295.748,467.875 297.125,468.932 298.52,469.965 299.933,470.973 301.364,471.956 302.812,472.914 304.276,473.847 305.756,474.754 307.251,475.635 308.762,476.489 310.288,477.318 311.827,478.119 313.381,478.894 314.948,479.641 316.527,480.361 318.119,481.053 319.723,481.717 321.338,482.354 322.964,482.961 324.6,483.541 326.246,484.092 327.902,484.614 329.566,485.107 331.239,485.571 332.92,486.005 334.608,486.41 336.302,486.786 338.003,487.132 339.71,487.449 341.422,487.735 343.139,487.992 344.86,488.218 346.585,488.415 348.313,488.581 350.043,488.717 351.776,488.823 353.51,488.899 355.245,488.944 356.981,488.96 358.717,488.944 360.452,488.899 362.186,488.823 363.919,488.717 365.65,488.581 367.378,488.415 369.102,488.218 370.823,487.992 372.54,487.735 374.252,487.449 375.959,487.132 377.66,486.786 379.355,486.41 381.043,486.005 382.723,485.571 384.396,485.107 386.06,484.614 387.716,484.092 389.362,483.541 390.998,482.961 392.624,482.354 394.239,481.717 395.843,481.053 397.435,480.361 399.015,479.641 400.581,478.894 402.135,478.119 403.675,477.318 405.2,476.489 406.711,475.635 408.207,474.754 409.687,473.847 411.151,472.914 412.598,471.956 414.029,470.973 415.442,469.965 416.837,468.932 418.215,467.875 419.573,466.795 420.913,465.69 422.233,464.563 423.533,463.413 424.812,462.24 426.072,461.045 427.31,459.829 428.526,458.59 429.721,457.331 430.894,456.051 432.044,454.751 433.172,453.431 434.276,452.092 435.356,450.733 436.413,449.356 437.446,447.961 438.454,446.548 439.437,445.117 440.395,443.67 441.328,442.206 442.235,440.725 443.116,439.23 443.97,437.719 444.799,436.193 445.6,434.654 446.375,433.1 447.122,431.533 447.842,429.954 448.534,428.362 449.198,426.758 449.835,425.143 450.443,423.517 451.022,421.881 451.573,420.235 452.095,418.579 452.588,416.915 453.052,415.242 453.486,413.561 453.892,411.874 454.267,410.179 454.613,408.478 454.93,406.771 455.216,405.059 455.473,403.342 455.699,401.621 455.896,399.896 456.062,398.168 456.198,396.438 456.304,394.705 456.38,392.971 456.426,391.236 456.441,389.5 456.426,387.764 456.38,386.029 456.304,384.295 456.198,382.562 456.062,380.832 455.896,379.104 455.699,377.379 455.473,375.658 455.216,373.941 454.93,372.229 454.613,370.522 454.267,368.821 453.892,367.126 453.486,365.439 453.052,363.758 452.588,362.085 452.095,360.421 451.573,358.765 451.022,357.119 450.443,355.483 449.835,353.857 449.198,352.242 448.534,350.638 447.842,349.046 447.122,347.467 446.375,345.9 445.6,344.346 444.799,342.807 443.97,341.281 443.116,339.77 442.235,338.275 441.328,336.794 440.395,335.33 439.437,333.883 438.454,332.452 437.446,331.039 436.413,329.644 435.356,328.267 434.276,326.908 433.172,325.569 432.044,324.249 430.894,322.949 429.721,321.669 428.526,320.41 427.31,319.171 426.072,317.955 424.812,316.76 423.533,315.587 422.233,314.437 420.913,313.31 419.573,312.205 418.215,311.125 416.837,310.068 415.442,309.035 414.029,308.027 412.598,307.044 411.151,306.086 409.687,305.153 408.207,304.246 406.711,303.365 405.2,302.511 403.675,301.682 402.135,300.881 400.581,300.106 399.015,299.359 397.435,298.639 395.843,297.947 394.239,297.283 392.624,296.646 390.998,296.039 389.362,295.459 387.716,294.908 386.06,294.386 384.396,293.893 382.723,293.429 381.043,292.995 379.355,292.59 377.66,292.214 375.959,291.868 374.252,291.551 372.54,291.265 370.823,291.008 369.102,290.782 367.378,290.585 365.65,290.419 363.919,290.283 362.186,290.177 360.452,290.101 358.717,290.056 356.981,290.04 355.245,290.056 353.51,290.101 351.776,290.177 350.043,290.283 348.313,290.419 346.585,290.585 344.86,290.782 343.139,291.008 341.422,291.265 339.71,291.551 338.003,291.868 336.302,292.214 334.608,292.59 332.92,292.995 331.239,293.429 329.566,293.893 327.902,294.386 326.246,294.908 324.6,295.459 322.964,296.039 321.338,296.646 319.723,297.283 318.119,297.947 316.527,298.639 314.948,299.359 313.381,300.106 311.827,300.881 310.288,301.682 308.762,302.511 307.251,303.365 305.756,304.246 304.276,305.153 302.812,306.086 301.364,307.044 299.933,308.027 298.52,309.035 297.125,310.068 295.748,311.125 294.389,312.205 293.05,313.31 291.73,314.437 290.43,315.587 289.15,316.76 287.891,317.955 286.653,319.171 285.436,320.41 284.241,321.669 283.068,322.949 281.918,324.249 280.791,325.569 279.687,326.908 278.606,328.267 277.549,329.644 276.517,331.039 275.509,332.452 274.525,333.883 273.567,335.33 272.635,336.794 271.728,338.275 270.847,339.77 269.992,341.281 269.164,342.807 268.362,344.346 267.587,345.9 266.84,347.467 266.12,349.046 265.428,350.638 264.764,352.242 264.128,353.857 263.52,355.483 262.94,357.119 262.389,358.765 261.867,360.421 261.374,362.085 260.911,363.758 260.476,365.439 260.071,367.126 259.695,368.821 259.349,370.522 259.033,372.229 258.746,373.941 258.489,375.658 258.263,377.379 258.066,379.104 257.9,380.832 257.764,382.562 257.658,384.295 257.582,386.029 257.537,387.764 257.522,389.5 " />
<polyline fill="none" vector-effect="none" points="308.798,389.5 308.805,390.341 308.827,391.182 308.864,392.022 308.915,392.861 308.981,393.699 309.061,394.537 309.157,395.372 309.266,396.206 309.391,397.038 309.53,397.867 309.683,398.694 309.85,399.518 310.032,400.339 310.229,401.157 310.439,401.971 310.664,402.781 310.903,403.588 311.156,404.39 311.423,405.187 311.703,405.98 311.998,406.767 312.306,407.55 312.628,408.327 312.963,409.098 313.312,409.863 313.674,410.622 314.049,411.375 314.438,412.121 314.839,412.86 315.253,413.592 315.68,414.316 316.119,415.033 316.571,415.743 317.035,416.444 317.511,417.137 318,417.822 318.5,418.498 319.012,419.165 319.535,419.823 320.07,420.472 320.616,421.111 321.174,421.741 321.742,422.361 322.321,422.971 322.91,423.571 323.51,424.16 324.12,424.739 324.74,425.307 325.37,425.865 326.009,426.411 326.658,426.946 327.316,427.469 327.984,427.981 328.66,428.481 329.344,428.97 330.037,429.446 330.738,429.91 331.448,430.362 332.165,430.801 332.889,431.228 333.621,431.642 334.36,432.044 335.106,432.432 335.859,432.807 336.618,433.169 337.383,433.518 338.154,433.853 338.931,434.175 339.714,434.483 340.501,434.778 341.294,435.059 342.092,435.325 342.894,435.578 343.7,435.817 344.51,436.042 345.324,436.252 346.142,436.449 346.963,436.631 347.787,436.798 348.614,436.952 349.444,437.09 350.275,437.215 351.109,437.324 351.945,437.42 352.782,437.5 353.62,437.566 354.459,437.618 355.3,437.654 356.14,437.676 356.981,437.684 357.822,437.676 358.663,437.654 359.503,437.618 360.342,437.566 361.181,437.5 362.018,437.42 362.853,437.324 363.687,437.215 364.519,437.09 365.348,436.952 366.175,436.798 366.999,436.631 367.82,436.449 368.638,436.252 369.452,436.042 370.262,435.817 371.069,435.578 371.871,435.325 372.668,435.059 373.461,434.778 374.249,434.483 375.031,434.175 375.808,433.853 376.579,433.518 377.344,433.169 378.103,432.807 378.856,432.432 379.602,432.044 380.341,431.642 381.073,431.228 381.798,430.801 382.515,430.362 383.224,429.91 383.925,429.446 384.618,428.97 385.303,428.481 385.979,427.981 386.646,427.469 387.304,426.946 387.953,426.411 388.592,425.865 389.222,425.307 389.842,424.739 390.452,424.16 391.052,423.571 391.642,422.971 392.22,422.361 392.789,421.741 393.346,421.111 393.892,420.472 394.427,419.823 394.95,419.165 395.462,418.498 395.963,417.822 396.451,417.137 396.927,416.444 397.391,415.743 397.843,415.033 398.283,414.316 398.709,413.592 399.124,412.86 399.525,412.121 399.913,411.375 400.288,410.622 400.65,409.863 400.999,409.098 401.334,408.327 401.656,407.55 401.964,406.767 402.259,405.98 402.54,405.187 402.807,404.39 403.059,403.588 403.298,402.781 403.523,401.971 403.734,401.157 403.93,400.339 404.112,399.518 404.28,398.694 404.433,397.867 404.572,397.038 404.696,396.206 404.806,395.372 404.901,394.537 404.981,393.699 405.047,392.861 405.099,392.022 405.135,391.182 405.157,390.341 405.165,389.5 405.157,388.659 405.135,387.818 405.099,386.978 405.047,386.139 404.981,385.301 404.901,384.463 404.806,383.628 404.696,382.794 404.572,381.962 404.433,381.133 404.28,380.306 404.112,379.482 403.93,378.661 403.734,377.843 403.523,377.029 403.298,376.219 403.059,375.412 402.807,374.61 402.54,373.813 402.259,373.02 401.964,372.233 401.656,371.45 401.334,370.673 400.999,369.902 400.65,369.137 400.288,368.378 399.913,367.625 399.525,366.879 399.124,366.14 398.709,365.408 398.283,364.684 397.843,363.967 397.391,363.257 396.927,362.556 396.451,361.863 395.963,361.178 395.462,360.502 394.95,359.835 394.427,359.177 393.892,358.528 393.346,357.889 392.789,357.259 392.22,356.639 391.642,356.029 391.052,355.429 390.452,354.84 389.842,354.261 389.222,353.693 388.592,353.135 387.953,352.589 387.304,352.054 386.646,351.531 385.979,351.019 385.303,350.519 384.618,350.03 383.925,349.554 383.224,349.09 382.515,348.638 381.798,348.199 381.073,347.772 380.341,347.358 379.602,346.956 378.856,346.568 378.103,346.193 377.344,345.831 376.579,345.482 375.808,345.147 375.031,344.825 374.249,344.517 373.461,344.222 372.668,343.941 371.871,343.675 371.069,343.422 370.262,343.183 369.452,342.958 368.638,342.748 367.82,342.551 366.999,342.369 366.175,342.202 365.348,342.048 364.519,341.91 363.687,341.785 362.853,341.676 362.018,341.58 361.181,341.5 360.342,341.434 359.503,341.382 358.663,341.346 357.822,341.324 356.981,341.316 356.14,341.324 355.3,341.346 354.459,341.382 353.62,341.434 352.782,341.5 351.945,341.58 351.109,341.676 350.275,341.785 349.444,341.91 348.614,342.048 347.787,342.202 346.963,342.369 346.142,342.551 345.324,342.748 344.51,342.958 343.7,343.183 342.894,343.422 342.092,343.675 341.294,343.941 340.501,344.222 339.714,344.517 338.931,344.825 338.154,345.147 337.383,345.482 336.618,345.831 335.859,346.193 335.106,346.568 334.36,346.956 333.621,347.358 332.889,347.772 332.165,348.199 331.448,348.638 330.738,349.09 330.037,349.554 329.344,350.03 328.66,350.519 327.984,351.019 327.316,351.531 326.658,352.054 326.009,352.589 325.37,353.135 324.74,353.693 324.12,354.261 323.51,354.84 322.91,355.429 322.321,356.029 321.742,356.639 321.174,357.259 320.616,357.889 320.07,358.528 319.535,359.177 319.012,359.835 318.5,360.502 318,361.178 317.511,361.863 317.035,362.556 316.571,363.257 316.119,363.967 315.68,364.684 315.253,365.408 314.839,366.14 314.438,366.879 314.049,367.625 313.674,368.378 313.312,369.137 312.963,369.902 312.628,370.673 312.306,371.45 311.998,372.233 311.703,373.02 311.423,373.813 311.156,374.61 310.903,375.412 310.664,376.219 310.439,377.029 310.229,377.843 310.032,378.661 309.85,379.482 309.683,380.306 309.53,381.133 309.391,381.962 309.266,382.794 309.157,383.628 309.061,384.463 308.981,385.301 308.915,386.139 308.864,386.978 308.827,387.818 308.805,388.659 308.798,389.5 " />
<polyline fill="none" vector-effect="none" points="356.981,389.5 356.981,389.5 356.981,389.5 356.981,389.5 356.981,389.5 356.981,389.5 356.981,389.5 356.981,389.5 356.981,389.5 356.981,389.5 356.981,389.5 356.981,389.5 356.981,389.5 356.981,389.5 356.981,389.5 356.981,389.5 356.981,389.5 356.981,389.5 356.981,389.5 356.981,389.5 356.981,389.5 356.981,389.5 356.981,389.5 356.981,389.5 356.981,389.5 356.981,389.5 356.981,389.5 356.981,389.5 356.981,389.5 356.981,389.5 356.981,389.5 356.981,389.5 356.981,389.5 356.981,389.5 356.981,389.5 356.981,389.5 356.981,389.5 356.981,389.5 356.981,389.5 356.981,389.5 356.981,389.5 356.981,389.5 356.981,389.5 356.981,389.5 356.981,389.5 356.981,389.5 356.981,389.5 356.981,389.5 356.981,389.5 356.981,389.5 356.981,389.5 356.981,389.5 356.981,389.5 356.981,389.5 356.981,389.5 356.981,389.5 356.981,389.5 356.981,389.5 356.981,389.5 356.981,389.5 356.981,389.5 356.981,389.5 356.981,389.5 356.981,389.5 356.981,389.5 356.981,389.5 356.981,389.5 356.981,389.5 356.981,389.5 356.981,389.5 356.981,389.5 356.981,389.5 356.981,389.5 356.981,389.5 356.981,389.5 356.981,389.5 356.981,389.5 356.981,389.5 356.981,389.5 356.981,389.5 356.981,389.5 356.981,389.5 356.981,389.5 356.981,389.5 356.981,389.5 356.981,389.5 356.981,389.5 356.981,389.5 356.981,389.5 356.981,389.5 356.981,389.5 356.981,389.5 356.981,389.5 356.981,389.5 356.981,389.5 356.981,389.5 356.981,389.5 356.981,389.5 356.981,389.5 356.981,389.5 356.981,389.5 356.981,389.5 356.981,389.5 356.981,389.5 356.981,389.5 356.981,389.5 356.981,389.5 356.981,389.5 356.981,389.5 356.981,389.5 356.981,389.5 356.981,389.5 356.981,389.5 356.981,389.5 356.981,389.5 356.981,389.5 356.981,389.5 356.981,389.5 356.981,389.5 356.981,389.5 356.981,389.5 356.981,389.5 356.981,389.5 356.981,389.5 356.981,389.5 356.981,389.5 356.981,389.5 356.981,389.5 356.981,389.5 356.981,389.5 356.981,389.5 356.981,389.5 356.981,389.5 356.981,389.5 356.981,389.5 356.981,389.5 356.981,389.5 356.981,389.5 356.981,389.5 356.981,389.5 356.981,389.5 356.981,389.5 356.981,389.5 356.981,389.5 356.981,389.5 356.981,389.5 356.981,389.5 356.981,389.5 356.981,389.5 356.981,389.5 356.981,389.5 356.981,389.5 356.981,389.5 356.981,389.5 356.981,389.5 356.981,389.5 356.981,389.5 356.981,389.5 356.981,389.5 356.981,389.5 356.981,389.5 356.981,389.5 356.981,389.5 356.981,389.5 356.981,389.5 356.981,389.5 356.981,389.5 356.981,389.5 356.981,389.5 356.981,389.5 356.981,389.5 356.981,389.5 356.981,389.5 356.981,389.5 356.981,389.5 356.981,389.5 356.981,389.5 356.981,389.5 356.981,389.5 356.981,389.5 356.981,389.5 356.981,389.5 356.981,389.5 356.981,389.5 356.981,389.5 356.981,389.5 356.981,389.5 356.981,389.5 356.981,389.5 356.981,389.5 356.981,389.5 356.981,389.5 356.981,389.5 356.981,389.5 356.981,389.5 356.981,389.5 356.981,389.5 356.981,389.5 356.981,389.5 356.981,389.5 356.981,389.5 356.981,389.5 356.981,389.5 356.981,389.5 356.981,389.5 356.981,389.5 356.981,389.5 356.981,389.5 356.981,389.5 356.981,389.5 356.981,389.5 356.981,389.5 356.981,389.5 356.981,389.5 356.981,389.5 356.981,389.5 356.981,389.5 356.981,389.5 356.981,389.5 356.981,389.5 356.981,389.5 356.981,389.5 356.981,389.5 356.981,389.5 356.981,389.5 356.981,389.5 356.981,389.5 356.981,389.5 356.981,389.5 356.981,389.5 356.981,389.5 356.981,389.5 356.981,389.5 356.981,389.5 356.981,389.5 356.981,389.5 356.981,389.5 356.981,389.5 356.981,389.5 356.981,389.5 356.981,389.5 356.981,389.5 356.981,389.5 356.981,389.5 356.981,389.5 356.981,389.5 356.981,389.5 356.981,389.5 356.981,389.5 356.981,389.5 356.981,389.5 356.981,389.5 356.981,389.5 356.981,389.5 356.981,389.5 356.981,389.5 356.981,389.5 356.981,389.5 356.981,389.5 356.981,389.5 356.981,389.5 356.981,389.5 356.981,389.5 356.981,389.5 356.981,389.5 356.981,389.5 356.981,389.5 356.981,389.5 356.981,389.5 356.981,389.5 356.981,389.5 356.981,389.5 356.981,389.5 356.981,389.5 356.981,389.5 356.981,389.5 356.981,389.5 356.981,389.5 356.981,389.5 356.981,389.5 356.981,389.5 356.981,389.5 356.981,389.5 356.981,389.5 356.981,389.5 356.981,389.5 356.981,389.5 356.981,389.5 356.981,389.5 356.981,389.5 356.981,389.5 356.981,389.5 356.981,389.5 356.981,389.5 356.981,389.5 356.981,389.5 356.981,389.5 356.981,389.5 356.981,389.5 356.981,389.5 356.981,389.5 356.981,389.5 356.981,389.5 356.981,389.5 356.981,389.5 356.981,389.5 356.981,389.5 356.981,389.5 356.981,389.5 356.981,389.5 356.981,389.5 356.981,389.5 356.981,389.5 356.981,389.5 356.981,389.5 356.981,389.5 356.981,389.5 356.981,389.5 356.981,389.5 356.981,389.5 356.981,389.5 356.981,389.5 356.981,389.5 356.981,389.5 356.981,389.5 356.981,389.5 356.981,389.5 356.981,389.5 356.981,389.5 356.981,389.5 356.981,389.5 356.981,389.5 356.981,389.5 356.981,389.5 356.981,389.5 356.981,389.5 356.981,389.5 356.981,389.5 356.981,389.5 356.981,389.5 356.981,389.5 356.981,389.5 356.981,389.5 356.981,389.5 356.981,389.5 356.981,389.5 356.981,389.5 356.981,389.5 356.981,389.5 356.981,389.5 356.981,389.5 356.981,389.5 356.981,389.5 356.981,389.5 356.981,389.5 356.981,389.5 356.981,389.5 356.981,389.5 356.981,389.5 356.981,389.5 356.981,389.5 " />
</g>

<g fill="none" stroke="#ff0000" stroke-opacity="1" stroke-width="4.16667" stroke-linecap="butt" stroke-linejoin="round" transform="matrix(0.719538,0,0,0.718517,-73.7118,-42.8094)"
font-family="Helvetica" font-size="13" font-weight="400" font-style="normal" 
>
<polyline fill="none" vector-effect="none" points="525.867,266.797 292.472,190.963 148.227,389.5 292.472,588.037 525.867,512.203 525.867,266.797 " />
</g>
</g>
</svg>
