<?xml version="1.0" encoding="UTF-8" standalone="no"?>
<svg width="220.839mm" height="171.45mm"
 viewBox="0 0 626 486"
 xmlns="http://www.w3.org/2000/svg" xmlns:xlink="http://www.w3.org/1999/xlink"  version="1.2" baseProfile="tiny">
<title>Qt SVG Document</title>
<desc>MATLAB, The MathWorks, Inc. Version 25.2.0.3150157 R2025b Update 4</desc>
<defs>
</defs>
<g fill="none" stroke="black" stroke-width="1" fill-rule="evenodd" stroke-linecap="square" stroke-linejoin="bevel" >

<g fill="#000000" fill-opacity="1" stroke="none" transform="matrix(0.719538,0,0,0.717448,-73.7118,-42.0261)"
font-family="Sans Serif" font-size="9" font-weight="400" font-style="normal" 
>
<path vector-effect="none" fill-rule="evenodd" d="M101,57 L973,57 L973,736 L101,736 L101,57"/>
</g>

<g fill="#121212" fill-opacity="1" stroke="none" transform="matrix(7.19538e-05,0,0,7.17448e-05,-73.7118,-42.0261)"
font-family="Sans Serif" font-size="9" font-weight="400" font-style="normal" 
>
<path vector-effect="none" fill-rule="evenodd" d="M1.39e+06,605843 L1.39e+06,7.16416e+06 L9.71e+06,7.16416e+06 L9.71e+06,605843 L1.39e+06,605843"/>
</g>

<g fill="#d9d9d9" fill-opacity="1" stroke="#d9d9d9" stroke-opacity="1" stroke-width="0.694444" stroke-linecap="square" stroke-linejoin="round" transform="matrix(0.719538,0,0,0.717448,-73.7118,-42.0261)"
font-family="Sans Serif" font-size="9" font-weight="400" font-style="normal" 
>
<polyline fill="none" vector-effect="none" points="139,716.416 971,716.416 " />
<polyline fill="none" vector-effect="none" points="145.257,716.416 145.257,708.096 " />
<polyline fill="none" vector-effect="none" points="252.335,716.416 252.335,708.096 " />
<polyline fill="none" vector-effect="none" points="359.413,716.416 359.413,708.096 " />
<polyline fill="none" vector-effect="none" points="466.491,716.416 466.491,708.096 " />
<polyline fill="none" vector-effect="none" points="573.569,716.416 573.569,708.096 " />
<polyline fill="none" vector-effect="none" points="680.647,716.416 680.647,708.096 " />
<polyline fill="none" vector-effect="none" points="787.724,716.416 787.724,708.096 " />
<polyline fill="none" vector-effect="none" points="894.802,716.416 894.802,708.096 " />
</g>

<g fill="#d9d9d9" fill-opacity="1" stroke="#d9d9d9" stroke-opacity="1" stroke-width="1" stroke-linecap="square" stroke-linejoin="bevel" transform="matrix(0.719538,0,0,0.717448,20.0128,484.56)"
font-family="Helvetica" font-size="13" font-weight="400" font-style="normal" 
>
<text fill="#d9d9d9" fill-opacity="1" stroke="none" xml:space="preserve" x="0" y="0" font-family="Helvetica" font-size="13" font-weight="400" font-style="normal" 
 >-0.25</text>
</g>

<g fill="#d9d9d9" fill-opacity="1" stroke="#d9d9d9" stroke-opacity="1" stroke-width="1" stroke-linecap="square" stroke-linejoin="bevel" transform="matrix(0.719538,0,0,0.717448,99.9377,484.56)"
font-family="Helvetica" font-size="13" font-weight="400" font-style="normal" 
>
<text fill="#d9d9d9" fill-opacity="1" stroke="none" xml:space="preserve" x="0" y="0" font-family="Helvetica" font-size="13" font-weight="400" font-style="normal" 
 >-0.2</text>
</g>

<g fill="#d9d9d9" fill-opacity="1" stroke="#d9d9d9" stroke-opacity="1" stroke-width="1" stroke-linecap="square" stroke-linejoin="bevel" transform="matrix(0.719538,0,0,0.717448,174.106,484.56)"
font-family="Helvetica" font-size="13" font-weight="400" font-style="normal" 
>
<text fill="#d9d9d9" fill-opacity="1" stroke="none" xml:space="preserve" x="0" y="0" font-family="Helvetica" font-size="13" font-weight="400" font-style="normal" 
 >-0.15</text>
</g>

<g fill="#d9d9d9" fill-opacity="1" stroke="#d9d9d9" stroke-opacity="1" stroke-width="1" stroke-linecap="square" stroke-linejoin="bevel" transform="matrix(0.719538,0,0,0.717448,254.031,484.56)"
font-family="Helvetica" font-size="13" font-weight="400" font-style="normal" 
>
<text fill="#d9d9d9" fill-opacity="1" stroke="none" xml:space="preserve" x="0" y="0" font-family="Helvetica" font-size="13" font-weight="400" font-style="normal" 
 >-0.1</text>
</g>

<g fill="#d9d9d9" fill-opacity="1" stroke="#d9d9d9" stroke-opacity="1" stroke-width="1" stroke-linecap="square" stroke-linejoin="bevel" transform="matrix(0.719538,0,0,0.717448,328.2,484.56)"
font-family="Helvetica" font-size="13" font-weight="400" font-style="normal" 
>
<text fill="#d9d9d9" fill-opacity="1" stroke="none" xml:space="preserve" x="0" y="0" font-family="Helvetica" font-size="13" font-weight="400" font-style="normal" 
 >-0.05</text>
</g>

<g fill="#d9d9d9" fill-opacity="1" stroke="#d9d9d9" stroke-opacity="1" stroke-width="1" stroke-linecap="square" stroke-linejoin="bevel" transform="matrix(0.719538,0,0,0.717448,413.521,484.56)"
font-family="Helvetica" font-size="13" font-weight="400" font-style="normal" 
>
<text fill="#d9d9d9" fill-opacity="1" stroke="none" xml:space="preserve" x="0" y="0" font-family="Helvetica" font-size="13" font-weight="400" font-style="normal" 
 >0</text>
</g>

<g fill="#d9d9d9" fill-opacity="1" stroke="#d9d9d9" stroke-opacity="1" stroke-width="1" stroke-linecap="square" stroke-linejoin="bevel" transform="matrix(0.719538,0,0,0.717448,484.092,484.56)"
font-family="Helvetica" font-size="13" font-weight="400" font-style="normal" 
>
<text fill="#d9d9d9" fill-opacity="1" stroke="none" xml:space="preserve" x="0" y="0" font-family="Helvetica" font-size="13" font-weight="400" font-style="normal" 
 >0.05</text>
</g>

<g fill="#d9d9d9" fill-opacity="1" stroke="#d9d9d9" stroke-opacity="1" stroke-width="1" stroke-linecap="square" stroke-linejoin="bevel" transform="matrix(0.719538,0,0,0.717448,563.657,484.56)"
font-family="Helvetica" font-size="13" font-weight="400" font-style="normal" 
>
<text fill="#d9d9d9" fill-opacity="1" stroke="none" xml:space="preserve" x="0" y="0" font-family="Helvetica" font-size="13" font-weight="400" font-style="normal" 
 >0.1</text>
</g>

<g fill="#d9d9d9" fill-opacity="1" stroke="#d9d9d9" stroke-opacity="1" stroke-width="0.694444" stroke-linecap="square" stroke-linejoin="round" transform="matrix(0.719538,0,0,0.717448,-73.7118,-42.0261)"
font-family="Helvetica" font-size="13" font-weight="400" font-style="normal" 
>
<polyline fill="none" vector-effect="none" points="139,716.416 139,60.5844 " />
<polyline fill="none" vector-effect="none" points="139,709.734 147.32,709.734 " />
<polyline fill="none" vector-effect="none" points="139,602.656 147.32,602.656 " />
<polyline fill="none" vector-effect="none" points="139,495.578 147.32,495.578 " />
<polyline fill="none" vector-effect="none" points="139,388.5 147.32,388.5 " />
<polyline fill="none" vector-effect="none" points="139,281.422 147.32,281.422 " />
<polyline fill="none" vector-effect="none" points="139,174.344 147.32,174.344 " />
<polyline fill="none" vector-effect="none" points="139,67.266 147.32,67.266 " />
</g>

<g fill="#d9d9d9" fill-opacity="1" stroke="#d9d9d9" stroke-opacity="1" stroke-width="1" stroke-linecap="square" stroke-linejoin="bevel" transform="matrix(0.719538,0,0,0.717448,0.720462,470.4)"
font-family="Helvetica" font-size="13" font-weight="400" font-style="normal" 
>
<text fill="#d9d9d9" fill-opacity="1" stroke="none" xml:space="preserve" x="0" y="0" font-family="Helvetica" font-size="13" font-weight="400" font-style="normal" 
 >-0.15</text>
</g>

<g fill="#d9d9d9" fill-opacity="1" stroke="#d9d9d9" stroke-opacity="1" stroke-width="1" stroke-linecap="square" stroke-linejoin="bevel" transform="matrix(0.719538,0,0,0.717448,6.47677,393.577)"
font-family="Helvetica" font-size="13" font-weight="400" font-style="normal" 
>
<text fill="#d9d9d9" fill-opacity="1" stroke="none" xml:space="preserve" x="0" y="0" font-family="Helvetica" font-size="13" font-weight="400" font-style="normal" 
 >-0.1</text>
</g>

<g fill="#d9d9d9" fill-opacity="1" stroke="#d9d9d9" stroke-opacity="1" stroke-width="1" stroke-linecap="square" stroke-linejoin="bevel" transform="matrix(0.719538,0,0,0.717448,0.720462,316.754)"
font-family="Helvetica" font-size="13" font-weight="400" font-style="normal" 
>
<text fill="#d9d9d9" fill-opacity="1" stroke="none" xml:space="preserve" x="0" y="0" font-family="Helvetica" font-size="13" font-weight="400" font-style="normal" 
 >-0.05</text>
</g>

<g fill="#d9d9d9" fill-opacity="1" stroke="#d9d9d9" stroke-opacity="1" stroke-width="1" stroke-linecap="square" stroke-linejoin="bevel" transform="matrix(0.719538,0,0,0.717448,17.2698,239.931)"
font-family="Helvetica" font-size="13" font-weight="400" font-style="normal" 
>
<text fill="#d9d9d9" fill-opacity="1" stroke="none" xml:space="preserve" x="0" y="0" font-family="Helvetica" font-size="13" font-weight="400" font-style="normal" 
 >0</text>
</g>

<g fill="#d9d9d9" fill-opacity="1" stroke="#d9d9d9" stroke-opacity="1" stroke-width="1" stroke-linecap="square" stroke-linejoin="bevel" transform="matrix(0.719538,0,0,0.717448,4.31815,163.108)"
font-family="Helvetica" font-size="13" font-weight="400" font-style="normal" 
>
<text fill="#d9d9d9" fill-opacity="1" stroke="none" xml:space="preserve" x="0" y="0" font-family="Helvetica" font-size="13" font-weight="400" font-style="normal" 
 >0.05</text>
</g>

<g fill="#d9d9d9" fill-opacity="1" stroke="#d9d9d9" stroke-opacity="1" stroke-width="1" stroke-linecap="square" stroke-linejoin="bevel" transform="matrix(0.719538,0,0,0.717448,9.35492,86.2851)"
font-family="Helvetica" font-size="13" font-weight="400" font-style="normal" 
>
<text fill="#d9d9d9" fill-opacity="1" stroke="none" xml:space="preserve" x="0" y="0" font-family="Helvetica" font-size="13" font-weight="400" font-style="normal" 
 >0.1</text>
</g>

<g fill="#d9d9d9" fill-opacity="1" stroke="#d9d9d9" stroke-opacity="1" stroke-width="1" stroke-linecap="square" stroke-linejoin="bevel" transform="matrix(0.719538,0,0,0.717448,4.31815,9.46225)"
font-family="Helvetica" font-size="13" font-weight="400" font-style="normal" 
>
<text fill="#d9d9d9" fill-opacity="1" stroke="none" xml:space="preserve" x="0" y="0" font-family="Helvetica" font-size="13" font-weight="400" font-style="normal" 
 >0.15</text>
</g>

<g fill="#2699d4" fill-opacity="0.14902" stroke="none" transform="matrix(7.19538e-05,0,0,7.17448e-05,-73.7118,-42.0261)"
font-family="Helvetica" font-size="13" font-weight="400" font-style="normal" 
>
<path vector-effect="none" fill-rule="evenodd" d="M9.71e+06,7.16416e+06 L9.71e+06,981465 L9.71e+06,605843 L1.39e+06,605843 L1.39e+06,7.16416e+06 L3.52731e+06,7.16416e+06 L9.71e+06,7.16416e+06"/>
</g>

<g fill="#75ab2e" fill-opacity="0.34902" stroke="none" transform="matrix(7.19538e-05,0,0,7.17448e-05,-73.7118,-42.0261)"
font-family="Helvetica" font-size="13" font-weight="400" font-style="normal" 
>
<path vector-effect="none" fill-rule="evenodd" d="M4.98928e+06,3.19248e+06 L4.98298e+06,3.15988e+06 L5.11257e+06,3.13407e+06 L5.02873e+06,3.185e+06 L5.0735e+06,3.21063e+06 L5.13759e+06,3.19905e+06 L5.29502e+06,3.27616e+06 L5.24313e+06,3.31802e+06 L5.30838e+06,3.41955e+06 L5.2766e+06,3.44619e+06 L5.35137e+06,3.5038e+06 L5.3062e+06,3.60415e+06 L5.29306e+06,3.52543e+06 L5.10486e+06,3.55783e+06 L5.18843e+06,3.67375e+06 L5.34128e+06,3.63359e+06 L5.3816e+06,3.72692e+06 L5.4439e+06,3.7567e+06 L5.5639e+06,3.81905e+06 L5.67821e+06,3.885e+06 L5.72766e+06,4.05662e+06 L5.84125e+06,3.95879e+06 L5.89507e+06,3.93833e+06 L5.97871e+06,3.95742e+06 L5.96872e+06,4.06606e+06 L5.98075e+06,4.22477e+06 L6.11065e+06,4.22283e+06 L6.22963e+06,4.25084e+06 L6.23621e+06,4.23564e+06 L6.28634e+06,4.23527e+06 L6.29304e+06,4.15691e+06 L6.34503e+06,4.1202e+06 L6.34911e+06,4.04161e+06 L6.30239e+06,3.96248e+06 L6.27831e+06,3.92354e+06 L6.20391e+06,3.885e+06 L6.1537e+06,3.885e+06 L6.10285e+06,3.84783e+06 L6.0497e+06,3.76727e+06 L5.99837e+06,3.77585e+06 L5.9551e+06,3.74071e+06 L5.99225e+06,3.66638e+06 L5.93359e+06,3.59636e+06 L5.87879e+06,3.58172e+06 L5.92288e+06,3.50524e+06 L6.04535e+06,3.43783e+06 L6.0992e+06,3.28689e+06 L6.19875e+06,3.26209e+06 L6.07312e+06,3.15634e+06 L5.97349e+06,3.32215e+06 L5.91037e+06,3.42075e+06 L5.88566e+06,3.43444e+06 L5.85601e+06,3.41886e+06 L5.88861e+06,3.30186e+06 L5.9692e+06,3.17235e+06 L6.06412e+06,3.11624e+06 L6.19881e+06,3.0073e+06 L6.23965e+06,2.95513e+06 L6.18337e+06,2.94342e+06 L6.12652e+06,2.93218e+06 L6.08038e+06,2.96345e+06 L6.03393e+06,2.99418e+06 L5.98166e+06,3.0041e+06 L6.02276e+06,2.95285e+06 L5.95846e+06,2.92212e+06 L5.83891e+06,2.8155e+06 L5.81902e+06,2.84254e+06 L5.67225e+06,2.76673e+06 L5.5721e+06,2.7481e+06 L5.6022e+06,2.67102e+06 L5.63058e+06,2.59111e+06 L5.53175e+06,2.44698e+06 L5.55981e+06,2.30194e+06 L5.62024e+06,2.2215e+06 L5.69978e+06,2.24942e+06 L5.74421e+06,2.34658e+06 L5.76855e+06,2.5495e+06 L5.85808e+06,2.67126e+06 L5.92613e+06,2.81761e+06 L5.9987e+06,2.8691e+06 L6.11654e+06,2.79686e+06 L6.12785e+06,2.64909e+06 L6.10803e+06,2.5006e+06 L6.0021e+06,2.37058e+06 L6.10936e+06,2.33573e+06 L6.35563e+06,2.3724e+06 L6.33353e+06,2.4899e+06 L6.41325e+06,2.5754e+06 L6.42145e+06,2.82557e+06 L6.40087e+06,2.97079e+06 L6.46815e+06,3.05048e+06 L6.57489e+06,3.07908e+06 L6.50372e+06,3.27069e+06 L6.43007e+06,3.48371e+06 L6.24804e+06,3.45845e+06 L6.27503e+06,3.5749e+06 L6.29002e+06,3.73024e+06 L6.30239e+06,3.80752e+06 L6.35237e+06,3.885e+06 L6.39595e+06,4.04602e+06 L6.35602e+06,4.10095e+06 L6.53108e+06,4.25261e+06 L6.62419e+06,4.30159e+06 L6.70354e+06,4.48292e+06 L6.91718e+06,4.55784e+06 L7.08531e+06,4.6216e+06 L7.38108e+06,4.76265e+06 L7.49267e+06,4.67384e+06 L7.60375e+06,4.58329e+06 L7.88224e+06,4.4008e+06 L7.9516e+06,4.24798e+06 L7.94169e+06,4.0397e+06 L7.8863e+06,3.78279e+06 L7.94077e+06,3.57479e+06 L7.93856e+06,3.36476e+06 L8.05411e+06,3.40951e+06 L8.36015e+06,3.27485e+06 L8.42603e+06,3.21153e+06 L8.85556e+06,3.04713e+06 L9.43287e+06,3.1816e+06 L9.71e+06,3.09479e+06 L9.71e+06,3.08606e+06 L9.71e+06,3.04727e+06 L9.71e+06,1.26686e+06 L9.71e+06,1.1492e+06 L9.71e+06,879827 L9.71e+06,726686 L9.52452e+06,703681 L9.06128e+06,987988 L8.66093e+06,1.32748e+06 L8.4995e+06,1.1988e+06 L8.16477e+06,1.13733e+06 L8.01089e+06,1.00457e+06 L7.83963e+06,768497 L7.42344e+06,643359 L7.37342e+06,605843 L7.18675e+06,605843 L7.17723e+06,605843 L7.41544e+06,1.16852e+06 L7.27364e+06,1.41098e+06 L7.15585e+06,1.70302e+06 L7.02067e+06,1.8282e+06 L6.90497e+06,2.01001e+06 L6.65915e+06,2.21973e+06 L6.43788e+06,2.46073e+06 L6.47228e+06,2.27824e+06 L6.62905e+06,2.103e+06 L6.65161e+06,1.96186e+06 L6.86138e+06,1.81352e+06 L7.11508e+06,1.4771e+06 L7.2281e+06,1.34263e+06 L7.21405e+06,1.25858e+06 L6.99448e+06,871981 L6.88238e+06,713193 L6.82457e+06,605843 L6.62617e+06,605843 L6.47542e+06,605843 L6.35273e+06,605843 L6.21171e+06,605843 L6.16395e+06,605843 L6.16254e+06,688352 L6.09823e+06,730994 L6.19838e+06,782784 L6.35858e+06,1.01302e+06 L6.29382e+06,1.24542e+06 L6.1138e+06,1.51454e+06 L6.05557e+06,1.37239e+06 L6.11246e+06,1.1539e+06 L6.13473e+06,823438 L6.03454e+06,773217 L6.05994e+06,635455 L6.0522e+06,605843 L6.00493e+06,605843 L5.03267e+06,605843 L4.47676e+06,605843 L3.81751e+06,605843 L3.75809e+06,605843 L3.07501e+06,605843 L1.65943e+06,605843 L1.39e+06,605843 L1.39e+06,789372 L1.39e+06,1.86256e+06 L1.39e+06,2.21485e+06 L1.39e+06,2.32463e+06 L1.39e+06,2.39527e+06 L1.45807e+06,2.38849e+06 L1.64606e+06,2.32675e+06 L1.95993e+06,2.31578e+06 L1.87017e+06,1.95842e+06 L1.99696e+06,2.22185e+06 L2.30074e+06,2.33767e+06 L2.58564e+06,1.94418e+06 L2.99332e+06,1.85504e+06 L3.08168e+06,1.8573e+06 L3.05251e+06,1.89129e+06 L2.93608e+06,1.92538e+06 L2.64675e+06,1.9753e+06 L2.43194e+06,2.28952e+06 L2.52281e+06,2.43317e+06 L2.90184e+06,2.31742e+06 L2.9348e+06,2.02842e+06 L2.96684e+06,2.25213e+06 L3.16419e+06,2.47293e+06 L3.50475e+06,2.50318e+06 L3.95202e+06,2.67593e+06 L3.87547e+06,2.71138e+06 L3.85246e+06,2.80047e+06 L4.03554e+06,2.76137e+06 L4.18802e+06,2.81672e+06 L4.37547e+06,2.93485e+06 L4.18235e+06,3.05986e+06 L4.21194e+06,2.84538e+06 L4.11152e+06,2.84542e+06 L4.00899e+06,2.84788e+06 L3.99822e+06,3.08352e+06 L3.9665e+06,3.33753e+06 L4.11613e+06,3.43332e+06 L4.51491e+06,3.55732e+06 L4.68843e+06,3.62105e+06 L4.85547e+06,3.7475e+06 L5.06269e+06,3.73061e+06 L5.11967e+06,3.64752e+06 L4.97071e+06,3.56949e+06 L5.28358e+06,3.47796e+06 L5.18966e+06,3.35881e+06 L5.09337e+06,3.37198e+06 L4.90689e+06,3.33593e+06 L4.88036e+06,3.36462e+06 L4.84738e+06,3.37552e+06 L4.75578e+06,3.3292e+06 L4.41849e+06,3.30084e+06 L4.39223e+06,3.24874e+06 L4.66253e+06,3.29091e+06 L4.80398e+06,3.25933e+06 L4.85476e+06,3.20178e+06 L4.87234e+06,3.34125e+06 L4.89635e+06,3.30632e+06 L5.01984e+06,3.25349e+06 L4.93173e+06,3.21001e+06 L4.98928e+06,3.19248e+06 M6.406e+06,4.08317e+06 L6.39595e+06,4.04602e+06 L6.39804e+06,4.04314e+06 L6.406e+06,4.08317e+06"/>
</g>

<g fill="none" stroke="#1a330d" stroke-opacity="1" stroke-width="0.486111" stroke-linecap="square" stroke-linejoin="miter" stroke-miterlimit="5" transform="matrix(0.719538,0,0,0.717448,-73.7118,-42.0261)"
font-family="Helvetica" font-size="13" font-weight="400" font-style="normal" 
>
<polyline fill="none" vector-effect="none" points="628.634,423.527 623.621,423.564 622.963,425.084 611.065,422.283 598.075,422.477 596.872,406.606 597.871,395.742 589.507,393.833 584.125,395.879 572.766,405.662 567.821,388.5 556.39,381.905 544.39,375.67 538.16,372.692 534.128,363.359 518.843,367.375 510.486,355.783 529.306,352.543 530.62,360.415 535.137,350.38 527.66,344.619 530.838,341.955 524.313,331.802 529.502,327.616 513.759,319.905 507.35,321.063 502.873,318.5 511.257,313.407 498.298,315.988 498.928,319.248 493.173,321.001 501.984,325.349 489.635,330.632 487.234,334.125 485.476,320.178 480.398,325.933 466.253,329.091 439.223,324.874 441.849,330.084 475.578,332.92 484.738,337.552 488.036,336.462 490.689,333.593 509.337,337.198 518.966,335.881 528.358,347.796 497.071,356.949 511.967,364.752 506.269,373.061 485.547,374.75 468.843,362.105 451.491,355.732 411.613,343.332 396.65,333.753 399.822,308.352 400.899,284.788 411.152,284.542 421.194,284.538 418.235,305.986 437.547,293.485 418.802,281.672 403.554,276.137 385.246,280.047 387.547,271.138 395.202,267.593 350.475,250.318 316.419,247.293 296.684,225.213 293.48,202.842 290.184,231.742 252.281,243.317 243.194,228.952 264.675,197.53 293.608,192.538 305.251,189.129 308.168,185.73 299.332,185.504 258.564,194.418 230.074,233.767 199.696,222.185 187.017,195.842 195.993,231.578 164.606,232.675 145.807,238.849 139,239.527 " />
<polyline fill="none" vector-effect="none" points="605.22,60.5844 605.994,63.5455 603.454,77.3217 613.473,82.3439 611.246,115.39 605.557,137.239 611.38,151.454 629.382,124.542 635.857,101.302 619.838,78.2784 609.823,73.0995 616.254,68.8353 616.395,60.5844 " />
<polyline fill="none" vector-effect="none" points="682.457,60.5844 688.238,71.3193 699.448,87.1982 721.405,125.858 722.81,134.263 711.508,147.71 686.138,181.352 665.161,196.186 662.905,210.3 647.228,227.824 643.788,246.073 665.915,221.973 690.497,201.001 702.067,182.82 715.585,170.302 727.364,141.098 741.544,116.852 717.723,60.5844 " />
<polyline fill="none" vector-effect="none" points="737.342,60.5844 742.344,64.336 783.963,76.8498 801.089,100.457 816.477,113.733 849.95,119.88 866.093,132.748 906.128,98.7988 952.451,70.3681 971,72.6686 " />
<polyline fill="none" vector-effect="none" points="971,309.479 943.287,318.16 885.556,304.713 842.603,321.153 836.015,327.485 805.411,340.951 793.856,336.476 794.077,357.479 788.63,378.279 794.169,403.97 795.16,424.798 788.224,440.08 760.375,458.329 749.267,467.384 738.108,476.264 708.531,462.16 691.718,455.784 670.354,448.292 662.419,430.159 653.108,425.261 635.602,410.095 639.804,404.314 640.6,408.317 635.237,388.5 630.239,380.752 629.002,373.024 627.503,357.49 624.804,345.845 643.007,348.371 650.372,327.069 657.489,307.908 646.815,305.048 640.087,297.079 642.145,282.557 641.325,257.54 633.353,248.99 635.563,237.24 610.936,233.573 600.21,237.058 610.803,250.06 612.785,264.909 611.654,279.686 599.87,286.91 592.613,281.761 585.808,267.126 576.855,254.95 574.421,234.658 569.978,224.941 562.024,222.15 555.981,230.194 553.175,244.698 563.058,259.111 560.22,267.102 557.21,274.81 567.225,276.673 581.902,284.254 583.891,281.55 595.846,292.212 602.276,295.285 598.166,300.41 603.393,299.418 608.038,296.345 612.652,293.218 618.337,294.342 623.965,295.513 619.881,300.73 606.412,311.624 596.92,317.235 588.861,330.186 585.601,341.886 588.566,343.444 591.037,342.075 597.349,332.215 607.312,315.634 619.875,326.209 609.92,328.689 604.535,343.783 592.288,350.524 587.879,358.172 593.359,359.636 599.225,366.638 595.51,374.071 599.837,377.585 604.97,376.727 610.285,384.783 615.37,388.5 620.391,388.5 627.831,392.354 630.239,396.248 634.911,404.161 634.503,412.02 629.304,415.691 628.634,423.527 628.634,423.527 " />
</g>

<g fill="#75ab2e" fill-opacity="0.34902" stroke="none" transform="matrix(7.19538e-05,0,0,7.17448e-05,-73.7118,-42.0261)"
font-family="Helvetica" font-size="13" font-weight="400" font-style="normal" 
>
<path vector-effect="none" fill-rule="evenodd" d="M2.03182e+06,6.08257e+06 L1.89788e+06,5.91253e+06 L1.74878e+06,5.96834e+06 L1.52859e+06,6.28456e+06 L1.39e+06,6.24868e+06 L1.39e+06,6.26942e+06 L1.39e+06,6.81471e+06 L1.6386e+06,6.42271e+06 L2.03182e+06,6.08257e+06"/>
</g>

<g fill="#75ab2e" fill-opacity="0.34902" stroke="none" transform="matrix(7.19538e-05,0,0,7.17448e-05,-73.7118,-42.0261)"
font-family="Helvetica" font-size="13" font-weight="400" font-style="normal" 
>
<path vector-effect="none" fill-rule="evenodd" d="M2.97777e+06,7.05517e+06 L2.90851e+06,7.16416e+06 L2.98737e+06,7.16416e+06 L3.70073e+06,7.16416e+06 L3.95217e+06,7.16416e+06 L4.00999e+06,7.16416e+06 L4.07997e+06,7.16416e+06 L4.25924e+06,7.16416e+06 L4.29243e+06,7.16416e+06 L4.47051e+06,6.88616e+06 L4.46615e+06,6.99461e+06 L4.54168e+06,6.95442e+06 L4.75737e+06,6.62983e+06 L4.68643e+06,6.5839e+06 L4.59226e+06,6.73846e+06 L4.3642e+06,6.7842e+06 L4.49651e+06,6.60727e+06 L4.38444e+06,6.55606e+06 L3.9451e+06,7.08442e+06 L4.04675e+06,6.73547e+06 L4.45815e+06,6.29937e+06 L4.5269e+06,5.99718e+06 L4.40375e+06,5.91553e+06 L4.09304e+06,6.01655e+06 L3.52078e+06,5.97532e+06 L3.64351e+06,6.19756e+06 L3.38688e+06,6.39853e+06 L3.27536e+06,6.2615e+06 L3.03091e+06,6.21066e+06 L2.61521e+06,6.35286e+06 L3.1378e+06,6.3578e+06 L2.6155e+06,6.81676e+06 L2.97777e+06,7.05517e+06"/>
</g>

<g fill="#75ab2e" fill-opacity="0.34902" stroke="none" transform="matrix(7.19538e-05,0,0,7.17448e-05,-73.7118,-42.0261)"
font-family="Helvetica" font-size="13" font-weight="400" font-style="normal" 
>
<path vector-effect="none" fill-rule="evenodd" d="M8.41777e+06,7.16416e+06 L8.96291e+06,7.16416e+06 L9.71e+06,7.16416e+06 L9.71e+06,6.89744e+06 L9.34529e+06,6.68164e+06 L9.02052e+06,6.47293e+06 L8.81382e+06,6.22499e+06 L8.56329e+06,6.2316e+06 L8.41475e+06,6.53939e+06 L8.43105e+06,6.94689e+06 L8.34574e+06,7.01753e+06 L8.26135e+06,7.16416e+06 L8.27747e+06,7.16416e+06 L8.33416e+06,7.16416e+06 L8.41777e+06,7.16416e+06"/>
</g>

<g fill="none" stroke="#1a330d" stroke-opacity="1" stroke-width="0.486111" stroke-linecap="square" stroke-linejoin="miter" stroke-miterlimit="5" transform="matrix(0.719538,0,0,0.717448,-73.7118,-42.0261)"
font-family="Helvetica" font-size="13" font-weight="400" font-style="normal" 
>
<polyline fill="none" vector-effect="none" points="261.521,635.286 303.091,621.066 327.536,626.15 338.688,639.853 364.351,619.756 352.078,597.532 409.304,601.655 440.375,591.553 452.69,599.718 445.815,629.937 404.675,673.547 394.51,708.442 438.444,655.606 449.651,660.727 436.42,678.42 459.226,673.846 468.643,658.39 475.737,662.983 454.168,695.442 446.615,699.461 447.051,688.616 429.243,716.416 " />
<polyline fill="none" vector-effect="none" points="826.135,716.416 834.574,701.753 843.105,694.689 841.475,653.939 856.329,623.16 881.382,622.499 902.052,647.293 934.529,668.164 971,689.744 " />
<polyline fill="none" vector-effect="none" points="139,624.868 152.859,628.456 174.878,596.834 189.788,591.253 203.182,608.257 163.86,642.271 139,681.471 " />
<polyline fill="none" vector-effect="none" points="290.851,716.416 297.777,705.517 261.55,681.676 313.78,635.78 261.521,635.286 261.521,635.286 " />
</g>

<g fill="none" stroke="#000000" stroke-opacity="1" stroke-width="0.694444" stroke-linecap="butt" stroke-linejoin="round" transform="matrix(0.719538,0,0,0.717448,-73.7118,-42.0261)"
font-family="Helvetica" font-size="13" font-weight="400" font-style="normal" 
>
<polyline fill="none" vector-effect="none" points="971,702.545 962.082,699.198 950.063,694.688 938.487,690.344 927.325,686.155 916.547,682.111 906.128,678.201 896.045,674.417 886.275,670.751 876.798,667.195 867.596,663.742 858.652,660.385 849.95,657.12 841.475,653.939 833.213,650.839 825.151,647.814 817.278,644.86 809.583,641.972 802.054,639.147 794.683,636.38 787.459,633.67 780.375,631.011 773.421,628.402 766.591,625.839 759.877,623.319 753.272,620.841 746.769,618.4 740.363,615.996 734.047,613.626 727.815,611.288 721.663,608.979 715.585,606.698 709.576,604.444 703.632,602.213 697.747,600.004 691.917,597.817 686.138,595.648 680.407,593.497 674.718,591.363 669.068,589.243 663.453,587.135 657.87,585.04 652.314,582.956 646.783,580.88 641.272,578.812 635.779,576.75 630.299,574.694 624.83,572.642 619.368,570.592 613.91,568.544 608.452,566.496 602.991,564.447 597.524,562.395 592.048,560.34 586.559,558.28 581.053,556.214 575.527,554.141 569.978,552.058 564.403,549.966 558.797,547.862 553.156,545.746 547.478,543.615 541.758,541.469 535.993,539.305 530.177,537.123 524.307,534.92 518.379,532.695 512.387,530.447 506.328,528.173 500.196,525.872 493.986,523.542 487.693,521.18 481.311,518.786 474.835,516.355 468.258,513.887 461.573,511.379 454.774,508.827 447.854,506.231 440.806,503.585 433.62,500.889 426.288,498.138 418.802,495.328 411.152,492.458 403.327,489.521 395.317,486.515 387.109,483.436 378.692,480.277 " />
<polyline fill="none" vector-effect="none" points="971,604.581 963.713,602.7 952.815,599.886 942.305,597.172 932.155,594.552 922.342,592.018 912.843,589.565 903.638,587.189 894.708,584.883 886.036,582.644 877.606,580.467 869.402,578.349 861.412,576.286 853.622,574.274 846.019,572.312 838.594,570.394 831.335,568.52 824.233,566.686 817.278,564.891 810.462,563.131 803.777,561.405 797.215,559.71 790.768,558.046 784.43,556.409 778.195,554.799 772.055,553.214 766.006,551.652 760.042,550.112 754.157,548.593 748.346,547.092 742.605,545.61 736.929,544.144 731.313,542.694 725.753,541.259 720.244,539.836 714.783,538.426 709.367,537.028 703.99,535.64 698.649,534.261 693.341,532.89 688.063,531.527 682.81,530.171 677.58,528.821 672.369,527.475 667.174,526.134 661.992,524.796 656.819,523.46 651.652,522.126 646.489,520.793 641.325,519.46 636.159,518.126 630.986,516.79 625.803,515.452 620.608,514.111 615.397,512.765 610.167,511.415 604.915,510.058 599.636,508.696 594.329,507.325 588.988,505.946 583.611,504.558 578.194,503.159 572.734,501.749 567.225,500.327 561.665,498.891 556.049,497.441 550.372,495.976 544.631,494.493 538.821,492.993 532.936,491.474 526.972,489.934 520.923,488.372 514.783,486.787 508.548,485.177 502.21,483.54 495.763,481.876 489.201,480.181 482.516,478.455 475.7,476.695 468.745,474.9 461.643,473.066 454.384,471.191 446.959,469.274 439.357,467.311 431.566,465.3 423.576,463.237 415.372,461.119 406.942,458.942 398.27,456.703 " />
<polyline fill="none" vector-effect="none" points="971,524.721 970.517,524.642 960.074,522.943 950.003,521.303 940.277,519.72 930.874,518.19 921.772,516.708 912.952,515.272 904.396,513.88 896.087,512.527 888.009,511.212 880.15,509.933 872.494,508.687 865.03,507.472 857.747,506.286 850.633,505.129 843.679,503.997 836.875,502.889 830.212,501.805 823.683,500.742 817.278,499.699 810.992,498.676 804.816,497.671 798.745,496.683 792.772,495.71 786.891,494.753 781.096,493.81 775.383,492.88 769.746,491.962 764.18,491.056 758.681,490.161 753.244,489.276 747.865,488.401 742.539,487.534 737.263,486.675 732.032,485.824 726.844,484.979 721.694,484.141 716.579,483.308 711.496,482.481 706.44,481.658 701.41,480.839 696.401,480.024 691.41,479.211 686.434,478.401 681.471,477.594 676.517,476.787 671.569,475.982 666.624,475.177 661.679,474.372 656.731,473.567 651.778,472.76 646.815,471.952 641.84,471.143 636.85,470.33 631.841,469.515 626.811,468.696 621.757,467.874 616.674,467.046 611.56,466.214 606.412,465.376 601.225,464.532 595.996,463.681 590.722,462.822 585.398,461.955 580.02,461.08 574.585,460.195 569.088,459.301 563.524,458.395 557.89,457.478 552.179,456.548 546.388,455.606 540.51,454.649 534.54,453.677 528.472,452.69 522.3,451.685 516.018,450.662 509.617,449.62 503.092,448.558 496.434,447.475 489.635,446.368 482.686,445.237 475.578,444.08 468.3,442.895 460.843,441.681 453.194,440.436 445.341,439.158 437.272,437.845 428.971,436.493 420.423,435.102 411.613,433.668 " />
<polyline fill="none" vector-effect="none" points="971,454.493 962.01,453.784 952.24,453.014 942.805,452.27 933.682,451.55 924.85,450.854 916.291,450.179 907.987,449.524 899.922,448.888 892.081,448.27 884.451,447.668 877.018,447.082 869.77,446.51 862.697,445.953 855.789,445.408 849.034,444.875 842.425,444.354 835.953,443.844 829.609,443.343 823.387,442.853 817.278,442.371 811.277,441.898 805.377,441.432 799.572,440.975 793.856,440.524 788.224,440.08 782.67,439.642 777.19,439.21 771.779,438.783 766.432,438.361 761.145,437.945 755.914,437.532 750.735,437.124 745.603,436.719 740.516,436.318 735.47,435.92 730.461,435.525 725.485,435.133 720.539,434.743 715.621,434.355 710.726,433.969 705.852,433.584 700.996,433.201 696.154,432.82 691.323,432.439 686.502,432.058 681.686,431.679 676.872,431.299 672.059,430.92 667.242,430.54 662.419,430.159 657.587,429.778 652.743,429.396 647.884,429.013 643.007,428.629 638.108,428.242 633.186,427.854 628.235,427.464 623.254,427.071 618.239,426.676 613.186,426.277 608.092,425.875 602.953,425.47 597.766,425.061 592.526,424.648 587.229,424.23 581.872,423.808 576.45,423.38 570.958,422.947 565.391,422.508 559.746,422.063 554.015,421.611 548.195,421.152 542.279,420.686 536.26,420.211 530.134,419.728 523.892,419.236 517.527,418.734 511.033,418.222 504.401,417.699 497.621,417.164 490.686,416.617 483.585,416.057 476.308,415.483 468.843,414.895 461.179,414.29 453.302,413.669 445.199,413.03 436.854,412.372 428.251,411.694 419.372,410.994 " />
<polyline fill="none" vector-effect="none" points="969.262,388.5 959.354,388.5 949.792,388.5 940.554,388.5 931.618,388.5 922.963,388.5 914.573,388.5 906.429,388.5 898.517,388.5 890.822,388.5 883.331,388.5 876.032,388.5 868.912,388.5 861.962,388.5 855.171,388.5 848.53,388.5 842.029,388.5 835.661,388.5 829.419,388.5 823.293,388.5 817.278,388.5 811.368,388.5 805.555,388.5 799.834,388.5 794.2,388.5 788.647,388.5 783.169,388.5 777.764,388.5 772.424,388.5 767.148,388.5 761.929,388.5 756.764,388.5 751.648,388.5 746.58,388.5 741.553,388.5 736.566,388.5 731.614,388.5 726.694,388.5 721.803,388.5 716.938,388.5 712.095,388.5 707.272,388.5 702.465,388.5 697.672,388.5 692.889,388.5 688.113,388.5 683.342,388.5 678.572,388.5 673.802,388.5 669.027,388.5 664.245,388.5 659.453,388.5 654.648,388.5 649.827,388.5 644.987,388.5 640.124,388.5 635.237,388.5 630.321,388.5 625.374,388.5 620.391,388.5 615.37,388.5 610.307,388.5 605.198,388.5 600.04,388.5 594.828,388.5 589.559,388.5 584.228,388.5 578.831,388.5 573.364,388.5 567.821,388.5 562.197,388.5 556.488,388.5 550.688,388.5 544.79,388.5 538.789,388.5 532.679,388.5 526.451,388.5 520.1,388.5 513.617,388.5 506.995,388.5 500.224,388.5 493.295,388.5 486.198,388.5 478.923,388.5 471.457,388.5 463.79,388.5 455.907,388.5 447.794,388.5 439.437,388.5 430.818,388.5 421.919,388.5 " />
<polyline fill="none" vector-effect="none" points="971,322.507 962.01,323.216 952.24,323.986 942.805,324.73 933.682,325.45 924.85,326.146 916.291,326.821 907.987,327.476 899.922,328.112 892.081,328.73 884.451,329.332 877.018,329.918 869.77,330.49 862.697,331.047 855.789,331.592 849.034,332.125 842.425,332.646 835.953,333.156 829.609,333.657 823.387,334.147 817.278,334.629 811.277,335.102 805.377,335.568 799.572,336.025 793.856,336.476 788.224,336.92 782.67,337.358 777.19,337.79 771.779,338.217 766.432,338.639 761.145,339.055 755.914,339.468 750.735,339.876 745.603,340.281 740.516,340.682 735.47,341.08 730.461,341.475 725.485,341.867 720.539,342.257 715.621,342.645 710.726,343.031 705.852,343.416 700.996,343.799 696.154,344.18 691.323,344.561 686.502,344.942 681.686,345.321 676.872,345.701 672.059,346.08 667.242,346.46 662.419,346.841 657.587,347.222 652.743,347.604 647.884,347.987 643.007,348.371 638.108,348.758 633.186,349.146 628.235,349.536 623.254,349.929 618.239,350.324 613.186,350.723 608.092,351.125 602.953,351.53 597.766,351.939 592.526,352.352 587.229,352.77 581.872,353.192 576.45,353.62 570.958,354.053 565.391,354.492 559.746,354.937 554.015,355.389 548.195,355.848 542.279,356.314 536.26,356.789 530.134,357.272 523.892,357.764 517.527,358.266 511.033,358.778 504.401,359.301 497.621,359.836 490.686,360.383 483.585,360.943 476.308,361.517 468.843,362.105 461.179,362.71 453.302,363.331 445.199,363.97 436.854,364.628 428.251,365.306 419.372,366.006 " />
<polyline fill="none" vector-effect="none" points="971,252.279 970.517,252.358 960.074,254.057 950.003,255.697 940.277,257.28 930.874,258.811 921.772,260.292 912.952,261.728 904.396,263.12 896.087,264.473 888.009,265.788 880.15,267.067 872.494,268.313 865.03,269.528 857.747,270.714 850.633,271.871 843.679,273.003 836.875,274.111 830.212,275.195 823.683,276.258 817.278,277.301 810.992,278.324 804.816,279.329 798.745,280.317 792.772,281.29 786.891,282.247 781.096,283.19 775.383,284.12 769.746,285.038 764.18,285.944 758.681,286.839 753.244,287.724 747.865,288.599 742.539,289.466 737.263,290.325 732.032,291.176 726.844,292.021 721.694,292.859 716.579,293.692 711.496,294.519 706.44,295.342 701.41,296.161 696.401,296.976 691.41,297.789 686.434,298.599 681.471,299.406 676.517,300.213 671.569,301.018 666.624,301.823 661.679,302.628 656.731,303.433 651.778,304.24 646.815,305.048 641.84,305.857 636.85,306.67 631.841,307.485 626.811,308.304 621.757,309.126 616.674,309.954 611.56,310.786 606.412,311.624 601.225,312.468 595.996,313.319 590.722,314.178 585.398,315.045 580.02,315.92 574.585,316.805 569.088,317.699 563.524,318.605 557.89,319.522 552.179,320.452 546.388,321.394 540.51,322.351 534.54,323.323 528.472,324.31 522.3,325.315 516.018,326.338 509.617,327.38 503.092,328.442 496.434,329.525 489.635,330.632 482.686,331.763 475.578,332.92 468.3,334.105 460.843,335.319 453.194,336.564 445.341,337.842 437.272,339.155 428.971,340.507 420.423,341.898 411.613,343.332 " />
<polyline fill="none" vector-effect="none" points="971,172.419 963.713,174.3 952.815,177.114 942.305,179.828 932.155,182.448 922.342,184.982 912.843,187.435 903.638,189.811 894.708,192.117 886.036,194.356 877.606,196.533 869.402,198.651 861.412,200.714 853.622,202.726 846.019,204.688 838.594,206.606 831.335,208.48 824.233,210.314 817.278,212.109 810.462,213.869 803.777,215.595 797.215,217.29 790.768,218.954 784.43,220.591 778.195,222.201 772.055,223.786 766.006,225.348 760.042,226.888 754.157,228.407 748.346,229.908 742.605,231.39 736.929,232.856 731.313,234.306 725.753,235.741 720.244,237.164 714.783,238.574 709.367,239.972 703.99,241.36 698.649,242.739 693.341,244.11 688.063,245.473 682.81,246.829 677.58,248.179 672.369,249.525 667.174,250.866 661.992,252.204 656.819,253.54 651.652,254.874 646.489,256.207 641.325,257.54 636.159,258.874 630.986,260.21 625.803,261.548 620.608,262.889 615.397,264.235 610.167,265.585 604.915,266.942 599.636,268.304 594.329,269.675 588.988,271.054 583.611,272.442 578.194,273.841 572.734,275.251 567.225,276.673 561.665,278.109 556.049,279.559 550.372,281.024 544.631,282.507 538.821,284.007 532.936,285.526 526.972,287.066 520.923,288.628 514.783,290.213 508.548,291.823 502.21,293.46 495.763,295.124 489.201,296.819 482.516,298.545 475.7,300.305 468.745,302.1 461.643,303.934 454.384,305.809 446.959,307.726 439.357,309.689 431.566,311.7 423.576,313.763 415.372,315.881 406.942,318.058 398.27,320.297 " />
<polyline fill="none" vector-effect="none" points="971,74.4552 962.082,77.8018 950.063,82.3121 938.487,86.6558 927.325,90.8447 916.547,94.8891 906.128,98.7988 896.045,102.583 886.275,106.249 876.798,109.805 867.596,113.258 858.652,116.615 849.95,119.88 841.475,123.061 833.213,126.161 825.151,129.186 817.278,132.14 809.583,135.028 802.054,137.853 794.683,140.62 787.459,143.33 780.375,145.989 773.421,148.598 766.591,151.161 759.877,153.681 753.272,156.159 746.769,158.6 740.363,161.004 734.047,163.374 727.815,165.712 721.663,168.021 715.585,170.302 709.576,172.556 703.632,174.787 697.747,176.996 691.917,179.183 686.138,181.352 680.407,183.503 674.718,185.637 669.068,187.757 663.453,189.864 657.87,191.96 652.314,194.044 646.783,196.12 641.272,198.188 635.779,200.249 630.299,202.306 624.83,204.358 619.368,206.408 613.91,208.456 608.452,210.504 602.991,212.553 597.524,214.605 592.048,216.66 586.559,218.72 581.053,220.786 575.527,222.859 569.978,224.941 564.403,227.034 558.797,229.138 553.156,231.254 547.478,233.385 541.758,235.531 535.993,237.695 530.177,239.877 524.307,242.08 518.379,244.305 512.387,246.553 506.328,248.827 500.196,251.128 493.986,253.458 487.693,255.82 481.311,258.214 474.835,260.645 468.258,263.113 461.573,265.621 454.774,268.173 447.854,270.769 440.806,273.415 433.62,276.111 426.288,278.862 418.802,281.672 411.152,284.542 403.327,287.479 395.317,290.485 387.109,293.564 378.692,296.723 " />
<polyline fill="none" vector-effect="none" points="971,439.691 970.659,434.435 970.286,427.803 969.972,421.204 969.716,414.631 969.517,408.08 969.375,401.544 969.29,395.019 969.262,388.5 969.29,381.981 969.375,375.456 969.517,368.92 969.716,362.369 969.972,355.796 970.286,349.197 970.659,342.565 971,337.309 " />
<polyline fill="none" vector-effect="none" points="906.128,678.201 904.697,667.561 903.339,657.266 902.052,647.293 900.832,637.62 899.673,628.227 898.574,619.097 897.53,610.212 896.54,601.558 895.6,593.12 894.708,584.883 893.862,576.836 893.059,568.966 892.299,561.264 891.578,553.717 890.896,546.317 890.25,539.055 889.64,531.921 889.064,524.908 888.521,518.007 888.009,511.212 887.529,504.516 887.078,497.911 886.656,491.392 886.262,484.952 885.896,478.586 885.556,472.287 885.242,466.051 884.953,459.873 884.69,453.747 884.451,447.668 884.235,441.632 884.044,435.634 883.876,429.67 883.731,423.735 883.608,417.825 883.508,411.935 883.431,406.062 883.376,400.201 883.342,394.349 883.331,388.5 883.342,382.651 883.376,376.799 883.431,370.938 883.508,365.065 883.608,359.175 883.731,353.265 883.876,347.33 884.044,341.366 884.235,335.368 884.451,329.332 884.69,323.253 884.953,317.127 885.242,310.949 885.556,304.713 885.896,298.414 886.262,292.048 886.656,285.608 887.078,279.089 887.529,272.484 888.009,265.788 888.521,258.993 889.064,252.092 889.64,245.079 890.25,237.945 890.896,230.683 891.578,223.283 892.299,215.736 893.059,208.034 893.862,200.164 894.708,192.117 895.6,183.881 896.54,175.442 897.53,166.788 898.574,157.903 899.673,148.773 900.832,139.38 902.052,129.707 903.339,119.734 904.697,109.439 906.128,98.7988 " />
<polyline fill="none" vector-effect="none" points="817.278,644.86 817.278,635.903 817.278,627.196 817.278,618.724 817.278,610.471 817.278,602.426 817.278,594.574 817.278,586.905 817.278,579.409 817.278,572.073 817.278,564.891 817.278,557.851 817.278,550.947 817.278,544.169 817.278,537.511 817.278,530.965 817.278,524.525 817.278,518.184 817.278,511.937 817.278,505.777 817.278,499.699 817.278,493.698 817.278,487.769 817.278,481.906 817.278,476.106 817.278,470.363 817.278,464.674 817.278,459.034 817.278,453.44 817.278,447.887 817.278,442.371 817.278,436.889 817.278,431.438 817.278,426.013 817.278,420.611 817.278,415.229 817.278,409.864 817.278,404.512 817.278,399.169 817.278,393.833 817.278,388.5 817.278,383.167 817.278,377.831 817.278,372.488 817.278,367.136 817.278,361.771 817.278,356.389 817.278,350.987 817.278,345.562 817.278,340.111 817.278,334.629 817.278,329.113 817.278,323.56 817.278,317.966 817.278,312.326 817.278,306.637 817.278,300.894 817.278,295.094 817.278,289.231 817.278,283.302 817.278,277.301 817.278,271.223 817.278,265.063 817.278,258.816 817.278,252.475 817.278,246.035 817.278,239.489 817.278,232.831 817.278,226.053 817.278,219.149 817.278,212.109 817.278,204.927 817.278,197.591 817.278,190.095 817.278,182.426 817.278,174.574 817.278,166.529 817.278,158.276 817.278,149.804 817.278,141.097 817.278,132.14 " />
<polyline fill="none" vector-effect="none" points="746.769,618.4 747.674,610.696 748.537,603.178 749.36,595.836 750.146,588.659 750.896,581.639 751.612,574.766 752.294,568.032 752.945,561.431 753.566,554.953 754.157,548.593 754.721,542.343 755.257,536.199 755.767,530.153 756.253,524.2 756.714,518.335 757.151,512.553 757.566,506.849 757.959,501.219 758.331,495.658 758.681,490.161 759.011,484.726 759.322,479.347 759.613,474.022 759.885,468.746 760.139,463.516 760.375,458.329 760.593,453.182 760.794,448.07 760.978,442.992 761.145,437.945 761.295,432.924 761.429,427.927 761.547,422.953 761.648,417.996 761.734,413.056 761.804,408.129 761.859,403.213 761.898,398.304 761.921,393.401 761.929,388.5 761.921,383.599 761.898,378.696 761.859,373.787 761.804,368.871 761.734,363.944 761.648,359.004 761.547,354.047 761.429,349.073 761.295,344.076 761.145,339.055 760.978,334.008 760.794,328.93 760.593,323.818 760.375,318.671 760.139,313.484 759.885,308.254 759.613,302.978 759.322,297.653 759.011,292.274 758.681,286.839 758.331,281.342 757.959,275.781 757.566,270.151 757.151,264.447 756.714,258.665 756.253,252.8 755.767,246.847 755.257,240.801 754.721,234.657 754.157,228.407 753.566,222.047 752.945,215.569 752.294,208.968 751.612,202.234 750.896,195.361 750.146,188.341 749.36,181.164 748.537,173.822 747.674,166.304 746.769,158.6 " />
<polyline fill="none" vector-effect="none" points="686.138,595.648 687.656,588.961 689.108,582.413 690.497,575.999 691.825,569.709 693.095,563.539 694.309,557.481 695.47,551.529 696.579,545.679 697.638,539.924 698.649,534.261 699.614,528.683 700.534,523.186 701.411,517.767 702.246,512.42 703.04,507.142 703.795,501.929 704.511,496.778 705.19,491.684 705.833,486.645 706.44,481.658 707.013,476.719 707.552,471.824 708.058,466.973 708.531,462.16 708.973,457.385 709.384,452.644 709.764,447.934 710.114,443.253 710.435,438.599 710.726,433.969 710.988,429.361 711.222,424.772 711.428,420.2 711.606,415.644 711.756,411.101 711.878,406.568 711.973,402.043 712.041,397.525 712.082,393.012 712.095,388.5 712.082,383.988 712.041,379.475 711.973,374.957 711.878,370.432 711.756,365.899 711.606,361.356 711.428,356.8 711.222,352.228 710.988,347.639 710.726,343.031 710.435,338.401 710.114,333.747 709.764,329.066 709.384,324.356 708.973,319.615 708.531,314.84 708.058,310.027 707.552,305.176 707.013,300.281 706.44,295.342 705.833,290.355 705.19,285.316 704.511,280.222 703.795,275.071 703.04,269.858 702.246,264.58 701.411,259.233 700.534,253.814 699.614,248.317 698.649,242.739 697.638,237.076 696.579,231.321 695.47,225.471 694.309,219.519 693.095,213.461 691.825,207.291 690.497,201.001 689.108,194.587 687.656,188.039 686.138,181.352 " />
<polyline fill="none" vector-effect="none" points="630.299,574.694 632.247,568.895 634.114,563.198 635.904,557.601 637.619,552.096 639.263,546.681 640.837,541.351 642.345,536.1 643.788,530.927 645.169,525.825 646.489,520.793 647.751,515.826 648.956,510.921 650.106,506.076 651.202,501.286 652.246,496.549 653.24,491.863 654.184,487.224 655.08,482.63 655.929,478.078 656.731,473.567 657.489,469.092 658.203,464.654 658.874,460.248 659.502,455.873 660.088,451.527 660.634,447.208 661.139,442.913 661.605,438.642 662.031,434.391 662.419,430.159 662.768,425.945 663.08,421.746 663.354,417.561 663.591,413.387 663.791,409.224 663.955,405.069 664.082,400.921 664.172,396.778 664.227,392.638 664.245,388.5 664.227,384.362 664.172,380.222 664.082,376.079 663.955,371.931 663.791,367.776 663.591,363.613 663.354,359.439 663.08,355.254 662.768,351.055 662.419,346.841 662.031,342.609 661.605,338.358 661.139,334.087 660.634,329.792 660.088,325.473 659.502,321.127 658.874,316.752 658.203,312.346 657.489,307.908 656.731,303.433 655.929,298.922 655.08,294.37 654.184,289.776 653.24,285.137 652.246,280.451 651.202,275.714 650.106,270.924 648.956,266.079 647.751,261.174 646.489,256.207 645.169,251.175 643.788,246.073 642.345,240.9 640.837,235.649 639.263,230.319 637.619,224.904 635.904,219.399 634.114,213.802 632.247,208.105 630.299,202.306 " />
<polyline fill="none" vector-effect="none" points="575.527,554.141 577.77,549.166 579.925,544.265 581.995,539.433 583.983,534.669 585.892,529.969 587.724,525.329 589.481,520.748 591.167,516.221 592.782,511.748 594.329,507.325 595.809,502.95 597.225,498.621 598.578,494.334 599.87,490.09 601.102,485.884 602.276,481.715 603.393,477.582 604.453,473.482 605.459,469.414 606.412,465.376 607.312,461.366 608.16,457.382 608.958,453.423 609.706,449.487 610.404,445.573 611.055,441.68 611.658,437.804 612.213,433.947 612.723,430.105 613.186,426.277 613.604,422.463 613.976,418.66 614.304,414.867 614.588,411.084 614.827,407.308 615.023,403.539 615.175,399.775 615.284,396.014 615.349,392.257 615.37,388.5 615.349,384.743 615.284,380.986 615.175,377.225 615.023,373.461 614.827,369.692 614.588,365.916 614.304,362.133 613.976,358.34 613.604,354.537 613.186,350.723 612.723,346.895 612.213,343.053 611.658,339.196 611.055,335.32 610.404,331.427 609.706,327.513 608.958,323.577 608.16,319.618 607.312,315.634 606.412,311.624 605.459,307.586 604.453,303.518 603.393,299.418 602.276,295.285 601.102,291.116 599.87,286.91 598.578,282.666 597.225,278.379 595.809,274.05 594.329,269.675 592.782,265.252 591.167,260.779 589.481,256.252 587.724,251.671 585.892,247.031 583.983,242.331 581.995,237.567 579.925,232.735 577.77,227.834 575.527,222.859 " />
<polyline fill="none" vector-effect="none" points="518.379,532.695 520.795,528.533 523.123,524.418 525.364,520.349 527.521,516.324 529.597,512.34 531.593,508.397 533.511,504.492 535.354,500.625 537.123,496.792 538.821,492.993 540.448,489.226 542.007,485.49 543.499,481.784 544.926,478.105 546.288,474.453 547.587,470.826 548.825,467.224 550.002,463.644 551.12,460.086 552.179,456.548 553.181,453.03 554.127,449.53 555.017,446.048 555.852,442.581 556.632,439.13 557.359,435.692 558.034,432.268 558.656,428.856 559.227,425.454 559.746,422.063 560.214,418.681 560.632,415.307 561,411.94 561.319,408.58 561.588,405.225 561.807,401.875 561.978,398.528 562.1,395.184 562.173,391.841 562.197,388.5 562.173,385.159 562.1,381.816 561.978,378.472 561.807,375.125 561.588,371.775 561.319,368.42 561,365.06 560.632,361.693 560.214,358.319 559.746,354.937 559.227,351.546 558.656,348.144 558.034,344.732 557.359,341.308 556.632,337.87 555.852,334.419 555.017,330.952 554.127,327.47 553.181,323.97 552.179,320.452 551.12,316.914 550.002,313.356 548.825,309.776 547.587,306.174 546.288,302.547 544.926,298.895 543.499,295.216 542.007,291.51 540.448,287.774 538.821,284.007 537.123,280.208 535.354,276.375 533.511,272.508 531.593,268.603 529.597,264.66 527.521,260.676 525.364,256.651 523.123,252.582 520.795,248.467 518.379,244.305 " />
<polyline fill="none" vector-effect="none" points="454.774,508.827 457.224,505.51 459.589,502.219 461.872,498.952 464.074,495.708 466.199,492.488 468.246,489.289 470.218,486.111 472.117,482.953 473.944,479.815 475.7,476.695 477.386,473.594 479.005,470.509 480.556,467.441 482.042,464.389 483.463,461.352 484.821,458.329 486.116,455.319 487.349,452.323 488.522,449.34 489.635,446.368 490.689,443.407 491.684,440.457 492.622,437.517 493.502,434.586 494.327,431.664 495.095,428.75 495.808,425.843 496.467,422.944 497.071,420.051 497.621,417.164 498.118,414.283 498.562,411.406 498.952,408.533 499.29,405.664 499.576,402.799 499.809,399.936 499.991,397.075 500.12,394.216 500.198,391.358 500.224,388.5 500.198,385.642 500.12,382.784 499.991,379.925 499.809,377.064 499.576,374.201 499.29,371.336 498.952,368.467 498.562,365.594 498.118,362.717 497.621,359.836 497.071,356.949 496.467,354.056 495.808,351.157 495.095,348.25 494.327,345.336 493.502,342.414 492.622,339.483 491.684,336.543 490.689,333.593 489.635,330.632 488.522,327.66 487.349,324.677 486.116,321.681 484.821,318.671 483.463,315.648 482.042,312.611 480.556,309.559 479.005,306.491 477.386,303.406 475.7,300.305 473.944,297.185 472.117,294.047 470.218,290.889 468.246,287.711 466.199,284.512 464.074,281.292 461.872,278.048 459.589,274.781 457.224,271.49 454.774,268.173 " />
<polyline fill="none" vector-effect="none" points="378.692,480.277 380.956,477.89 383.149,475.511 385.272,473.138 387.327,470.771 389.314,468.412 391.234,466.058 393.089,463.711 394.88,461.369 396.606,459.033 398.27,456.703 399.872,454.378 401.412,452.059 402.892,449.744 404.312,447.434 405.673,445.129 406.975,442.829 408.22,440.532 409.407,438.24 410.538,435.952 411.613,433.668 412.632,431.387 413.596,429.11 414.505,426.836 415.36,424.565 416.161,422.297 416.909,420.032 417.604,417.769 418.246,415.508 418.835,413.25 419.372,410.994 419.858,408.739 420.291,406.486 420.674,404.235 421.005,401.985 421.284,399.736 421.513,397.487 421.691,395.24 421.818,392.993 421.894,390.746 421.919,388.5 421.894,386.254 421.818,384.007 421.691,381.76 421.513,379.513 421.284,377.264 421.005,375.015 420.674,372.765 420.291,370.514 419.858,368.261 419.372,366.006 418.835,363.75 418.246,361.492 417.604,359.231 416.909,356.968 416.161,354.703 415.36,352.435 414.505,350.164 413.596,347.89 412.632,345.613 411.613,343.332 410.538,341.048 409.407,338.76 408.22,336.468 406.975,334.171 405.673,331.871 404.312,329.566 402.892,327.256 401.412,324.941 399.872,322.622 398.27,320.297 396.606,317.967 394.88,315.631 393.089,313.289 391.234,310.942 389.314,308.588 387.327,306.229 385.272,303.862 383.149,301.489 380.956,299.11 378.692,296.723 " />
</g>

<g fill="none" stroke="#ff0000" stroke-opacity="1" stroke-width="4.16667" stroke-linecap="butt" stroke-linejoin="round" transform="matrix(0.719538,0,0,0.717448,-73.7118,-42.0261)"
font-family="Helvetica" font-size="13" font-weight="400" font-style="normal" 
>
<polyline fill="none" vector-effect="none" points="889.401,388.5 745.156,189.963 511.761,265.797 511.761,511.203 745.156,587.037 889.401,388.5 " />
</g>
</g>
</svg>
