<?xml version="1.0" encoding="UTF-8" standalone="no"?>
<svg width="220.839mm" height="171.45mm"
 viewBox="0 0 626 486"
 xmlns="http://www.w3.org/2000/svg" xmlns:xlink="http://www.w3.org/1999/xlink"  version="1.2" baseProfile="tiny">
<title>Qt SVG Document</title>
<desc>MATLAB, The MathWorks, Inc. Version 25.2.0.3150157 R2025b Update 4</desc>
<defs>
</defs>
<g fill="none" stroke="black" stroke-width="1" fill-rule="evenodd" stroke-linecap="square" stroke-linejoin="bevel" >

<g fill="#000000" fill-opacity="1" stroke="none" transform="matrix(0.719538,0,0,0.717448,-73.7118,-42.0261)"
font-family="Sans Serif" font-size="9" font-weight="400" font-style="normal" 
>
<path vector-effect="none" fill-rule="evenodd" d="M101,57 L973,57 L973,736 L101,736 L101,57"/>
</g>

<g fill="#121212" fill-opacity="1" stroke="none" transform="matrix(7.19538e-05,0,0,7.17448e-05,-73.7118,-42.0261)"
font-family="Sans Serif" font-size="9" font-weight="400" font-style="normal" 
>
<path vector-effect="none" fill-rule="evenodd" d="M1.39e+06,605843 L1.39e+06,7.16416e+06 L9.71e+06,7.16416e+06 L9.71e+06,605843 L1.39e+06,605843"/>
</g>

<g fill="#d9d9d9" fill-opacity="1" stroke="#d9d9d9" stroke-opacity="1" stroke-width="0.694444" stroke-linecap="square" stroke-linejoin="round" transform="matrix(0.719538,0,0,0.717448,-73.7118,-42.0261)"
font-family="Sans Serif" font-size="9" font-weight="400" font-style="normal" 
>
<polyline fill="none" vector-effect="none" points="139,716.416 971,716.416 " />
<polyline fill="none" vector-effect="none" points="240.815,716.416 240.815,708.096 " />
<polyline fill="none" vector-effect="none" points="347.893,716.416 347.893,708.096 " />
<polyline fill="none" vector-effect="none" points="454.971,716.416 454.971,708.096 " />
<polyline fill="none" vector-effect="none" points="562.049,716.416 562.049,708.096 " />
<polyline fill="none" vector-effect="none" points="669.127,716.416 669.127,708.096 " />
<polyline fill="none" vector-effect="none" points="776.205,716.416 776.205,708.096 " />
<polyline fill="none" vector-effect="none" points="883.283,716.416 883.283,708.096 " />
</g>

<g fill="#d9d9d9" fill-opacity="1" stroke="#d9d9d9" stroke-opacity="1" stroke-width="1" stroke-linecap="square" stroke-linejoin="bevel" transform="matrix(0.719538,0,0,0.717448,91.6488,484.56)"
font-family="Helvetica" font-size="13" font-weight="400" font-style="normal" 
>
<text fill="#d9d9d9" fill-opacity="1" stroke="none" xml:space="preserve" x="0" y="0" font-family="Helvetica" font-size="13" font-weight="400" font-style="normal" 
 >-0.2</text>
</g>

<g fill="#d9d9d9" fill-opacity="1" stroke="#d9d9d9" stroke-opacity="1" stroke-width="1" stroke-linecap="square" stroke-linejoin="bevel" transform="matrix(0.719538,0,0,0.717448,165.817,484.56)"
font-family="Helvetica" font-size="13" font-weight="400" font-style="normal" 
>
<text fill="#d9d9d9" fill-opacity="1" stroke="none" xml:space="preserve" x="0" y="0" font-family="Helvetica" font-size="13" font-weight="400" font-style="normal" 
 >-0.15</text>
</g>

<g fill="#d9d9d9" fill-opacity="1" stroke="#d9d9d9" stroke-opacity="1" stroke-width="1" stroke-linecap="square" stroke-linejoin="bevel" transform="matrix(0.719538,0,0,0.717448,245.742,484.56)"
font-family="Helvetica" font-size="13" font-weight="400" font-style="normal" 
>
<text fill="#d9d9d9" fill-opacity="1" stroke="none" xml:space="preserve" x="0" y="0" font-family="Helvetica" font-size="13" font-weight="400" font-style="normal" 
 >-0.1</text>
</g>

<g fill="#d9d9d9" fill-opacity="1" stroke="#d9d9d9" stroke-opacity="1" stroke-width="1" stroke-linecap="square" stroke-linejoin="bevel" transform="matrix(0.719538,0,0,0.717448,319.911,484.56)"
font-family="Helvetica" font-size="13" font-weight="400" font-style="normal" 
>
<text fill="#d9d9d9" fill-opacity="1" stroke="none" xml:space="preserve" x="0" y="0" font-family="Helvetica" font-size="13" font-weight="400" font-style="normal" 
 >-0.05</text>
</g>

<g fill="#d9d9d9" fill-opacity="1" stroke="#d9d9d9" stroke-opacity="1" stroke-width="1" stroke-linecap="square" stroke-linejoin="bevel" transform="matrix(0.719538,0,0,0.717448,405.232,484.56)"
font-family="Helvetica" font-size="13" font-weight="400" font-style="normal" 
>
<text fill="#d9d9d9" fill-opacity="1" stroke="none" xml:space="preserve" x="0" y="0" font-family="Helvetica" font-size="13" font-weight="400" font-style="normal" 
 >0</text>
</g>

<g fill="#d9d9d9" fill-opacity="1" stroke="#d9d9d9" stroke-opacity="1" stroke-width="1" stroke-linecap="square" stroke-linejoin="bevel" transform="matrix(0.719538,0,0,0.717448,475.803,484.56)"
font-family="Helvetica" font-size="13" font-weight="400" font-style="normal" 
>
<text fill="#d9d9d9" fill-opacity="1" stroke="none" xml:space="preserve" x="0" y="0" font-family="Helvetica" font-size="13" font-weight="400" font-style="normal" 
 >0.05</text>
</g>

<g fill="#d9d9d9" fill-opacity="1" stroke="#d9d9d9" stroke-opacity="1" stroke-width="1" stroke-linecap="square" stroke-linejoin="bevel" transform="matrix(0.719538,0,0,0.717448,555.368,484.56)"
font-family="Helvetica" font-size="13" font-weight="400" font-style="normal" 
>
<text fill="#d9d9d9" fill-opacity="1" stroke="none" xml:space="preserve" x="0" y="0" font-family="Helvetica" font-size="13" font-weight="400" font-style="normal" 
 >0.1</text>
</g>

<g fill="#d9d9d9" fill-opacity="1" stroke="#d9d9d9" stroke-opacity="1" stroke-width="0.694444" stroke-linecap="square" stroke-linejoin="round" transform="matrix(0.719538,0,0,0.717448,-73.7118,-42.0261)"
font-family="Helvetica" font-size="13" font-weight="400" font-style="normal" 
>
<polyline fill="none" vector-effect="none" points="139,716.416 139,60.5844 " />
<polyline fill="none" vector-effect="none" points="139,709.734 147.32,709.734 " />
<polyline fill="none" vector-effect="none" points="139,602.656 147.32,602.656 " />
<polyline fill="none" vector-effect="none" points="139,495.578 147.32,495.578 " />
<polyline fill="none" vector-effect="none" points="139,388.5 147.32,388.5 " />
<polyline fill="none" vector-effect="none" points="139,281.422 147.32,281.422 " />
<polyline fill="none" vector-effect="none" points="139,174.344 147.32,174.344 " />
<polyline fill="none" vector-effect="none" points="139,67.266 147.32,67.266 " />
</g>

<g fill="#d9d9d9" fill-opacity="1" stroke="#d9d9d9" stroke-opacity="1" stroke-width="1" stroke-linecap="square" stroke-linejoin="bevel" transform="matrix(0.719538,0,0,0.717448,0.720462,470.4)"
font-family="Helvetica" font-size="13" font-weight="400" font-style="normal" 
>
<text fill="#d9d9d9" fill-opacity="1" stroke="none" xml:space="preserve" x="0" y="0" font-family="Helvetica" font-size="13" font-weight="400" font-style="normal" 
 >-0.15</text>
</g>

<g fill="#d9d9d9" fill-opacity="1" stroke="#d9d9d9" stroke-opacity="1" stroke-width="1" stroke-linecap="square" stroke-linejoin="bevel" transform="matrix(0.719538,0,0,0.717448,6.47677,393.577)"
font-family="Helvetica" font-size="13" font-weight="400" font-style="normal" 
>
<text fill="#d9d9d9" fill-opacity="1" stroke="none" xml:space="preserve" x="0" y="0" font-family="Helvetica" font-size="13" font-weight="400" font-style="normal" 
 >-0.1</text>
</g>

<g fill="#d9d9d9" fill-opacity="1" stroke="#d9d9d9" stroke-opacity="1" stroke-width="1" stroke-linecap="square" stroke-linejoin="bevel" transform="matrix(0.719538,0,0,0.717448,0.720462,316.754)"
font-family="Helvetica" font-size="13" font-weight="400" font-style="normal" 
>
<text fill="#d9d9d9" fill-opacity="1" stroke="none" xml:space="preserve" x="0" y="0" font-family="Helvetica" font-size="13" font-weight="400" font-style="normal" 
 >-0.05</text>
</g>

<g fill="#d9d9d9" fill-opacity="1" stroke="#d9d9d9" stroke-opacity="1" stroke-width="1" stroke-linecap="square" stroke-linejoin="bevel" transform="matrix(0.719538,0,0,0.717448,17.2698,239.931)"
font-family="Helvetica" font-size="13" font-weight="400" font-style="normal" 
>
<text fill="#d9d9d9" fill-opacity="1" stroke="none" xml:space="preserve" x="0" y="0" font-family="Helvetica" font-size="13" font-weight="400" font-style="normal" 
 >0</text>
</g>

<g fill="#d9d9d9" fill-opacity="1" stroke="#d9d9d9" stroke-opacity="1" stroke-width="1" stroke-linecap="square" stroke-linejoin="bevel" transform="matrix(0.719538,0,0,0.717448,4.31815,163.108)"
font-family="Helvetica" font-size="13" font-weight="400" font-style="normal" 
>
<text fill="#d9d9d9" fill-opacity="1" stroke="none" xml:space="preserve" x="0" y="0" font-family="Helvetica" font-size="13" font-weight="400" font-style="normal" 
 >0.05</text>
</g>

<g fill="#d9d9d9" fill-opacity="1" stroke="#d9d9d9" stroke-opacity="1" stroke-width="1" stroke-linecap="square" stroke-linejoin="bevel" transform="matrix(0.719538,0,0,0.717448,9.35492,86.2851)"
font-family="Helvetica" font-size="13" font-weight="400" font-style="normal" 
>
<text fill="#d9d9d9" fill-opacity="1" stroke="none" xml:space="preserve" x="0" y="0" font-family="Helvetica" font-size="13" font-weight="400" font-style="normal" 
 >0.1</text>
</g>

<g fill="#d9d9d9" fill-opacity="1" stroke="#d9d9d9" stroke-opacity="1" stroke-width="1" stroke-linecap="square" stroke-linejoin="bevel" transform="matrix(0.719538,0,0,0.717448,4.31815,9.46225)"
font-family="Helvetica" font-size="13" font-weight="400" font-style="normal" 
>
<text fill="#d9d9d9" fill-opacity="1" stroke="none" xml:space="preserve" x="0" y="0" font-family="Helvetica" font-size="13" font-weight="400" font-style="normal" 
 >0.15</text>
</g>

<g fill="#2699d4" fill-opacity="0.14902" stroke="none" transform="matrix(7.19538e-05,0,0,7.17448e-05,-73.7118,-42.0261)"
font-family="Helvetica" font-size="13" font-weight="400" font-style="normal" 
>
<path vector-effect="none" fill-rule="evenodd" d="M9.71e+06,7.16416e+06 L9.71e+06,866268 L9.71e+06,605843 L1.39e+06,605843 L1.39e+06,7.16416e+06 L3.41211e+06,7.16416e+06 L9.71e+06,7.16416e+06"/>
</g>

<g fill="#75ab2e" fill-opacity="0.34902" stroke="none" transform="matrix(7.19538e-05,0,0,7.17448e-05,-73.7118,-42.0261)"
font-family="Helvetica" font-size="13" font-weight="400" font-style="normal" 
>
<path vector-effect="none" fill-rule="evenodd" d="M3.67e+06,3.22827e+06 L3.26749e+06,3.06295e+06 L3.11431e+06,3.1764e+06 L3.22417e+06,3.28226e+06 L3.02152e+06,3.36354e+06 L3.20455e+06,3.41453e+06 L3.28629e+06,3.4939e+06 L3.35911e+06,3.55653e+06 L3.4396e+06,3.60114e+06 L3.56952e+06,3.64304e+06 L3.70047e+06,3.72948e+06 L3.98148e+06,3.64547e+06 L3.80251e+06,3.72306e+06 L3.81669e+06,3.83442e+06 L4.27814e+06,3.83734e+06 L4.52166e+06,3.93647e+06 L4.55896e+06,3.96312e+06 L4.52036e+06,3.96221e+06 L4.44283e+06,3.93524e+06 L4.27891e+06,3.86117e+06 L3.91659e+06,3.864e+06 L3.81724e+06,3.92547e+06 L4.09485e+06,4.01985e+06 L4.36042e+06,3.95846e+06 L4.18376e+06,4.02403e+06 L4.06726e+06,4.15508e+06 L4.20392e+06,4.29216e+06 L4.26298e+06,4.54743e+06 L4.18268e+06,4.52991e+06 L4.0706e+06,4.56141e+06 L4.21706e+06,4.62646e+06 L4.24299e+06,4.72809e+06 L4.21756e+06,4.89315e+06 L3.94158e+06,4.86843e+06 L4.22427e+06,4.75577e+06 L4.16529e+06,4.70638e+06 L4.10342e+06,4.6582e+06 L3.8011e+06,4.78474e+06 L3.40919e+06,4.932e+06 L3.34019e+06,5.09517e+06 L3.374e+06,5.48372e+06 L3.37186e+06,5.68984e+06 L3.23136e+06,5.99777e+06 L3.42707e+06,6.17061e+06 L3.644e+06,6.1021e+06 L3.67784e+06,5.86312e+06 L4.08867e+06,6.01564e+06 L4.20613e+06,5.78836e+06 L4.11056e+06,5.72733e+06 L4.02696e+06,5.54728e+06 L3.96265e+06,5.55719e+06 L3.92132e+06,5.54406e+06 L3.92901e+06,5.43222e+06 L3.74525e+06,5.18105e+06 L3.80722e+06,5.12289e+06 L3.92301e+06,5.33265e+06 L4.06859e+06,5.40001e+06 L4.18729e+06,5.38187e+06 L3.99355e+06,5.52745e+06 L4.06463e+06,5.50984e+06 L4.23356e+06,5.54595e+06 L4.23087e+06,5.44182e+06 L4.2972e+06,5.465e+06 L4.33717e+06,5.43025e+06 L4.46706e+06,5.49477e+06 L4.33651e+06,5.48522e+06 L4.33438e+06,5.54166e+06 L4.39873e+06,5.57596e+06 L4.41309e+06,5.77644e+06 L4.31045e+06,5.78358e+06 L4.20566e+06,5.96064e+06 L4.13614e+06,5.96775e+06 L4.10079e+06,6.11179e+06 L3.88123e+06,6.2155e+06 L4.01427e+06,6.08897e+06 L3.8035e+06,5.9645e+06 L3.647e+06,6.20685e+06 L3.85451e+06,6.29513e+06 L3.70006e+06,6.49158e+06 L3.69117e+06,6.61366e+06 L3.66125e+06,6.8772e+06 L3.6147e+06,7.16416e+06 L4.15754e+06,7.16416e+06 L4.24213e+06,7.16416e+06 L4.28085e+06,7.16416e+06 L4.40891e+06,7.08209e+06 L4.4769e+06,6.86581e+06 L4.44757e+06,6.77465e+06 L4.62157e+06,6.6818e+06 L4.85072e+06,6.69268e+06 L5.11608e+06,6.49356e+06 L5.24794e+06,6.55162e+06 L5.25136e+06,6.27393e+06 L4.94542e+06,6.4269e+06 L4.74205e+06,6.52276e+06 L4.69716e+06,6.52036e+06 L4.69241e+06,6.465e+06 L4.89207e+06,6.31567e+06 L5.13407e+06,6.20432e+06 L5.28889e+06,6.21062e+06 L5.533e+06,6.18049e+06 L5.62293e+06,6.14704e+06 L5.58117e+06,6.08646e+06 L5.5394e+06,6.02738e+06 L5.46647e+06,6.02848e+06 L5.39288e+06,6.02869e+06 L5.33521e+06,5.99902e+06 L5.42487e+06,5.97049e+06 L5.39845e+06,5.88601e+06 L5.39943e+06,5.68737e+06 L5.35708e+06,5.7005e+06 L5.30989e+06,5.52947e+06 L5.249e+06,5.44896e+06 L5.34292e+06,5.40272e+06 L5.43386e+06,5.35523e+06 L5.47793e+06,5.19188e+06 L5.60663e+06,5.10916e+06 L5.70508e+06,5.08859e+06 L5.74269e+06,5.14719e+06 L5.70786e+06,5.23695e+06 L5.57369e+06,5.40409e+06 L5.54426e+06,5.56375e+06 L5.47085e+06,5.7505e+06 L5.48519e+06,5.85744e+06 L5.65467e+06,5.86556e+06 L5.78691e+06,5.72155e+06 L5.88144e+06,5.57095e+06 L5.88691e+06,5.39942e+06 L5.99416e+06,5.43427e+06 L6.17194e+06,5.61312e+06 L6.07848e+06,5.70592e+06 L6.09087e+06,5.84395e+06 L5.91122e+06,6.13192e+06 L5.76481e+06,6.30404e+06 L5.7578e+06,6.47903e+06 L5.84296e+06,6.62503e+06 L5.56296e+06,6.88308e+06 L5.26922e+06,7.16416e+06 L5.80475e+06,7.16416e+06 L6.20293e+06,7.16416e+06 L8.19913e+06,7.16416e+06 L9.71e+06,7.16416e+06 L9.71e+06,6.76186e+06 L9.71e+06,6.50239e+06 L9.44754e+06,6.18251e+06 L9.22025e+06,6.03316e+06 L8.8502e+06,6.01558e+06 L8.51994e+06,6.08521e+06 L8.35135e+06,5.87618e+06 L8.05071e+06,5.64713e+06 L7.92511e+06,5.47796e+06 L7.80383e+06,5.25673e+06 L7.52001e+06,5.02224e+06 L7.46811e+06,4.95658e+06 L7.36144e+06,4.91088e+06 L7.44248e+06,5.30153e+06 L7.28916e+06,5.38802e+06 L7.12557e+06,5.53363e+06 L6.97661e+06,5.55511e+06 L6.81575e+06,5.63539e+06 L6.51385e+06,5.667e+06 L6.18779e+06,5.74694e+06 L6.32448e+06,5.60318e+06 L6.54395e+06,5.55027e+06 L6.6246e+06,5.45288e+06 L6.85059e+06,5.45679e+06 L7.15013e+06,5.35356e+06 L7.26771e+06,5.32164e+06 L7.27404e+06,5.26314e+06 L7.19508e+06,4.96353e+06 L7.15324e+06,4.84979e+06 L7.11606e+06,4.69033e+06 L6.97864e+06,4.52644e+06 L6.86386e+06,4.42092e+06 L6.72404e+06,4.59005e+06 L6.67517e+06,4.58378e+06 L6.71848e+06,4.63597e+06 L6.74915e+06,4.78401e+06 L6.63494e+06,4.86232e+06 L6.4172e+06,4.91863e+06 L6.4356e+06,4.8263e+06 L6.55105e+06,4.75177e+06 L6.66946e+06,4.62927e+06 L6.62634e+06,4.57752e+06 L6.6805e+06,4.53861e+06 L6.74982e+06,4.32058e+06 L6.76017e+06,4.14513e+06 L6.83515e+06,4.06041e+06 L6.90815e+06,4.01817e+06 L6.95696e+06,3.9745e+06 L6.98148e+06,3.92993e+06 L6.95752e+06,3.885e+06 L6.83744e+06,3.8412e+06 L7.00562e+06,3.83988e+06 L7.25003e+06,3.79092e+06 L7.40047e+06,3.74029e+06 L7.50285e+06,3.68871e+06 L7.60745e+06,3.63532e+06 L7.49946e+06,3.50567e+06 L7.39617e+06,3.52172e+06 L7.29373e+06,3.50363e+06 L7.19359e+06,3.50993e+06 L7.08751e+06,3.37546e+06 L7.03176e+06,3.28557e+06 L6.97864e+06,3.24356e+06 L6.92515e+06,3.20207e+06 L6.82204e+06,3.16739e+06 L6.85495e+06,3.01821e+06 L6.80212e+06,3.00193e+06 L6.94313e+06,2.90355e+06 L7.08771e+06,2.79917e+06 L7.14268e+06,2.81594e+06 L7.13693e+06,2.76292e+06 L7.07162e+06,2.66596e+06 L7.17461e+06,2.6161e+06 L7.3352e+06,2.55246e+06 L7.5622e+06,2.50295e+06 L7.61722e+06,2.42866e+06 L7.7351e+06,2.33722e+06 L7.988e+06,1.99536e+06 L7.85389e+06,2.06861e+06 L7.66487e+06,2.18882e+06 L7.49529e+06,2.39424e+06 L7.44248e+06,2.46847e+06 L7.21237e+06,2.46152e+06 L7.20532e+06,2.40276e+06 L7.26107e+06,2.38894e+06 L7.36187e+06,2.23621e+06 L7.40774e+06,2.08968e+06 L7.49869e+06,2.06326e+06 L7.39376e+06,1.95361e+06 L7.31641e+06,1.83254e+06 L7.25525e+06,1.85315e+06 L7.08166e+06,1.94725e+06 L6.9493e+06,2.0593e+06 L7.40369e+06,2.04944e+06 L6.8279e+06,2.19519e+06 L6.76076e+06,2.15184e+06 L6.66361e+06,1.98509e+06 L6.77728e+06,1.98003e+06 L6.76137e+06,1.88039e+06 L6.70455e+06,1.90097e+06 L6.61509e+06,1.78996e+06 L6.54994e+06,1.66474e+06 L6.42182e+06,1.56136e+06 L6.3171e+06,1.44343e+06 L6.23284e+06,1.39821e+06 L6.1171e+06,1.36873e+06 L5.86287e+06,1.36048e+06 L5.7381e+06,1.56371e+06 L5.74022e+06,1.72009e+06 L5.65376e+06,1.68582e+06 L5.4992e+06,1.52507e+06 L5.5301e+06,1.7246e+06 L5.59658e+06,1.71422e+06 L5.62652e+06,1.91703e+06 L5.54197e+06,1.88627e+06 L5.42487e+06,1.79951e+06 L5.2668e+06,1.65343e+06 L5.47521e+06,1.62031e+06 L5.32495e+06,1.62131e+06 L5.21227e+06,1.43131e+06 L5.3686e+06,1.42649e+06 L5.34914e+06,1.25161e+06 L5.56691e+06,1.21302e+06 L5.46821e+06,1.17557e+06 L5.38446e+06,1.02129e+06 L5.26408e+06,1.10419e+06 L5.15057e+06,1.33129e+06 L4.91962e+06,1.24152e+06 L4.73125e+06,1.16986e+06 L4.65353e+06,1.00216e+06 L4.29047e+06,806887 L3.97805e+06,838794 L3.79162e+06,895989 L3.6054e+06,961428 L3.62179e+06,1.09385e+06 L3.70006e+06,1.27842e+06 L3.88123e+06,1.5545e+06 L3.40444e+06,1.47372e+06 L3.14718e+06,1.38979e+06 L2.76476e+06,1.12499e+06 L2.40548e+06,893559 L2.17187e+06,875210 L2.0098e+06,1.03026e+06 L1.47048e+06,754246 L1.48049e+06,626134 L1.39e+06,631969 L1.39e+06,738768 L1.39e+06,842302 L1.39e+06,1.59793e+06 L1.40428e+06,1.60206e+06 L1.39e+06,1.78498e+06 L1.39e+06,1.83296e+06 L1.89041e+06,2.00904e+06 L2.00935e+06,2.23689e+06 L2.27306e+06,2.35341e+06 L2.49921e+06,2.47572e+06 L2.56347e+06,2.40458e+06 L2.86267e+06,2.56456e+06 L3.05252e+06,2.57779e+06 L2.90063e+06,2.73178e+06 L2.97027e+06,2.84983e+06 L3.17224e+06,2.9837e+06 L3.39427e+06,3.05682e+06 L3.67e+06,3.22827e+06"/>
</g>

<g fill="#75ab2e" fill-opacity="0.34902" stroke="none" transform="matrix(7.19538e-05,0,0,7.17448e-05,-73.7118,-42.0261)"
font-family="Helvetica" font-size="13" font-weight="400" font-style="normal" 
>
<path vector-effect="none" fill-rule="evenodd" d="M5.16165e+06,7.16416e+06 L5.03353e+06,6.95688e+06 L4.92087e+06,7.16416e+06 L5.16165e+06,7.16416e+06"/>
</g>

<g fill="none" stroke="#1a330d" stroke-opacity="1" stroke-width="0.486111" stroke-linecap="square" stroke-linejoin="miter" stroke-miterlimit="5" transform="matrix(0.719538,0,0,0.717448,-73.7118,-42.0261)"
font-family="Helvetica" font-size="13" font-weight="400" font-style="normal" 
>
<polyline fill="none" vector-effect="none" points="361.47,716.416 366.125,687.72 369.117,661.366 370.006,649.158 385.451,629.513 364.7,620.685 380.35,596.45 401.427,608.897 388.123,621.55 410.079,611.179 413.614,596.775 420.566,596.064 431.045,578.358 441.309,577.644 439.873,557.596 433.438,554.166 433.651,548.522 446.706,549.477 433.717,543.025 429.72,546.5 423.087,544.182 423.356,554.595 406.463,550.984 399.355,552.745 418.729,538.187 406.859,540 392.301,533.265 380.722,512.289 374.525,518.105 392.901,543.222 392.132,554.406 396.265,555.719 402.696,554.728 411.056,572.732 420.613,578.836 408.867,601.564 367.784,586.312 364.4,610.21 342.707,617.061 323.136,599.777 337.186,568.984 337.4,548.372 334.019,509.517 340.919,493.2 380.11,478.474 410.342,465.82 416.529,470.638 422.427,475.576 394.158,486.843 421.756,489.315 424.299,472.809 421.706,462.646 407.06,456.141 418.268,452.991 426.298,454.742 420.392,429.216 406.726,415.508 418.376,402.403 436.042,395.846 409.485,401.985 381.724,392.547 391.659,386.4 427.891,386.117 444.283,393.524 452.036,396.221 455.896,396.312 452.166,393.647 427.814,383.733 381.669,383.441 380.251,372.306 398.148,364.547 370.047,372.948 356.952,364.304 343.96,360.114 335.911,355.653 328.629,349.39 320.455,341.453 302.152,336.354 322.417,328.226 311.431,317.64 326.749,306.295 367,322.827 339.427,305.682 317.224,298.37 297.027,284.983 290.063,273.178 305.252,257.779 286.267,256.456 256.347,240.458 249.921,247.572 227.306,235.341 200.935,223.689 189.04,200.904 139,183.296 " />
<polyline fill="none" vector-effect="none" points="139,178.498 140.428,160.206 139,159.793 " />
<polyline fill="none" vector-effect="none" points="139,63.1969 148.049,62.6134 147.048,75.4246 200.98,103.026 217.187,87.521 240.548,89.356 276.476,112.499 314.718,138.979 340.444,147.372 388.123,155.45 370.006,127.842 362.179,109.385 360.54,96.1428 379.162,89.5989 397.805,83.8795 429.047,80.6887 465.353,100.216 473.124,116.986 491.962,124.152 515.057,133.129 526.408,110.419 538.446,102.129 546.82,117.557 556.691,121.302 534.914,125.161 536.86,142.649 521.227,143.131 532.495,162.131 547.521,162.031 526.68,165.343 542.487,179.951 554.197,188.627 562.652,191.703 559.658,171.422 553.01,172.46 549.92,152.507 565.376,168.582 574.022,172.009 573.81,156.371 586.287,136.048 611.71,136.873 623.284,139.821 631.71,144.343 642.182,156.136 654.994,166.474 661.509,178.996 670.455,190.097 676.137,188.039 677.728,198.003 666.361,198.509 676.076,215.184 682.79,219.519 740.369,204.944 694.93,205.93 708.166,194.725 725.525,185.315 731.641,183.254 739.376,195.361 749.869,206.326 740.774,208.968 736.187,223.621 726.107,238.894 720.532,240.276 721.237,246.152 744.248,246.847 749.529,239.424 766.487,218.882 785.389,206.861 798.8,199.536 773.51,233.722 761.722,242.866 756.22,250.295 733.52,255.246 717.461,261.61 707.162,266.596 713.693,276.292 714.268,281.594 708.771,279.917 694.313,290.355 680.212,300.193 685.495,301.821 682.204,316.739 692.515,320.207 697.864,324.356 703.175,328.557 708.751,337.546 719.359,350.993 729.373,350.363 739.617,352.172 749.946,350.567 760.745,363.532 750.285,368.871 740.047,374.029 725.003,379.092 700.562,383.988 683.744,384.12 695.752,388.5 698.148,392.993 695.696,397.45 690.815,401.817 683.515,406.041 676.017,414.513 674.982,432.058 668.05,453.861 662.634,457.752 666.946,462.927 655.104,475.177 643.56,482.63 641.72,491.863 663.494,486.232 674.915,478.401 671.848,463.597 667.517,458.378 672.404,459.005 686.386,442.092 697.864,452.644 711.606,469.033 715.324,484.979 719.508,496.353 727.404,526.314 726.771,532.164 715.013,535.356 685.059,545.679 662.46,545.288 654.395,555.027 632.448,560.318 618.779,574.694 651.385,566.7 681.575,563.539 697.661,555.511 712.557,553.363 728.916,538.802 744.248,530.153 736.144,491.088 746.811,495.658 752.001,502.224 780.383,525.673 792.511,547.796 805.071,564.713 835.135,587.618 851.994,608.521 885.02,601.558 922.025,603.316 944.753,618.251 971,650.239 " />
<polyline fill="none" vector-effect="none" points="492.087,716.416 503.353,695.688 516.165,716.416 " />
<polyline fill="none" vector-effect="none" points="526.922,716.416 556.296,688.308 584.296,662.503 575.78,647.903 576.481,630.404 591.122,613.192 609.087,584.395 607.848,570.592 617.194,561.312 599.416,543.427 588.69,539.942 588.144,557.095 578.691,572.155 565.467,586.556 548.519,585.744 547.085,575.05 554.425,556.375 557.369,540.409 570.786,523.695 574.269,514.719 570.508,508.859 560.663,510.916 547.793,519.188 543.386,535.523 534.292,540.272 524.9,544.896 530.989,552.947 535.708,570.05 539.943,568.737 539.845,588.601 542.487,597.049 533.521,599.902 539.288,602.869 546.647,602.848 553.94,602.738 558.117,608.646 562.293,614.704 553.3,618.049 528.889,621.062 513.407,620.432 489.207,631.567 469.241,646.5 469.716,652.036 474.205,652.276 494.542,642.69 525.135,627.393 524.794,655.162 511.608,649.356 485.072,669.268 462.157,668.18 444.757,677.465 447.69,686.581 440.891,708.209 428.085,716.416 " />
</g>

<g fill="none" stroke="#000000" stroke-opacity="1" stroke-width="0.694444" stroke-linecap="butt" stroke-linejoin="round" transform="matrix(0.719538,0,0,0.717448,-73.7118,-42.0261)"
font-family="Helvetica" font-size="13" font-weight="400" font-style="normal" 
>
<polyline fill="none" vector-effect="none" points="936.948,716.416 931.389,714.177 919.762,709.495 908.546,704.979 897.715,700.618 887.242,696.4 877.103,692.318 867.278,688.361 857.745,684.523 848.487,680.795 839.487,677.171 830.728,673.644 822.196,670.208 813.877,666.858 805.759,663.589 797.829,660.396 790.076,657.274 782.49,654.22 775.062,651.228 767.781,648.297 760.639,645.421 753.628,642.598 746.741,639.824 739.97,637.098 733.307,634.415 726.747,631.773 720.283,629.17 713.91,626.604 707.62,624.072 701.41,621.571 695.274,619.1 689.207,616.657 683.204,614.24 677.261,611.847 671.373,609.475 665.535,607.125 659.744,604.793 653.996,602.478 648.286,600.179 642.611,597.894 636.967,595.621 631.351,593.36 625.758,591.108 620.185,588.864 614.63,586.627 609.087,584.395 603.555,582.167 598.029,579.942 592.506,577.718 586.983,575.494 581.456,573.269 575.923,571.04 570.379,568.808 564.821,566.57 559.246,564.325 553.651,562.072 548.031,559.809 542.383,557.535 536.703,555.248 530.989,552.947 525.235,550.63 519.438,548.295 513.594,545.942 507.698,543.568 501.747,541.172 495.736,538.751 489.66,536.305 483.514,533.83 477.294,531.325 470.994,528.788 464.609,526.217 458.133,523.609 451.559,520.962 444.883,518.274 438.096,515.541 431.193,512.761 424.165,509.931 417.005,507.048 409.705,504.109 402.256,501.109 394.649,498.046 386.873,494.915 378.919,491.712 370.774,488.432 362.428,485.072 " />
<polyline fill="none" vector-effect="none" points="971,625.585 967.643,624.647 955.98,621.388 944.753,618.251 933.933,615.227 923.49,612.309 913.4,609.489 903.639,606.761 894.186,604.12 885.02,601.558 876.124,599.072 867.48,596.657 859.074,594.307 850.889,592.02 842.914,589.792 835.135,587.618 827.541,585.495 820.12,583.422 812.862,581.394 805.759,579.409 798.8,577.464 791.977,575.557 785.282,573.686 778.709,571.849 772.248,570.044 765.895,568.269 759.642,566.521 753.483,564.8 747.413,563.104 741.425,561.431 735.516,559.779 729.679,558.148 723.91,556.536 718.204,554.941 712.557,553.363 706.965,551.801 701.423,550.252 695.927,548.716 690.474,547.192 685.059,545.679 679.679,544.176 674.331,542.681 669.011,541.194 663.715,539.714 658.44,538.24 653.183,536.771 647.941,535.306 642.71,533.844 637.487,532.385 632.268,530.927 627.052,529.469 621.833,528.01 616.61,526.551 611.38,525.089 606.138,523.624 600.882,522.156 595.608,520.682 590.313,519.202 584.994,517.716 579.647,516.221 574.269,514.719 568.856,513.206 563.405,511.683 557.911,510.147 552.371,508.599 546.781,507.037 541.137,505.46 535.434,503.866 529.668,502.255 523.834,500.625 517.928,498.974 511.945,497.302 505.878,495.607 499.724,493.887 493.475,492.141 487.126,490.367 480.671,488.563 474.103,486.727 467.414,484.858 460.597,482.953 453.645,481.01 446.548,479.027 439.298,477.001 431.885,474.929 424.299,472.809 416.529,470.638 408.563,468.412 400.388,466.128 391.992,463.781 383.36,461.369 " />
<polyline fill="none" vector-effect="none" points="971,541.794 961.536,540.084 950.891,538.16 940.627,536.306 930.72,534.516 921.145,532.786 911.881,531.112 902.906,529.49 894.203,527.918 885.755,526.391 877.544,524.908 869.557,523.465 861.78,522.059 854.201,520.69 846.806,519.354 839.586,518.049 832.53,516.774 825.627,515.527 818.871,514.306 812.25,513.11 805.759,511.937 799.388,510.786 793.131,509.656 786.982,508.544 780.933,507.451 774.98,506.376 769.115,505.316 763.333,504.271 757.63,503.241 752.001,502.224 746.439,501.219 740.942,500.226 735.505,499.243 730.122,498.271 724.791,497.307 719.508,496.353 714.268,495.406 709.068,494.466 703.904,493.533 698.772,492.606 693.671,491.684 688.595,490.767 683.542,489.854 678.508,488.945 673.491,488.038 668.487,487.134 663.494,486.232 658.507,485.331 653.525,484.431 648.543,483.53 643.56,482.63 638.571,481.729 633.575,480.826 628.567,479.921 623.545,479.014 618.505,478.103 613.445,477.189 608.362,476.27 603.25,475.347 598.109,474.418 592.934,473.482 587.721,472.541 582.467,471.591 577.168,470.634 571.821,469.668 566.421,468.692 560.964,467.706 555.447,466.709 549.864,465.7 544.211,464.679 538.483,463.644 532.674,462.595 526.781,461.53 520.797,460.448 514.716,459.35 508.532,458.232 502.239,457.095 495.83,455.937 489.297,454.757 482.633,453.553 475.83,452.323 468.878,451.067 461.769,449.783 454.493,448.468 447.04,447.121 439.397,445.74 431.552,444.323 423.494,442.867 415.207,441.37 406.677,439.829 397.888,438.24 " />
<polyline fill="none" vector-effect="none" points="961.914,468.284 951.686,467.311 941.823,466.374 932.299,465.468 923.091,464.593 914.179,463.746 905.544,462.925 897.168,462.129 889.034,461.356 881.127,460.604 873.434,459.873 865.94,459.161 858.636,458.466 851.508,457.789 844.546,457.127 837.741,456.48 831.083,455.847 824.564,455.227 818.175,454.62 811.909,454.024 805.759,453.44 799.717,452.865 793.778,452.301 787.935,451.745 782.182,451.199 776.515,450.66 770.927,450.129 765.413,449.605 759.97,449.087 754.592,448.576 749.275,448.07 744.014,447.57 738.806,447.075 733.647,446.585 728.533,446.099 723.46,445.617 718.425,445.138 713.424,444.663 708.455,444.19 703.512,443.72 698.595,443.253 693.698,442.787 688.82,442.324 683.956,441.861 679.105,441.4 674.263,440.94 669.427,440.48 664.594,440.021 659.762,439.561 654.926,439.102 650.085,438.642 645.236,438.181 640.374,437.719 635.498,437.255 630.605,436.79 625.69,436.323 620.752,435.853 615.786,435.381 610.79,434.906 605.761,434.428 600.694,433.947 595.586,433.461 590.434,432.971 585.234,432.477 579.981,431.978 574.673,431.473 569.304,430.963 563.871,430.446 558.368,429.923 552.792,429.393 547.136,428.856 541.397,428.31 535.568,427.756 529.643,427.193 523.617,426.62 517.484,426.037 511.236,425.443 504.866,424.837 498.366,424.22 491.73,423.589 484.947,422.944 478.01,422.284 470.907,421.609 463.629,420.918 456.165,420.208 448.503,419.48 440.629,418.731 432.53,417.961 424.191,417.169 415.595,416.351 406.726,415.508 " />
<polyline fill="none" vector-effect="none" points="957.855,401.544 947.939,401.389 938.369,401.24 929.123,401.095 920.179,400.956 911.518,400.821 903.121,400.689 894.971,400.562 887.053,400.438 879.352,400.318 871.856,400.201 864.551,400.087 857.427,399.976 850.472,399.867 843.676,399.761 837.03,399.657 830.525,399.556 824.153,399.456 817.906,399.359 811.777,399.263 805.759,399.169 799.844,399.077 794.028,398.986 788.304,398.896 782.666,398.808 777.11,398.721 771.63,398.636 766.221,398.551 760.879,398.468 755.599,398.386 750.378,398.304 745.21,398.223 740.093,398.143 735.021,398.064 729.993,397.986 725.003,397.908 720.049,397.83 715.127,397.754 710.234,397.677 705.366,397.601 700.522,397.525 695.696,397.45 690.887,397.375 686.092,397.3 681.307,397.225 676.529,397.151 671.756,397.076 666.985,397.002 662.213,396.927 657.436,396.853 652.653,396.778 647.859,396.703 643.052,396.628 638.23,396.553 633.388,396.477 628.525,396.401 623.636,396.325 618.719,396.248 613.77,396.171 608.786,396.093 603.764,396.014 598.699,395.935 593.589,395.855 588.43,395.775 583.217,395.693 577.947,395.611 572.615,395.528 567.217,395.444 561.749,395.358 556.205,395.272 550.58,395.184 544.87,395.095 539.069,395.004 533.171,394.912 527.169,394.818 521.058,394.723 514.83,394.625 508.478,394.526 501.995,394.425 495.372,394.322 488.601,394.216 481.671,394.108 474.574,393.997 467.299,393.883 459.834,393.767 452.166,393.647 444.283,393.524 436.171,393.397 427.814,393.267 419.196,393.132 410.298,392.993 " />
<polyline fill="none" vector-effect="none" points="959.572,335.895 949.524,336.526 939.831,337.136 930.467,337.724 921.412,338.293 912.645,338.844 904.147,339.378 895.901,339.897 887.892,340.4 880.104,340.89 872.524,341.366 865.14,341.83 857.939,342.283 850.911,342.724 844.045,343.156 837.331,343.578 830.762,343.991 824.327,344.395 818.02,344.792 811.833,345.181 805.759,345.562 799.79,345.937 793.922,346.306 788.147,346.669 782.461,347.027 776.857,347.379 771.331,347.726 765.878,348.069 760.493,348.407 755.172,348.742 749.909,349.073 744.702,349.4 739.546,349.724 734.438,350.045 729.373,350.363 724.348,350.679 719.359,350.993 714.403,351.304 709.478,351.614 704.578,351.922 699.703,352.228 694.847,352.533 690.008,352.837 685.184,353.141 680.371,353.443 675.566,353.745 670.766,354.047 665.968,354.348 661.17,354.65 656.369,354.952 651.56,355.254 646.743,355.557 641.913,355.86 637.068,356.165 632.204,356.471 627.319,356.778 622.409,357.086 617.471,357.397 612.502,357.709 607.498,358.023 602.457,358.34 597.374,358.66 592.246,358.982 587.069,359.307 581.839,359.636 576.552,359.968 571.205,360.304 565.792,360.645 560.308,360.989 554.75,361.339 549.113,361.693 543.39,362.053 537.577,362.418 531.667,362.789 525.655,363.167 519.534,363.552 513.297,363.944 506.938,364.344 500.447,364.752 493.818,365.168 487.042,365.594 480.109,366.03 473.009,366.476 465.733,366.934 458.268,367.403 450.602,367.885 442.723,368.38 434.616,368.889 426.267,369.414 417.658,369.955 408.772,370.514 " />
<polyline fill="none" vector-effect="none" points="967.414,265.741 956.762,267.289 946.497,268.781 936.594,270.22 927.027,271.61 917.774,272.954 908.815,274.256 900.131,275.518 891.704,276.743 883.518,277.932 875.558,279.089 867.811,280.215 860.262,281.312 852.901,282.381 845.716,283.425 838.696,284.445 831.832,285.443 825.115,286.419 818.535,287.375 812.086,288.312 805.759,289.231 799.547,290.134 793.443,291.021 787.441,291.893 781.534,292.751 775.718,293.596 769.986,294.429 764.334,295.251 758.755,296.061 753.246,296.862 747.802,297.653 742.418,298.435 737.091,299.209 731.815,299.976 726.588,300.736 721.405,301.489 716.263,302.236 711.159,302.978 706.087,303.714 701.046,304.447 696.032,305.176 691.042,305.901 686.072,306.623 681.12,307.342 676.182,308.06 671.255,308.776 666.336,309.491 661.423,310.205 656.511,310.918 651.599,311.632 646.683,312.346 641.761,313.062 636.828,313.778 631.883,314.497 626.921,315.218 621.941,315.942 616.938,316.669 611.91,317.399 606.854,318.134 601.765,318.873 596.641,319.618 591.477,320.368 586.271,321.125 581.018,321.888 575.716,322.659 570.359,323.437 564.943,324.224 559.465,325.02 553.919,325.826 548.302,326.642 542.607,327.47 536.831,328.309 530.967,329.161 525.01,330.027 518.955,330.906 512.794,331.802 506.521,332.713 500.129,333.642 493.611,334.589 486.959,335.556 480.164,336.543 473.218,337.552 466.111,338.585 458.833,339.643 451.373,340.727 443.719,341.839 435.86,342.981 427.781,344.155 419.467,345.363 410.905,346.607 402.076,347.89 " />
<polyline fill="none" vector-effect="none" points="971,186.761 959.801,189.424 948.799,192.04 938.195,194.562 927.96,196.995 918.072,199.347 908.506,201.621 899.241,203.824 890.258,205.96 881.54,208.034 873.069,210.048 864.83,212.007 856.809,213.914 848.993,215.773 841.369,217.586 833.926,219.356 826.653,221.085 819.541,222.776 812.579,224.432 805.759,226.053 799.072,227.643 792.511,229.204 786.068,230.736 779.737,232.241 773.51,233.722 767.382,235.179 761.346,236.614 755.397,238.029 749.529,239.424 743.737,240.801 738.017,242.162 732.363,243.506 726.771,244.836 721.237,246.152 715.756,247.455 710.324,248.747 704.938,250.027 699.594,251.298 694.287,252.56 689.015,253.814 683.773,255.06 678.559,256.3 673.369,257.534 668.199,258.764 663.047,259.989 657.909,261.21 652.782,262.43 647.663,263.647 642.549,264.863 637.436,266.079 632.322,267.295 627.203,268.512 622.077,269.731 616.939,270.952 611.788,272.177 606.619,273.407 601.43,274.64 596.217,275.88 590.976,277.126 585.705,278.379 580.4,279.641 575.058,280.911 569.673,282.192 564.244,283.483 558.765,284.786 553.233,286.101 547.644,287.43 541.993,288.774 536.276,290.133 530.487,291.51 524.623,292.904 518.678,294.318 512.646,295.752 506.522,297.208 500.299,298.688 493.973,300.192 487.535,301.723 480.98,303.282 474.299,304.871 467.485,306.491 460.529,308.145 453.424,309.835 446.158,311.562 438.723,313.33 431.108,315.141 423.3,316.997 415.289,318.903 407.06,320.859 398.6,322.871 389.892,324.941 " />
<polyline fill="none" vector-effect="none" points="971,92.0679 970.18,92.3545 957.699,96.7154 945.699,100.908 934.146,104.945 923.009,108.836 912.259,112.592 901.871,116.222 891.82,119.734 882.084,123.135 872.643,126.434 863.479,129.636 854.574,132.748 845.911,135.774 837.477,138.721 829.257,141.593 821.239,144.395 813.41,147.13 805.759,149.804 798.275,152.418 790.95,154.978 783.773,157.486 776.735,159.944 769.829,162.357 763.047,164.727 756.382,167.056 749.826,169.347 743.373,171.601 737.017,173.822 730.752,176.011 724.571,178.171 718.471,180.302 712.445,182.408 706.488,184.489 700.597,186.547 694.765,188.585 688.989,190.603 683.265,192.603 677.588,194.587 671.955,196.555 666.361,198.509 660.803,200.451 655.277,202.382 649.779,204.303 644.306,206.215 638.855,208.12 633.421,210.019 628.002,211.912 622.594,213.802 617.194,215.688 611.799,217.574 606.405,219.458 601.009,221.344 595.607,223.231 590.198,225.121 584.776,227.015 579.339,228.915 573.883,230.821 568.405,232.735 562.902,234.658 557.369,236.591 551.804,238.536 546.202,240.493 540.56,242.465 534.874,244.451 529.139,246.455 523.352,248.477 517.508,250.519 511.603,252.582 505.633,254.668 499.592,256.779 493.475,258.916 487.277,261.082 480.993,263.277 474.617,265.505 468.144,267.767 461.565,270.065 454.876,272.403 448.069,274.781 441.136,277.203 434.071,279.672 426.863,282.19 419.505,284.761 411.988,287.388 404.301,290.074 396.433,292.823 388.373,295.639 380.11,298.526 371.629,301.489 " />
<polyline fill="none" vector-effect="none" points="782.815,60.5844 780.014,61.9755 771.835,66.0378 763.838,70.0098 756.012,73.8968 748.347,77.7039 740.833,81.4357 733.463,85.0966 726.226,88.6909 719.116,92.2224 712.124,95.6949 705.245,99.1119 698.47,102.477 691.794,105.793 685.21,109.063 678.713,112.29 672.297,115.477 665.956,118.626 659.686,121.74 653.482,124.822 647.338,127.873 641.251,130.896 635.216,133.894 629.228,136.868 623.284,139.821 617.379,142.753 611.509,145.669 605.671,148.569 599.86,151.454 594.074,154.328 588.308,157.192 582.559,160.048 576.823,162.897 571.096,165.741 565.376,168.582 559.658,171.422 553.94,174.262 548.217,177.104 542.487,179.951 536.745,182.802 530.989,185.662 525.214,188.53 519.417,191.409 513.594,194.301 507.742,197.208 501.856,200.131 495.933,203.073 489.969,206.035 483.96,209.02 477.901,212.029 471.788,215.065 465.617,218.13 459.383,221.227 453.081,224.357 446.706,227.523 440.253,230.728 433.717,233.975 427.091,237.266 420.37,240.604 413.548,243.993 406.617,247.435 399.572,250.934 392.404,254.494 385.106,258.119 377.67,261.812 370.088,265.578 362.35,269.422 354.446,273.347 346.366,277.361 " />
<polyline fill="none" vector-effect="none" points="971,533.167 969.839,526.407 968.587,518.772 967.414,511.259 966.319,503.859 965.297,496.564 964.348,489.367 963.469,482.259 962.658,475.234 961.914,468.284 961.234,461.402 960.618,454.583 960.064,447.819 959.572,441.105 959.14,434.435 958.767,427.803 958.452,421.204 958.196,414.631 957.997,408.08 957.855,401.544 957.77,395.019 957.742,388.5 957.77,381.981 957.855,375.456 957.997,368.92 958.196,362.369 958.452,355.796 958.767,349.197 959.14,342.565 959.572,335.895 960.064,329.181 960.618,322.417 961.234,315.598 961.914,308.716 962.658,301.766 963.469,294.741 964.348,287.633 965.297,280.436 966.319,273.141 967.414,265.741 968.587,258.228 969.839,250.593 971,243.833 " />
<polyline fill="none" vector-effect="none" points="897.715,700.618 896.119,689.211 894.609,678.201 893.177,667.561 891.82,657.266 890.533,647.293 889.312,637.62 888.153,628.227 887.054,619.097 886.011,610.212 885.02,601.558 884.08,593.12 883.188,584.883 882.342,576.836 881.54,568.966 880.779,561.264 880.058,553.717 879.376,546.317 878.73,539.055 878.12,531.921 877.544,524.908 877.001,518.007 876.49,511.212 876.009,504.516 875.558,497.911 875.136,491.392 874.742,484.952 874.376,478.586 874.036,472.287 873.722,466.051 873.434,459.873 873.17,453.747 872.931,447.668 872.716,441.632 872.524,435.634 872.356,429.67 872.211,423.735 872.089,417.825 871.989,411.935 871.911,406.062 871.856,400.201 871.823,394.349 871.812,388.5 871.823,382.651 871.856,376.799 871.911,370.938 871.989,365.065 872.089,359.175 872.211,353.265 872.356,347.33 872.524,341.366 872.716,335.368 872.931,329.332 873.17,323.253 873.434,317.127 873.722,310.949 874.036,304.713 874.376,298.414 874.742,292.048 875.136,285.608 875.558,279.089 876.009,272.484 876.49,265.788 877.001,258.993 877.544,252.092 878.12,245.079 878.73,237.945 879.376,230.683 880.058,223.283 880.779,215.736 881.54,208.034 882.342,200.164 883.188,192.117 884.08,183.881 885.02,175.442 886.011,166.788 887.054,157.903 888.153,148.773 889.312,139.38 890.533,129.707 891.82,119.734 893.177,109.439 894.609,98.7988 896.119,87.7893 897.715,76.3825 899.401,64.5484 899.975,60.5844 " />
<polyline fill="none" vector-effect="none" points="805.759,663.589 805.759,654.082 805.759,644.86 805.759,635.903 805.759,627.196 805.759,618.724 805.759,610.471 805.759,602.426 805.759,594.574 805.759,586.905 805.759,579.409 805.759,572.073 805.759,564.891 805.759,557.851 805.759,550.947 805.759,544.169 805.759,537.511 805.759,530.965 805.759,524.525 805.759,518.184 805.759,511.937 805.759,505.777 805.759,499.699 805.759,493.698 805.759,487.769 805.759,481.906 805.759,476.106 805.759,470.363 805.759,464.674 805.759,459.034 805.759,453.44 805.759,447.887 805.759,442.371 805.759,436.889 805.759,431.438 805.759,426.013 805.759,420.611 805.759,415.229 805.759,409.864 805.759,404.512 805.759,399.169 805.759,393.833 805.759,388.5 805.759,383.167 805.759,377.831 805.759,372.488 805.759,367.136 805.759,361.771 805.759,356.389 805.759,350.987 805.759,345.562 805.759,340.111 805.759,334.629 805.759,329.113 805.759,323.56 805.759,317.966 805.759,312.326 805.759,306.637 805.759,300.894 805.759,295.094 805.759,289.231 805.759,283.302 805.759,277.301 805.759,271.223 805.759,265.063 805.759,258.816 805.759,252.475 805.759,246.035 805.759,239.489 805.759,232.831 805.759,226.053 805.759,219.149 805.759,212.109 805.759,204.927 805.759,197.591 805.759,190.095 805.759,182.426 805.759,174.574 805.759,166.529 805.759,158.276 805.759,149.804 805.759,141.097 805.759,132.14 805.759,122.918 805.759,113.411 805.759,103.6 805.759,93.4652 805.759,82.9825 805.759,72.1274 805.759,60.8726 805.759,60.5844 " />
<polyline fill="none" vector-effect="none" points="733.307,634.415 734.301,626.303 735.249,618.4 736.154,610.696 737.017,603.178 737.841,595.836 738.627,588.659 739.376,581.639 740.092,574.766 740.774,568.032 741.425,561.431 742.046,554.953 742.637,548.593 743.201,542.343 743.737,536.199 744.248,530.153 744.733,524.2 745.194,518.335 745.632,512.553 746.047,506.849 746.439,501.219 746.811,495.658 747.161,490.161 747.492,484.726 747.802,479.347 748.093,474.022 748.366,468.746 748.62,463.516 748.856,458.329 749.074,453.182 749.275,448.07 749.458,442.992 749.625,437.945 749.775,432.924 749.909,427.927 750.027,422.953 750.129,417.996 750.215,413.056 750.285,408.129 750.339,403.213 750.378,398.304 750.401,393.401 750.409,388.5 750.401,383.599 750.378,378.696 750.339,373.787 750.285,368.871 750.215,363.944 750.129,359.004 750.027,354.047 749.909,349.073 749.775,344.076 749.625,339.055 749.458,334.008 749.275,328.93 749.074,323.818 748.856,318.671 748.62,313.484 748.366,308.254 748.093,302.978 747.802,297.653 747.492,292.274 747.161,286.839 746.811,281.342 746.439,275.781 746.047,270.151 745.632,264.447 745.194,258.665 744.733,252.8 744.248,246.847 743.737,240.801 743.201,234.657 742.637,228.407 742.046,222.047 741.425,215.569 740.774,208.968 740.092,202.234 739.376,195.361 738.627,188.341 737.841,181.164 737.017,173.822 736.154,166.304 735.249,158.6 734.301,150.697 733.307,142.585 732.265,134.25 731.171,125.677 730.024,116.852 728.82,107.758 727.555,98.3775 726.226,88.6909 " />
<polyline fill="none" vector-effect="none" points="671.373,609.475 673.032,602.484 674.619,595.648 676.137,588.961 677.588,582.413 678.977,575.999 680.305,569.709 681.575,563.539 682.79,557.481 683.95,551.529 685.059,545.679 686.118,539.924 687.13,534.261 688.094,528.683 689.015,523.186 689.891,517.767 690.726,512.42 691.521,507.142 692.275,501.929 692.992,496.778 693.671,491.684 694.313,486.645 694.921,481.658 695.493,476.719 696.032,471.824 696.538,466.973 697.012,462.16 697.454,457.385 697.864,452.644 698.244,447.934 698.595,443.253 698.915,438.599 699.206,433.969 699.469,429.361 699.703,424.772 699.908,420.2 700.086,415.644 700.236,411.101 700.359,406.568 700.454,402.043 700.522,397.525 700.562,393.012 700.576,388.5 700.562,383.988 700.522,379.475 700.454,374.957 700.359,370.432 700.236,365.899 700.086,361.356 699.908,356.8 699.703,352.228 699.469,347.639 699.206,343.031 698.915,338.401 698.595,333.747 698.244,329.066 697.864,324.356 697.454,319.615 697.012,314.84 696.538,310.027 696.032,305.176 695.493,300.281 694.921,295.342 694.313,290.355 693.671,285.316 692.992,280.222 692.275,275.071 691.521,269.858 690.726,264.58 689.891,259.233 689.015,253.814 688.094,248.317 687.13,242.739 686.118,237.076 685.059,231.321 683.95,225.471 682.79,219.519 681.575,213.461 680.305,207.291 678.977,201.001 677.588,194.587 676.137,188.039 674.619,181.352 673.032,174.516 671.373,167.525 669.638,160.367 667.823,153.035 665.925,145.518 663.94,137.804 661.862,129.883 659.686,121.74 " />
<polyline fill="none" vector-effect="none" points="614.63,586.627 616.748,580.603 618.779,574.694 620.727,568.895 622.594,563.198 624.384,557.601 626.099,552.096 627.743,546.681 629.317,541.351 630.825,536.1 632.268,530.927 633.649,525.825 634.969,520.793 636.231,515.826 637.436,510.921 638.586,506.076 639.682,501.286 640.726,496.549 641.72,491.863 642.664,487.224 643.56,482.63 644.409,478.078 645.212,473.567 645.97,469.092 646.683,464.654 647.354,460.248 647.982,455.873 648.569,451.527 649.114,447.208 649.62,442.913 650.085,438.642 650.512,434.391 650.899,430.159 651.249,425.945 651.56,421.746 651.835,417.561 652.072,413.387 652.272,409.224 652.435,405.069 652.562,400.921 652.653,396.778 652.707,392.638 652.725,388.5 652.707,384.362 652.653,380.222 652.562,376.079 652.435,371.931 652.272,367.776 652.072,363.613 651.835,359.439 651.56,355.254 651.249,351.055 650.899,346.841 650.512,342.609 650.085,338.358 649.62,334.087 649.114,329.792 648.569,325.473 647.982,321.127 647.354,316.752 646.683,312.346 645.97,307.908 645.212,303.433 644.409,298.922 643.56,294.37 642.664,289.776 641.72,285.137 640.726,280.451 639.682,275.714 638.586,270.924 637.436,266.079 636.231,261.174 634.969,256.207 633.649,251.175 632.268,246.073 630.825,240.9 629.317,235.649 627.743,230.319 626.099,224.904 624.384,219.399 622.594,213.802 620.727,208.105 618.779,202.306 616.748,196.397 614.63,190.373 612.42,184.229 610.116,177.957 607.713,171.552 605.206,165.004 602.59,158.308 599.86,151.454 " />
<polyline fill="none" vector-effect="none" points="559.246,564.325 561.674,559.193 564.008,554.141 566.25,549.166 568.405,544.265 570.475,539.433 572.464,534.669 574.372,529.969 576.204,525.329 577.962,520.748 579.647,516.221 581.262,511.748 582.809,507.325 584.289,502.95 585.705,498.621 587.059,494.334 588.351,490.09 589.583,485.884 590.756,481.715 591.873,477.582 592.934,473.482 593.94,469.414 594.892,465.376 595.792,461.366 596.641,457.382 597.438,453.423 598.186,449.487 598.885,445.573 599.535,441.68 600.138,437.804 600.694,433.947 601.203,430.105 601.666,426.277 602.084,422.463 602.457,418.66 602.785,414.867 603.068,411.084 603.308,407.308 603.503,403.539 603.655,399.775 603.764,396.014 603.829,392.257 603.85,388.5 603.829,384.743 603.764,380.986 603.655,377.225 603.503,373.461 603.308,369.692 603.068,365.916 602.785,362.133 602.457,358.34 602.084,354.537 601.666,350.723 601.203,346.895 600.694,343.053 600.138,339.196 599.535,335.32 598.885,331.427 598.186,327.513 597.438,323.577 596.641,319.618 595.792,315.634 594.892,311.624 593.94,307.586 592.934,303.518 591.873,299.418 590.756,295.285 589.583,291.116 588.351,286.91 587.059,282.666 585.705,278.379 584.289,274.05 582.809,269.675 581.262,265.252 579.647,260.779 577.962,256.252 576.204,251.671 574.372,247.031 572.464,242.331 570.475,237.567 568.405,232.735 566.25,227.834 564.008,222.859 561.674,217.807 559.246,212.675 556.721,207.458 554.094,202.152 551.361,196.753 548.519,191.256 545.562,185.657 542.487,179.951 " />
<polyline fill="none" vector-effect="none" points="501.747,541.172 504.351,536.908 506.859,532.695 509.276,528.533 511.603,524.418 513.845,520.349 516.002,516.324 518.077,512.34 520.073,508.397 521.991,504.492 523.834,500.625 525.604,496.792 527.301,492.993 528.929,489.226 530.487,485.49 531.979,481.784 533.406,478.105 534.768,474.453 536.068,470.826 537.305,467.224 538.483,463.644 539.6,460.086 540.66,456.548 541.662,453.03 542.607,449.53 543.497,446.048 544.332,442.581 545.113,439.13 545.84,435.692 546.514,432.268 547.136,428.856 547.707,425.454 548.226,422.063 548.695,418.681 549.113,415.307 549.481,411.94 549.799,408.58 550.068,405.225 550.288,401.875 550.458,398.528 550.58,395.184 550.653,391.841 550.678,388.5 550.653,385.159 550.58,381.816 550.458,378.472 550.288,375.125 550.068,371.775 549.799,368.42 549.481,365.06 549.113,361.693 548.695,358.319 548.226,354.937 547.707,351.546 547.136,348.144 546.514,344.732 545.84,341.308 545.113,337.87 544.332,334.419 543.497,330.952 542.607,327.47 541.662,323.97 540.66,320.452 539.6,316.914 538.483,313.356 537.305,309.776 536.068,306.174 534.768,302.547 533.406,298.895 531.979,295.216 530.487,291.51 528.929,287.774 527.301,284.007 525.604,280.208 523.834,276.375 521.991,272.508 520.073,268.603 518.077,264.66 516.002,260.676 513.845,256.651 511.603,252.582 509.276,248.467 506.859,244.305 504.351,240.092 501.747,235.828 499.047,231.51 496.245,227.135 493.339,222.701 490.325,218.206 487.2,213.646 483.96,209.02 " />
<polyline fill="none" vector-effect="none" points="438.096,515.541 440.72,512.171 443.255,508.827 445.704,505.51 448.069,502.219 450.352,498.952 452.555,495.708 454.679,492.488 456.726,489.289 458.699,486.111 460.597,482.953 462.424,479.815 464.18,476.695 465.866,473.594 467.485,470.509 469.036,467.441 470.522,464.389 471.943,461.352 473.301,458.329 474.596,455.319 475.83,452.323 477.002,449.34 478.115,446.368 479.169,443.407 480.164,440.457 481.102,437.517 481.983,434.586 482.807,431.664 483.576,428.75 484.289,425.843 484.947,422.944 485.551,420.051 486.102,417.164 486.598,414.283 487.042,411.406 487.433,408.533 487.771,405.664 488.056,402.799 488.29,399.936 488.471,397.075 488.601,394.216 488.678,391.358 488.704,388.5 488.678,385.642 488.601,382.784 488.471,379.925 488.29,377.064 488.056,374.201 487.771,371.336 487.433,368.467 487.042,365.594 486.598,362.717 486.102,359.836 485.551,356.949 484.947,354.056 484.289,351.157 483.576,348.25 482.807,345.336 481.983,342.414 481.102,339.483 480.164,336.543 479.169,333.593 478.115,330.632 477.002,327.66 475.83,324.677 474.596,321.681 473.301,318.671 471.943,315.648 470.522,312.611 469.036,309.559 467.485,306.491 465.866,303.406 464.18,300.305 462.424,297.185 460.597,294.047 458.699,290.889 456.726,287.711 454.679,284.512 452.555,281.292 450.352,278.048 448.069,274.781 445.704,271.49 443.255,268.173 440.72,264.829 438.096,261.459 435.382,258.06 432.575,254.632 429.674,251.173 426.674,247.683 423.574,244.16 420.37,240.604 " />
<polyline fill="none" vector-effect="none" points="362.428,485.072 364.837,482.671 367.172,480.277 369.436,477.89 371.629,475.511 373.752,473.138 375.807,470.771 377.794,468.412 379.715,466.058 381.57,463.711 383.36,461.369 385.087,459.033 386.75,456.703 388.352,454.378 389.892,452.059 391.372,449.744 392.792,447.434 394.153,445.129 395.456,442.829 396.7,440.532 397.888,438.24 399.018,435.952 400.093,433.668 401.112,431.387 402.076,429.11 402.985,426.836 403.84,424.565 404.641,422.297 405.389,420.032 406.084,417.769 406.726,415.508 407.315,413.25 407.853,410.994 408.338,408.739 408.772,406.486 409.154,404.235 409.485,401.985 409.765,399.736 409.993,397.487 410.171,395.24 410.298,392.993 410.374,390.746 410.399,388.5 410.374,386.254 410.298,384.007 410.171,381.76 409.993,379.513 409.765,377.264 409.485,375.015 409.154,372.765 408.772,370.514 408.338,368.261 407.853,366.006 407.315,363.75 406.726,361.492 406.084,359.231 405.389,356.968 404.641,354.703 403.84,352.435 402.985,350.164 402.076,347.89 401.112,345.613 400.093,343.332 399.018,341.048 397.888,338.76 396.7,336.468 395.456,334.171 394.153,331.871 392.792,329.566 391.372,327.256 389.892,324.941 388.352,322.622 386.75,320.297 385.087,317.967 383.36,315.631 381.57,313.289 379.715,310.942 377.794,308.588 375.807,306.229 373.752,303.862 371.629,301.489 369.436,299.11 367.172,296.723 364.837,294.329 362.428,291.928 359.945,289.52 357.386,287.104 354.75,284.68 352.036,282.248 349.241,279.809 346.366,277.361 " />
</g>

<g fill="none" stroke="#ff0000" stroke-opacity="1" stroke-width="4.16667" stroke-linecap="butt" stroke-linejoin="round" transform="matrix(0.719538,0,0,0.717448,-73.7118,-42.0261)"
font-family="Helvetica" font-size="13" font-weight="400" font-style="normal" 
>
<polyline fill="none" vector-effect="none" points="877.881,388.5 733.636,189.963 500.242,265.797 500.242,511.203 733.636,587.037 877.881,388.5 " />
</g>
</g>
</svg>
