<?xml version="1.0" encoding="UTF-8" standalone="no"?>
<svg width="220.839mm" height="171.45mm"
 viewBox="0 0 626 486"
 xmlns="http://www.w3.org/2000/svg" xmlns:xlink="http://www.w3.org/1999/xlink"  version="1.2" baseProfile="tiny">
<title>Qt SVG Document</title>
<desc>MATLAB, The MathWorks, Inc. Version 25.2.0.3150157 R2025b Update 4</desc>
<defs>
</defs>
<g fill="none" stroke="black" stroke-width="1" fill-rule="evenodd" stroke-linecap="square" stroke-linejoin="bevel" >

<g fill="#000000" fill-opacity="1" stroke="none" transform="matrix(0.719538,0,0,0.717643,-73.7118,-42.1036)"
font-family="Sans Serif" font-size="9" font-weight="400" font-style="normal" 
>
<path vector-effect="none" fill-rule="evenodd" d="M101,57 L973,57 L973,736 L101,736 L101,57"/>
</g>

<g fill="#121212" fill-opacity="1" stroke="none" transform="matrix(7.19538e-05,0,0,7.17643e-05,-73.7118,-42.1036)"
font-family="Sans Serif" font-size="9" font-weight="400" font-style="normal" 
>
<path vector-effect="none" fill-rule="evenodd" d="M1.39e+06,606758 L1.39e+06,7.16324e+06 L9.71e+06,7.16324e+06 L9.71e+06,606758 L1.39e+06,606758"/>
</g>

<g fill="#d9d9d9" fill-opacity="1" stroke="#d9d9d9" stroke-opacity="1" stroke-width="0.694444" stroke-linecap="square" stroke-linejoin="round" transform="matrix(0.719538,0,0,0.717643,-73.7118,-42.1036)"
font-family="Sans Serif" font-size="9" font-weight="400" font-style="normal" 
>
<polyline fill="none" vector-effect="none" points="139,716.324 971,716.324 " />
<polyline fill="none" vector-effect="none" points="226.948,716.324 226.948,708.004 " />
<polyline fill="none" vector-effect="none" points="334.026,716.324 334.026,708.004 " />
<polyline fill="none" vector-effect="none" points="441.104,716.324 441.104,708.004 " />
<polyline fill="none" vector-effect="none" points="548.182,716.324 548.182,708.004 " />
<polyline fill="none" vector-effect="none" points="655.26,716.324 655.26,708.004 " />
<polyline fill="none" vector-effect="none" points="762.338,716.324 762.338,708.004 " />
<polyline fill="none" vector-effect="none" points="869.416,716.324 869.416,708.004 " />
</g>

<g fill="#d9d9d9" fill-opacity="1" stroke="#d9d9d9" stroke-opacity="1" stroke-width="1" stroke-linecap="square" stroke-linejoin="bevel" transform="matrix(0.719538,0,0,0.717643,78.7928,484.56)"
font-family="Helvetica" font-size="13" font-weight="400" font-style="normal" 
>
<text fill="#d9d9d9" fill-opacity="1" stroke="none" xml:space="preserve" x="0" y="0" font-family="Helvetica" font-size="13" font-weight="400" font-style="normal" 
 >-0.15</text>
</g>

<g fill="#d9d9d9" fill-opacity="1" stroke="#d9d9d9" stroke-opacity="1" stroke-width="1" stroke-linecap="square" stroke-linejoin="bevel" transform="matrix(0.719538,0,0,0.717643,158.718,484.56)"
font-family="Helvetica" font-size="13" font-weight="400" font-style="normal" 
>
<text fill="#d9d9d9" fill-opacity="1" stroke="none" xml:space="preserve" x="0" y="0" font-family="Helvetica" font-size="13" font-weight="400" font-style="normal" 
 >-0.1</text>
</g>

<g fill="#d9d9d9" fill-opacity="1" stroke="#d9d9d9" stroke-opacity="1" stroke-width="1" stroke-linecap="square" stroke-linejoin="bevel" transform="matrix(0.719538,0,0,0.717643,232.886,484.56)"
font-family="Helvetica" font-size="13" font-weight="400" font-style="normal" 
>
<text fill="#d9d9d9" fill-opacity="1" stroke="none" xml:space="preserve" x="0" y="0" font-family="Helvetica" font-size="13" font-weight="400" font-style="normal" 
 >-0.05</text>
</g>

<g fill="#d9d9d9" fill-opacity="1" stroke="#d9d9d9" stroke-opacity="1" stroke-width="1" stroke-linecap="square" stroke-linejoin="bevel" transform="matrix(0.719538,0,0,0.717643,318.208,484.56)"
font-family="Helvetica" font-size="13" font-weight="400" font-style="normal" 
>
<text fill="#d9d9d9" fill-opacity="1" stroke="none" xml:space="preserve" x="0" y="0" font-family="Helvetica" font-size="13" font-weight="400" font-style="normal" 
 >0</text>
</g>

<g fill="#d9d9d9" fill-opacity="1" stroke="#d9d9d9" stroke-opacity="1" stroke-width="1" stroke-linecap="square" stroke-linejoin="bevel" transform="matrix(0.719538,0,0,0.717643,388.779,484.56)"
font-family="Helvetica" font-size="13" font-weight="400" font-style="normal" 
>
<text fill="#d9d9d9" fill-opacity="1" stroke="none" xml:space="preserve" x="0" y="0" font-family="Helvetica" font-size="13" font-weight="400" font-style="normal" 
 >0.05</text>
</g>

<g fill="#d9d9d9" fill-opacity="1" stroke="#d9d9d9" stroke-opacity="1" stroke-width="1" stroke-linecap="square" stroke-linejoin="bevel" transform="matrix(0.719538,0,0,0.717643,468.344,484.56)"
font-family="Helvetica" font-size="13" font-weight="400" font-style="normal" 
>
<text fill="#d9d9d9" fill-opacity="1" stroke="none" xml:space="preserve" x="0" y="0" font-family="Helvetica" font-size="13" font-weight="400" font-style="normal" 
 >0.1</text>
</g>

<g fill="#d9d9d9" fill-opacity="1" stroke="#d9d9d9" stroke-opacity="1" stroke-width="1" stroke-linecap="square" stroke-linejoin="bevel" transform="matrix(0.719538,0,0,0.717643,542.872,484.56)"
font-family="Helvetica" font-size="13" font-weight="400" font-style="normal" 
>
<text fill="#d9d9d9" fill-opacity="1" stroke="none" xml:space="preserve" x="0" y="0" font-family="Helvetica" font-size="13" font-weight="400" font-style="normal" 
 >0.15</text>
</g>

<g fill="#d9d9d9" fill-opacity="1" stroke="#d9d9d9" stroke-opacity="1" stroke-width="0.694444" stroke-linecap="square" stroke-linejoin="round" transform="matrix(0.719538,0,0,0.717643,-73.7118,-42.1036)"
font-family="Helvetica" font-size="13" font-weight="400" font-style="normal" 
>
<polyline fill="none" vector-effect="none" points="139,716.324 139,60.6758 " />
<polyline fill="none" vector-effect="none" points="139,709.825 147.32,709.825 " />
<polyline fill="none" vector-effect="none" points="139,602.747 147.32,602.747 " />
<polyline fill="none" vector-effect="none" points="139,495.669 147.32,495.669 " />
<polyline fill="none" vector-effect="none" points="139,388.591 147.32,388.591 " />
<polyline fill="none" vector-effect="none" points="139,281.513 147.32,281.513 " />
<polyline fill="none" vector-effect="none" points="139,174.435 147.32,174.435 " />
<polyline fill="none" vector-effect="none" points="139,67.3575 147.32,67.3575 " />
</g>

<g fill="#d9d9d9" fill-opacity="1" stroke="#d9d9d9" stroke-opacity="1" stroke-width="1" stroke-linecap="square" stroke-linejoin="bevel" transform="matrix(0.719538,0,0,0.717643,0.720462,470.527)"
font-family="Helvetica" font-size="13" font-weight="400" font-style="normal" 
>
<text fill="#d9d9d9" fill-opacity="1" stroke="none" xml:space="preserve" x="0" y="0" font-family="Helvetica" font-size="13" font-weight="400" font-style="normal" 
 >-0.15</text>
</g>

<g fill="#d9d9d9" fill-opacity="1" stroke="#d9d9d9" stroke-opacity="1" stroke-width="1" stroke-linecap="square" stroke-linejoin="bevel" transform="matrix(0.719538,0,0,0.717643,6.47677,393.683)"
font-family="Helvetica" font-size="13" font-weight="400" font-style="normal" 
>
<text fill="#d9d9d9" fill-opacity="1" stroke="none" xml:space="preserve" x="0" y="0" font-family="Helvetica" font-size="13" font-weight="400" font-style="normal" 
 >-0.1</text>
</g>

<g fill="#d9d9d9" fill-opacity="1" stroke="#d9d9d9" stroke-opacity="1" stroke-width="1" stroke-linecap="square" stroke-linejoin="bevel" transform="matrix(0.719538,0,0,0.717643,0.720462,316.839)"
font-family="Helvetica" font-size="13" font-weight="400" font-style="normal" 
>
<text fill="#d9d9d9" fill-opacity="1" stroke="none" xml:space="preserve" x="0" y="0" font-family="Helvetica" font-size="13" font-weight="400" font-style="normal" 
 >-0.05</text>
</g>

<g fill="#d9d9d9" fill-opacity="1" stroke="#d9d9d9" stroke-opacity="1" stroke-width="1" stroke-linecap="square" stroke-linejoin="bevel" transform="matrix(0.719538,0,0,0.717643,17.2698,239.996)"
font-family="Helvetica" font-size="13" font-weight="400" font-style="normal" 
>
<text fill="#d9d9d9" fill-opacity="1" stroke="none" xml:space="preserve" x="0" y="0" font-family="Helvetica" font-size="13" font-weight="400" font-style="normal" 
 >0</text>
</g>

<g fill="#d9d9d9" fill-opacity="1" stroke="#d9d9d9" stroke-opacity="1" stroke-width="1" stroke-linecap="square" stroke-linejoin="bevel" transform="matrix(0.719538,0,0,0.717643,4.31815,163.152)"
font-family="Helvetica" font-size="13" font-weight="400" font-style="normal" 
>
<text fill="#d9d9d9" fill-opacity="1" stroke="none" xml:space="preserve" x="0" y="0" font-family="Helvetica" font-size="13" font-weight="400" font-style="normal" 
 >0.05</text>
</g>

<g fill="#d9d9d9" fill-opacity="1" stroke="#d9d9d9" stroke-opacity="1" stroke-width="1" stroke-linecap="square" stroke-linejoin="bevel" transform="matrix(0.719538,0,0,0.717643,9.35492,86.3082)"
font-family="Helvetica" font-size="13" font-weight="400" font-style="normal" 
>
<text fill="#d9d9d9" fill-opacity="1" stroke="none" xml:space="preserve" x="0" y="0" font-family="Helvetica" font-size="13" font-weight="400" font-style="normal" 
 >0.1</text>
</g>

<g fill="#d9d9d9" fill-opacity="1" stroke="#d9d9d9" stroke-opacity="1" stroke-width="1" stroke-linecap="square" stroke-linejoin="bevel" transform="matrix(0.719538,0,0,0.717643,4.31815,9.46443)"
font-family="Helvetica" font-size="13" font-weight="400" font-style="normal" 
>
<text fill="#d9d9d9" fill-opacity="1" stroke="none" xml:space="preserve" x="0" y="0" font-family="Helvetica" font-size="13" font-weight="400" font-style="normal" 
 >0.15</text>
</g>

<g fill="#2699d4" fill-opacity="0.14902" stroke="none" transform="matrix(7.19538e-05,0,0,7.17643e-05,-73.7118,-42.1036)"
font-family="Helvetica" font-size="13" font-weight="400" font-style="normal" 
>
<path vector-effect="none" fill-rule="evenodd" d="M9.71e+06,7.16324e+06 L9.71e+06,606758 L8.76098e+06,606758 L1.39e+06,606758 L1.39e+06,7.16324e+06 L2.20449e+06,7.16324e+06 L9.71e+06,7.16324e+06"/>
</g>

<g fill="#75ab2e" fill-opacity="0.34902" stroke="none" transform="matrix(7.19538e-05,0,0,7.17643e-05,-73.7118,-42.1036)"
font-family="Helvetica" font-size="13" font-weight="400" font-style="normal" 
>
<path vector-effect="none" fill-rule="evenodd" d="M1.39e+06,6.40101e+06 L1.39e+06,7.10865e+06 L1.39e+06,7.16324e+06 L1.47977e+06,7.16324e+06 L2.1231e+06,7.16324e+06 L3.47238e+06,7.16324e+06 L3.5352e+06,7.16324e+06 L3.67369e+06,7.16324e+06 L3.69029e+06,7.16324e+06 L3.79053e+06,6.87044e+06 L3.79367e+06,6.4765e+06 L3.73495e+06,6.06145e+06 L3.82809e+06,5.72403e+06 L3.83899e+06,5.43634e+06 L3.97895e+06,5.47372e+06 L4.30747e+06,5.27053e+06 L4.36732e+06,5.19603e+06 L4.70869e+06,5.0131e+06 L5.10147e+06,5.10495e+06 L5.25033e+06,5.02021e+06 L5.48821e+06,4.87226e+06 L5.71339e+06,4.69184e+06 L5.90387e+06,4.61874e+06 L5.93937e+06,4.52808e+06 L5.85822e+06,4.2872e+06 L5.70043e+06,4.13253e+06 L5.65037e+06,4.09315e+06 L5.45749e+06,4.05759e+06 L5.33553e+06,3.90782e+06 L5.26378e+06,3.93028e+06 L5.16787e+06,3.97617e+06 L4.97397e+06,3.69912e+06 L4.87532e+06,3.64835e+06 L4.67024e+06,3.68962e+06 L4.45679e+06,3.78456e+06 L4.34683e+06,3.67951e+06 L4.1095e+06,3.56452e+06 L3.99288e+06,3.44883e+06 L3.86319e+06,3.27012e+06 L3.50838e+06,3.05648e+06 L3.42933e+06,2.98506e+06 L3.26865e+06,2.93361e+06 L3.44593e+06,3.3546e+06 L3.25663e+06,3.46363e+06 L3.05567e+06,3.63913e+06 L2.83486e+06,3.69578e+06 L2.59538e+06,3.82072e+06 L2.038e+06,3.95546e+06 L1.39e+06,4.16803e+06 L1.39e+06,4.8933e+06 L1.39e+06,5.24198e+06 L1.39e+06,5.2667e+06 L1.39e+06,5.29819e+06 L1.39e+06,5.33255e+06 L1.39e+06,5.41047e+06 L1.39e+06,6.04272e+06 L1.39e+06,6.40101e+06"/>
</g>

<g fill="#75ab2e" fill-opacity="0.34902" stroke="none" transform="matrix(7.19538e-05,0,0,7.17643e-05,-73.7118,-42.1036)"
font-family="Helvetica" font-size="13" font-weight="400" font-style="normal" 
>
<path vector-effect="none" fill-rule="evenodd" d="M1.39e+06,2.20915e+06 L1.39e+06,2.5914e+06 L1.39e+06,2.72611e+06 L1.50378e+06,2.67494e+06 L1.74111e+06,2.46831e+06 L1.57446e+06,2.36031e+06 L1.70002e+06,2.29848e+06 L1.7226e+06,1.87386e+06 L1.5987e+06,1.47217e+06 L1.76039e+06,1.31869e+06 L1.94782e+06,1.27231e+06 L2.05744e+06,1.20436e+06 L2.09542e+06,1.11409e+06 L1.99067e+06,975800 L1.56018e+06,722530 L2.09937e+06,904239 L2.7161e+06,1.01e+06 L3.03325e+06,1.01995e+06 L3.227e+06,988902 L3.41411e+06,957421 L3.19535e+06,606758 L3.17318e+06,606758 L3.15336e+06,606758 L2.96282e+06,606758 L2.8915e+06,606758 L2.69705e+06,606758 L2.39525e+06,606758 L2.23289e+06,606758 L1.74998e+06,606758 L1.60283e+06,606758 L1.56919e+06,606758 L1.55155e+06,606758 L1.54927e+06,606758 L1.39e+06,606758 L1.39e+06,940877 L1.39e+06,1.06437e+06 L1.39e+06,1.78442e+06 L1.39e+06,2.20915e+06"/>
</g>

<g fill="#75ab2e" fill-opacity="0.34902" stroke="none" transform="matrix(7.19538e-05,0,0,7.17643e-05,-73.7118,-42.1036)"
font-family="Helvetica" font-size="13" font-weight="400" font-style="normal" 
>
<path vector-effect="none" fill-rule="evenodd" d="M1.39e+06,3.39154e+06 L1.39e+06,3.99557e+06 L1.39e+06,4.13206e+06 L1.56923e+06,3.95912e+06 L2.038e+06,3.81637e+06 L2.15573e+06,3.67987e+06 L2.59113e+06,3.62461e+06 L3.04948e+06,3.45225e+06 L3.21407e+06,3.39988e+06 L3.21141e+06,3.33798e+06 L3.02111e+06,3.00215e+06 L2.91795e+06,2.85629e+06 L2.79801e+06,2.63106e+06 L2.44716e+06,2.3501e+06 L2.11268e+06,2.12688e+06 L1.86112e+06,2.40697e+06 L1.72123e+06,2.3842e+06 L1.87955e+06,2.48962e+06 L2.05659e+06,2.74583e+06 L1.8221e+06,2.86845e+06 L1.39e+06,2.94175e+06 L1.39e+06,3.39154e+06"/>
</g>

<g fill="none" stroke="#1a330d" stroke-opacity="1" stroke-width="0.486111" stroke-linecap="square" stroke-linejoin="miter" stroke-miterlimit="5" transform="matrix(0.719538,0,0,0.717643,-73.7118,-42.1036)"
font-family="Helvetica" font-size="13" font-weight="400" font-style="normal" 
>
<polyline fill="none" vector-effect="none" points="319.535,60.6758 341.411,95.7421 322.7,98.8903 303.325,101.995 271.61,101 209.937,90.4239 156.018,72.2531 199.067,97.58 209.542,111.409 205.744,120.436 194.782,127.231 176.039,131.869 159.87,147.217 172.26,187.386 170.002,229.848 157.446,236.031 174.111,246.831 150.378,267.494 139,272.611 " />
<polyline fill="none" vector-effect="none" points="139,294.175 182.21,286.845 205.659,274.583 187.955,248.962 172.123,238.42 186.112,240.697 211.268,212.688 244.716,235.01 279.801,263.106 291.795,285.629 302.111,300.215 321.141,333.798 321.407,339.988 304.948,345.225 259.113,362.461 215.573,367.987 203.8,381.637 156.923,395.912 139,413.206 " />
<polyline fill="none" vector-effect="none" points="139,416.803 203.8,395.546 259.538,382.072 283.486,369.578 305.567,363.913 325.663,346.362 344.593,335.46 326.865,293.361 342.933,298.506 350.838,305.648 386.319,327.012 399.288,344.883 410.95,356.452 434.683,367.951 445.679,378.456 467.024,368.962 487.532,364.835 497.397,369.912 516.787,397.617 526.378,393.028 533.553,390.782 545.749,405.759 565.037,409.315 570.043,413.253 585.822,428.72 593.937,452.808 590.387,461.874 571.339,469.184 548.821,487.226 525.033,502.021 510.147,510.495 470.869,501.31 436.732,519.603 430.747,527.053 397.895,547.372 383.899,543.633 382.809,572.403 373.495,606.145 379.367,647.65 379.053,687.044 369.029,716.324 " />
</g>

<g fill="#75ab2e" fill-opacity="0.34902" stroke="none" transform="matrix(7.19538e-05,0,0,7.17643e-05,-73.7118,-42.1036)"
font-family="Helvetica" font-size="13" font-weight="400" font-style="normal" 
>
<path vector-effect="none" fill-rule="evenodd" d="M9.71e+06,4.75476e+06 L9.71e+06,4.05058e+06 L9.71e+06,2.7034e+06 L9.71e+06,2.21103e+06 L9.71e+06,1.87828e+06 L9.71e+06,1.74104e+06 L9.43298e+06,2.02554e+06 L9.23303e+06,2.08005e+06 L9.09422e+06,2.18699e+06 L8.85474e+06,2.32862e+06 L8.68023e+06,2.4803e+06 L8.43582e+06,2.80138e+06 L8.43556e+06,3.03954e+06 L8.55522e+06,3.16441e+06 L8.35739e+06,3.13381e+06 L8.20649e+06,3.05922e+06 L7.99588e+06,3.2983e+06 L7.92657e+06,3.36739e+06 L7.82439e+06,3.40506e+06 L7.90831e+06,3.62176e+06 L7.9842e+06,3.79326e+06 L8.07011e+06,3.84098e+06 L7.89494e+06,3.93358e+06 L8.07824e+06,4.02076e+06 L8.21068e+06,4.19103e+06 L8.11677e+06,4.24886e+06 L8.24516e+06,4.47526e+06 L8.50277e+06,4.68012e+06 L8.73649e+06,4.90964e+06 L9.28822e+06,4.98577e+06 L9.71e+06,4.97491e+06 L9.71e+06,4.75476e+06"/>
</g>

<g fill="none" stroke="#1a330d" stroke-opacity="1" stroke-width="0.486111" stroke-linecap="square" stroke-linejoin="miter" stroke-miterlimit="5" transform="matrix(0.719538,0,0,0.717643,-73.7118,-42.1036)"
font-family="Helvetica" font-size="13" font-weight="400" font-style="normal" 
>
<polyline fill="none" vector-effect="none" points="850.277,468.012 824.516,447.526 811.677,424.886 821.068,419.103 807.824,402.076 789.494,393.358 807.011,384.098 798.42,379.326 790.831,362.176 782.439,340.506 792.657,336.739 799.588,329.829 820.649,305.922 835.739,313.381 855.521,316.441 843.556,303.954 843.582,280.138 868.023,248.03 885.474,232.862 909.422,218.699 923.303,208.005 943.298,202.554 971,174.104 " />
<polyline fill="none" vector-effect="none" points="971,497.491 928.822,498.577 873.648,490.964 850.277,468.012 850.277,468.012 " />
</g>

<g fill="none" stroke="#000000" stroke-opacity="1" stroke-width="0.694444" stroke-linecap="butt" stroke-linejoin="round" transform="matrix(0.719538,0,0,0.717643,-73.7118,-42.1036)"
font-family="Helvetica" font-size="13" font-weight="400" font-style="normal" 
>
<polyline fill="none" vector-effect="none" points="865.273,494.843 857.094,498.631 849.101,502.332 841.282,505.954 833.626,509.499 826.125,512.973 818.769,516.379 811.55,519.722 804.46,523.006 797.49,526.234 790.635,529.408 783.886,532.534 777.238,535.612 770.685,538.647 764.219,541.642 757.836,544.597 751.531,547.517 745.298,550.404 739.132,553.259 733.029,556.086 726.983,558.886 720.991,561.661 715.048,564.413 709.15,567.144 703.292,569.857 697.472,572.553 691.684,575.233 685.926,577.899 680.193,580.554 674.482,583.199 668.79,585.835 663.112,588.465 657.445,591.089 651.787,593.709 646.132,596.328 640.479,598.946 634.823,601.566 629.161,604.188 623.489,606.814 617.804,609.447 612.103,612.087 606.382,614.737 600.637,617.397 594.865,620.07 589.062,622.758 583.224,625.461 577.347,628.183 571.427,630.924 565.46,633.688 559.442,636.475 553.369,639.287 547.235,642.128 541.037,644.998 534.769,647.901 528.427,650.838 522.004,653.812 515.496,656.826 508.897,659.883 502.2,662.984 495.4,666.133 488.489,669.333 481.461,672.588 474.309,675.9 467.023,679.274 459.597,682.713 452.022,686.222 444.287,689.804 436.383,693.464 428.3,697.207 420.027,701.039 411.55,704.964 402.858,708.99 393.936,713.121 387.02,716.324 " />
<polyline fill="none" vector-effect="none" points="841.502,470.863 832.965,473.637 824.651,476.338 816.548,478.971 808.643,481.539 800.924,484.047 793.38,486.499 786,488.897 778.775,491.244 771.696,493.544 764.754,495.8 757.941,498.013 751.25,500.187 744.673,502.324 738.204,504.426 731.836,506.495 725.563,508.534 719.379,510.543 713.279,512.525 707.256,514.482 701.307,516.415 695.426,518.326 689.609,520.216 683.85,522.087 678.146,523.94 672.493,525.777 666.886,527.599 661.322,529.407 655.796,531.203 650.305,532.987 644.845,534.761 639.413,536.526 634.005,538.283 628.618,540.033 623.248,541.778 617.893,543.518 612.548,545.255 607.21,546.989 601.877,548.722 596.544,550.455 591.209,552.188 585.869,553.923 580.52,555.661 575.158,557.403 569.781,559.15 564.386,560.904 558.968,562.664 553.524,564.433 548.051,566.211 542.546,568 537.003,569.801 531.421,571.614 525.794,573.443 520.12,575.286 514.393,577.147 508.609,579.026 502.764,580.925 496.854,582.846 490.874,584.789 484.818,586.757 478.682,588.75 472.46,590.772 466.146,592.823 459.735,594.907 453.22,597.024 446.594,599.176 439.851,601.367 432.983,603.599 425.983,605.873 418.841,608.194 411.55,610.563 404.1,612.984 396.481,615.459 388.682,617.993 380.692,620.589 372.499,623.251 364.091,625.983 355.451,628.79 346.567,631.677 337.422,634.649 327.997,637.711 318.274,640.87 308.233,644.133 297.851,647.506 287.104,650.998 275.965,654.617 264.405,658.373 252.393,662.276 239.893,666.338 226.868,670.57 213.275,674.986 " />
<polyline fill="none" vector-effect="none" points="824.516,447.526 815.778,449.432 807.291,451.283 799.04,453.083 791.011,454.834 783.189,456.54 775.562,458.204 768.119,459.827 760.849,461.413 753.741,462.963 746.786,464.48 739.975,465.966 733.3,467.422 726.752,468.85 720.323,470.252 714.008,471.63 707.799,472.984 701.69,474.317 695.675,475.629 689.747,476.922 683.903,478.196 678.136,479.454 672.441,480.696 666.814,481.924 661.25,483.137 655.745,484.338 650.295,485.527 644.895,486.705 639.541,487.873 634.23,489.031 628.958,490.181 623.722,491.323 618.517,492.458 613.341,493.588 608.189,494.711 603.06,495.83 597.949,496.945 592.853,498.056 587.77,499.165 582.695,500.272 577.626,501.378 572.561,502.482 567.495,503.587 562.425,504.693 557.349,505.8 552.264,506.91 547.166,508.022 542.052,509.137 536.919,510.257 531.763,511.381 526.582,512.511 521.372,513.648 516.13,514.791 510.851,515.943 505.533,517.103 500.172,518.272 494.763,519.452 489.303,520.643 483.788,521.846 478.214,523.061 472.576,524.291 466.869,525.536 461.088,526.797 455.23,528.075 449.287,529.371 443.256,530.687 437.13,532.023 430.903,533.381 424.568,534.763 418.12,536.169 411.55,537.602 404.851,539.063 398.016,540.554 391.035,542.077 383.899,543.633 376.6,545.226 369.125,546.856 361.466,548.527 353.609,550.241 345.541,552 337.25,553.809 328.721,555.669 319.937,557.585 310.881,559.56 301.536,561.599 291.88,563.705 281.892,565.883 271.548,568.14 260.822,570.479 249.686,572.908 238.108,575.434 " />
<polyline fill="none" vector-effect="none" points="813.468,424.657 804.624,425.791 796.048,426.89 787.725,427.958 779.638,428.995 771.772,430.003 764.115,430.985 756.653,431.942 749.375,432.876 742.269,433.787 735.326,434.677 728.536,435.548 721.889,436.4 715.378,437.235 708.994,438.054 702.73,438.857 696.58,439.646 690.535,440.421 684.59,441.183 678.739,441.934 672.977,442.673 667.297,443.401 661.695,444.119 656.165,444.829 650.704,445.529 645.306,446.221 639.967,446.906 634.684,447.583 629.451,448.254 624.265,448.919 619.123,449.579 614.02,450.233 608.953,450.883 603.92,451.528 598.915,452.17 593.937,452.808 588.982,453.444 584.046,454.077 579.127,454.708 574.221,455.337 569.327,455.964 564.439,456.591 559.556,457.217 554.675,457.843 549.792,458.47 544.905,459.096 540.01,459.724 535.105,460.353 530.187,460.984 525.252,461.616 520.297,462.252 515.32,462.89 510.316,463.532 505.284,464.177 500.218,464.827 495.117,465.481 489.976,466.14 484.792,466.805 479.561,467.476 474.28,468.153 468.943,468.837 463.547,469.529 458.088,470.229 452.562,470.938 446.962,471.656 441.285,472.384 435.526,473.123 429.679,473.872 423.738,474.634 417.697,475.409 411.55,476.197 405.291,477 398.912,477.818 392.405,478.652 385.764,479.504 378.979,480.374 372.042,481.264 364.943,482.174 357.671,483.106 350.216,484.062 342.566,485.043 334.709,486.051 326.63,487.087 318.316,488.153 309.75,489.252 300.916,490.384 291.795,491.554 282.367,492.763 272.61,494.014 262.5,495.311 252.011,496.656 " />
<polyline fill="none" vector-effect="none" points="807.824,402.076 798.932,402.494 790.319,402.899 781.966,403.292 773.856,403.673 765.976,404.043 758.309,404.404 750.844,404.754 743.568,405.096 736.469,405.43 729.538,405.756 722.764,406.074 716.138,406.386 709.651,406.691 703.295,406.989 697.062,407.282 690.946,407.57 684.939,407.852 679.034,408.13 673.226,408.403 667.51,408.671 661.878,408.936 656.327,409.197 650.85,409.455 645.444,409.709 640.104,409.96 634.825,410.208 629.603,410.453 624.434,410.696 619.315,410.937 614.24,411.175 609.208,411.412 604.214,411.647 599.254,411.88 594.326,412.111 589.426,412.342 584.55,412.571 579.697,412.799 574.862,413.026 570.043,413.253 565.237,413.479 560.44,413.704 555.65,413.929 550.864,414.154 546.079,414.379 541.292,414.604 536.5,414.829 531.7,415.055 526.889,415.281 522.064,415.508 517.223,415.736 512.361,415.964 507.477,416.194 502.567,416.424 497.627,416.657 492.654,416.89 487.646,417.126 482.598,417.363 477.506,417.602 472.368,417.844 467.18,418.088 461.937,418.334 456.635,418.583 451.27,418.836 445.837,419.091 440.333,419.35 434.751,419.612 429.088,419.878 423.337,420.149 417.493,420.423 411.55,420.703 405.502,420.987 399.342,421.276 393.063,421.572 386.658,421.873 380.119,422.18 373.437,422.494 366.604,422.815 359.61,423.144 352.445,423.481 345.098,423.826 337.557,424.181 329.81,424.545 321.844,424.919 313.643,425.305 305.192,425.702 296.475,426.112 287.472,426.535 278.164,426.972 268.528,427.425 258.542,427.895 " />
<polyline fill="none" vector-effect="none" points="807.315,379.604 798.42,379.326 789.803,379.056 781.448,378.795 773.337,378.541 765.455,378.295 757.788,378.055 750.322,377.822 743.047,377.594 735.949,377.372 729.019,377.156 722.246,376.944 715.622,376.737 709.138,376.534 702.784,376.335 696.555,376.14 690.442,375.949 684.438,375.761 678.537,375.577 672.734,375.395 667.021,375.217 661.394,375.041 655.847,374.867 650.376,374.696 644.975,374.527 639.64,374.36 634.366,374.196 629.15,374.032 623.987,373.871 618.873,373.711 613.805,373.553 608.779,373.395 603.791,373.239 598.838,373.085 593.917,372.931 589.024,372.778 584.156,372.625 579.31,372.474 574.483,372.323 569.672,372.172 564.873,372.022 560.085,371.873 555.303,371.723 550.526,371.574 545.749,371.424 540.971,371.275 536.188,371.125 531.398,370.975 526.596,370.825 521.781,370.675 516.95,370.524 512.099,370.372 507.225,370.22 502.326,370.066 497.397,369.912 492.436,369.757 487.439,369.601 482.403,369.443 477.325,369.285 472.199,369.124 467.024,368.962 461.794,368.799 456.506,368.633 451.156,368.466 445.738,368.297 440.249,368.125 434.683,367.951 429.036,367.774 423.302,367.595 417.475,367.413 411.55,367.228 405.52,367.039 399.38,366.847 393.121,366.651 386.736,366.452 380.219,366.248 373.56,366.04 366.75,365.827 359.78,365.609 352.641,365.385 345.32,365.156 337.807,364.921 330.089,364.68 322.153,364.432 313.984,364.176 305.567,363.913 296.885,363.642 287.919,363.361 278.649,363.072 269.055,362.771 259.113,362.461 " />
<polyline fill="none" vector-effect="none" points="811.919,357.06 803.061,356.072 794.475,355.115 786.143,354.186 778.049,353.283 770.179,352.406 762.519,351.552 755.056,350.719 747.778,349.908 740.673,349.116 733.733,348.342 726.947,347.585 720.306,346.845 713.801,346.119 707.424,345.408 701.169,344.711 695.027,344.026 688.992,343.353 683.058,342.691 677.219,342.04 671.469,341.399 665.802,340.767 660.214,340.144 654.699,339.529 649.252,338.922 643.87,338.322 638.547,337.728 633.28,337.141 628.065,336.559 622.897,335.983 617.773,335.412 612.69,334.845 607.643,334.282 602.63,333.723 597.646,333.168 592.689,332.615 587.756,332.065 582.843,331.517 577.947,330.971 573.065,330.427 568.194,329.884 563.332,329.342 558.474,328.8 553.619,328.259 548.763,327.717 543.904,327.175 539.037,326.633 534.161,326.089 529.272,325.544 524.368,324.997 519.444,324.448 514.499,323.897 509.529,323.342 504.53,322.785 499.499,322.224 494.434,321.659 489.329,321.09 484.183,320.516 478.991,319.937 473.749,319.353 468.453,318.762 463.1,318.165 457.684,317.562 452.202,316.95 446.649,316.331 441.021,315.703 435.311,315.067 429.514,314.42 423.626,313.764 417.64,313.096 411.55,312.417 405.349,311.726 399.031,311.022 392.589,310.303 386.013,309.57 379.297,308.821 372.431,308.055 365.406,307.272 358.212,306.47 350.838,305.648 343.273,304.804 335.504,303.938 327.518,303.048 319.301,302.131 310.838,301.188 302.111,300.215 293.103,299.21 283.794,298.172 274.163,297.098 264.187,295.986 253.84,294.832 " />
<polyline fill="none" vector-effect="none" points="821.853,334.263 813.087,332.517 804.577,330.823 796.307,329.176 788.262,327.574 780.428,326.015 772.793,324.494 765.344,323.011 758.07,321.563 750.961,320.147 744.008,318.763 737.2,317.407 730.53,316.079 723.99,314.777 717.571,313.499 711.267,312.244 705.071,311.01 698.976,309.796 692.977,308.602 687.067,307.425 681.241,306.265 675.494,305.121 669.821,303.991 664.217,302.875 658.677,301.772 653.197,300.681 647.773,299.601 642.4,298.531 637.075,297.471 631.794,296.42 626.552,295.376 621.348,294.34 616.176,293.31 611.034,292.286 605.917,291.267 600.824,290.253 595.75,289.243 590.693,288.236 585.649,287.232 580.615,286.229 575.589,285.228 570.566,284.228 565.544,283.229 560.52,282.228 555.491,281.227 550.454,280.224 545.405,279.219 540.342,278.21 535.261,277.199 530.159,276.183 525.033,275.162 519.88,274.136 514.696,273.104 509.478,272.065 504.222,271.018 498.924,269.964 493.581,268.9 488.189,267.826 482.744,266.742 477.241,265.646 471.677,264.538 466.047,263.417 460.346,262.282 454.569,261.132 448.711,259.966 442.768,258.782 436.732,257.58 430.599,256.359 424.362,255.117 418.015,253.854 411.55,252.566 404.961,251.254 398.239,249.916 391.376,248.549 384.364,247.153 377.192,245.725 369.852,244.264 362.333,242.767 354.622,241.231 346.708,239.656 338.578,238.037 330.217,236.372 321.611,234.658 312.742,232.892 303.593,231.071 294.145,229.189 284.376,227.244 274.263,225.231 263.783,223.144 252.907,220.978 241.605,218.728 " />
<polyline fill="none" vector-effect="none" points="837.594,311.033 829.006,308.443 820.649,305.922 812.508,303.466 804.571,301.072 796.824,298.735 789.257,296.453 781.859,294.221 774.62,292.037 767.531,289.899 760.582,287.803 753.767,285.747 747.076,283.729 740.502,281.746 734.04,279.796 727.681,277.878 721.419,275.989 715.25,274.128 709.166,272.293 703.163,270.482 697.236,268.694 691.379,266.928 685.587,265.181 679.857,263.452 674.183,261.741 668.562,260.045 662.989,258.364 657.461,256.696 651.973,255.041 646.522,253.397 641.104,251.762 635.716,250.137 630.354,248.519 625.014,246.909 619.694,245.304 614.389,243.704 609.097,242.107 603.815,240.514 598.539,238.922 593.265,237.332 587.991,235.741 582.714,234.149 577.43,232.555 572.136,230.958 566.829,229.357 561.505,227.751 556.161,226.139 550.794,224.52 545.401,222.893 539.977,221.257 534.519,219.611 529.024,217.953 523.487,216.283 517.906,214.6 512.275,212.901 506.591,211.186 500.85,209.455 495.046,207.704 489.176,205.933 483.235,204.141 477.217,202.326 471.117,200.486 464.931,198.62 458.652,196.726 452.273,194.802 445.79,192.846 439.195,190.857 432.481,188.831 425.641,186.768 418.667,184.664 411.55,182.517 404.282,180.325 396.852,178.084 389.252,175.791 381.47,173.444 373.495,171.038 365.314,168.57 356.915,166.037 348.282,163.432 339.401,160.753 330.255,157.995 320.826,155.15 311.095,152.215 301.041,149.182 290.641,146.045 279.87,142.796 268.701,139.427 257.105,135.929 245.049,132.292 232.497,128.506 219.41,124.558 " />
<polyline fill="none" vector-effect="none" points="859.923,287.195 851.656,283.625 843.582,280.138 835.691,276.73 827.972,273.397 820.414,270.133 813.008,266.934 805.745,263.798 798.617,260.719 791.615,257.695 784.733,254.723 777.963,251.799 771.298,248.921 764.733,246.086 758.26,243.29 751.874,240.532 745.57,237.81 739.341,235.12 733.184,232.461 727.093,229.83 721.064,227.226 715.091,224.647 709.171,222.09 703.299,219.554 697.472,217.038 691.684,214.538 685.933,212.054 680.214,209.585 674.524,207.127 668.859,204.681 663.215,202.243 657.589,199.814 651.978,197.39 646.377,194.971 640.784,192.556 635.195,190.142 629.607,187.729 624.016,185.314 618.419,182.897 612.812,180.476 607.193,178.049 601.556,175.615 595.9,173.172 590.22,170.719 584.513,168.254 578.775,165.776 573.002,163.283 567.191,160.773 561.337,158.245 555.437,155.697 549.485,153.127 543.479,150.533 537.413,147.913 531.282,145.265 525.083,142.588 518.809,139.879 512.456,137.135 506.018,134.355 499.49,131.535 492.865,128.674 486.137,125.769 479.3,122.816 472.347,119.813 465.27,116.757 458.061,113.643 450.713,110.47 443.216,107.232 435.561,103.926 427.739,100.548 419.739,97.0933 411.55,93.5567 403.16,89.9331 394.555,86.2172 385.723,82.4029 376.649,78.4839 367.316,74.4533 357.708,70.3038 347.805,66.0272 337.589,61.6151 335.414,60.6758 " />
<polyline fill="none" vector-effect="none" points="865.273,494.843 862.559,492.411 859.923,489.988 857.364,487.572 854.881,485.163 852.472,482.762 850.136,480.368 847.873,477.982 845.68,475.602 843.556,473.229 841.502,470.863 839.515,468.503 837.594,466.149 835.739,463.802 833.949,461.46 832.222,459.125 830.558,456.794 828.957,454.47 827.416,452.15 825.936,449.835 824.516,447.526 823.155,445.221 821.853,442.92 820.608,440.624 819.421,438.332 818.29,436.044 817.216,433.759 816.197,431.479 815.233,429.201 814.323,426.927 813.468,424.657 812.667,422.388 811.919,420.123 811.225,417.86 810.583,415.6 809.993,413.342 809.456,411.085 808.971,408.831 808.537,406.578 808.155,404.326 807.824,402.076 807.544,399.827 807.315,397.579 807.138,395.331 807.011,393.084 806.935,390.838 806.909,388.591 806.935,386.345 807.011,384.098 807.138,381.852 807.315,379.604 807.544,377.356 807.824,375.107 808.155,372.857 808.537,370.605 808.971,368.352 809.456,366.098 809.993,363.841 810.583,361.583 811.225,359.323 811.919,357.06 812.667,354.794 813.468,352.526 814.323,350.255 815.233,347.981 816.197,345.704 817.216,343.423 818.29,341.139 819.421,338.851 820.608,336.559 821.853,334.263 823.155,331.962 824.516,329.657 825.936,327.348 827.416,325.033 828.957,322.713 830.558,320.389 832.222,318.058 833.949,315.722 835.739,313.381 837.594,311.033 839.515,308.68 841.502,306.32 843.556,303.954 845.68,301.581 847.873,299.201 850.136,296.815 852.472,294.421 854.881,292.02 857.364,289.611 859.923,287.195 " />
<polyline fill="none" vector-effect="none" points="790.635,529.408 787.635,525.918 784.733,522.46 781.926,519.031 779.213,515.633 776.589,512.262 774.054,508.919 771.605,505.602 769.24,502.31 766.957,499.043 764.754,495.8 762.63,492.579 760.582,489.38 758.61,486.202 756.711,483.044 754.885,479.906 753.129,476.787 751.442,473.685 749.824,470.601 748.272,467.532 746.786,464.48 745.365,461.443 744.008,458.42 742.712,455.411 741.479,452.415 740.306,449.431 739.193,446.459 738.14,443.499 737.144,440.548 736.207,437.608 735.326,434.677 734.502,431.755 733.733,428.841 733.02,425.935 732.361,423.035 731.757,420.143 731.207,417.256 730.71,414.374 730.267,411.497 729.876,408.625 729.538,405.756 729.252,402.89 729.019,400.027 728.838,397.167 728.708,394.307 728.63,391.449 728.604,388.591 728.63,385.734 728.708,382.876 728.838,380.016 729.019,377.156 729.252,374.293 729.538,371.427 729.876,368.558 730.267,365.686 730.71,362.809 731.207,359.927 731.757,357.04 732.361,354.148 733.02,351.248 733.733,348.342 734.502,345.428 735.326,342.506 736.207,339.575 737.144,336.635 738.14,333.684 739.193,330.724 740.306,327.752 741.479,324.768 742.712,321.772 744.008,318.763 745.365,315.74 746.786,312.703 748.272,309.65 749.824,306.582 751.442,303.498 753.129,300.396 754.885,297.277 756.711,294.138 758.61,290.981 760.582,287.803 762.63,284.604 764.754,281.383 766.957,278.14 769.24,274.873 771.605,271.581 774.054,268.264 776.589,264.921 779.213,261.55 781.926,258.151 784.733,254.723 " />
<polyline fill="none" vector-effect="none" points="726.983,558.886 723.97,554.39 721.064,549.957 718.262,545.582 715.561,541.263 712.958,536.999 710.45,532.787 708.033,528.624 705.705,524.509 703.464,520.44 701.307,516.415 699.232,512.432 697.236,508.489 695.317,504.584 693.474,500.716 691.705,496.883 690.008,493.085 688.38,489.318 686.821,485.582 685.329,481.875 683.903,478.196 682.541,474.544 681.241,470.918 680.003,467.315 678.826,463.735 677.708,460.177 676.649,456.64 675.647,453.122 674.701,449.622 673.812,446.139 672.977,442.673 672.196,439.221 671.469,435.784 670.794,432.359 670.172,428.947 669.602,425.546 669.083,422.154 668.614,418.772 668.196,415.398 667.828,412.032 667.51,408.671 667.241,405.317 667.021,401.966 666.85,398.619 666.728,395.275 666.655,391.933 666.631,388.591 666.655,385.25 666.728,381.908 666.85,378.564 667.021,375.217 667.241,371.866 667.51,368.511 667.828,365.151 668.196,361.784 668.614,358.411 669.083,355.028 669.602,351.637 670.172,348.236 670.794,344.824 671.469,341.399 672.196,337.962 672.977,334.51 673.812,331.044 674.701,327.561 675.647,324.061 676.649,320.543 677.708,317.006 678.826,313.448 680.003,309.868 681.241,306.265 682.541,302.639 683.903,298.986 685.329,295.308 686.821,291.601 688.38,287.865 690.008,284.098 691.705,280.299 693.474,276.467 695.317,272.599 697.236,268.694 699.232,264.751 701.307,260.768 703.464,256.743 705.705,252.673 708.033,248.559 710.45,244.396 712.958,240.184 715.561,235.92 718.262,231.601 721.064,227.226 " />
<polyline fill="none" vector-effect="none" points="668.79,585.835 665.948,580.339 663.215,574.94 660.588,569.634 658.062,564.417 655.635,559.284 653.301,554.232 651.058,549.257 648.903,544.356 646.833,539.525 644.845,534.761 642.936,530.06 641.104,525.421 639.347,520.839 637.662,516.313 636.047,511.84 634.5,507.417 633.019,503.041 631.603,498.712 630.25,494.426 628.958,490.181 627.726,485.975 626.552,481.807 625.436,477.674 624.375,473.574 623.369,469.506 622.417,465.467 621.517,461.457 620.668,457.473 619.87,453.514 619.123,449.579 618.424,445.665 617.773,441.771 617.171,437.896 616.615,434.038 616.106,430.196 615.642,426.369 615.225,422.554 614.852,418.751 614.524,414.959 614.24,411.175 614.001,407.4 613.805,403.63 613.653,399.866 613.545,396.106 613.48,392.348 613.458,388.591 613.48,384.835 613.545,381.077 613.653,377.317 613.805,373.553 614.001,369.783 614.24,366.008 614.524,362.224 614.852,358.432 615.225,354.629 615.642,350.814 616.106,346.987 616.615,343.145 617.171,339.287 617.773,335.412 618.424,331.518 619.123,327.604 619.87,323.668 620.668,319.71 621.517,315.726 622.417,311.716 623.369,307.677 624.375,303.609 625.436,299.509 626.552,295.376 627.726,291.208 628.958,287.002 630.25,282.757 631.603,278.471 633.019,274.141 634.5,269.766 636.047,265.343 637.662,260.87 639.347,256.344 641.104,251.762 642.936,247.123 644.845,242.422 646.833,237.658 648.903,232.827 651.058,227.926 653.301,222.951 655.635,217.899 658.062,212.766 660.588,207.549 663.215,202.243 " />
<polyline fill="none" vector-effect="none" points="612.103,612.087 609.596,605.54 607.193,599.134 604.888,592.862 602.679,586.718 600.56,580.695 598.529,574.786 596.582,568.986 594.715,563.29 592.925,557.692 591.209,552.188 589.566,546.773 587.991,541.442 586.484,536.192 585.041,531.018 583.66,525.917 582.339,520.884 581.078,515.918 579.873,511.013 578.723,506.167 577.626,501.378 576.582,496.641 575.589,491.954 574.645,487.315 573.749,482.721 572.9,478.17 572.097,473.658 571.339,469.184 570.625,464.745 569.955,460.339 569.327,455.964 568.74,451.618 568.194,447.299 567.689,443.005 567.223,438.733 566.797,434.482 566.409,430.251 566.06,426.036 565.748,421.837 565.474,417.652 565.237,413.479 565.037,409.315 564.873,405.161 564.747,401.012 564.656,396.869 564.602,392.73 564.584,388.591 564.602,384.453 564.656,380.314 564.747,376.171 564.873,372.022 565.037,367.867 565.237,363.704 565.474,359.531 565.748,355.345 566.06,351.146 566.409,346.932 566.797,342.7 567.223,338.45 567.689,334.178 568.194,329.884 568.74,325.564 569.327,321.218 569.955,316.844 570.625,312.438 571.339,307.999 572.097,303.525 572.9,299.013 573.749,294.461 574.645,289.867 575.589,285.228 576.582,280.542 577.626,275.805 578.723,271.016 579.873,266.17 581.078,261.265 582.339,256.299 583.66,251.266 585.041,246.165 586.484,240.991 587.991,235.741 589.566,230.41 591.209,224.995 592.925,219.491 594.715,213.893 596.582,208.197 598.529,202.397 600.56,196.488 602.679,190.465 604.888,184.32 607.193,178.049 " />
<polyline fill="none" vector-effect="none" points="553.369,639.287 551.383,631.574 549.485,624.056 547.671,616.724 545.936,609.567 544.277,602.575 542.69,595.74 541.172,589.052 539.72,582.505 538.332,576.09 537.003,569.801 535.733,563.63 534.519,557.572 533.359,551.621 532.25,545.77 531.19,540.016 530.179,534.352 529.214,528.774 528.294,523.278 527.417,517.858 526.582,512.511 525.788,507.233 525.033,502.021 524.317,496.869 523.638,491.776 522.995,486.737 522.388,481.749 521.815,476.81 521.276,471.916 520.771,467.064 520.297,462.252 519.855,457.476 519.444,452.735 519.064,448.025 518.714,443.344 518.394,438.69 518.102,434.06 517.84,429.452 517.606,424.863 517.4,420.292 517.223,415.736 517.073,411.192 516.95,406.659 516.855,402.135 516.787,397.617 516.746,393.103 516.733,388.591 516.746,384.08 516.787,379.566 516.855,375.048 516.95,370.524 517.073,365.991 517.223,361.447 517.4,356.891 517.606,352.32 517.84,347.731 518.102,343.123 518.394,338.493 518.714,333.839 519.064,329.158 519.444,324.448 519.855,319.707 520.297,314.931 520.771,310.119 521.276,305.267 521.815,300.373 522.388,295.434 522.995,290.446 523.638,285.407 524.317,280.314 525.033,275.162 525.788,269.949 526.582,264.672 527.417,259.325 528.294,253.905 529.214,248.409 530.179,242.831 531.19,237.167 532.25,231.413 533.359,225.562 534.519,219.611 535.733,213.553 537.003,207.382 538.332,201.093 539.72,194.678 541.172,188.131 542.69,181.443 544.277,174.608 545.936,167.616 547.671,160.459 549.485,153.127 " />
<polyline fill="none" vector-effect="none" points="488.489,669.333 487.285,660.239 486.137,651.414 485.044,642.842 484.002,634.506 483.008,626.394 482.059,618.492 481.155,610.787 480.292,603.269 479.468,595.927 478.682,588.75 477.932,581.73 477.217,574.857 476.534,568.124 475.883,561.522 475.263,555.044 474.671,548.684 474.108,542.435 473.571,536.29 473.061,530.244 472.576,524.291 472.114,518.427 471.677,512.645 471.262,506.941 470.869,501.31 470.498,495.749 470.147,490.253 469.817,484.817 469.507,479.439 469.215,474.113 468.943,468.837 468.689,463.608 468.453,458.421 468.235,453.273 468.034,448.162 467.85,443.084 467.683,438.036 467.533,433.015 467.399,428.019 467.282,423.044 467.18,418.088 467.094,413.148 467.024,408.221 466.97,403.304 466.931,398.395 466.908,393.492 466.9,388.591 466.908,383.691 466.931,378.787 466.97,373.879 467.024,368.962 467.094,364.035 467.18,359.095 467.282,354.139 467.399,349.164 467.533,344.168 467.683,339.147 467.85,334.099 468.034,329.021 468.235,323.91 468.453,318.762 468.689,313.575 468.943,308.346 469.215,303.07 469.507,297.744 469.817,292.366 470.147,286.93 470.498,281.434 470.869,275.873 471.262,270.242 471.677,264.538 472.114,258.756 472.576,252.892 473.061,246.939 473.571,240.893 474.108,234.748 474.671,228.499 475.263,222.139 475.883,215.661 476.534,209.059 477.217,202.326 477.932,195.453 478.682,188.433 479.468,181.256 480.292,173.913 481.155,166.395 482.059,158.691 483.008,150.789 484.002,142.677 485.044,134.341 486.137,125.769 " />
<polyline fill="none" vector-effect="none" points="411.55,704.964 411.55,694.109 411.55,683.626 411.55,673.491 411.55,663.681 411.55,654.174 411.55,644.951 411.55,635.995 411.55,627.288 411.55,618.815 411.55,610.563 411.55,602.517 411.55,594.666 411.55,586.997 411.55,579.5 411.55,572.165 411.55,564.982 411.55,557.943 411.55,551.038 411.55,544.26 411.55,537.602 411.55,531.057 411.55,524.617 411.55,518.276 411.55,512.029 411.55,505.869 411.55,499.791 411.55,493.79 411.55,487.86 411.55,481.998 411.55,476.197 411.55,470.455 411.55,464.766 411.55,459.126 411.55,453.531 411.55,447.978 411.55,442.462 411.55,436.981 411.55,431.529 411.55,426.104 411.55,420.703 411.55,415.321 411.55,409.955 411.55,404.603 411.55,399.26 411.55,393.924 411.55,388.591 411.55,383.259 411.55,377.923 411.55,372.58 411.55,367.228 411.55,361.862 411.55,356.48 411.55,351.079 411.55,345.654 411.55,340.202 411.55,334.72 411.55,329.205 411.55,323.652 411.55,318.057 411.55,312.417 411.55,306.728 411.55,300.986 411.55,295.185 411.55,289.323 411.55,283.393 411.55,277.392 411.55,271.314 411.55,265.154 411.55,258.907 411.55,252.566 411.55,246.126 411.55,239.581 411.55,232.923 411.55,226.145 411.55,219.24 411.55,212.201 411.55,205.018 411.55,197.683 411.55,190.186 411.55,182.517 411.55,174.666 411.55,166.62 411.55,158.368 411.55,149.895 411.55,141.188 411.55,132.232 411.55,123.009 411.55,113.502 411.55,103.692 411.55,93.5567 " />
<polyline fill="none" vector-effect="none" points="317.36,716.324 317.908,712.543 319.594,700.709 321.189,689.302 322.7,678.293 324.132,667.653 325.489,657.358 326.776,647.384 327.997,637.711 329.155,628.318 330.255,619.188 331.298,610.304 332.288,601.65 333.228,593.211 334.12,584.974 334.966,576.927 335.769,569.058 336.53,561.355 337.25,553.809 337.933,546.409 338.578,539.146 339.188,532.012 339.764,524.999 340.307,518.099 340.819,511.304 341.299,504.607 341.75,498.003 342.172,491.483 342.566,485.043 342.933,478.677 343.273,472.379 343.587,466.143 343.875,459.964 344.139,453.838 344.378,447.759 344.593,441.723 344.784,435.725 344.953,429.761 345.098,423.826 345.22,417.916 345.32,412.026 345.397,406.153 345.453,400.293 345.486,394.44 345.497,388.591 345.486,382.743 345.453,376.89 345.397,371.03 345.32,365.156 345.22,359.267 345.098,353.357 344.953,347.422 344.784,341.457 344.593,335.46 344.378,329.424 344.139,323.345 343.875,317.219 343.587,311.04 343.273,304.804 342.933,298.506 342.566,292.139 342.172,285.7 341.75,279.18 341.299,272.576 340.819,265.879 340.307,259.084 339.764,252.184 339.188,245.17 338.578,238.037 337.933,230.774 337.25,223.374 336.53,215.828 335.769,208.125 334.966,200.256 334.12,192.209 333.228,183.972 332.288,175.533 331.298,166.879 330.255,157.995 329.155,148.864 327.997,139.472 326.776,129.799 325.489,119.825 324.132,109.53 322.7,98.8903 321.189,87.8807 319.594,76.4739 317.908,64.6399 317.333,60.6758 " />
<polyline fill="none" vector-effect="none" points="201.248,716.324 202.657,711.644 206.402,698.967 209.937,686.759 213.275,674.986 216.429,663.618 219.41,652.625 222.228,641.98 224.894,631.661 227.415,621.644 229.799,611.91 232.055,602.439 234.187,593.213 236.203,584.216 238.108,575.434 239.907,566.851 241.605,558.455 243.207,550.233 244.716,542.173 246.136,534.265 247.47,526.498 248.722,518.863 249.894,511.35 250.99,503.95 252.011,496.656 252.961,489.458 253.84,482.351 254.651,475.325 255.395,468.375 256.075,461.493 256.691,454.674 257.244,447.91 257.737,441.197 258.169,434.527 258.542,427.895 258.856,421.295 259.113,414.722 259.312,408.171 259.453,401.636 259.538,395.111 259.567,388.591 259.538,382.072 259.453,375.547 259.312,369.012 259.113,362.461 258.856,355.888 258.542,349.288 258.169,342.656 257.737,335.986 257.244,329.272 256.691,322.509 256.075,315.689 255.395,308.808 254.651,301.858 253.84,294.832 252.961,287.724 252.011,280.527 250.99,273.233 249.894,265.833 248.722,258.32 247.47,250.684 246.136,242.918 244.716,235.01 243.207,226.95 241.605,218.728 239.907,210.332 238.108,201.749 236.203,192.967 234.187,183.97 232.055,174.744 229.799,165.273 227.415,155.538 224.894,145.522 222.228,135.202 219.41,124.558 216.429,113.565 213.275,102.196 209.937,90.4239 206.402,78.216 202.657,65.5385 201.193,60.6758 " />
</g>

<g fill="none" stroke="#ff0000" stroke-opacity="1" stroke-width="4.16667" stroke-linecap="butt" stroke-linejoin="round" transform="matrix(0.719538,0,0,0.717643,-73.7118,-42.1036)"
font-family="Helvetica" font-size="13" font-weight="400" font-style="normal" 
>
<polyline fill="none" vector-effect="none" points="483.673,587.129 717.067,511.294 717.067,265.889 483.673,190.054 339.427,388.591 483.673,587.129 " />
</g>
</g>
</svg>
