<?xml version="1.0" encoding="UTF-8" standalone="no"?>
<svg width="220.839mm" height="171.45mm"
 viewBox="0 0 626 486"
 xmlns="http://www.w3.org/2000/svg" xmlns:xlink="http://www.w3.org/1999/xlink"  version="1.2" baseProfile="tiny">
<title>Qt SVG Document</title>
<desc>MATLAB, The MathWorks, Inc. Version 25.2.0.3150157 R2025b Update 4</desc>
<defs>
</defs>
<g fill="none" stroke="black" stroke-width="1" fill-rule="evenodd" stroke-linecap="square" stroke-linejoin="bevel" >

<g fill="#000000" fill-opacity="1" stroke="none" transform="matrix(0.719538,0,0,0.717448,-73.7118,-42.0261)"
font-family="Sans Serif" font-size="9" font-weight="400" font-style="normal" 
>
<path vector-effect="none" fill-rule="evenodd" d="M101,57 L973,57 L973,736 L101,736 L101,57"/>
</g>

<g fill="#121212" fill-opacity="1" stroke="none" transform="matrix(7.19538e-05,0,0,7.17448e-05,-73.7118,-42.0261)"
font-family="Sans Serif" font-size="9" font-weight="400" font-style="normal" 
>
<path vector-effect="none" fill-rule="evenodd" d="M1.39e+06,605843 L1.39e+06,7.16416e+06 L9.71e+06,7.16416e+06 L9.71e+06,605843 L1.39e+06,605843"/>
</g>

<g fill="#d9d9d9" fill-opacity="1" stroke="#d9d9d9" stroke-opacity="1" stroke-width="0.694444" stroke-linecap="square" stroke-linejoin="round" transform="matrix(0.719538,0,0,0.717448,-73.7118,-42.0261)"
font-family="Sans Serif" font-size="9" font-weight="400" font-style="normal" 
>
<polyline fill="none" vector-effect="none" points="139,716.416 971,716.416 " />
<polyline fill="none" vector-effect="none" points="202.095,716.416 202.095,708.096 " />
<polyline fill="none" vector-effect="none" points="309.173,716.416 309.173,708.096 " />
<polyline fill="none" vector-effect="none" points="416.251,716.416 416.251,708.096 " />
<polyline fill="none" vector-effect="none" points="523.329,716.416 523.329,708.096 " />
<polyline fill="none" vector-effect="none" points="630.407,716.416 630.407,708.096 " />
<polyline fill="none" vector-effect="none" points="737.485,716.416 737.485,708.096 " />
<polyline fill="none" vector-effect="none" points="844.563,716.416 844.563,708.096 " />
<polyline fill="none" vector-effect="none" points="951.641,716.416 951.641,708.096 " />
</g>

<g fill="#d9d9d9" fill-opacity="1" stroke="#d9d9d9" stroke-opacity="1" stroke-width="1" stroke-linecap="square" stroke-linejoin="bevel" transform="matrix(0.719538,0,0,0.717448,60.91,484.56)"
font-family="Helvetica" font-size="13" font-weight="400" font-style="normal" 
>
<text fill="#d9d9d9" fill-opacity="1" stroke="none" xml:space="preserve" x="0" y="0" font-family="Helvetica" font-size="13" font-weight="400" font-style="normal" 
 >-0.15</text>
</g>

<g fill="#d9d9d9" fill-opacity="1" stroke="#d9d9d9" stroke-opacity="1" stroke-width="1" stroke-linecap="square" stroke-linejoin="bevel" transform="matrix(0.719538,0,0,0.717448,140.835,484.56)"
font-family="Helvetica" font-size="13" font-weight="400" font-style="normal" 
>
<text fill="#d9d9d9" fill-opacity="1" stroke="none" xml:space="preserve" x="0" y="0" font-family="Helvetica" font-size="13" font-weight="400" font-style="normal" 
 >-0.1</text>
</g>

<g fill="#d9d9d9" fill-opacity="1" stroke="#d9d9d9" stroke-opacity="1" stroke-width="1" stroke-linecap="square" stroke-linejoin="bevel" transform="matrix(0.719538,0,0,0.717448,215.003,484.56)"
font-family="Helvetica" font-size="13" font-weight="400" font-style="normal" 
>
<text fill="#d9d9d9" fill-opacity="1" stroke="none" xml:space="preserve" x="0" y="0" font-family="Helvetica" font-size="13" font-weight="400" font-style="normal" 
 >-0.05</text>
</g>

<g fill="#d9d9d9" fill-opacity="1" stroke="#d9d9d9" stroke-opacity="1" stroke-width="1" stroke-linecap="square" stroke-linejoin="bevel" transform="matrix(0.719538,0,0,0.717448,300.325,484.56)"
font-family="Helvetica" font-size="13" font-weight="400" font-style="normal" 
>
<text fill="#d9d9d9" fill-opacity="1" stroke="none" xml:space="preserve" x="0" y="0" font-family="Helvetica" font-size="13" font-weight="400" font-style="normal" 
 >0</text>
</g>

<g fill="#d9d9d9" fill-opacity="1" stroke="#d9d9d9" stroke-opacity="1" stroke-width="1" stroke-linecap="square" stroke-linejoin="bevel" transform="matrix(0.719538,0,0,0.717448,370.896,484.56)"
font-family="Helvetica" font-size="13" font-weight="400" font-style="normal" 
>
<text fill="#d9d9d9" fill-opacity="1" stroke="none" xml:space="preserve" x="0" y="0" font-family="Helvetica" font-size="13" font-weight="400" font-style="normal" 
 >0.05</text>
</g>

<g fill="#d9d9d9" fill-opacity="1" stroke="#d9d9d9" stroke-opacity="1" stroke-width="1" stroke-linecap="square" stroke-linejoin="bevel" transform="matrix(0.719538,0,0,0.717448,450.461,484.56)"
font-family="Helvetica" font-size="13" font-weight="400" font-style="normal" 
>
<text fill="#d9d9d9" fill-opacity="1" stroke="none" xml:space="preserve" x="0" y="0" font-family="Helvetica" font-size="13" font-weight="400" font-style="normal" 
 >0.1</text>
</g>

<g fill="#d9d9d9" fill-opacity="1" stroke="#d9d9d9" stroke-opacity="1" stroke-width="1" stroke-linecap="square" stroke-linejoin="bevel" transform="matrix(0.719538,0,0,0.717448,524.989,484.56)"
font-family="Helvetica" font-size="13" font-weight="400" font-style="normal" 
>
<text fill="#d9d9d9" fill-opacity="1" stroke="none" xml:space="preserve" x="0" y="0" font-family="Helvetica" font-size="13" font-weight="400" font-style="normal" 
 >0.15</text>
</g>

<g fill="#d9d9d9" fill-opacity="1" stroke="#d9d9d9" stroke-opacity="1" stroke-width="1" stroke-linecap="square" stroke-linejoin="bevel" transform="matrix(0.719538,0,0,0.717448,604.554,484.56)"
font-family="Helvetica" font-size="13" font-weight="400" font-style="normal" 
>
<text fill="#d9d9d9" fill-opacity="1" stroke="none" xml:space="preserve" x="0" y="0" font-family="Helvetica" font-size="13" font-weight="400" font-style="normal" 
 >0.2</text>
</g>

<g fill="#d9d9d9" fill-opacity="1" stroke="#d9d9d9" stroke-opacity="1" stroke-width="0.694444" stroke-linecap="square" stroke-linejoin="round" transform="matrix(0.719538,0,0,0.717448,-73.7118,-42.0261)"
font-family="Helvetica" font-size="13" font-weight="400" font-style="normal" 
>
<polyline fill="none" vector-effect="none" points="139,716.416 139,60.5844 " />
<polyline fill="none" vector-effect="none" points="139,709.734 147.32,709.734 " />
<polyline fill="none" vector-effect="none" points="139,602.656 147.32,602.656 " />
<polyline fill="none" vector-effect="none" points="139,495.578 147.32,495.578 " />
<polyline fill="none" vector-effect="none" points="139,388.5 147.32,388.5 " />
<polyline fill="none" vector-effect="none" points="139,281.422 147.32,281.422 " />
<polyline fill="none" vector-effect="none" points="139,174.344 147.32,174.344 " />
<polyline fill="none" vector-effect="none" points="139,67.266 147.32,67.266 " />
</g>

<g fill="#d9d9d9" fill-opacity="1" stroke="#d9d9d9" stroke-opacity="1" stroke-width="1" stroke-linecap="square" stroke-linejoin="bevel" transform="matrix(0.719538,0,0,0.717448,0.720462,470.4)"
font-family="Helvetica" font-size="13" font-weight="400" font-style="normal" 
>
<text fill="#d9d9d9" fill-opacity="1" stroke="none" xml:space="preserve" x="0" y="0" font-family="Helvetica" font-size="13" font-weight="400" font-style="normal" 
 >-0.15</text>
</g>

<g fill="#d9d9d9" fill-opacity="1" stroke="#d9d9d9" stroke-opacity="1" stroke-width="1" stroke-linecap="square" stroke-linejoin="bevel" transform="matrix(0.719538,0,0,0.717448,6.47677,393.577)"
font-family="Helvetica" font-size="13" font-weight="400" font-style="normal" 
>
<text fill="#d9d9d9" fill-opacity="1" stroke="none" xml:space="preserve" x="0" y="0" font-family="Helvetica" font-size="13" font-weight="400" font-style="normal" 
 >-0.1</text>
</g>

<g fill="#d9d9d9" fill-opacity="1" stroke="#d9d9d9" stroke-opacity="1" stroke-width="1" stroke-linecap="square" stroke-linejoin="bevel" transform="matrix(0.719538,0,0,0.717448,0.720462,316.754)"
font-family="Helvetica" font-size="13" font-weight="400" font-style="normal" 
>
<text fill="#d9d9d9" fill-opacity="1" stroke="none" xml:space="preserve" x="0" y="0" font-family="Helvetica" font-size="13" font-weight="400" font-style="normal" 
 >-0.05</text>
</g>

<g fill="#d9d9d9" fill-opacity="1" stroke="#d9d9d9" stroke-opacity="1" stroke-width="1" stroke-linecap="square" stroke-linejoin="bevel" transform="matrix(0.719538,0,0,0.717448,17.2698,239.931)"
font-family="Helvetica" font-size="13" font-weight="400" font-style="normal" 
>
<text fill="#d9d9d9" fill-opacity="1" stroke="none" xml:space="preserve" x="0" y="0" font-family="Helvetica" font-size="13" font-weight="400" font-style="normal" 
 >0</text>
</g>

<g fill="#d9d9d9" fill-opacity="1" stroke="#d9d9d9" stroke-opacity="1" stroke-width="1" stroke-linecap="square" stroke-linejoin="bevel" transform="matrix(0.719538,0,0,0.717448,4.31815,163.108)"
font-family="Helvetica" font-size="13" font-weight="400" font-style="normal" 
>
<text fill="#d9d9d9" fill-opacity="1" stroke="none" xml:space="preserve" x="0" y="0" font-family="Helvetica" font-size="13" font-weight="400" font-style="normal" 
 >0.05</text>
</g>

<g fill="#d9d9d9" fill-opacity="1" stroke="#d9d9d9" stroke-opacity="1" stroke-width="1" stroke-linecap="square" stroke-linejoin="bevel" transform="matrix(0.719538,0,0,0.717448,9.35492,86.2851)"
font-family="Helvetica" font-size="13" font-weight="400" font-style="normal" 
>
<text fill="#d9d9d9" fill-opacity="1" stroke="none" xml:space="preserve" x="0" y="0" font-family="Helvetica" font-size="13" font-weight="400" font-style="normal" 
 >0.1</text>
</g>

<g fill="#d9d9d9" fill-opacity="1" stroke="#d9d9d9" stroke-opacity="1" stroke-width="1" stroke-linecap="square" stroke-linejoin="bevel" transform="matrix(0.719538,0,0,0.717448,4.31815,9.46225)"
font-family="Helvetica" font-size="13" font-weight="400" font-style="normal" 
>
<text fill="#d9d9d9" fill-opacity="1" stroke="none" xml:space="preserve" x="0" y="0" font-family="Helvetica" font-size="13" font-weight="400" font-style="normal" 
 >0.15</text>
</g>

<g fill="#2699d4" fill-opacity="0.14902" stroke="none" transform="matrix(7.19538e-05,0,0,7.17448e-05,-73.7118,-42.0261)"
font-family="Helvetica" font-size="13" font-weight="400" font-style="normal" 
>
<path vector-effect="none" fill-rule="evenodd" d="M9.71e+06,7.16416e+06 L9.71e+06,605843 L8.51244e+06,605843 L1.39e+06,605843 L1.39e+06,7.16416e+06 L1.95413e+06,7.16416e+06 L9.71e+06,7.16416e+06"/>
</g>

<g fill="#75ab2e" fill-opacity="0.34902" stroke="none" transform="matrix(7.19538e-05,0,0,7.17448e-05,-73.7118,-42.0261)"
font-family="Helvetica" font-size="13" font-weight="400" font-style="normal" 
>
<path vector-effect="none" fill-rule="evenodd" d="M3.17134e+06,5.94603e+06 L3.2569e+06,5.88467e+06 L3.10679e+06,5.71309e+06 L2.94106e+06,5.76747e+06 L1.98103e+06,5.02305e+06 L2.28107e+06,4.89367e+06 L2.59265e+06,4.7553e+06 L2.6825e+06,4.77881e+06 L2.68831e+06,4.71204e+06 L2.60688e+06,4.58841e+06 L2.78928e+06,4.54057e+06 L3.04053e+06,4.48888e+06 L3.34205e+06,4.4651e+06 L3.41419e+06,4.40096e+06 L3.55124e+06,4.33422e+06 L3.80667e+06,4.10052e+06 L3.68255e+06,4.13194e+06 L3.48619e+06,4.19558e+06 L3.27316e+06,4.3517e+06 L3.1974e+06,4.41632e+06 L2.88309e+06,4.37622e+06 L2.88567e+06,4.31401e+06 L2.96788e+06,4.3095e+06 L3.12842e+06,4.18119e+06 L3.20544e+06,4.06062e+06 L3.31443e+06,4.05807e+06 L3.20633e+06,3.94349e+06 L3.1314e+06,3.82593e+06 L3.05444e+06,3.82533e+06 L2.81007e+06,3.85421e+06 L2.58835e+06,3.91665e+06 L3.2058e+06,4.02544e+06 L2.346e+06,4.01544e+06 L2.24403e+06,3.951e+06 L2.13621e+06,3.75128e+06 L2.33638e+06,3.78707e+06 L2.34458e+06,3.6892e+06 L2.24158e+06,3.68679e+06 L2.12924e+06,3.54972e+06 L2.0656e+06,3.41096e+06 L1.87917e+06,3.26031e+06 L1.73889e+06,3.10614e+06 L1.59809e+06,3.01993e+06 L1.39e+06,2.92834e+06 L1.39e+06,2.93139e+06 L1.39e+06,2.9369e+06 L1.39e+06,2.96823e+06 L1.39e+06,4.38235e+06 L1.39e+06,4.56476e+06 L1.98103e+06,5.02305e+06 L1.92489e+06,5.04725e+06 L2.03734e+06,5.06922e+06 L1.87383e+06,5.32142e+06 L2.09901e+06,5.36128e+06 L2.19863e+06,5.42082e+06 L2.29529e+06,5.4802e+06 L2.37492e+06,5.6208e+06 L2.54261e+06,5.82438e+06 L2.74384e+06,5.77653e+06 L2.92715e+06,5.77203e+06 L2.94106e+06,5.76747e+06 L3.17134e+06,5.94603e+06"/>
</g>

<g fill="#75ab2e" fill-opacity="0.34902" stroke="none" transform="matrix(7.19538e-05,0,0,7.17448e-05,-73.7118,-42.0261)"
font-family="Helvetica" font-size="13" font-weight="400" font-style="normal" 
>
<path vector-effect="none" fill-rule="evenodd" d="M1.53549e+06,7.16416e+06 L1.71153e+06,7.16416e+06 L1.85968e+06,7.16416e+06 L2.54948e+06,7.16416e+06 L2.73549e+06,7.16416e+06 L3.00204e+06,7.16416e+06 L3.71176e+06,7.16416e+06 L3.9187e+06,7.16416e+06 L4.01368e+06,7.16416e+06 L4.09593e+06,7.16416e+06 L4.38928e+06,7.16416e+06 L4.65054e+06,7.16416e+06 L4.68154e+06,7.16416e+06 L4.74229e+06,7.16416e+06 L3.17134e+06,5.94603e+06 L3.07435e+06,6.01558e+06 L2.87563e+06,6.15696e+06 L2.55017e+06,6.34295e+06 L1.91576e+06,6.63526e+06 L1.39877e+06,6.79716e+06 L1.74214e+06,6.79511e+06 L1.77914e+06,6.89084e+06 L1.66726e+06,7.04055e+06 L1.53549e+06,7.16416e+06"/>
</g>

<g fill="none" stroke="#1a330d" stroke-opacity="1" stroke-width="0.486111" stroke-linecap="square" stroke-linejoin="miter" stroke-miterlimit="5" transform="matrix(0.719538,0,0,0.717448,-73.7118,-42.0261)"
font-family="Helvetica" font-size="13" font-weight="400" font-style="normal" 
>
<polyline fill="none" vector-effect="none" points="139,292.834 159.809,301.993 173.889,310.614 187.917,326.031 206.56,341.096 212.924,354.972 224.158,368.679 234.458,368.92 233.638,378.707 213.621,375.128 224.403,395.1 234.6,401.544 320.58,402.544 258.835,391.665 281.007,385.421 305.444,382.533 313.14,382.593 320.633,394.349 331.443,405.807 320.544,406.062 312.841,418.119 296.788,430.95 288.567,431.401 288.309,437.622 319.74,441.632 327.316,435.17 348.619,419.558 368.255,413.194 380.667,410.052 355.124,433.422 341.419,440.096 334.205,446.51 304.053,448.888 278.928,454.057 260.688,458.84 268.831,471.204 268.25,477.881 259.265,475.53 228.107,489.367 192.489,504.725 203.734,506.922 187.383,532.142 209.901,536.128 219.863,542.082 229.529,548.02 237.492,562.08 254.261,582.438 274.384,577.653 292.715,577.203 310.679,571.309 325.69,588.467 307.435,601.558 287.563,615.696 255.017,634.295 191.576,663.526 139.877,679.716 174.214,679.511 177.914,689.084 166.726,704.055 153.549,716.416 " />
</g>

<g fill="#1a330d" fill-opacity="1" stroke="#1a330d" stroke-opacity="1" stroke-width="0.486111" stroke-linecap="square" stroke-linejoin="miter" stroke-miterlimit="5" transform="matrix(0.719538,0,0,0.717448,-73.7118,-42.0261)"
font-family="Helvetica" font-size="13" font-weight="400" font-style="normal" 
>
<polyline fill="none" vector-effect="none" points="474.229,716.416 139,456.476 " />
</g>

<g fill="#75ab2e" fill-opacity="0.34902" stroke="none" transform="matrix(7.19538e-05,0,0,7.17448e-05,-73.7118,-42.0261)"
font-family="Helvetica" font-size="13" font-weight="400" font-style="normal" 
>
<path vector-effect="none" fill-rule="evenodd" d="M4.93861e+06,3.33747e+06 L4.97609e+06,3.52533e+06 L5.02036e+06,3.6181e+06 L5.16401e+06,3.63359e+06 L5.40621e+06,3.59439e+06 L5.50543e+06,3.5586e+06 L5.57523e+06,3.60367e+06 L5.65481e+06,3.52774e+06 L5.63814e+06,3.40397e+06 L5.64808e+06,3.19447e+06 L5.61331e+06,3.10193e+06 L5.53884e+06,2.95271e+06 L5.69161e+06,2.74409e+06 L5.80668e+06,2.72177e+06 L5.71654e+06,2.64999e+06 L5.86365e+06,2.71589e+06 L5.83367e+06,2.62889e+06 L5.96848e+06,2.56318e+06 L6.1456e+06,2.40566e+06 L6.11094e+06,2.33898e+06 L6.18572e+06,2.30821e+06 L6.22077e+06,2.08192e+06 L6.02302e+06,1.93515e+06 L5.83769e+06,1.7413e+06 L5.81529e+06,1.62355e+06 L5.67177e+06,1.6526e+06 L5.56098e+06,1.58741e+06 L5.3846e+06,1.74522e+06 L5.17837e+06,1.81352e+06 L5.04269e+06,1.86583e+06 L4.88921e+06,1.85521e+06 L4.84836e+06,1.91349e+06 L4.82592e+06,1.97687e+06 L4.81738e+06,2.11095e+06 L4.98078e+06,2.16024e+06 L4.96528e+06,2.28284e+06 L4.90091e+06,2.3271e+06 L4.77067e+06,2.44561e+06 L4.66349e+06,2.38894e+06 L4.58399e+06,2.60988e+06 L4.62333e+06,2.78729e+06 L4.72431e+06,2.85941e+06 L4.66277e+06,2.95556e+06 L4.8004e+06,3.17822e+06 L4.93861e+06,3.33747e+06"/>
</g>

<g fill="none" stroke="#1a330d" stroke-opacity="1" stroke-width="0.486111" stroke-linecap="square" stroke-linejoin="miter" stroke-miterlimit="5" transform="matrix(0.719538,0,0,0.717448,-73.7118,-42.0261)"
font-family="Helvetica" font-size="13" font-weight="400" font-style="normal" 
>
<polyline fill="none" vector-effect="none" points="482.592,197.687 484.836,191.349 488.921,185.521 504.269,186.583 517.837,181.352 538.46,174.522 556.098,158.741 567.177,165.26 581.529,162.355 583.769,174.13 602.302,193.515 622.077,208.192 618.572,230.821 611.094,233.898 614.56,240.566 596.848,256.318 583.367,262.889 586.365,271.589 571.654,264.999 580.668,272.177 569.161,274.409 553.884,295.271 561.331,310.193 564.808,319.447 563.814,340.397 565.481,352.774 557.523,360.367 550.542,355.86 540.621,359.439 516.401,363.359 502.036,361.81 497.609,352.533 493.861,333.747 480.04,317.822 466.277,295.556 472.431,285.941 462.333,278.729 458.399,260.988 466.349,238.894 477.067,244.561 490.091,232.71 496.528,228.284 498.078,216.024 481.738,211.095 482.592,197.687 482.592,197.687 " />
</g>

<g fill="#75ab2e" fill-opacity="0.34902" stroke="none" transform="matrix(7.19538e-05,0,0,7.17448e-05,-73.7118,-42.0261)"
font-family="Helvetica" font-size="13" font-weight="400" font-style="normal" 
>
<path vector-effect="none" fill-rule="evenodd" d="M8.58437e+06,2.67483e+06 L8.17584e+06,2.86918e+06 L8.01904e+06,2.98201e+06 L7.87953e+06,3.09723e+06 L7.706e+06,3.34429e+06 L7.77248e+06,3.3563e+06 L7.6211e+06,3.46423e+06 L7.59926e+06,3.59039e+06 L7.48483e+06,3.7845e+06 L7.59597e+06,3.93345e+06 L7.55186e+06,4.00812e+06 L7.57839e+06,4.08111e+06 L7.58943e+06,4.20601e+06 L7.64485e+06,4.32346e+06 L7.85395e+06,4.56141e+06 L8.14661e+06,4.68412e+06 L8.38496e+06,4.69337e+06 L8.23019e+06,4.7789e+06 L8.04082e+06,4.81361e+06 L8.25444e+06,5.09894e+06 L8.31965e+06,5.19877e+06 L8.31492e+06,5.29961e+06 L8.76172e+06,5.44762e+06 L9.17265e+06,5.574e+06 L9.33673e+06,5.55827e+06 L9.45412e+06,5.82582e+06 L9.71e+06,5.78785e+06 L9.71e+06,5.73224e+06 L9.71e+06,4.67089e+06 L9.71e+06,4.26745e+06 L9.71e+06,3.31472e+06 L9.67173e+06,3.31793e+06 L9.37921e+06,3.12981e+06 L9.50099e+06,2.95738e+06 L9.06211e+06,2.87772e+06 L8.99183e+06,2.70968e+06 L9.10156e+06,2.54181e+06 L9.06538e+06,2.51137e+06 L8.83514e+06,2.60177e+06 L8.58437e+06,2.67483e+06"/>
</g>

<g fill="none" stroke="#1a330d" stroke-opacity="1" stroke-width="0.486111" stroke-linecap="square" stroke-linejoin="miter" stroke-miterlimit="5" transform="matrix(0.719538,0,0,0.717448,-73.7118,-42.0261)"
font-family="Helvetica" font-size="13" font-weight="400" font-style="normal" 
>
<polyline fill="none" vector-effect="none" points="971,578.785 945.411,582.582 933.673,555.827 917.265,557.4 876.172,544.762 831.492,529.961 831.965,519.877 825.444,509.894 804.082,481.361 823.019,477.89 838.496,469.337 814.661,468.412 785.395,456.141 764.485,432.346 758.943,420.601 757.839,408.111 755.186,400.812 759.597,393.345 748.483,378.45 759.926,359.039 762.11,346.423 777.248,335.63 770.6,334.429 787.953,309.723 801.904,298.201 817.584,286.918 858.437,267.483 883.514,260.177 906.538,251.137 910.156,254.181 899.183,270.968 906.211,287.772 950.099,295.738 937.921,312.981 967.173,331.793 971,331.472 " />
</g>

<g fill="none" stroke="#000000" stroke-opacity="1" stroke-width="0.694444" stroke-linecap="butt" stroke-linejoin="round" transform="matrix(0.719538,0,0,0.717448,-73.7118,-42.0261)"
font-family="Helvetica" font-size="13" font-weight="400" font-style="normal" 
>
<polyline fill="none" vector-effect="none" points="846.09,499.639 838.01,503.653 830.106,507.578 822.368,511.422 814.785,515.188 807.349,518.881 800.052,522.506 792.884,526.066 785.838,529.565 778.908,533.007 772.085,536.396 765.364,539.734 758.739,543.025 752.202,546.272 745.749,549.477 739.374,552.643 733.072,555.773 726.838,558.87 720.667,561.935 714.554,564.971 708.495,567.98 702.486,570.965 696.522,573.927 690.599,576.869 684.714,579.792 678.862,582.699 673.039,585.591 667.242,588.47 661.467,591.338 655.71,594.198 649.968,597.049 644.238,599.896 638.515,602.738 632.797,605.578 627.079,608.418 621.359,611.259 615.633,614.103 609.897,616.952 604.148,619.808 598.382,622.672 592.595,625.546 586.785,628.431 580.947,631.331 575.077,634.247 569.172,637.18 563.227,640.132 557.24,643.106 551.204,646.104 545.117,649.127 538.974,652.178 532.769,655.26 526.499,658.374 520.159,661.523 513.743,664.71 507.245,667.937 500.662,671.207 493.986,674.523 487.211,677.888 480.331,681.305 473.34,684.778 466.229,688.309 458.993,691.903 451.622,695.564 444.109,699.296 436.444,703.103 428.618,706.99 420.621,710.962 412.442,715.024 409.641,716.416 " />
<polyline fill="none" vector-effect="none" points="820.826,475.511 812.346,478.474 804.082,481.361 796.023,484.177 788.155,486.926 780.468,489.612 772.95,492.239 765.592,494.81 758.385,497.328 751.319,499.797 744.386,502.219 737.579,504.597 730.89,506.935 724.312,509.233 717.838,511.495 711.462,513.723 705.178,515.918 698.981,518.084 692.864,520.221 686.823,522.332 680.852,524.418 674.947,526.481 669.103,528.523 663.316,530.545 657.582,532.549 651.896,534.535 646.253,536.507 640.652,538.464 635.086,540.409 629.554,542.342 624.05,544.265 618.572,546.179 613.117,548.085 607.68,549.985 602.258,551.879 596.848,553.769 591.447,555.656 586.051,557.542 580.657,559.426 575.261,561.312 569.861,563.198 564.453,565.088 559.034,566.981 553.601,568.88 548.149,570.785 542.676,572.697 537.179,574.618 531.652,576.549 526.094,578.491 520.5,580.445 514.867,582.413 509.19,584.397 503.466,586.397 497.69,588.415 491.859,590.453 485.967,592.511 480.011,594.592 473.985,596.698 467.884,598.829 461.704,600.989 455.438,603.178 449.082,605.399 442.629,607.654 436.073,609.944 429.408,612.273 422.626,614.643 415.72,617.056 408.683,619.514 401.506,622.022 394.18,624.582 386.697,627.196 379.046,629.87 371.217,632.605 363.198,635.407 354.978,638.279 346.544,641.226 337.882,644.253 328.976,647.364 319.812,650.566 310.371,653.865 300.636,657.266 290.585,660.778 280.196,664.408 269.447,668.164 258.31,672.055 246.757,676.092 234.757,680.285 222.276,684.646 209.276,689.188 195.716,693.926 181.549,698.875 " />
<polyline fill="none" vector-effect="none" points="802.563,452.059 793.856,454.129 785.395,456.141 777.167,458.097 769.155,460.003 761.348,461.859 753.732,463.67 746.297,465.438 739.032,467.165 731.926,468.855 724.971,470.509 718.157,472.129 711.476,473.718 704.92,475.277 698.483,476.808 692.156,478.312 685.934,479.792 679.81,481.248 673.778,482.682 667.832,484.096 661.968,485.49 656.18,486.867 650.462,488.226 644.811,489.57 639.222,490.899 633.69,492.214 628.211,493.517 622.782,494.808 617.398,496.089 612.055,497.359 606.75,498.621 601.479,499.874 596.239,501.12 591.026,502.36 585.836,503.593 580.668,504.823 575.516,506.048 570.379,507.269 565.252,508.488 560.134,509.705 555.019,510.921 549.907,512.137 544.793,513.353 539.673,514.57 534.547,515.79 529.409,517.011 524.256,518.236 519.087,519.466 513.897,520.7 508.682,521.94 503.441,523.186 498.168,524.44 492.862,525.702 487.517,526.973 482.131,528.253 476.7,529.545 471.219,530.848 465.684,532.164 460.092,533.494 454.439,534.838 448.718,536.199 442.926,537.576 437.059,538.971 431.109,540.386 425.074,541.821 418.945,543.278 412.718,544.759 406.387,546.264 399.944,547.796 393.383,549.357 386.697,550.947 379.877,552.568 372.915,554.224 365.802,555.915 358.529,557.644 351.086,559.414 343.463,561.227 335.646,563.086 327.626,564.993 319.387,566.952 310.916,568.966 302.197,571.04 293.214,573.176 283.95,575.379 274.384,577.653 264.495,580.005 254.261,582.438 243.656,584.96 232.654,587.576 221.224,590.294 209.334,593.121 " />
<polyline fill="none" vector-effect="none" points="790.38,429.11 781.551,430.393 772.988,431.637 764.675,432.845 756.596,434.019 748.736,435.161 741.083,436.273 733.622,437.357 726.344,438.415 719.237,439.448 712.291,440.457 705.497,441.444 698.844,442.411 692.326,443.358 685.935,444.287 679.662,445.198 673.501,446.094 667.445,446.973 661.488,447.839 655.625,448.691 649.848,449.53 644.154,450.358 638.536,451.174 632.991,451.98 627.512,452.776 622.097,453.563 616.74,454.341 611.437,455.112 606.184,455.875 600.978,456.632 595.815,457.382 590.691,458.127 585.602,458.866 580.545,459.601 575.517,460.331 570.514,461.058 565.534,461.782 560.573,462.503 555.627,463.222 550.695,463.938 545.772,464.654 540.856,465.368 535.944,466.082 531.033,466.795 526.119,467.509 521.201,468.224 516.274,468.94 511.336,469.658 506.383,470.377 501.413,471.099 496.423,471.824 491.409,472.553 486.368,473.286 481.297,474.022 476.192,474.764 471.05,475.511 465.867,476.264 460.64,477.024 455.365,477.791 450.037,478.565 444.653,479.347 439.209,480.138 433.7,480.939 428.122,481.749 422.469,482.571 416.737,483.404 410.921,484.249 405.015,485.107 399.013,485.979 392.909,486.866 386.697,487.769 380.37,488.688 373.92,489.625 367.341,490.581 360.624,491.557 353.76,492.555 346.74,493.575 339.555,494.619 332.193,495.688 324.645,496.785 316.897,497.911 308.937,499.068 300.751,500.257 292.324,501.482 283.64,502.744 274.681,504.046 265.429,505.39 255.862,506.78 245.958,508.219 235.694,509.711 225.041,511.259 " />
<polyline fill="none" vector-effect="none" points="783.684,406.486 774.798,407.045 766.189,407.586 757.839,408.111 749.732,408.62 741.853,409.115 734.188,409.597 726.723,410.066 719.446,410.524 712.346,410.97 705.414,411.406 698.637,411.832 692.008,412.248 685.518,412.656 679.158,413.056 672.922,413.448 666.801,413.833 660.789,414.211 654.879,414.582 649.066,414.947 643.343,415.307 637.705,415.661 632.147,416.011 626.664,416.355 621.251,416.696 615.903,417.032 610.616,417.364 605.387,417.693 600.21,418.018 595.082,418.34 589.999,418.66 584.957,418.977 579.954,419.291 574.985,419.603 570.047,419.914 565.137,420.222 560.252,420.529 555.388,420.835 550.542,421.14 545.713,421.443 540.895,421.746 536.087,422.048 531.285,422.35 526.487,422.652 521.69,422.953 516.89,423.255 512.085,423.557 507.271,423.859 502.447,424.163 497.609,424.467 492.753,424.772 487.877,425.078 482.978,425.386 478.052,425.696 473.096,426.007 468.108,426.321 463.083,426.637 458.018,426.955 452.909,427.276 447.753,427.6 442.546,427.927 437.284,428.258 431.962,428.593 426.577,428.931 421.124,429.274 415.598,429.621 409.994,429.973 404.308,430.331 398.534,430.694 392.665,431.063 386.697,431.438 380.622,431.819 374.435,432.208 368.128,432.605 361.694,433.009 355.124,433.422 348.411,433.844 341.545,434.276 334.516,434.717 327.316,435.17 319.931,435.634 312.351,436.11 304.564,436.6 296.554,437.103 288.309,437.622 279.811,438.156 271.043,438.707 261.988,439.276 252.625,439.864 242.931,440.474 232.883,441.105 " />
<polyline fill="none" vector-effect="none" points="782.158,384.007 773.26,383.868 764.641,383.733 756.284,383.603 748.172,383.476 740.289,383.353 732.622,383.233 725.157,383.117 717.881,383.003 710.784,382.892 703.855,382.784 697.083,382.678 690.46,382.575 683.977,382.474 677.626,382.375 671.398,382.277 665.286,382.182 659.285,382.088 653.387,381.996 647.585,381.905 641.875,381.816 636.251,381.728 630.707,381.642 625.238,381.556 619.84,381.472 614.509,381.389 609.238,381.307 604.025,381.225 598.866,381.145 593.756,381.065 588.692,380.986 583.669,380.907 578.685,380.829 573.737,380.752 568.819,380.675 563.931,380.599 559.067,380.523 554.226,380.447 549.403,380.372 544.596,380.297 539.803,380.222 535.019,380.147 530.243,380.073 525.47,379.998 520.699,379.924 515.926,379.849 511.149,379.775 506.364,379.7 501.568,379.625 496.759,379.55 491.934,379.475 487.089,379.399 482.222,379.323 477.329,379.246 472.407,379.17 467.453,379.092 462.463,379.014 457.434,378.936 452.363,378.857 447.245,378.777 442.078,378.696 436.856,378.614 431.576,378.532 426.234,378.449 420.825,378.364 415.345,378.279 409.789,378.192 404.151,378.104 398.427,378.014 392.611,377.923 386.697,377.831 380.678,377.737 374.549,377.641 368.302,377.544 361.93,377.444 355.426,377.343 348.78,377.239 341.984,377.133 335.029,377.024 327.904,376.913 320.6,376.799 313.103,376.682 305.403,376.562 297.485,376.438 289.335,376.311 280.937,376.179 272.276,376.044 263.332,375.905 254.086,375.76 244.517,375.611 234.6,375.456 " />
<polyline fill="none" vector-effect="none" points="785.73,361.492 776.86,360.649 768.265,359.831 759.926,359.039 751.827,358.269 743.953,357.52 736.29,356.792 728.826,356.082 721.548,355.391 714.446,354.716 707.508,354.056 700.726,353.411 694.089,352.78 687.59,352.163 681.22,351.557 674.972,350.963 668.838,350.38 662.812,349.807 656.888,349.244 651.059,348.69 645.319,348.144 639.664,347.607 634.087,347.077 628.585,346.554 623.151,346.037 617.783,345.527 612.474,345.022 607.222,344.523 602.021,344.029 596.869,343.539 591.762,343.053 586.695,342.572 581.665,342.094 576.669,341.619 571.704,341.147 566.765,340.677 561.851,340.21 556.957,339.745 552.081,339.281 547.22,338.819 542.37,338.358 537.529,337.898 532.694,337.439 527.861,336.979 523.028,336.52 518.192,336.06 513.35,335.6 508.499,335.139 503.636,334.676 498.757,334.213 493.861,333.747 488.943,333.28 484.001,332.81 479.031,332.337 474.03,331.862 468.995,331.383 463.922,330.901 458.808,330.415 453.649,329.925 448.441,329.43 443.181,328.93 437.864,328.424 432.486,327.913 427.042,327.395 421.529,326.871 415.941,326.34 410.273,325.801 404.521,325.255 398.678,324.699 392.738,324.135 386.697,323.56 380.546,322.976 374.28,322.38 367.892,321.773 361.372,321.153 354.715,320.52 347.909,319.873 340.948,319.211 333.82,318.534 326.515,317.839 319.022,317.127 311.328,316.396 303.422,315.644 295.288,314.871 286.911,314.075 278.276,313.254 269.364,312.407 260.157,311.532 250.633,310.626 240.769,309.689 230.542,308.716 " />
<polyline fill="none" vector-effect="none" points="794.568,338.76 785.778,337.171 777.248,335.63 768.961,334.133 760.903,332.677 753.059,331.26 745.416,329.879 737.962,328.532 730.686,327.217 723.577,325.933 716.626,324.677 709.822,323.447 703.158,322.243 696.626,321.063 690.216,319.905 683.923,318.768 677.739,317.65 671.659,316.552 665.674,315.47 659.781,314.405 653.973,313.356 648.245,312.321 642.592,311.3 637.009,310.291 631.491,309.294 626.034,308.308 620.635,307.332 615.287,306.366 609.989,305.409 604.735,304.459 599.522,303.518 594.346,302.582 589.205,301.653 584.094,300.73 579.01,299.811 573.95,298.897 568.91,297.986 563.888,297.079 558.881,296.174 553.884,295.271 548.895,294.37 543.912,293.47 538.931,292.569 533.948,291.669 528.962,290.768 523.968,289.866 518.964,288.962 513.947,288.055 508.914,287.146 503.861,286.233 498.785,285.316 493.683,284.394 488.552,283.467 483.388,282.534 478.188,281.594 472.948,280.647 467.664,279.693 462.333,278.729 456.951,277.757 451.513,276.774 446.016,275.781 440.455,274.776 434.825,273.759 429.122,272.729 423.341,271.684 417.476,270.624 411.522,269.549 405.473,268.456 399.324,267.344 393.067,266.214 386.697,265.063 380.205,263.89 373.585,262.694 366.828,261.473 359.926,260.226 352.87,258.951 345.649,257.646 338.255,256.31 330.675,254.941 322.898,253.535 314.911,252.092 306.701,250.609 298.252,249.082 289.549,247.51 280.574,245.888 271.31,244.214 261.735,242.484 251.828,240.694 241.565,238.84 230.919,236.916 219.863,234.918 " />
<polyline fill="none" vector-effect="none" points="809.095,315.631 800.463,313.219 792.067,310.872 783.893,308.588 775.927,306.362 768.157,304.191 760.57,302.071 753.157,299.999 745.907,297.973 738.81,295.99 731.858,294.047 725.041,292.142 718.353,290.273 711.784,288.437 705.329,286.633 698.98,284.859 692.732,283.113 686.577,281.393 680.511,279.698 674.527,278.026 668.621,276.375 662.788,274.745 657.022,273.134 651.319,271.54 645.674,269.963 640.084,268.401 634.545,266.853 629.051,265.317 623.599,263.794 618.187,262.281 612.808,260.779 607.462,259.284 602.143,257.798 596.848,256.318 591.574,254.844 586.318,253.376 581.076,251.911 575.845,250.449 570.622,248.99 565.404,247.531 560.187,246.073 554.969,244.615 549.746,243.156 544.515,241.694 539.272,240.229 534.015,238.76 528.74,237.286 523.445,235.806 518.124,234.319 512.776,232.824 507.396,231.321 501.982,229.808 496.528,228.284 491.033,226.748 485.491,225.199 479.898,223.637 474.251,222.059 468.545,220.464 462.776,218.852 456.94,217.221 451.03,215.569 445.043,213.896 438.973,212.2 432.814,210.479 426.561,208.731 420.207,206.956 413.747,205.151 407.173,203.314 400.479,201.443 393.656,199.536 386.697,197.591 379.593,195.606 372.336,193.578 364.915,191.505 357.32,189.382 349.541,187.208 341.566,184.98 333.382,182.693 324.975,180.343 316.331,177.928 307.435,175.442 298.27,172.88 288.816,170.239 279.055,167.511 268.965,164.691 258.522,161.773 247.702,158.749 236.476,155.612 224.813,152.353 212.68,148.962 200.041,145.43 " />
<polyline fill="none" vector-effect="none" points="830.028,291.928 821.681,288.568 813.537,285.288 805.582,282.085 797.807,278.954 790.199,275.891 782.75,272.891 775.45,269.952 768.29,267.069 761.263,264.239 754.359,261.459 747.573,258.726 740.896,256.038 734.323,253.391 727.846,250.783 721.461,248.212 715.161,245.675 708.941,243.17 702.795,240.695 696.719,238.249 690.708,235.828 684.757,233.432 678.862,231.058 673.017,228.705 667.221,226.37 661.467,224.053 655.752,221.752 650.073,219.465 644.425,217.191 638.805,214.928 633.209,212.675 627.634,210.43 622.077,208.192 616.533,205.96 610.999,203.731 605.472,201.506 599.949,199.282 594.427,197.058 588.901,194.833 583.368,192.605 577.826,190.373 572.27,188.136 566.698,185.892 561.105,183.64 555.488,181.379 549.844,179.106 544.169,176.821 538.46,174.522 532.711,172.207 526.92,169.875 521.083,167.525 515.195,165.153 509.251,162.76 503.248,160.343 497.181,157.9 491.045,155.429 484.835,152.928 478.546,150.396 472.172,147.83 465.708,145.227 459.148,142.585 452.486,139.902 445.714,137.176 438.827,134.402 431.816,131.579 424.675,128.703 417.394,125.772 409.965,122.78 402.379,119.726 394.627,116.604 386.697,113.411 378.578,110.142 370.26,106.792 361.728,103.356 352.969,99.8295 343.968,96.2052 334.71,92.4773 325.178,88.6388 315.352,84.6823 305.214,80.5998 294.741,76.3825 283.909,72.0209 272.693,67.5047 261.066,62.8226 255.508,60.5844 " />
<polyline fill="none" vector-effect="none" points="846.09,499.639 843.214,497.191 840.42,494.752 837.706,492.32 835.07,489.896 832.511,487.48 830.028,485.072 827.619,482.671 825.283,480.277 823.019,477.89 820.826,475.511 818.703,473.138 816.648,470.771 814.661,468.412 812.741,466.058 810.886,463.711 809.095,461.369 807.369,459.033 805.705,456.703 804.103,454.378 802.563,452.059 801.083,449.744 799.663,447.434 798.302,445.129 797,442.829 795.755,440.532 794.568,438.24 793.437,435.952 792.362,433.668 791.343,431.387 790.38,429.11 789.47,426.836 788.615,424.565 787.814,422.297 787.066,420.032 786.371,417.769 785.73,415.508 785.14,413.25 784.603,410.994 784.117,408.739 783.684,406.486 783.301,404.235 782.971,401.985 782.691,399.736 782.462,397.487 782.284,395.24 782.158,392.993 782.081,390.746 782.056,388.5 782.081,386.254 782.158,384.007 782.284,381.76 782.462,379.513 782.691,377.264 782.971,375.015 783.301,372.765 783.684,370.514 784.117,368.261 784.603,366.006 785.14,363.75 785.73,361.492 786.371,359.231 787.066,356.968 787.814,354.703 788.615,352.435 789.47,350.164 790.38,347.89 791.343,345.613 792.362,343.332 793.437,341.048 794.568,338.76 795.755,336.468 797,334.171 798.302,331.871 799.663,329.566 801.083,327.256 802.563,324.941 804.103,322.622 805.705,320.297 807.369,317.967 809.095,315.631 810.886,313.289 812.741,310.942 814.661,308.588 816.648,306.229 818.703,303.862 820.826,301.489 823.019,299.11 825.283,296.723 827.619,294.329 830.028,291.928 " />
<polyline fill="none" vector-effect="none" points="772.085,536.396 768.882,532.84 765.782,529.317 762.782,525.827 759.88,522.368 757.073,518.94 754.359,515.541 751.736,512.171 749.201,508.827 746.752,505.51 744.386,502.219 742.104,498.952 739.901,495.708 737.777,492.488 735.729,489.289 733.757,486.111 731.858,482.953 730.031,479.815 728.276,476.695 726.589,473.594 724.971,470.509 723.419,467.441 721.933,464.389 720.512,461.352 719.154,458.329 717.859,455.319 716.626,452.323 715.453,449.34 714.34,446.368 713.287,443.407 712.291,440.457 711.354,437.517 710.473,434.586 709.648,431.664 708.88,428.75 708.167,425.843 707.508,422.944 706.904,420.051 706.354,417.164 705.857,414.283 705.414,411.406 705.023,408.533 704.685,405.664 704.399,402.799 704.166,399.936 703.984,397.075 703.855,394.216 703.777,391.358 703.751,388.5 703.777,385.642 703.855,382.784 703.984,379.925 704.166,377.064 704.399,374.201 704.685,371.336 705.023,368.467 705.414,365.594 705.857,362.717 706.354,359.836 706.904,356.949 707.508,354.056 708.167,351.157 708.88,348.25 709.648,345.336 710.473,342.414 711.354,339.483 712.291,336.543 713.287,333.593 714.34,330.632 715.453,327.66 716.626,324.677 717.859,321.681 719.154,318.671 720.512,315.648 721.933,312.611 723.419,309.559 724.971,306.491 726.589,303.406 728.276,300.305 730.031,297.185 731.858,294.047 733.757,290.889 735.729,287.711 737.777,284.512 739.901,281.292 742.104,278.048 744.386,274.781 746.752,271.49 749.201,268.173 751.736,264.829 754.359,261.459 " />
<polyline fill="none" vector-effect="none" points="708.495,567.98 705.255,563.354 702.13,558.794 699.116,554.299 696.211,549.865 693.409,545.49 690.708,541.172 688.105,536.908 685.596,532.695 683.18,528.533 680.852,524.418 678.611,520.349 676.454,516.324 674.378,512.34 672.383,508.397 670.464,504.492 668.621,500.625 666.852,496.792 665.154,492.993 663.527,489.226 661.968,485.49 660.476,481.784 659.05,478.105 657.687,474.453 656.388,470.826 655.15,467.224 653.973,463.644 652.855,460.086 651.796,456.548 650.794,453.03 649.848,449.53 648.958,446.048 648.124,442.581 647.343,439.13 646.616,435.692 645.941,432.268 645.319,428.856 644.749,425.454 644.229,422.063 643.761,418.681 643.343,415.307 642.975,411.94 642.656,408.58 642.387,405.225 642.168,401.875 641.997,398.528 641.875,395.184 641.802,391.841 641.778,388.5 641.802,385.159 641.875,381.816 641.997,378.472 642.168,375.125 642.387,371.775 642.656,368.42 642.975,365.06 643.343,361.693 643.761,358.319 644.229,354.937 644.749,351.546 645.319,348.144 645.941,344.732 646.616,341.308 647.343,337.87 648.124,334.419 648.958,330.952 649.848,327.47 650.794,323.97 651.796,320.452 652.855,316.914 653.973,313.356 655.15,309.776 656.388,306.174 657.687,302.547 659.05,298.895 660.476,295.216 661.968,291.51 663.527,287.774 665.154,284.007 666.852,280.208 668.621,276.375 670.464,272.508 672.383,268.603 674.378,264.66 676.454,260.676 678.611,256.651 680.852,252.582 683.18,248.467 685.596,244.305 688.105,240.092 690.708,235.828 " />
<polyline fill="none" vector-effect="none" points="649.968,597.049 646.893,591.343 643.937,585.744 641.094,580.247 638.362,574.848 635.735,569.542 633.209,564.325 630.781,559.193 628.448,554.141 626.205,549.166 624.05,544.265 621.98,539.433 619.992,534.669 618.083,529.969 616.251,525.329 614.494,520.748 612.808,516.221 611.193,511.748 609.647,507.325 608.166,502.95 606.75,498.621 605.397,494.334 604.105,490.09 602.873,485.884 601.699,481.715 600.583,477.582 599.522,473.482 598.516,469.414 597.563,465.376 596.663,461.366 595.815,457.382 595.017,453.423 594.269,449.487 593.571,445.573 592.92,441.68 592.317,437.804 591.762,433.947 591.252,430.105 590.789,426.277 590.371,422.463 589.999,418.66 589.671,414.867 589.387,411.084 589.148,407.308 588.952,403.539 588.8,399.775 588.692,396.014 588.627,392.257 588.605,388.5 588.627,384.743 588.692,380.986 588.8,377.225 588.952,373.461 589.148,369.692 589.387,365.916 589.671,362.133 589.999,358.34 590.371,354.537 590.789,350.723 591.252,346.895 591.762,343.053 592.317,339.196 592.92,335.32 593.571,331.427 594.269,327.513 595.017,323.577 595.815,319.618 596.663,315.634 597.563,311.624 598.516,307.586 599.522,303.518 600.583,299.418 601.699,295.285 602.873,291.116 604.105,286.91 605.397,282.666 606.75,278.379 608.166,274.05 609.647,269.675 611.193,265.252 612.808,260.779 614.494,256.252 616.251,251.671 618.083,247.031 619.992,242.331 621.98,237.567 624.05,232.735 626.205,227.834 628.448,222.859 630.781,217.807 633.209,212.675 " />
<polyline fill="none" vector-effect="none" points="592.595,625.546 589.866,618.692 587.25,611.996 584.743,605.448 582.339,599.043 580.035,592.771 577.826,586.627 575.707,580.603 573.676,574.694 571.728,568.895 569.861,563.198 568.072,557.601 566.356,552.096 564.713,546.681 563.138,541.351 561.63,536.1 560.187,530.927 558.807,525.825 557.486,520.793 556.224,515.826 555.019,510.921 553.87,506.076 552.773,501.286 551.729,496.549 550.735,491.863 549.791,487.224 548.895,482.63 548.047,478.078 547.244,473.567 546.486,469.092 545.772,464.654 545.102,460.248 544.473,455.873 543.887,451.527 543.341,447.208 542.836,442.913 542.37,438.642 541.944,434.391 541.556,430.159 541.207,425.945 540.895,421.746 540.621,417.561 540.384,413.387 540.184,409.224 540.02,405.069 539.893,400.921 539.803,396.778 539.749,392.638 539.73,388.5 539.749,384.362 539.803,380.222 539.893,376.079 540.02,371.931 540.184,367.776 540.384,363.613 540.621,359.439 540.895,355.254 541.207,351.055 541.556,346.841 541.944,342.609 542.37,338.358 542.836,334.087 543.341,329.792 543.887,325.473 544.473,321.127 545.102,316.752 545.772,312.346 546.486,307.908 547.244,303.433 548.047,298.922 548.895,294.37 549.791,289.776 550.735,285.137 551.729,280.451 552.773,275.714 553.87,270.924 555.019,266.079 556.224,261.174 557.486,256.207 558.807,251.175 560.187,246.073 561.63,240.9 563.138,235.649 564.713,230.319 566.356,224.904 568.072,219.399 569.861,213.802 571.728,208.105 573.676,202.306 575.707,196.397 577.826,190.373 " />
<polyline fill="none" vector-effect="none" points="532.769,655.26 530.594,647.117 528.516,639.196 526.53,631.482 524.632,623.965 522.818,616.633 521.083,609.475 519.424,602.484 517.837,595.648 516.319,588.961 514.867,582.413 513.478,575.999 512.15,569.709 510.88,563.539 509.666,557.481 508.505,551.529 507.396,545.679 506.337,539.924 505.326,534.261 504.361,528.683 503.441,523.186 502.564,517.767 501.729,512.42 500.935,507.142 500.18,501.929 499.464,496.778 498.785,491.684 498.142,486.645 497.535,481.658 496.962,476.719 496.423,471.824 495.917,466.973 495.444,462.16 495.002,457.385 494.591,452.644 494.211,447.934 493.861,443.253 493.54,438.599 493.249,433.969 492.987,429.361 492.753,424.772 492.547,420.2 492.369,415.644 492.219,411.101 492.097,406.568 492.002,402.043 491.934,397.525 491.893,393.012 491.88,388.5 491.893,383.988 491.934,379.475 492.002,374.957 492.097,370.432 492.219,365.899 492.369,361.356 492.547,356.8 492.753,352.228 492.987,347.639 493.249,343.031 493.54,338.401 493.861,333.747 494.211,329.066 494.591,324.356 495.002,319.615 495.444,314.84 495.917,310.027 496.423,305.176 496.962,300.281 497.535,295.342 498.142,290.355 498.785,285.316 499.464,280.222 500.18,275.071 500.935,269.858 501.729,264.58 502.564,259.233 503.441,253.814 504.361,248.317 505.326,242.739 506.337,237.076 507.396,231.321 508.505,225.471 509.666,219.519 510.88,213.461 512.15,207.291 513.478,201.001 514.867,194.587 516.319,188.039 517.837,181.352 519.424,174.516 521.083,167.525 " />
<polyline fill="none" vector-effect="none" points="466.229,688.309 464.901,678.622 463.636,669.242 462.432,660.148 461.284,651.323 460.191,642.75 459.148,634.415 458.154,626.303 457.206,618.4 456.301,610.696 455.438,603.178 454.615,595.836 453.829,588.659 453.079,581.639 452.364,574.766 451.681,568.032 451.03,561.431 450.41,554.953 449.818,548.593 449.255,542.343 448.718,536.199 448.208,530.153 447.722,524.2 447.261,518.335 446.824,512.553 446.409,506.849 446.016,501.219 445.645,495.658 445.294,490.161 444.964,484.726 444.653,479.347 444.362,474.022 444.09,468.746 443.836,463.516 443.6,458.329 443.382,453.182 443.181,448.07 442.997,442.992 442.83,437.945 442.68,432.924 442.546,427.927 442.428,422.953 442.327,417.996 442.241,413.056 442.171,408.129 442.116,403.213 442.078,398.304 442.054,393.401 442.047,388.5 442.054,383.599 442.078,378.696 442.116,373.787 442.171,368.871 442.241,363.944 442.327,359.004 442.428,354.047 442.546,349.073 442.68,344.076 442.83,339.055 442.997,334.008 443.181,328.93 443.382,323.818 443.6,318.671 443.836,313.484 444.09,308.254 444.362,302.978 444.653,297.653 444.964,292.274 445.294,286.839 445.645,281.342 446.016,275.781 446.409,270.151 446.824,264.447 447.261,258.665 447.722,252.8 448.208,246.847 448.718,240.801 449.255,234.657 449.818,228.407 450.41,222.047 451.03,215.569 451.681,208.968 452.364,202.234 453.079,195.361 453.829,188.341 454.615,181.164 455.438,173.822 456.301,166.304 457.206,158.6 458.154,150.697 459.148,142.585 " />
<polyline fill="none" vector-effect="none" points="386.697,716.416 386.697,716.127 386.697,704.873 386.697,694.017 386.697,683.535 386.697,673.4 386.697,663.589 386.697,654.082 386.697,644.86 386.697,635.903 386.697,627.196 386.697,618.724 386.697,610.471 386.697,602.426 386.697,594.574 386.697,586.905 386.697,579.409 386.697,572.073 386.697,564.891 386.697,557.851 386.697,550.947 386.697,544.169 386.697,537.511 386.697,530.965 386.697,524.525 386.697,518.184 386.697,511.937 386.697,505.777 386.697,499.699 386.697,493.698 386.697,487.769 386.697,481.906 386.697,476.106 386.697,470.363 386.697,464.674 386.697,459.034 386.697,453.44 386.697,447.887 386.697,442.371 386.697,436.889 386.697,431.438 386.697,426.013 386.697,420.611 386.697,415.229 386.697,409.864 386.697,404.512 386.697,399.169 386.697,393.833 386.697,388.5 386.697,383.167 386.697,377.831 386.697,372.488 386.697,367.136 386.697,361.771 386.697,356.389 386.697,350.987 386.697,345.562 386.697,340.111 386.697,334.629 386.697,329.113 386.697,323.56 386.697,317.966 386.697,312.326 386.697,306.637 386.697,300.894 386.697,295.094 386.697,289.231 386.697,283.302 386.697,277.301 386.697,271.223 386.697,265.063 386.697,258.816 386.697,252.475 386.697,246.035 386.697,239.489 386.697,232.831 386.697,226.053 386.697,219.149 386.697,212.109 386.697,204.927 386.697,197.591 386.697,190.095 386.697,182.426 386.697,174.574 386.697,166.529 386.697,158.276 386.697,149.804 386.697,141.097 386.697,132.14 386.697,122.918 386.697,113.411 " />
<polyline fill="none" vector-effect="none" points="292.48,716.416 293.055,712.452 294.741,700.618 296.336,689.211 297.847,678.201 299.279,667.561 300.636,657.266 301.923,647.293 303.144,637.62 304.302,628.227 305.401,619.097 306.445,610.212 307.435,601.558 308.375,593.12 309.267,584.883 310.113,576.836 310.916,568.966 311.676,561.264 312.397,553.717 313.079,546.317 313.725,539.055 314.335,531.921 314.911,524.908 315.454,518.007 315.966,511.212 316.446,504.516 316.897,497.911 317.319,491.392 317.713,484.952 318.08,478.586 318.419,472.287 318.733,466.051 319.022,459.873 319.285,453.747 319.525,447.668 319.74,441.632 319.931,435.634 320.099,429.67 320.244,423.735 320.367,417.825 320.467,411.935 320.544,406.062 320.6,400.201 320.633,394.349 320.644,388.5 320.633,382.651 320.6,376.799 320.544,370.938 320.467,365.065 320.367,359.175 320.244,353.265 320.099,347.33 319.931,341.366 319.74,335.368 319.525,329.332 319.285,323.253 319.022,317.127 318.733,310.949 318.419,304.713 318.08,298.414 317.713,292.048 317.319,285.608 316.897,279.089 316.446,272.484 315.966,265.788 315.454,258.993 314.911,252.092 314.335,245.079 313.725,237.945 313.079,230.683 312.397,223.283 311.676,215.736 310.916,208.034 310.113,200.164 309.267,192.117 308.375,183.881 307.435,175.442 306.445,166.788 305.401,157.903 304.302,148.773 303.144,139.38 301.923,129.707 300.636,119.734 299.279,109.439 297.847,98.7988 296.336,87.7893 294.741,76.3825 " />
<polyline fill="none" vector-effect="none" points="176.34,716.416 177.804,711.553 181.549,698.875 185.084,686.668 188.422,674.895 191.576,663.526 194.557,652.533 197.375,641.889 200.041,631.57 202.562,621.553 204.946,611.818 207.201,602.347 209.334,593.121 211.35,584.125 213.255,575.342 215.054,566.759 216.752,558.363 218.354,550.141 219.863,542.082 221.282,534.174 222.617,526.407 223.869,518.772 225.041,511.259 226.137,503.859 227.158,496.564 228.107,489.367 228.987,482.259 229.797,475.234 230.542,468.284 231.221,461.402 231.837,454.583 232.391,447.819 232.883,441.105 233.316,434.435 233.689,427.803 234.003,421.204 234.259,414.631 234.458,408.08 234.6,401.544 234.685,395.019 234.713,388.5 234.685,381.981 234.6,375.456 234.458,368.92 234.259,362.369 234.003,355.796 233.689,349.197 233.316,342.565 232.883,335.895 232.391,329.181 231.837,322.417 231.221,315.598 230.542,308.716 229.797,301.766 228.987,294.741 228.107,287.633 227.158,280.436 226.137,273.141 225.041,265.741 223.869,258.228 222.617,250.593 221.282,242.826 219.863,234.918 218.354,226.859 216.752,218.637 215.054,210.241 213.255,201.658 211.35,192.875 209.334,183.879 207.201,174.653 204.946,165.182 202.562,155.447 200.041,145.43 197.375,135.111 194.557,124.467 191.576,113.474 188.422,102.105 185.084,90.3325 181.549,78.1246 177.804,65.447 176.34,60.5844 " />
</g>

<g fill="none" stroke="#ff0000" stroke-opacity="1" stroke-width="4.16667" stroke-linecap="butt" stroke-linejoin="round" transform="matrix(0.719538,0,0,0.717448,-73.7118,-42.0261)"
font-family="Helvetica" font-size="13" font-weight="400" font-style="normal" 
>
<polyline fill="none" vector-effect="none" points="458.82,587.037 692.214,511.203 692.214,265.797 458.82,189.963 314.574,388.5 458.82,587.037 " />
</g>
</g>
</svg>
