<?xml version="1.0" encoding="UTF-8" standalone="no"?>
<svg width="220.839mm" height="171.45mm"
 viewBox="0 0 626 486"
 xmlns="http://www.w3.org/2000/svg" xmlns:xlink="http://www.w3.org/1999/xlink"  version="1.2" baseProfile="tiny">
<title>Qt SVG Document</title>
<desc>MATLAB, The MathWorks, Inc. Version 25.2.0.3150157 R2025b Update 4</desc>
<defs>
</defs>
<g fill="none" stroke="black" stroke-width="1" fill-rule="evenodd" stroke-linecap="square" stroke-linejoin="bevel" >

<g fill="#000000" fill-opacity="1" stroke="none" transform="matrix(0.720415,0,0,0.718335,-73.823,-41.6601)"
font-family="Sans Serif" font-size="9" font-weight="400" font-style="normal" 
>
<path vector-effect="none" fill-rule="evenodd" d="M101,57 L972,57 L972,735 L101,735 L101,57"/>
</g>

<g fill="#121212" fill-opacity="1" stroke="none" transform="matrix(7.20415e-05,0,0,7.18335e-05,-73.823,-41.6601)"
font-family="Sans Serif" font-size="9" font-weight="400" font-style="normal" 
>
<path vector-effect="none" fill-rule="evenodd" d="M1.39027e+06,600000 L1.39027e+06,7.15e+06 L9.69973e+06,7.15e+06 L9.69973e+06,600000 L1.39027e+06,600000"/>
</g>

<g fill="#d9d9d9" fill-opacity="1" stroke="#d9d9d9" stroke-opacity="1" stroke-width="0.694444" stroke-linecap="square" stroke-linejoin="round" transform="matrix(0.720415,0,0,0.718335,-73.823,-41.6601)"
font-family="Sans Serif" font-size="9" font-weight="400" font-style="normal" 
>
<polyline fill="none" vector-effect="none" points="139.027,715 969.973,715 " />
<polyline fill="none" vector-effect="none" points="187.674,715 187.674,706.691 " />
<polyline fill="none" vector-effect="none" points="294.616,715 294.616,706.691 " />
<polyline fill="none" vector-effect="none" points="401.558,715 401.558,706.691 " />
<polyline fill="none" vector-effect="none" points="508.501,715 508.501,706.691 " />
<polyline fill="none" vector-effect="none" points="615.443,715 615.443,706.691 " />
<polyline fill="none" vector-effect="none" points="722.385,715 722.385,706.691 " />
<polyline fill="none" vector-effect="none" points="829.328,715 829.328,706.691 " />
<polyline fill="none" vector-effect="none" points="936.27,715 936.27,706.691 " />
</g>

<g fill="#d9d9d9" fill-opacity="1" stroke="#d9d9d9" stroke-opacity="1" stroke-width="1" stroke-linecap="square" stroke-linejoin="bevel" transform="matrix(0.720415,0,0,0.718335,50.5739,484.56)"
font-family="Helvetica" font-size="13" font-weight="400" font-style="normal" 
>
<text fill="#d9d9d9" fill-opacity="1" stroke="none" xml:space="preserve" x="0" y="0" font-family="Helvetica" font-size="13" font-weight="400" font-style="normal" 
 >-0.15</text>
</g>

<g fill="#d9d9d9" fill-opacity="1" stroke="#d9d9d9" stroke-opacity="1" stroke-width="1" stroke-linecap="square" stroke-linejoin="bevel" transform="matrix(0.720415,0,0,0.718335,130.498,484.56)"
font-family="Helvetica" font-size="13" font-weight="400" font-style="normal" 
>
<text fill="#d9d9d9" fill-opacity="1" stroke="none" xml:space="preserve" x="0" y="0" font-family="Helvetica" font-size="13" font-weight="400" font-style="normal" 
 >-0.1</text>
</g>

<g fill="#d9d9d9" fill-opacity="1" stroke="#d9d9d9" stroke-opacity="1" stroke-width="1" stroke-linecap="square" stroke-linejoin="bevel" transform="matrix(0.720415,0,0,0.718335,204.66,484.56)"
font-family="Helvetica" font-size="13" font-weight="400" font-style="normal" 
>
<text fill="#d9d9d9" fill-opacity="1" stroke="none" xml:space="preserve" x="0" y="0" font-family="Helvetica" font-size="13" font-weight="400" font-style="normal" 
 >-0.05</text>
</g>

<g fill="#d9d9d9" fill-opacity="1" stroke="#d9d9d9" stroke-opacity="1" stroke-width="1" stroke-linecap="square" stroke-linejoin="bevel" transform="matrix(0.720415,0,0,0.718335,289.987,484.56)"
font-family="Helvetica" font-size="13" font-weight="400" font-style="normal" 
>
<text fill="#d9d9d9" fill-opacity="1" stroke="none" xml:space="preserve" x="0" y="0" font-family="Helvetica" font-size="13" font-weight="400" font-style="normal" 
 >0</text>
</g>

<g fill="#d9d9d9" fill-opacity="1" stroke="#d9d9d9" stroke-opacity="1" stroke-width="1" stroke-linecap="square" stroke-linejoin="bevel" transform="matrix(0.720415,0,0,0.718335,360.546,484.56)"
font-family="Helvetica" font-size="13" font-weight="400" font-style="normal" 
>
<text fill="#d9d9d9" fill-opacity="1" stroke="none" xml:space="preserve" x="0" y="0" font-family="Helvetica" font-size="13" font-weight="400" font-style="normal" 
 >0.05</text>
</g>

<g fill="#d9d9d9" fill-opacity="1" stroke="#d9d9d9" stroke-opacity="1" stroke-width="1" stroke-linecap="square" stroke-linejoin="bevel" transform="matrix(0.720415,0,0,0.718335,440.111,484.56)"
font-family="Helvetica" font-size="13" font-weight="400" font-style="normal" 
>
<text fill="#d9d9d9" fill-opacity="1" stroke="none" xml:space="preserve" x="0" y="0" font-family="Helvetica" font-size="13" font-weight="400" font-style="normal" 
 >0.1</text>
</g>

<g fill="#d9d9d9" fill-opacity="1" stroke="#d9d9d9" stroke-opacity="1" stroke-width="1" stroke-linecap="square" stroke-linejoin="bevel" transform="matrix(0.720415,0,0,0.718335,514.632,484.56)"
font-family="Helvetica" font-size="13" font-weight="400" font-style="normal" 
>
<text fill="#d9d9d9" fill-opacity="1" stroke="none" xml:space="preserve" x="0" y="0" font-family="Helvetica" font-size="13" font-weight="400" font-style="normal" 
 >0.15</text>
</g>

<g fill="#d9d9d9" fill-opacity="1" stroke="#d9d9d9" stroke-opacity="1" stroke-width="1" stroke-linecap="square" stroke-linejoin="bevel" transform="matrix(0.720415,0,0,0.718335,594.196,484.56)"
font-family="Helvetica" font-size="13" font-weight="400" font-style="normal" 
>
<text fill="#d9d9d9" fill-opacity="1" stroke="none" xml:space="preserve" x="0" y="0" font-family="Helvetica" font-size="13" font-weight="400" font-style="normal" 
 >0.2</text>
</g>

<g fill="#d9d9d9" fill-opacity="1" stroke="#d9d9d9" stroke-opacity="1" stroke-width="0.694444" stroke-linecap="square" stroke-linejoin="round" transform="matrix(0.720415,0,0,0.718335,-73.823,-41.6601)"
font-family="Helvetica" font-size="13" font-weight="400" font-style="normal" 
>
<polyline fill="none" vector-effect="none" points="139.027,715 139.027,60 " />
<polyline fill="none" vector-effect="none" points="139.027,708.327 147.337,708.327 " />
<polyline fill="none" vector-effect="none" points="139.027,601.385 147.337,601.385 " />
<polyline fill="none" vector-effect="none" points="139.027,494.442 147.337,494.442 " />
<polyline fill="none" vector-effect="none" points="139.027,387.5 147.337,387.5 " />
<polyline fill="none" vector-effect="none" points="139.027,280.558 147.337,280.558 " />
<polyline fill="none" vector-effect="none" points="139.027,173.615 147.337,173.615 " />
<polyline fill="none" vector-effect="none" points="139.027,66.6732 147.337,66.6732 " />
</g>

<g fill="#d9d9d9" fill-opacity="1" stroke="#d9d9d9" stroke-opacity="1" stroke-width="1" stroke-linecap="square" stroke-linejoin="bevel" transform="matrix(0.720415,0,0,0.718335,0.719585,470.388)"
font-family="Helvetica" font-size="13" font-weight="400" font-style="normal" 
>
<text fill="#d9d9d9" fill-opacity="1" stroke="none" xml:space="preserve" x="0" y="0" font-family="Helvetica" font-size="13" font-weight="400" font-style="normal" 
 >-0.15</text>
</g>

<g fill="#d9d9d9" fill-opacity="1" stroke="#d9d9d9" stroke-opacity="1" stroke-width="1" stroke-linecap="square" stroke-linejoin="bevel" transform="matrix(0.720415,0,0,0.718335,6.48291,393.568)"
font-family="Helvetica" font-size="13" font-weight="400" font-style="normal" 
>
<text fill="#d9d9d9" fill-opacity="1" stroke="none" xml:space="preserve" x="0" y="0" font-family="Helvetica" font-size="13" font-weight="400" font-style="normal" 
 >-0.1</text>
</g>

<g fill="#d9d9d9" fill-opacity="1" stroke="#d9d9d9" stroke-opacity="1" stroke-width="1" stroke-linecap="square" stroke-linejoin="bevel" transform="matrix(0.720415,0,0,0.718335,0.719585,316.747)"
font-family="Helvetica" font-size="13" font-weight="400" font-style="normal" 
>
<text fill="#d9d9d9" fill-opacity="1" stroke="none" xml:space="preserve" x="0" y="0" font-family="Helvetica" font-size="13" font-weight="400" font-style="normal" 
 >-0.05</text>
</g>

<g fill="#d9d9d9" fill-opacity="1" stroke="#d9d9d9" stroke-opacity="1" stroke-width="1" stroke-linecap="square" stroke-linejoin="bevel" transform="matrix(0.720415,0,0,0.718335,17.2891,239.927)"
font-family="Helvetica" font-size="13" font-weight="400" font-style="normal" 
>
<text fill="#d9d9d9" fill-opacity="1" stroke="none" xml:space="preserve" x="0" y="0" font-family="Helvetica" font-size="13" font-weight="400" font-style="normal" 
 >0</text>
</g>

<g fill="#d9d9d9" fill-opacity="1" stroke="#d9d9d9" stroke-opacity="1" stroke-width="1" stroke-linecap="square" stroke-linejoin="bevel" transform="matrix(0.720415,0,0,0.718335,4.32166,163.107)"
font-family="Helvetica" font-size="13" font-weight="400" font-style="normal" 
>
<text fill="#d9d9d9" fill-opacity="1" stroke="none" xml:space="preserve" x="0" y="0" font-family="Helvetica" font-size="13" font-weight="400" font-style="normal" 
 >0.05</text>
</g>

<g fill="#d9d9d9" fill-opacity="1" stroke="#d9d9d9" stroke-opacity="1" stroke-width="1" stroke-linecap="square" stroke-linejoin="bevel" transform="matrix(0.720415,0,0,0.718335,9.36457,86.2864)"
font-family="Helvetica" font-size="13" font-weight="400" font-style="normal" 
>
<text fill="#d9d9d9" fill-opacity="1" stroke="none" xml:space="preserve" x="0" y="0" font-family="Helvetica" font-size="13" font-weight="400" font-style="normal" 
 >0.1</text>
</g>

<g fill="#d9d9d9" fill-opacity="1" stroke="#d9d9d9" stroke-opacity="1" stroke-width="1" stroke-linecap="square" stroke-linejoin="bevel" transform="matrix(0.720415,0,0,0.718335,4.32166,9.46609)"
font-family="Helvetica" font-size="13" font-weight="400" font-style="normal" 
>
<text fill="#d9d9d9" fill-opacity="1" stroke="none" xml:space="preserve" x="0" y="0" font-family="Helvetica" font-size="13" font-weight="400" font-style="normal" 
 >0.15</text>
</g>

<g fill="#2699d4" fill-opacity="0.14902" stroke="none" transform="matrix(7.20415e-05,0,0,7.18335e-05,-73.823,-41.6601)"
font-family="Helvetica" font-size="13" font-weight="400" font-style="normal" 
>
<path vector-effect="none" fill-rule="evenodd" d="M9.69973e+06,7.15e+06 L9.69973e+06,600000 L8.36001e+06,600000 L1.39027e+06,600000 L1.39027e+06,7.15e+06 L1.81001e+06,7.15e+06 L9.69973e+06,7.15e+06"/>
</g>

<g fill="#75ab2e" fill-opacity="0.34902" stroke="none" transform="matrix(7.20415e-05,0,0,7.18335e-05,-73.823,-41.6601)"
font-family="Helvetica" font-size="13" font-weight="400" font-style="normal" 
>
<path vector-effect="none" fill-rule="evenodd" d="M8.1748e+06,4.30296e+06 L8.23596e+06,4.40077e+06 L8.41142e+06,4.47076e+06 L8.60005e+06,4.52989e+06 L8.90532e+06,4.53458e+06 L8.98679e+06,4.71049e+06 L9.07905e+06,4.65542e+06 L9.1955e+06,4.36311e+06 L9.44579e+06,4.40135e+06 L9.60911e+06,4.23818e+06 L9.69973e+06,4.20573e+06 L9.69973e+06,3.67101e+06 L9.69973e+06,3.31133e+06 L9.58043e+06,3.39674e+06 L9.30612e+06,3.44272e+06 L8.92329e+06,3.48977e+06 L8.15121e+06,3.30618e+06 L8.32478e+06,3.09983e+06 L8.36689e+06,3.05828e+06 L8.07812e+06,2.98223e+06 L8.84217e+06,3.14032e+06 L8.74249e+06,2.98056e+06 L8.48124e+06,2.84358e+06 L7.99588e+06,2.60973e+06 L7.94798e+06,2.3894e+06 L7.94964e+06,2.33571e+06 L7.92162e+06,2.57284e+06 L7.87893e+06,2.8392e+06 L7.88898e+06,2.94757e+06 L7.62637e+06,3.02784e+06 L7.53605e+06,3.24786e+06 L8.13712e+06,3.5212e+06 L8.08582e+06,3.66137e+06 L8.04627e+06,3.61718e+06 L7.96323e+06,3.75372e+06 L8.2879e+06,3.73324e+06 L8.27311e+06,3.875e+06 L8.16366e+06,3.91216e+06 L8.0914e+06,4.10808e+06 L8.1748e+06,4.30296e+06"/>
</g>

<g fill="none" stroke="#1a330d" stroke-opacity="1" stroke-width="0.486111" stroke-linecap="square" stroke-linejoin="miter" stroke-miterlimit="5" transform="matrix(0.720415,0,0,0.718335,-73.823,-41.6601)"
font-family="Helvetica" font-size="13" font-weight="400" font-style="normal" 
>
<polyline fill="none" vector-effect="none" points="969.973,420.573 960.911,423.818 944.579,440.135 919.55,436.311 907.905,465.542 898.679,471.049 890.532,453.458 860.005,452.989 841.142,447.076 823.596,440.077 817.48,430.296 809.14,410.808 816.366,391.216 827.311,387.5 828.79,373.324 796.323,375.372 804.627,361.718 808.582,366.137 813.712,352.12 753.605,324.786 762.637,302.784 788.898,294.757 787.893,283.92 792.161,257.284 794.964,233.571 794.798,238.94 799.588,260.973 848.124,284.358 874.249,298.056 884.217,314.032 807.812,298.223 836.689,305.828 832.478,309.983 815.12,330.618 892.329,348.977 930.612,344.272 958.043,339.674 969.973,331.133 " />
</g>

<g fill="#75ab2e" fill-opacity="0.34902" stroke="none" transform="matrix(7.20415e-05,0,0,7.18335e-05,-73.823,-41.6601)"
font-family="Helvetica" font-size="13" font-weight="400" font-style="normal" 
>
<path vector-effect="none" fill-rule="evenodd" d="M6.57366e+06,2.67755e+06 L6.77379e+06,2.6946e+06 L6.97662e+06,2.62878e+06 L7.0911e+06,2.4353e+06 L6.88722e+06,2.50302e+06 L6.69345e+06,2.45572e+06 L6.63837e+06,2.30257e+06 L6.52971e+06,2.36886e+06 L6.49092e+06,2.18501e+06 L6.26377e+06,2.09028e+06 L6.37459e+06,2.01068e+06 L6.17655e+06,1.92212e+06 L6.29257e+06,1.76372e+06 L6.31073e+06,1.45222e+06 L6.06834e+06,1.48997e+06 L6.2298e+06,1.31504e+06 L6.24675e+06,1.13083e+06 L6.1265e+06,713911 L6.06577e+06,600000 L5.71452e+06,600000 L5.69258e+06,600000 L4.35209e+06,600000 L3.70392e+06,600000 L2.82445e+06,600000 L2.79602e+06,600000 L2.78645e+06,600000 L2.76941e+06,600000 L2.78519e+06,639590 L2.72899e+06,942612 L2.65676e+06,1.11942e+06 L2.81433e+06,1.54355e+06 L2.60123e+06,1.38799e+06 L2.92881e+06,1.74712e+06 L3.11113e+06,1.87787e+06 L3.01462e+06,2.08476e+06 L3.13958e+06,2.23137e+06 L2.81816e+06,2.30055e+06 L2.43824e+06,2.18477e+06 L2.54785e+06,2.283e+06 L2.59004e+06,2.61546e+06 L2.29427e+06,2.53228e+06 L1.83636e+06,2.38028e+06 L1.89312e+06,2.69228e+06 L2.33278e+06,2.82211e+06 L2.35518e+06,3.02959e+06 L2.16085e+06,3.07818e+06 L1.84228e+06,3.1538e+06 L1.46511e+06,3.08583e+06 L1.39027e+06,3.05117e+06 L1.39027e+06,3.2508e+06 L1.39027e+06,4.01048e+06 L1.39027e+06,4.13527e+06 L1.88078e+06,4.01028e+06 L1.39027e+06,4.21139e+06 L1.39027e+06,4.2948e+06 L1.39027e+06,4.29886e+06 L1.9902e+06,4.07546e+06 L1.88078e+06,4.01028e+06 L1.64596e+06,3.875e+06 L1.9902e+06,3.67454e+06 L2.20138e+06,3.74472e+06 L2.47492e+06,3.36789e+06 L2.55107e+06,3.14781e+06 L2.45081e+06,3.03947e+06 L2.68422e+06,2.66479e+06 L2.7649e+06,2.60888e+06 L3.00347e+06,2.51265e+06 L3.24984e+06,2.1407e+06 L3.12435e+06,2.03587e+06 L3.15915e+06,1.96841e+06 L3.43028e+06,1.96363e+06 L3.72042e+06,2.25259e+06 L3.85155e+06,2.35016e+06 L4.03708e+06,2.45585e+06 L4.16398e+06,2.35807e+06 L4.35083e+06,2.2761e+06 L4.7264e+06,2.12032e+06 L4.87374e+06,1.96435e+06 L5.0005e+06,1.93832e+06 L5.2622e+06,2.09526e+06 L5.5215e+06,2.21923e+06 L5.72785e+06,2.31035e+06 L5.92354e+06,2.42835e+06 L6.01306e+06,2.50844e+06 L6.12367e+06,2.50638e+06 L6.15978e+06,2.4507e+06 L6.3248e+06,2.64984e+06 L6.57366e+06,2.67755e+06"/>
</g>

<g fill="none" stroke="#1a330d" stroke-opacity="1" stroke-width="0.486111" stroke-linecap="square" stroke-linejoin="miter" stroke-miterlimit="5" transform="matrix(0.720415,0,0,0.718335,-73.823,-41.6601)"
font-family="Helvetica" font-size="13" font-weight="400" font-style="normal" 
>
<polyline fill="none" vector-effect="none" points="139.027,305.117 146.511,308.583 184.228,315.38 216.085,307.818 235.518,302.959 233.278,282.211 189.312,269.228 183.636,238.028 229.427,253.228 259.004,261.546 254.785,228.3 243.824,218.477 281.816,230.055 313.958,223.137 301.462,208.476 311.113,187.787 292.881,174.712 260.122,138.799 281.433,154.355 265.676,111.942 272.899,94.2613 278.519,63.959 276.941,60 " />
<polyline fill="none" vector-effect="none" points="606.577,60 612.65,71.3912 624.675,113.083 622.98,131.504 606.834,148.997 631.073,145.222 629.257,176.372 617.655,192.212 637.459,201.068 626.377,209.028 649.091,218.501 652.971,236.886 663.836,230.257 669.345,245.572 688.722,250.302 709.109,243.53 697.662,262.878 677.379,269.46 657.366,267.755 632.48,264.984 615.978,245.07 612.367,250.638 601.305,250.844 592.354,242.835 572.785,231.035 552.15,221.923 526.22,209.526 500.05,193.832 487.374,196.435 472.64,212.032 435.083,227.61 416.398,235.807 403.708,245.585 385.155,235.016 372.042,225.259 343.028,196.363 315.915,196.841 312.435,203.587 324.984,214.07 300.347,251.265 276.49,260.888 268.422,266.479 245.081,303.947 255.107,314.781 247.492,336.789 220.138,374.472 199.02,367.454 164.596,387.5 188.078,401.028 139.027,413.527 " />
<polyline fill="none" vector-effect="none" points="139.027,421.139 188.078,401.028 199.02,407.546 139.027,429.886 " />
</g>

<g fill="none" stroke="#000000" stroke-opacity="1" stroke-width="0.694444" stroke-linecap="butt" stroke-linejoin="round" transform="matrix(0.720415,0,0,0.718335,-73.823,-41.6601)"
font-family="Helvetica" font-size="13" font-weight="400" font-style="normal" 
>
<polyline fill="none" vector-effect="none" points="843.184,508.363 835.347,512.849 827.666,517.246 820.132,521.558 812.736,525.792 805.47,529.951 798.326,534.04 791.297,538.064 784.376,542.026 777.556,545.929 770.832,549.778 764.197,553.576 757.645,557.327 751.171,561.033 744.769,564.697 738.436,568.322 732.165,571.912 725.952,575.468 719.792,578.994 713.682,582.491 707.617,585.963 701.592,589.412 695.604,592.839 689.649,596.248 683.722,599.641 677.821,603.018 671.941,606.384 666.078,609.74 660.23,613.088 654.392,616.429 648.561,619.767 642.733,623.103 636.905,626.439 631.073,629.778 625.233,633.12 619.383,636.469 613.518,639.826 607.634,643.194 601.729,646.574 595.798,649.969 589.838,653.381 583.844,656.812 577.813,660.264 571.741,663.74 565.623,667.242 559.455,670.772 553.233,674.334 546.952,677.929 540.608,681.56 534.195,685.231 527.709,688.944 521.144,692.702 514.494,696.508 507.755,700.366 500.919,704.279 493.981,708.25 486.934,712.284 482.189,715 " />
<polyline fill="none" vector-effect="none" points="814.811,483.949 806.475,487.306 798.341,490.581 790.397,493.78 782.631,496.907 775.033,499.967 767.594,502.962 760.303,505.898 753.152,508.778 746.133,511.604 739.239,514.38 732.461,517.109 725.792,519.795 719.227,522.438 712.759,525.043 706.382,527.611 700.09,530.144 693.878,532.646 687.74,535.117 681.672,537.561 675.668,539.978 669.724,542.372 663.836,544.743 658,547.093 652.21,549.424 646.464,551.738 640.756,554.036 635.084,556.32 629.443,558.592 623.831,560.852 618.242,563.102 612.674,565.344 607.123,567.579 601.587,569.809 596.06,572.034 590.54,574.257 585.024,576.478 579.508,578.699 573.99,580.922 568.464,583.147 562.929,585.375 557.38,587.61 551.815,589.851 546.229,592.1 540.62,594.359 534.983,596.628 529.315,598.911 523.613,601.207 517.872,603.519 512.088,605.848 506.258,608.195 500.377,610.563 494.441,612.954 488.446,615.368 482.386,617.808 476.258,620.276 470.056,622.773 463.775,625.302 457.409,627.865 450.954,630.465 444.402,633.103 437.748,635.783 430.985,638.506 424.106,641.276 417.104,644.095 409.972,646.967 402.7,649.895 395.281,652.883 387.705,655.934 379.962,659.051 372.042,662.24 363.934,665.505 355.626,668.851 347.105,672.282 338.357,675.805 329.368,679.424 320.122,683.148 310.601,686.981 300.788,690.933 290.662,695.01 280.202,699.222 269.385,703.578 258.183,708.088 246.571,712.765 241.019,715 " />
<polyline fill="none" vector-effect="none" points="793.905,460.277 785.284,462.686 776.899,465.029 768.735,467.311 760.779,469.534 753.018,471.703 745.442,473.82 738.038,475.889 730.797,477.912 723.709,479.893 716.766,481.833 709.958,483.736 703.278,485.603 696.717,487.436 690.27,489.237 683.93,491.009 677.689,492.753 671.542,494.471 665.484,496.164 659.508,497.834 653.609,499.482 647.783,501.111 642.024,502.72 636.329,504.311 630.692,505.887 625.109,507.447 619.576,508.993 614.089,510.526 608.644,512.048 603.238,513.559 597.867,515.06 592.527,516.552 587.215,518.036 581.927,519.514 576.659,520.986 571.41,522.453 566.175,523.916 560.951,525.376 555.734,526.834 550.523,528.29 545.313,529.746 540.101,531.202 534.884,532.66 529.66,534.12 524.424,535.583 519.174,537.051 513.906,538.523 508.616,540.001 503.303,541.486 497.961,542.978 492.589,544.48 487.181,545.991 481.734,547.513 476.246,549.047 470.711,550.594 465.125,552.154 459.485,553.73 453.787,555.323 448.025,556.933 442.196,558.562 436.294,560.211 430.314,561.882 424.252,563.577 418.101,565.295 411.855,567.041 405.51,568.814 399.058,570.617 392.492,572.452 385.806,574.32 378.992,576.224 372.042,578.167 364.947,580.149 357.699,582.175 350.288,584.246 342.703,586.365 334.934,588.536 326.968,590.762 318.795,593.047 310.399,595.393 301.766,597.805 292.881,600.288 283.727,602.846 274.285,605.485 264.537,608.209 254.46,611.025 244.03,613.94 233.223,616.959 222.011,620.093 210.363,623.348 198.246,626.734 185.623,630.262 " />
<polyline fill="none" vector-effect="none" points="779.396,437.177 770.617,438.763 762.098,440.303 753.822,441.798 745.774,443.252 737.94,444.668 730.307,446.047 722.862,447.392 715.595,448.705 708.496,449.988 701.553,451.243 694.758,452.47 688.103,453.673 681.578,454.852 675.177,456.008 668.892,457.144 662.716,458.26 656.643,459.357 650.666,460.437 644.78,461.501 638.979,462.549 633.259,463.582 627.613,464.603 622.037,465.61 616.526,466.606 611.076,467.59 605.683,468.565 600.343,469.53 595.051,470.486 589.804,471.434 584.597,472.375 579.429,473.309 574.294,474.237 569.189,475.159 564.112,476.076 559.058,476.989 554.025,477.899 549.009,478.805 544.008,479.709 539.017,480.61 534.035,481.511 529.058,482.41 524.083,483.309 519.107,484.208 514.127,485.108 509.139,486.009 504.142,486.912 499.131,487.817 494.104,488.726 489.057,489.638 483.988,490.553 478.893,491.474 473.768,492.4 468.611,493.332 463.417,494.27 458.184,495.216 452.907,496.169 447.582,497.132 442.207,498.103 436.776,499.084 431.286,500.076 425.732,501.08 420.109,502.096 414.414,503.125 408.64,504.168 402.782,505.226 396.836,506.301 390.795,507.392 384.653,508.502 378.405,509.631 372.042,510.781 365.559,511.952 358.947,513.147 352.198,514.366 345.305,515.612 338.258,516.885 331.047,518.188 323.661,519.522 316.091,520.89 308.324,522.294 300.347,523.735 292.147,525.216 283.709,526.741 275.017,528.312 266.054,529.931 256.802,531.603 247.239,533.331 237.344,535.119 227.094,536.971 216.462,538.892 205.419,540.887 " />
<polyline fill="none" vector-effect="none" points="770.569,414.474 761.711,415.316 753.126,416.132 744.798,416.924 736.709,417.693 728.845,418.44 721.192,419.168 713.738,419.876 706.469,420.567 699.376,421.242 692.447,421.9 685.673,422.544 679.045,423.174 672.554,423.791 666.192,424.396 659.952,424.989 653.826,425.572 647.807,426.144 641.891,426.706 636.069,427.259 630.337,427.804 624.688,428.341 619.119,428.871 613.623,429.393 608.197,429.909 602.835,430.419 597.533,430.923 592.288,431.421 587.094,431.915 581.948,432.404 576.847,432.889 571.787,433.37 566.763,433.848 561.774,434.322 556.814,434.793 551.882,435.262 546.974,435.729 542.087,436.193 537.217,436.656 532.362,437.118 527.518,437.578 522.683,438.038 517.854,438.497 513.028,438.956 508.201,439.414 503.371,439.874 498.535,440.333 493.69,440.794 488.833,441.255 483.961,441.719 479.07,442.184 474.159,442.65 469.223,443.12 464.259,443.591 459.265,444.066 454.236,444.544 449.17,445.026 444.062,445.511 438.91,446.001 433.708,446.496 428.455,446.995 423.144,447.5 417.773,448.01 412.336,448.527 406.83,449.051 401.249,449.581 395.589,450.119 389.843,450.665 384.008,451.22 378.076,451.784 372.042,452.357 365.9,452.941 359.641,453.536 353.261,454.143 346.75,454.762 340.1,455.394 333.304,456.04 326.351,456.701 319.232,457.377 311.936,458.071 304.453,458.782 296.769,459.513 288.873,460.263 280.749,461.036 272.383,461.831 263.759,462.651 254.858,463.497 245.662,464.371 236.15,465.275 226.3,466.211 216.085,467.182 " />
<polyline fill="none" vector-effect="none" points="767.002,391.987 758.115,392.126 749.507,392.26 741.161,392.391 733.059,392.517 725.186,392.64 717.529,392.76 710.073,392.876 702.807,392.99 695.719,393.1 688.798,393.209 682.035,393.314 675.421,393.418 668.946,393.519 662.602,393.618 656.382,393.715 650.279,393.81 644.285,393.904 638.394,393.996 632.6,394.086 626.897,394.175 621.28,394.263 615.743,394.349 610.281,394.435 604.89,394.519 599.565,394.602 594.302,394.684 589.095,394.766 583.942,394.846 578.839,394.926 573.781,395.005 568.765,395.083 563.787,395.161 558.845,395.238 553.934,395.315 549.051,395.391 544.194,395.467 539.358,395.542 534.542,395.618 529.742,395.693 524.954,395.767 520.177,395.842 515.406,395.916 510.64,395.991 505.874,396.065 501.108,396.14 496.336,396.214 491.557,396.289 486.768,396.364 481.965,396.439 477.146,396.514 472.307,396.59 467.446,396.665 462.559,396.742 457.643,396.819 452.695,396.896 447.712,396.974 442.69,397.052 437.625,397.131 432.514,397.211 427.353,397.292 422.138,397.373 416.865,397.455 411.529,397.539 406.127,397.623 400.654,397.709 395.105,397.795 389.475,397.883 383.758,397.972 377.949,398.063 372.042,398.155 366.031,398.249 359.91,398.345 353.671,398.442 347.307,398.542 340.81,398.643 334.173,398.747 327.386,398.853 320.44,398.961 313.324,399.072 306.029,399.186 298.542,399.303 290.851,399.423 282.943,399.547 274.803,399.674 266.417,399.805 257.766,399.94 248.834,400.08 239.6,400.224 230.042,400.373 220.138,400.528 " />
<polyline fill="none" vector-effect="none" points="768.526,369.536 759.651,368.979 751.053,368.438 742.714,367.914 734.618,367.405 726.748,366.911 719.093,366.43 711.637,365.961 704.37,365.504 697.279,365.059 690.355,364.623 683.587,364.198 676.966,363.782 670.484,363.374 664.133,362.975 657.904,362.584 651.791,362.199 645.786,361.822 639.884,361.451 634.078,361.086 628.363,360.727 622.732,360.373 617.181,360.024 611.705,359.68 606.299,359.34 600.958,359.005 595.678,358.673 590.455,358.344 585.284,358.019 580.163,357.698 575.086,357.378 570.051,357.062 565.054,356.748 560.091,356.436 555.16,356.126 550.256,355.818 545.377,355.511 540.519,355.206 535.68,354.902 530.856,354.599 526.045,354.296 521.243,353.994 516.447,353.693 511.655,353.392 506.864,353.091 502.07,352.789 497.271,352.488 492.464,352.185 487.646,351.883 482.813,351.579 477.964,351.274 473.094,350.968 468.201,350.661 463.281,350.351 458.332,350.04 453.35,349.727 448.331,349.412 443.273,349.094 438.17,348.773 433.021,348.449 427.821,348.123 422.565,347.792 417.25,347.458 411.872,347.12 406.426,346.778 400.907,346.431 395.31,346.079 389.631,345.722 383.864,345.36 378.003,344.991 372.042,344.617 365.975,344.235 359.796,343.847 353.497,343.451 347.071,343.047 340.509,342.635 333.805,342.213 326.947,341.782 319.928,341.341 312.736,340.889 305.361,340.426 297.791,339.95 290.013,339.461 282.014,338.958 273.779,338.441 265.291,337.907 256.535,337.357 247.492,336.789 238.14,336.201 228.459,335.592 218.424,334.962 " />
<polyline fill="none" vector-effect="none" points="775.213,346.941 766.395,345.66 757.844,344.418 749.541,343.211 741.472,342.039 733.623,340.898 725.979,339.787 718.528,338.705 711.259,337.648 704.161,336.617 697.224,335.609 690.438,334.623 683.794,333.657 677.284,332.712 670.901,331.784 664.636,330.874 658.483,329.979 652.435,329.101 646.485,328.236 640.629,327.385 634.86,326.547 629.173,325.721 623.562,324.905 618.024,324.1 612.552,323.305 607.144,322.52 601.793,321.742 596.497,320.973 591.252,320.21 586.052,319.455 580.895,318.705 575.777,317.962 570.695,317.223 565.645,316.489 560.623,315.76 555.627,315.034 550.653,314.311 545.698,313.591 540.758,312.873 535.832,312.157 530.916,311.443 526.006,310.729 521.1,310.017 516.195,309.304 511.288,308.591 506.375,307.877 501.455,307.162 496.523,306.445 491.577,305.727 486.613,305.005 481.629,304.281 476.622,303.553 471.587,302.822 466.522,302.086 461.424,301.345 456.288,300.599 451.112,299.847 445.892,299.088 440.623,298.323 435.302,297.549 429.925,296.768 424.488,295.978 418.986,295.179 413.414,294.369 407.769,293.549 402.044,292.717 396.236,291.873 390.337,291.016 384.342,290.145 378.246,289.259 372.042,288.357 365.723,287.439 359.282,286.503 352.711,285.548 346.002,284.573 339.147,283.577 332.136,282.558 324.96,281.516 317.608,280.447 310.069,279.352 302.331,278.228 294.381,277.072 286.206,275.884 277.789,274.661 269.116,273.401 260.169,272.101 250.928,270.758 241.373,269.37 231.482,267.933 221.23,266.443 210.591,264.897 " />
<polyline fill="none" vector-effect="none" points="787.381,324.022 778.685,321.954 770.235,319.945 762.017,317.991 754.016,316.088 746.218,314.234 738.612,312.425 731.187,310.66 723.93,308.934 716.834,307.247 709.887,305.595 703.082,303.977 696.409,302.39 689.862,300.833 683.433,299.304 677.114,297.802 670.9,296.324 664.783,294.87 658.759,293.437 652.821,292.025 646.964,290.633 641.183,289.258 635.473,287.9 629.829,286.558 624.247,285.231 618.722,283.917 613.251,282.616 607.828,281.326 602.451,280.048 597.115,278.779 591.816,277.519 586.552,276.267 581.318,275.023 576.112,273.785 570.929,272.552 565.767,271.325 560.622,270.101 555.491,268.881 550.371,267.664 545.259,266.448 540.151,265.234 535.045,264.02 529.937,262.805 524.825,261.589 519.704,260.372 514.573,259.152 509.427,257.928 504.264,256.7 499.081,255.468 493.873,254.229 488.638,252.985 483.372,251.732 478.073,250.472 472.735,249.203 467.355,247.924 461.931,246.634 456.457,245.332 450.93,244.018 445.345,242.69 439.698,241.347 433.985,239.989 428.2,238.613 422.34,237.22 416.398,235.807 410.37,234.373 404.25,232.918 398.031,231.439 391.707,229.936 385.273,228.405 378.72,226.847 372.042,225.259 365.231,223.64 358.277,221.986 351.174,220.297 343.91,218.57 336.477,216.802 328.863,214.992 321.056,213.136 313.046,211.231 304.817,209.274 296.357,207.262 287.649,205.192 278.678,203.059 269.425,200.858 259.871,198.586 249.995,196.238 239.774,193.808 229.183,191.289 218.195,188.676 206.779,185.962 194.904,183.138 " />
<polyline fill="none" vector-effect="none" points="805.621,300.6 797.152,297.64 788.898,294.757 780.849,291.944 772.991,289.199 765.314,286.516 757.806,283.893 750.457,281.325 743.259,278.81 736.202,276.344 729.278,273.925 722.48,271.55 715.799,269.216 709.229,266.92 702.764,264.661 696.396,262.436 690.12,260.243 683.93,258.08 677.821,255.946 671.787,253.838 665.824,251.754 659.927,249.694 654.091,247.655 648.311,245.635 642.584,243.634 636.905,241.65 631.27,239.681 625.675,237.726 620.117,235.784 614.591,233.853 609.095,231.933 603.624,230.021 598.175,228.117 592.745,226.22 587.33,224.328 581.927,222.44 576.532,220.555 571.143,218.673 565.756,216.79 560.367,214.907 554.974,213.023 549.573,211.136 544.161,209.245 538.735,207.349 533.29,205.446 527.824,203.537 522.333,201.618 516.814,199.69 511.263,197.75 505.676,195.798 500.05,193.832 494.38,191.851 488.663,189.854 482.895,187.838 477.071,185.803 471.187,183.747 465.238,181.669 459.219,179.566 453.126,177.437 446.954,175.281 440.697,173.094 434.348,170.876 427.904,168.624 421.356,166.337 414.699,164.011 407.926,161.644 401.029,159.234 394,156.778 386.832,154.274 379.516,151.718 372.042,149.106 364.401,146.436 356.582,143.704 348.573,140.906 340.364,138.038 331.94,135.094 323.289,132.072 314.395,128.964 305.242,125.766 295.813,122.472 286.09,119.074 276.052,115.567 265.676,111.942 254.94,108.191 243.818,104.304 232.279,100.273 220.295,96.0853 207.829,91.7299 194.846,87.1934 181.303,82.4615 167.155,77.518 " />
<polyline fill="none" vector-effect="none" points="830.853,276.501 822.783,272.493 814.889,268.573 807.161,264.734 799.588,260.973 792.161,257.284 784.873,253.664 777.714,250.109 770.678,246.614 763.756,243.176 756.942,239.791 750.23,236.457 743.612,233.171 737.084,229.928 730.639,226.727 724.272,223.565 717.978,220.439 711.752,217.346 705.589,214.285 699.484,211.253 693.433,208.248 687.431,205.267 681.475,202.308 675.56,199.37 669.681,196.451 663.836,193.548 658.021,190.659 652.231,187.783 646.464,184.919 640.714,182.063 634.98,179.215 629.257,176.372 623.541,173.534 617.83,170.697 612.12,167.861 606.407,165.023 600.688,162.183 594.959,159.337 589.217,156.486 583.459,153.625 577.679,150.755 571.876,147.873 566.046,144.977 560.183,142.065 554.286,139.136 548.349,136.187 542.369,133.217 536.341,130.223 530.262,127.203 524.126,124.156 517.929,121.078 511.667,117.968 505.335,114.823 498.927,111.64 492.438,108.417 485.863,105.151 479.195,101.839 472.429,98.4787 465.558,95.066 458.575,91.5979 451.474,88.0709 444.246,84.4812 436.885,80.8249 429.381,77.0978 421.726,73.2956 413.91,69.4134 405.923,65.4465 397.754,61.3894 394.957,60 " />
<polyline fill="none" vector-effect="none" points="843.184,508.363 839.971,505.884 836.846,503.414 833.807,500.952 830.853,498.499 827.981,496.054 825.19,493.617 822.479,491.188 819.847,488.768 817.291,486.355 814.811,483.949 812.405,481.551 810.072,479.161 807.812,476.777 805.621,474.4 803.501,472.03 801.449,469.667 799.464,467.31 797.546,464.96 795.693,462.615 793.905,460.277 792.181,457.944 790.519,455.617 788.92,453.295 787.381,450.978 785.903,448.666 784.485,446.359 783.126,444.057 781.825,441.76 780.582,439.466 779.396,437.177 778.267,434.892 777.194,432.611 776.176,430.333 775.213,428.059 774.305,425.787 773.451,423.519 772.651,421.254 771.904,418.992 771.21,416.732 770.569,414.474 769.98,412.219 769.444,409.965 768.959,407.714 768.526,405.464 768.144,403.215 767.814,400.968 767.534,398.721 767.306,396.476 767.128,394.231 767.002,391.987 766.926,389.744 766.9,387.5 766.926,385.256 767.002,383.013 767.128,380.769 767.306,378.524 767.534,376.279 767.814,374.032 768.144,371.785 768.526,369.536 768.959,367.286 769.444,365.035 769.98,362.781 770.569,360.526 771.21,358.268 771.904,356.008 772.651,353.746 773.451,351.481 774.305,349.213 775.213,346.941 776.176,344.667 777.194,342.389 778.267,340.108 779.396,337.823 780.582,335.534 781.825,333.24 783.126,330.943 784.485,328.641 785.903,326.334 787.381,324.022 788.92,321.705 790.519,319.383 792.181,317.056 793.905,314.723 795.693,312.385 797.546,310.04 799.464,307.69 801.449,305.333 803.501,302.97 805.621,300.6 807.812,298.223 810.072,295.839 812.405,293.449 814.811,291.051 817.291,288.645 819.847,286.232 822.479,283.812 825.19,281.383 827.981,278.946 830.853,276.501 " />
<polyline fill="none" vector-effect="none" points="770.832,549.778 767.189,546.079 763.662,542.419 760.248,538.795 756.942,535.209 753.743,531.657 750.646,528.138 747.651,524.653 744.752,521.199 741.949,517.775 739.239,514.38 736.618,511.014 734.086,507.675 731.64,504.362 729.278,501.075 726.998,497.812 724.798,494.572 722.677,491.356 720.632,488.161 718.662,484.987 716.766,481.833 714.941,478.699 713.188,475.583 711.503,472.486 709.887,469.405 708.337,466.341 706.854,463.293 705.434,460.259 704.078,457.24 702.785,454.235 701.553,451.243 700.382,448.263 699.27,445.294 698.218,442.338 697.224,439.391 696.287,436.455 695.408,433.527 694.584,430.609 693.817,427.699 693.104,424.796 692.447,421.9 691.843,419.011 691.294,416.128 690.798,413.25 690.355,410.377 689.965,407.508 689.627,404.643 689.342,401.781 689.109,398.921 688.927,396.064 688.798,393.209 688.721,390.354 688.695,387.5 688.721,384.646 688.798,381.791 688.927,378.936 689.109,376.079 689.342,373.219 689.627,370.357 689.965,367.492 690.355,364.623 690.798,361.75 691.294,358.872 691.843,355.989 692.447,353.1 693.104,350.204 693.817,347.301 694.584,344.391 695.408,341.473 696.287,338.545 697.224,335.609 698.218,332.662 699.27,329.706 700.382,326.737 701.553,323.757 702.785,320.765 704.078,317.76 705.434,314.741 706.854,311.707 708.337,308.659 709.887,305.595 711.503,302.514 713.188,299.417 714.941,296.301 716.766,293.167 718.662,290.013 720.632,286.839 722.677,283.644 724.798,280.428 726.998,277.188 729.278,273.925 731.64,270.638 734.086,267.325 736.618,263.986 739.239,260.62 741.949,257.225 744.752,253.801 747.651,250.347 750.646,246.862 753.743,243.343 756.942,239.791 " />
<polyline fill="none" vector-effect="none" points="707.617,585.963 703.876,581.045 700.268,576.206 696.789,571.443 693.433,566.753 690.197,562.132 687.076,557.578 684.066,553.089 681.164,548.661 678.365,544.291 675.668,539.978 673.068,535.72 670.563,531.513 668.149,527.355 665.824,523.246 663.586,519.182 661.432,515.162 659.359,511.183 657.366,507.245 655.45,503.345 653.609,499.482 651.842,495.655 650.147,491.861 648.521,488.099 646.964,484.367 645.474,480.665 644.05,476.991 642.689,473.344 641.391,469.722 640.155,466.124 638.979,462.549 637.863,458.995 636.805,455.462 635.804,451.948 634.86,448.453 633.971,444.975 633.138,441.513 632.358,438.066 631.631,434.633 630.958,431.212 630.337,427.804 629.767,424.407 629.248,421.02 628.78,417.643 628.363,414.273 627.995,410.911 627.677,407.555 627.409,404.204 627.189,400.858 627.019,397.515 626.897,394.175 626.824,390.837 626.8,387.5 626.824,384.163 626.897,380.825 627.019,377.485 627.189,374.142 627.409,370.796 627.677,367.445 627.995,364.089 628.363,360.727 628.78,357.357 629.248,353.98 629.767,350.593 630.337,347.196 630.958,343.788 631.631,340.367 632.358,336.934 633.138,333.487 633.971,330.025 634.86,326.547 635.804,323.052 636.805,319.538 637.863,316.005 638.979,312.451 640.155,308.876 641.391,305.278 642.689,301.656 644.05,298.009 645.474,294.335 646.964,290.633 648.521,286.901 650.147,283.139 651.842,279.345 653.609,275.518 655.45,271.655 657.366,267.755 659.359,263.817 661.432,259.838 663.586,255.818 665.824,251.754 668.149,247.645 670.563,243.487 673.068,239.28 675.668,235.022 678.365,230.709 681.164,226.339 684.066,221.911 687.076,217.422 690.197,212.868 693.433,208.248 " />
<polyline fill="none" vector-effect="none" points="648.561,619.767 644.96,613.582 641.5,607.527 638.175,601.597 634.98,595.785 631.908,590.086 628.956,584.494 626.117,579.004 623.388,573.612 620.764,568.313 618.242,563.102 615.817,557.976 613.487,552.931 611.247,547.962 609.095,543.067 607.027,538.242 605.042,533.484 603.135,528.789 601.305,524.156 599.55,519.58 597.867,515.06 596.254,510.592 594.709,506.175 593.231,501.805 591.816,497.481 590.465,493.2 589.175,488.961 587.944,484.76 586.772,480.597 585.657,476.469 584.597,472.375 583.593,468.312 582.641,464.279 581.742,460.273 580.895,456.295 580.099,452.341 579.352,448.41 578.654,444.501 578.004,440.612 577.402,436.742 576.847,432.889 576.338,429.052 575.876,425.229 575.459,421.42 575.086,417.622 574.759,413.834 574.476,410.055 574.236,406.284 574.041,402.52 573.889,398.76 573.781,395.005 573.716,391.252 573.694,387.5 573.716,383.748 573.781,379.995 573.889,376.24 574.041,372.48 574.236,368.716 574.476,364.945 574.759,361.166 575.086,357.378 575.459,353.58 575.876,349.771 576.338,345.948 576.847,342.111 577.402,338.258 578.004,334.388 578.654,330.499 579.352,326.59 580.099,322.659 580.895,318.705 581.742,314.727 582.641,310.721 583.593,306.688 584.597,302.625 585.657,298.531 586.772,294.403 587.944,290.24 589.175,286.039 590.465,281.8 591.816,277.519 593.231,273.195 594.709,268.825 596.254,264.408 597.867,259.94 599.55,255.42 601.305,250.844 603.135,246.211 605.042,241.516 607.027,236.758 609.095,231.933 611.247,227.038 613.487,222.069 615.817,217.024 618.242,211.898 620.764,206.687 623.388,201.388 626.117,195.996 628.956,190.506 631.908,184.914 634.98,179.215 " />
<polyline fill="none" vector-effect="none" points="589.838,653.381 586.597,645.813 583.495,638.442 580.525,631.256 577.679,624.245 574.953,617.4 572.341,610.712 569.837,604.173 567.437,597.776 565.135,591.512 562.929,585.375 560.813,579.36 558.784,573.458 556.839,567.666 554.974,561.977 553.187,556.386 551.474,550.889 549.832,545.481 548.26,540.157 546.754,534.913 545.313,529.746 543.934,524.651 542.615,519.625 541.355,514.665 540.151,509.766 539.003,504.927 537.908,500.143 536.865,495.412 535.873,490.732 534.93,486.099 534.035,481.511 533.187,476.965 532.385,472.459 531.629,467.99 530.916,463.557 530.246,459.157 529.619,454.788 529.033,450.447 528.488,446.133 527.983,441.844 527.518,437.578 527.092,433.333 526.705,429.107 526.356,424.898 526.045,420.704 525.771,416.524 525.534,412.356 525.334,408.198 525.171,404.048 525.044,399.905 524.954,395.767 524.9,391.633 524.882,387.5 524.9,383.367 524.954,379.233 525.044,375.095 525.171,370.952 525.334,366.802 525.534,362.644 525.771,358.476 526.045,354.296 526.356,350.102 526.705,345.893 527.092,341.667 527.518,337.422 527.983,333.156 528.488,328.867 529.033,324.553 529.619,320.212 530.246,315.843 530.916,311.443 531.629,307.01 532.385,302.541 533.187,298.035 534.035,293.489 534.93,288.901 535.873,284.268 536.865,279.588 537.908,274.857 539.003,270.073 540.151,265.234 541.355,260.335 542.615,255.375 543.934,250.349 545.313,245.254 546.754,240.087 548.26,234.843 549.832,229.519 551.474,224.111 553.187,218.614 554.974,213.023 556.839,207.334 558.784,201.542 560.813,195.64 562.929,189.625 565.135,183.488 567.437,177.224 569.837,170.827 572.341,164.288 574.953,157.6 577.679,150.755 " />
<polyline fill="none" vector-effect="none" points="527.709,688.944 525.088,679.783 522.589,670.903 520.205,662.288 517.929,653.922 515.757,645.79 513.681,637.878 511.698,630.174 509.803,622.666 507.991,615.343 506.258,608.195 504.601,601.213 503.016,594.386 501.5,587.707 500.05,581.168 498.663,574.761 497.336,568.479 496.068,562.317 494.855,556.266 493.696,550.323 492.589,544.48 491.531,538.733 490.521,533.076 489.557,527.505 488.638,522.015 487.762,516.603 486.929,511.263 486.135,505.992 485.382,500.785 484.666,495.641 483.988,490.553 483.346,485.521 482.74,480.54 482.168,475.607 481.629,470.719 481.124,465.873 480.651,461.067 480.21,456.298 479.8,451.562 479.42,446.858 479.07,442.184 478.75,437.535 478.459,432.911 478.197,428.309 477.964,423.726 477.758,419.16 477.581,414.61 477.431,410.072 477.309,405.545 477.214,401.026 477.146,396.514 477.105,392.006 477.092,387.5 477.105,382.994 477.146,378.486 477.214,373.974 477.309,369.455 477.431,364.928 477.581,360.39 477.758,355.84 477.964,351.274 478.197,346.691 478.459,342.089 478.75,337.465 479.07,332.816 479.42,328.142 479.8,323.438 480.21,318.702 480.651,313.933 481.124,309.127 481.629,304.281 482.168,299.393 482.74,294.46 483.346,289.479 483.988,284.447 484.666,279.359 485.382,274.215 486.135,269.008 486.929,263.737 487.762,258.397 488.638,252.985 489.557,247.495 490.521,241.924 491.531,236.267 492.589,230.52 493.696,224.677 494.855,218.734 496.068,212.683 497.336,206.521 498.663,200.239 500.05,193.832 501.5,187.293 503.016,180.614 504.601,173.788 506.258,166.805 507.991,159.657 509.803,152.334 511.698,144.826 513.681,137.122 515.757,129.21 517.929,121.078 " />
<polyline fill="none" vector-effect="none" points="455.449,715 454.337,707.28 452.869,696.93 451.474,686.929 450.147,677.255 448.884,667.886 447.681,658.804 446.535,649.99 445.443,641.428 444.402,633.103 443.409,625.001 442.462,617.109 441.559,609.414 440.697,601.906 439.874,594.573 439.089,587.405 438.34,580.394 437.626,573.53 436.944,566.805 436.294,560.211 435.674,553.742 435.083,547.39 434.521,541.148 433.985,535.011 433.475,528.973 432.99,523.028 432.53,517.17 432.093,511.396 431.678,505.699 431.286,500.076 430.915,494.522 430.565,489.032 430.235,483.604 429.925,478.232 429.634,472.913 429.362,467.644 429.109,462.421 428.873,457.241 428.655,452.1 428.455,446.995 428.271,441.923 428.104,436.882 427.954,431.868 427.821,426.877 427.703,421.909 427.601,416.959 427.516,412.025 427.446,407.104 427.391,402.194 427.353,397.292 427.329,392.395 427.322,387.5 427.329,382.605 427.353,377.708 427.391,372.806 427.446,367.896 427.516,362.975 427.601,358.041 427.703,353.091 427.821,348.123 427.954,343.132 428.104,338.118 428.271,333.077 428.455,328.005 428.655,322.9 428.873,317.759 429.109,312.579 429.362,307.356 429.634,302.087 429.925,296.768 430.235,291.396 430.565,285.968 430.915,280.478 431.286,274.924 431.678,269.301 432.093,263.604 432.53,257.829 432.99,251.972 433.475,246.027 433.985,239.989 434.521,233.852 435.083,227.61 435.674,221.258 436.294,214.789 436.944,208.195 437.626,201.47 438.34,194.606 439.089,187.595 439.874,180.427 440.697,173.094 441.559,165.586 442.462,157.891 443.409,149.999 444.402,141.897 445.443,133.572 446.535,125.01 447.681,116.197 448.884,107.114 450.147,97.7452 451.474,88.0709 " />
<polyline fill="none" vector-effect="none" points="372.042,715 372.042,714.712 372.042,703.472 372.042,692.63 372.042,682.161 372.042,672.039 372.042,662.24 372.042,652.746 372.042,643.535 372.042,634.59 372.042,625.894 372.042,617.432 372.042,609.19 372.042,601.154 372.042,593.313 372.042,585.654 372.042,578.167 372.042,570.841 372.042,563.667 372.042,556.636 372.042,549.741 372.042,542.972 372.042,536.322 372.042,529.785 372.042,523.353 372.042,517.02 372.042,510.781 372.042,504.629 372.042,498.558 372.042,492.565 372.042,486.643 372.042,480.788 372.042,474.995 372.042,469.259 372.042,463.578 372.042,457.945 372.042,452.357 372.042,446.811 372.042,441.303 372.042,435.828 372.042,430.383 372.042,424.965 372.042,419.57 372.042,414.195 372.042,408.837 372.042,403.491 372.042,398.155 372.042,392.826 372.042,387.5 372.042,382.174 372.042,376.845 372.042,371.509 372.042,366.163 372.042,360.805 372.042,355.43 372.042,350.035 372.042,344.617 372.042,339.172 372.042,333.697 372.042,328.189 372.042,322.643 372.042,317.055 372.042,311.422 372.042,305.741 372.042,300.005 372.042,294.212 372.042,288.357 372.042,282.435 372.042,276.442 372.042,270.371 372.042,264.219 372.042,257.98 372.042,251.647 372.042,245.215 372.042,238.678 372.042,232.028 372.042,225.259 372.042,218.364 372.042,211.333 372.042,204.159 372.042,196.833 372.042,189.346 372.042,181.687 372.042,173.846 372.042,165.81 372.042,157.568 372.042,149.106 372.042,140.41 372.042,131.465 372.042,122.254 372.042,112.759 372.042,102.961 372.042,92.8392 372.042,82.3698 372.042,71.5284 372.042,60.2879 372.042,60 " />
<polyline fill="none" vector-effect="none" points="277.945,715 278.519,711.041 280.202,699.222 281.796,687.83 283.305,676.834 284.735,666.208 286.09,655.926 287.375,645.965 288.595,636.304 289.752,626.923 290.85,617.805 291.892,608.931 292.881,600.288 293.82,591.86 294.711,583.634 295.556,575.597 296.357,567.738 297.117,560.045 297.837,552.508 298.518,545.117 299.163,537.864 299.772,530.739 300.347,523.735 300.89,516.843 301.401,510.057 301.881,503.369 302.331,496.772 302.752,490.261 303.146,483.83 303.512,477.471 303.851,471.181 304.165,464.953 304.453,458.782 304.716,452.664 304.955,446.593 305.17,440.565 305.361,434.574 305.529,428.618 305.674,422.69 305.796,416.787 305.896,410.905 305.973,405.04 306.029,399.186 306.062,393.341 306.073,387.5 306.062,381.659 306.029,375.814 305.973,369.96 305.896,364.095 305.796,358.213 305.674,352.31 305.529,346.382 305.361,340.426 305.17,334.435 304.955,328.407 304.716,322.336 304.453,316.218 304.165,310.047 303.851,303.819 303.512,297.529 303.146,291.17 302.752,284.739 302.331,278.228 301.881,271.631 301.401,264.943 300.89,258.157 300.347,251.265 299.772,244.261 299.163,237.136 298.518,229.883 297.837,222.492 297.117,214.955 296.357,207.262 295.556,199.403 294.711,191.366 293.82,183.14 292.881,174.712 291.892,166.069 290.85,157.195 289.752,148.077 288.595,138.696 287.375,129.035 286.09,119.074 284.735,108.792 283.305,98.166 281.796,87.1704 280.202,75.7781 278.519,63.959 277.945,60 " />
<polyline fill="none" vector-effect="none" points="161.952,715 163.414,710.144 167.155,697.482 170.685,685.29 174.018,673.532 177.168,662.178 180.146,651.198 182.96,640.568 185.623,630.262 188.14,620.258 190.522,610.535 192.774,601.076 194.904,591.862 196.917,582.877 198.82,574.105 200.617,565.533 202.313,557.148 203.912,548.936 205.419,540.887 206.837,532.989 208.17,525.232 209.42,517.607 210.591,510.103 211.686,502.713 212.706,495.427 213.654,488.239 214.532,481.14 215.342,474.124 216.085,467.182 216.764,460.31 217.379,453.499 217.932,446.744 218.424,440.038 218.855,433.377 219.228,426.753 219.542,420.162 219.798,413.598 219.997,407.055 220.138,400.528 220.223,394.011 220.251,387.5 220.223,380.989 220.138,374.472 219.997,367.945 219.798,361.402 219.542,354.838 219.228,348.247 218.855,341.623 218.424,334.962 217.932,328.256 217.379,321.501 216.764,314.69 216.085,307.818 215.342,300.876 214.532,293.86 213.654,286.761 212.706,279.573 211.686,272.287 210.591,264.897 209.42,257.393 208.17,249.768 206.837,242.011 205.419,234.113 203.912,226.064 202.313,217.852 200.617,209.467 198.82,200.895 196.917,192.123 194.904,183.138 192.774,173.924 190.522,164.465 188.14,154.742 185.623,144.738 182.96,134.432 180.146,123.801 177.168,112.822 174.018,101.468 170.685,89.7104 167.155,77.518 163.414,64.8565 161.952,60 " />
</g>

<g fill="none" stroke="#ff0000" stroke-opacity="1" stroke-width="4.16667" stroke-linecap="butt" stroke-linejoin="round" transform="matrix(0.720415,0,0,0.718335,-73.823,-41.6601)"
font-family="Helvetica" font-size="13" font-weight="400" font-style="normal" 
>
<polyline fill="none" vector-effect="none" points="444.073,585.786 677.172,510.047 677.172,264.953 444.073,189.214 300.011,387.5 444.073,585.786 " />
</g>
</g>
</svg>
