<?xml version="1.0" encoding="UTF-8" standalone="no"?>
<svg width="222.25mm" height="171.45mm"
 viewBox="0 0 630 486"
 xmlns="http://www.w3.org/2000/svg" xmlns:xlink="http://www.w3.org/1999/xlink"  version="1.2" baseProfile="tiny">
<title>Qt SVG Document</title>
<desc>MATLAB, The MathWorks, Inc. Version 25.2.0.3150157 R2025b Update 4</desc>
<defs>
</defs>
<g fill="none" stroke="black" stroke-width="1" fill-rule="evenodd" stroke-linecap="square" stroke-linejoin="bevel" >

<g fill="#000000" fill-opacity="1" stroke="none" transform="matrix(0.719966,0,0,0.716205,-74.6626,-41.5323)"
font-family="Sans Serif" font-size="9" font-weight="400" font-style="normal" 
>
<path vector-effect="none" fill-rule="evenodd" d="M102,57 L979,57 L979,737 L102,737 L102,57"/>
</g>

<g fill="#121212" fill-opacity="1" stroke="none" transform="matrix(7.19966e-05,0,0,7.16205e-05,-74.6626,-41.5323)"
font-family="Sans Serif" font-size="9" font-weight="400" font-style="normal" 
>
<path vector-effect="none" fill-rule="evenodd" d="M1.40259e+06,600000 L1.40259e+06,7.17e+06 L9.73741e+06,7.17e+06 L9.73741e+06,600000 L1.40259e+06,600000"/>
</g>

<g fill="#d9d9d9" fill-opacity="1" stroke="#d9d9d9" stroke-opacity="1" stroke-width="0.694444" stroke-linecap="square" stroke-linejoin="round" transform="matrix(0.719966,0,0,0.716205,-74.6626,-41.5323)"
font-family="Sans Serif" font-size="9" font-weight="400" font-style="normal" 
>
<polyline fill="none" vector-effect="none" points="140.259,717 973.741,717 " />
<polyline fill="none" vector-effect="none" points="213.363,717 213.363,708.665 " />
<polyline fill="none" vector-effect="none" points="320.631,717 320.631,708.665 " />
<polyline fill="none" vector-effect="none" points="427.9,717 427.9,708.665 " />
<polyline fill="none" vector-effect="none" points="535.169,717 535.169,708.665 " />
<polyline fill="none" vector-effect="none" points="642.438,717 642.438,708.665 " />
<polyline fill="none" vector-effect="none" points="749.707,717 749.707,708.665 " />
<polyline fill="none" vector-effect="none" points="856.976,717 856.976,708.665 " />
<polyline fill="none" vector-effect="none" points="964.244,717 964.244,708.665 " />
</g>

<g fill="#d9d9d9" fill-opacity="1" stroke="#d9d9d9" stroke-opacity="1" stroke-width="1" stroke-linecap="square" stroke-linejoin="bevel" transform="matrix(0.719966,0,0,0.716205,71.0316,484.56)"
font-family="Helvetica" font-size="13" font-weight="400" font-style="normal" 
>
<text fill="#d9d9d9" fill-opacity="1" stroke="none" xml:space="preserve" x="0" y="0" font-family="Helvetica" font-size="13" font-weight="400" font-style="normal" 
 >-0.2</text>
</g>

<g fill="#d9d9d9" fill-opacity="1" stroke="#d9d9d9" stroke-opacity="1" stroke-width="1" stroke-linecap="square" stroke-linejoin="bevel" transform="matrix(0.719966,0,0,0.716205,145.382,484.56)"
font-family="Helvetica" font-size="13" font-weight="400" font-style="normal" 
>
<text fill="#d9d9d9" fill-opacity="1" stroke="none" xml:space="preserve" x="0" y="0" font-family="Helvetica" font-size="13" font-weight="400" font-style="normal" 
 >-0.15</text>
</g>

<g fill="#d9d9d9" fill-opacity="1" stroke="#d9d9d9" stroke-opacity="1" stroke-width="1" stroke-linecap="square" stroke-linejoin="bevel" transform="matrix(0.719966,0,0,0.716205,225.491,484.56)"
font-family="Helvetica" font-size="13" font-weight="400" font-style="normal" 
>
<text fill="#d9d9d9" fill-opacity="1" stroke="none" xml:space="preserve" x="0" y="0" font-family="Helvetica" font-size="13" font-weight="400" font-style="normal" 
 >-0.1</text>
</g>

<g fill="#d9d9d9" fill-opacity="1" stroke="#d9d9d9" stroke-opacity="1" stroke-width="1" stroke-linecap="square" stroke-linejoin="bevel" transform="matrix(0.719966,0,0,0.716205,299.841,484.56)"
font-family="Helvetica" font-size="13" font-weight="400" font-style="normal" 
>
<text fill="#d9d9d9" fill-opacity="1" stroke="none" xml:space="preserve" x="0" y="0" font-family="Helvetica" font-size="13" font-weight="400" font-style="normal" 
 >-0.05</text>
</g>

<g fill="#d9d9d9" fill-opacity="1" stroke="#d9d9d9" stroke-opacity="1" stroke-width="1" stroke-linecap="square" stroke-linejoin="bevel" transform="matrix(0.719966,0,0,0.716205,385.351,484.56)"
font-family="Helvetica" font-size="13" font-weight="400" font-style="normal" 
>
<text fill="#d9d9d9" fill-opacity="1" stroke="none" xml:space="preserve" x="0" y="0" font-family="Helvetica" font-size="13" font-weight="400" font-style="normal" 
 >0</text>
</g>

<g fill="#d9d9d9" fill-opacity="1" stroke="#d9d9d9" stroke-opacity="1" stroke-width="1" stroke-linecap="square" stroke-linejoin="bevel" transform="matrix(0.719966,0,0,0.716205,456.101,484.56)"
font-family="Helvetica" font-size="13" font-weight="400" font-style="normal" 
>
<text fill="#d9d9d9" fill-opacity="1" stroke="none" xml:space="preserve" x="0" y="0" font-family="Helvetica" font-size="13" font-weight="400" font-style="normal" 
 >0.05</text>
</g>

<g fill="#d9d9d9" fill-opacity="1" stroke="#d9d9d9" stroke-opacity="1" stroke-width="1" stroke-linecap="square" stroke-linejoin="bevel" transform="matrix(0.719966,0,0,0.716205,535.851,484.56)"
font-family="Helvetica" font-size="13" font-weight="400" font-style="normal" 
>
<text fill="#d9d9d9" fill-opacity="1" stroke="none" xml:space="preserve" x="0" y="0" font-family="Helvetica" font-size="13" font-weight="400" font-style="normal" 
 >0.1</text>
</g>

<g fill="#d9d9d9" fill-opacity="1" stroke="#d9d9d9" stroke-opacity="1" stroke-width="1" stroke-linecap="square" stroke-linejoin="bevel" transform="matrix(0.719966,0,0,0.716205,610.561,484.56)"
font-family="Helvetica" font-size="13" font-weight="400" font-style="normal" 
>
<text fill="#d9d9d9" fill-opacity="1" stroke="none" xml:space="preserve" x="0" y="0" font-family="Helvetica" font-size="13" font-weight="400" font-style="normal" 
 >0.15</text>
</g>

<g fill="#d9d9d9" fill-opacity="1" stroke="#d9d9d9" stroke-opacity="1" stroke-width="0.694444" stroke-linecap="square" stroke-linejoin="round" transform="matrix(0.719966,0,0,0.716205,-74.6626,-41.5323)"
font-family="Helvetica" font-size="13" font-weight="400" font-style="normal" 
>
<polyline fill="none" vector-effect="none" points="140.259,717 140.259,60 " />
<polyline fill="none" vector-effect="none" points="140.259,710.306 148.593,710.306 " />
<polyline fill="none" vector-effect="none" points="140.259,603.038 148.593,603.038 " />
<polyline fill="none" vector-effect="none" points="140.259,495.769 148.593,495.769 " />
<polyline fill="none" vector-effect="none" points="140.259,388.5 148.593,388.5 " />
<polyline fill="none" vector-effect="none" points="140.259,281.231 148.593,281.231 " />
<polyline fill="none" vector-effect="none" points="140.259,173.962 148.593,173.962 " />
<polyline fill="none" vector-effect="none" points="140.259,66.6936 148.593,66.6936 " />
</g>

<g fill="#d9d9d9" fill-opacity="1" stroke="#d9d9d9" stroke-opacity="1" stroke-width="1" stroke-linecap="square" stroke-linejoin="bevel" transform="matrix(0.719966,0,0,0.716205,0.720034,470.416)"
font-family="Helvetica" font-size="13" font-weight="400" font-style="normal" 
>
<text fill="#d9d9d9" fill-opacity="1" stroke="none" xml:space="preserve" x="0" y="0" font-family="Helvetica" font-size="13" font-weight="400" font-style="normal" 
 >-0.15</text>
</g>

<g fill="#d9d9d9" fill-opacity="1" stroke="#d9d9d9" stroke-opacity="1" stroke-width="1" stroke-linecap="square" stroke-linejoin="bevel" transform="matrix(0.719966,0,0,0.716205,6.47976,393.589)"
font-family="Helvetica" font-size="13" font-weight="400" font-style="normal" 
>
<text fill="#d9d9d9" fill-opacity="1" stroke="none" xml:space="preserve" x="0" y="0" font-family="Helvetica" font-size="13" font-weight="400" font-style="normal" 
 >-0.1</text>
</g>

<g fill="#d9d9d9" fill-opacity="1" stroke="#d9d9d9" stroke-opacity="1" stroke-width="1" stroke-linecap="square" stroke-linejoin="bevel" transform="matrix(0.719966,0,0,0.716205,0.720034,316.763)"
font-family="Helvetica" font-size="13" font-weight="400" font-style="normal" 
>
<text fill="#d9d9d9" fill-opacity="1" stroke="none" xml:space="preserve" x="0" y="0" font-family="Helvetica" font-size="13" font-weight="400" font-style="normal" 
 >-0.05</text>
</g>

<g fill="#d9d9d9" fill-opacity="1" stroke="#d9d9d9" stroke-opacity="1" stroke-width="1" stroke-linecap="square" stroke-linejoin="bevel" transform="matrix(0.719966,0,0,0.716205,17.2793,239.936)"
font-family="Helvetica" font-size="13" font-weight="400" font-style="normal" 
>
<text fill="#d9d9d9" fill-opacity="1" stroke="none" xml:space="preserve" x="0" y="0" font-family="Helvetica" font-size="13" font-weight="400" font-style="normal" 
 >0</text>
</g>

<g fill="#d9d9d9" fill-opacity="1" stroke="#d9d9d9" stroke-opacity="1" stroke-width="1" stroke-linecap="square" stroke-linejoin="bevel" transform="matrix(0.719966,0,0,0.716205,4.31986,163.11)"
font-family="Helvetica" font-size="13" font-weight="400" font-style="normal" 
>
<text fill="#d9d9d9" fill-opacity="1" stroke="none" xml:space="preserve" x="0" y="0" font-family="Helvetica" font-size="13" font-weight="400" font-style="normal" 
 >0.05</text>
</g>

<g fill="#d9d9d9" fill-opacity="1" stroke="#d9d9d9" stroke-opacity="1" stroke-width="1" stroke-linecap="square" stroke-linejoin="bevel" transform="matrix(0.719966,0,0,0.716205,9.35963,86.2833)"
font-family="Helvetica" font-size="13" font-weight="400" font-style="normal" 
>
<text fill="#d9d9d9" fill-opacity="1" stroke="none" xml:space="preserve" x="0" y="0" font-family="Helvetica" font-size="13" font-weight="400" font-style="normal" 
 >0.1</text>
</g>

<g fill="#d9d9d9" fill-opacity="1" stroke="#d9d9d9" stroke-opacity="1" stroke-width="1" stroke-linecap="square" stroke-linejoin="bevel" transform="matrix(0.719966,0,0,0.716205,4.31986,9.45688)"
font-family="Helvetica" font-size="13" font-weight="400" font-style="normal" 
>
<text fill="#d9d9d9" fill-opacity="1" stroke="none" xml:space="preserve" x="0" y="0" font-family="Helvetica" font-size="13" font-weight="400" font-style="normal" 
 >0.15</text>
</g>

<g fill="#2699d4" fill-opacity="0.14902" stroke="none" transform="matrix(7.19966e-05,0,0,7.16205e-05,-74.6626,-41.5323)"
font-family="Helvetica" font-size="13" font-weight="400" font-style="normal" 
>
<path vector-effect="none" fill-rule="evenodd" d="M9.73741e+06,7.17e+06 L9.73741e+06,600000 L9.70938e+06,600000 L1.40259e+06,600000 L1.40259e+06,7.17e+06 L3.13938e+06,7.17e+06 L9.73741e+06,7.17e+06"/>
</g>

<g fill="#75ab2e" fill-opacity="0.34902" stroke="none" transform="matrix(7.19966e-05,0,0,7.16205e-05,-74.6626,-41.5323)"
font-family="Helvetica" font-size="13" font-weight="400" font-style="normal" 
>
<path vector-effect="none" fill-rule="evenodd" d="M1.40259e+06,608452 L1.40259e+06,1.34547e+06 L1.40259e+06,2.48448e+06 L1.89007e+06,2.49872e+06 L2.56451e+06,2.63085e+06 L2.7506e+06,2.54785e+06 L2.77661e+06,2.10587e+06 L2.4788e+06,1.60702e+06 L2.36013e+06,1.44295e+06 L1.66453e+06,910718 L1.49786e+06,600000 L1.40259e+06,600000 L1.40259e+06,608452"/>
</g>

<g fill="none" stroke="#1a330d" stroke-opacity="1" stroke-width="0.486111" stroke-linecap="square" stroke-linejoin="miter" stroke-miterlimit="5" transform="matrix(0.719966,0,0,0.716205,-74.6626,-41.5323)"
font-family="Helvetica" font-size="13" font-weight="400" font-style="normal" 
>
<polyline fill="none" vector-effect="none" points="149.786,60 166.453,91.0719 236.013,144.295 247.88,160.702 277.661,210.587 275.06,254.785 256.451,263.085 189.007,249.872 140.259,248.448 " />
</g>

<g fill="#75ab2e" fill-opacity="0.34902" stroke="none" transform="matrix(7.19966e-05,0,0,7.16205e-05,-74.6626,-41.5323)"
font-family="Helvetica" font-size="13" font-weight="400" font-style="normal" 
>
<path vector-effect="none" fill-rule="evenodd" d="M9.73741e+06,1.45742e+06 L9.73741e+06,1.15162e+06 L9.73741e+06,1.06699e+06 L9.73741e+06,609892 L9.73741e+06,600000 L9.71972e+06,600000 L9.40437e+06,600000 L9.37392e+06,600000 L9.4051e+06,904275 L9.23668e+06,1.16919e+06 L9.50731e+06,1.01012e+06 L9.15295e+06,1.28662e+06 L9.32975e+06,1.269e+06 L9.20725e+06,1.54989e+06 L9.15929e+06,1.89797e+06 L9.29456e+06,1.87528e+06 L9.22697e+06,1.99463e+06 L9.45879e+06,2.13308e+06 L9.73741e+06,2.01645e+06 L9.73741e+06,1.90273e+06 L9.73741e+06,1.80399e+06 L9.73741e+06,1.67927e+06 L9.73741e+06,1.45742e+06"/>
</g>

<g fill="none" stroke="#1a330d" stroke-opacity="1" stroke-width="0.486111" stroke-linecap="square" stroke-linejoin="miter" stroke-miterlimit="5" transform="matrix(0.719966,0,0,0.716205,-74.6626,-41.5323)"
font-family="Helvetica" font-size="13" font-weight="400" font-style="normal" 
>
<polyline fill="none" vector-effect="none" points="973.741,201.645 945.879,213.308 922.697,199.463 929.456,187.528 915.929,189.797 920.725,154.989 932.974,126.9 915.295,128.662 950.731,101.012 923.668,116.919 940.51,90.4276 937.392,60 " />
</g>

<g fill="#75ab2e" fill-opacity="0.34902" stroke="none" transform="matrix(7.19966e-05,0,0,7.16205e-05,-74.6626,-41.5323)"
font-family="Helvetica" font-size="13" font-weight="400" font-style="normal" 
>
<path vector-effect="none" fill-rule="evenodd" d="M5.78612e+06,4.9905e+06 L5.97035e+06,4.95463e+06 L6.0461e+06,4.92432e+06 L6.10893e+06,5.06228e+06 L6.27932e+06,5.06643e+06 L6.42164e+06,4.66996e+06 L6.52004e+06,4.66411e+06 L6.49505e+06,4.6928e+06 L6.59839e+06,4.70365e+06 L6.5429e+06,4.55717e+06 L6.63529e+06,4.53413e+06 L6.67525e+06,4.57428e+06 L6.81686e+06,4.5648e+06 L6.92894e+06,4.48632e+06 L6.97943e+06,4.44005e+06 L6.98628e+06,4.35649e+06 L6.98348e+06,4.27649e+06 L6.9283e+06,4.17594e+06 L7.01118e+06,4.11971e+06 L6.96388e+06,4.10297e+06 L6.78801e+06,4.12114e+06 L6.77306e+06,4.04759e+06 L6.67101e+06,4.03319e+06 L6.59016e+06,3.98071e+06 L6.60426e+06,3.95047e+06 L6.66024e+06,3.92659e+06 L6.7121e+06,3.885e+06 L6.7554e+06,3.82663e+06 L6.78356e+06,3.74713e+06 L6.9244e+06,3.70301e+06 L6.99354e+06,3.76402e+06 L7.12199e+06,3.65833e+06 L7.2328e+06,3.66838e+06 L7.30033e+06,3.73055e+06 L7.32642e+06,3.72595e+06 L7.33486e+06,3.64104e+06 L7.36066e+06,3.54422e+06 L7.35824e+06,3.34584e+06 L7.33038e+06,3.25061e+06 L7.293e+06,3.15614e+06 L7.16406e+06,3.00348e+06 L7.13532e+06,3.03774e+06 L7.09735e+06,2.92389e+06 L7.00538e+06,2.87868e+06 L6.88095e+06,2.75494e+06 L6.73847e+06,2.78963e+06 L6.68831e+06,2.74178e+06 L6.62616e+06,2.74065e+06 L6.52664e+06,2.71617e+06 L6.42844e+06,2.72301e+06 L6.23232e+06,2.79578e+06 L6.13307e+06,2.93217e+06 L6.12016e+06,3.04917e+06 L6.06731e+06,2.95481e+06 L6.0461e+06,2.84568e+06 L5.85462e+06,2.89815e+06 L5.79151e+06,2.91047e+06 L5.7253e+06,2.88661e+06 L5.66248e+06,3.06797e+06 L5.6194e+06,3.20954e+06 L5.63923e+06,3.27157e+06 L5.50745e+06,3.26652e+06 L5.5615e+06,3.38682e+06 L5.55042e+06,3.5319e+06 L5.47792e+06,3.54052e+06 L5.44315e+06,3.71198e+06 L5.48178e+06,3.885e+06 L5.4961e+06,4.04868e+06 L5.68675e+06,4.15347e+06 L5.87705e+06,4.201e+06 L5.92125e+06,4.22437e+06 L5.95363e+06,4.22702e+06 L6.04401e+06,4.18218e+06 L6.12966e+06,4.1323e+06 L6.19897e+06,4.15364e+06 L6.25632e+06,4.17609e+06 L6.29279e+06,4.24653e+06 L6.34056e+06,4.36036e+06 L6.27905e+06,4.70922e+06 L6.13813e+06,4.67146e+06 L6.11086e+06,4.661e+06 L6.06731e+06,4.81519e+06 L6.14733e+06,4.45304e+06 L6.05762e+06,4.52024e+06 L5.97696e+06,4.65374e+06 L5.81497e+06,4.94052e+06 L5.66116e+06,5.01653e+06 L5.62434e+06,5.02757e+06 L5.78612e+06,4.9905e+06"/>
</g>

<g fill="none" stroke="#1a330d" stroke-opacity="1" stroke-width="0.486111" stroke-linecap="square" stroke-linejoin="miter" stroke-miterlimit="5" transform="matrix(0.719966,0,0,0.716205,-74.6626,-41.5323)"
font-family="Helvetica" font-size="13" font-weight="400" font-style="normal" 
>
<polyline fill="none" vector-effect="none" points="548.178,388.5 544.315,371.198 547.792,354.052 555.042,353.19 556.15,338.682 550.745,326.652 563.923,327.157 561.94,320.954 566.248,306.797 572.53,288.661 579.151,291.047 585.462,289.815 604.61,284.568 606.731,295.481 612.016,304.917 613.307,293.217 623.232,279.578 642.844,272.301 652.664,271.617 662.616,274.065 668.831,274.178 673.847,278.963 688.095,275.494 700.538,287.868 709.735,292.389 713.532,303.774 716.406,300.348 729.3,315.614 733.038,325.061 735.824,334.583 736.066,354.422 733.486,364.104 732.642,372.595 730.033,373.055 723.28,366.838 712.199,365.833 699.354,376.402 692.44,370.301 678.356,374.712 675.539,382.663 671.21,388.5 666.024,392.659 660.426,395.047 659.016,398.071 667.101,403.319 677.306,404.759 678.801,412.114 696.388,410.297 701.118,411.971 692.83,417.594 698.348,427.649 698.628,435.649 697.943,444.005 692.894,448.632 681.686,456.48 667.525,457.427 663.529,453.413 654.29,455.717 659.839,470.365 649.505,469.28 652.004,466.411 642.164,466.996 627.932,506.643 610.893,506.228 604.61,492.432 597.035,495.463 578.612,499.05 562.434,502.757 566.115,501.653 581.497,494.052 597.696,465.374 605.762,452.024 614.733,445.304 606.731,481.519 611.086,466.1 613.813,467.146 627.905,470.922 634.056,436.036 629.279,424.653 625.632,417.609 619.896,415.364 612.966,413.23 604.401,418.218 595.363,422.702 592.125,422.437 587.705,420.1 568.675,415.347 549.61,404.868 548.178,388.5 548.178,388.5 " />
</g>

<g fill="#75ab2e" fill-opacity="0.34902" stroke="none" transform="matrix(7.19966e-05,0,0,7.16205e-05,-74.6626,-41.5323)"
font-family="Helvetica" font-size="13" font-weight="400" font-style="normal" 
>
<path vector-effect="none" fill-rule="evenodd" d="M3.98191e+06,7.12627e+06 L3.9142e+06,7.17e+06 L4.04553e+06,7.17e+06 L4.21357e+06,7.17e+06 L4.18195e+06,7.08752e+06 L3.98191e+06,7.12627e+06"/>
</g>

<g fill="#75ab2e" fill-opacity="0.34902" stroke="none" transform="matrix(7.19966e-05,0,0,7.16205e-05,-74.6626,-41.5323)"
font-family="Helvetica" font-size="13" font-weight="400" font-style="normal" 
>
<path vector-effect="none" fill-rule="evenodd" d="M4.31718e+06,7.17e+06 L4.51943e+06,7.17e+06 L4.94689e+06,7.17e+06 L5.27557e+06,7.17e+06 L5.35939e+06,7.17e+06 L5.43828e+06,7.17e+06 L5.52513e+06,7.02104e+06 L5.54456e+06,6.81759e+06 L5.48487e+06,6.7765e+06 L5.74017e+06,6.4385e+06 L5.79123e+06,6.09305e+06 L5.82126e+06,5.85772e+06 L5.77365e+06,5.67287e+06 L5.6143e+06,5.62223e+06 L5.65162e+06,5.79765e+06 L5.58251e+06,6.0222e+06 L5.42183e+06,6.13676e+06 L5.4681e+06,6.25188e+06 L5.26746e+06,6.36602e+06 L5.0935e+06,6.73908e+06 L5.04411e+06,6.59393e+06 L4.86197e+06,6.95141e+06 L4.73411e+06,6.81263e+06 L4.39295e+06,6.89672e+06 L4.31718e+06,7.17e+06"/>
</g>

<g fill="none" stroke="#1a330d" stroke-opacity="1" stroke-width="0.486111" stroke-linecap="square" stroke-linejoin="miter" stroke-miterlimit="5" transform="matrix(0.719966,0,0,0.716205,-74.6626,-41.5323)"
font-family="Helvetica" font-size="13" font-weight="400" font-style="normal" 
>
<polyline fill="none" vector-effect="none" points="391.42,717 398.191,712.627 418.195,708.752 421.357,717 " />
<polyline fill="none" vector-effect="none" points="431.718,717 439.295,689.672 473.411,681.263 486.197,695.141 504.411,659.393 509.35,673.908 526.746,636.602 546.81,625.188 542.183,613.676 558.251,602.22 565.162,579.765 561.43,562.223 577.365,567.287 582.126,585.772 579.123,609.305 574.017,643.85 548.487,677.65 554.456,681.759 552.513,702.104 543.828,717 " />
</g>

<g fill="none" stroke="#000000" stroke-opacity="1" stroke-width="0.694444" stroke-linecap="butt" stroke-linejoin="round" transform="matrix(0.719966,0,0,0.716205,-74.6626,-41.5323)"
font-family="Helvetica" font-size="13" font-weight="400" font-style="normal" 
>
<polyline fill="none" vector-effect="none" points="642.438,388.5 647.216,388.5 651.997,388.5 656.784,388.5 661.58,388.5 666.388,388.5 671.21,388.5 676.05,388.5 680.911,388.5 685.796,388.5 690.707,388.5 695.649,388.5 700.625,388.5 705.638,388.5 710.691,388.5 715.789,388.5 720.934,388.5 726.132,388.5 731.385,388.5 736.698,388.5 742.075,388.5 747.521,388.5 753.04,388.5 758.638,388.5 764.319,388.5 770.09,388.5 775.955,388.5 781.92,388.5 787.993,388.5 794.18,388.5 800.488,388.5 806.923,388.5 813.496,388.5 820.213,388.5 827.085,388.5 834.12,388.5 841.329,388.5 848.723,388.5 856.315,388.5 864.116,388.5 872.141,388.5 880.405,388.5 888.924,388.5 897.714,388.5 906.795,388.5 916.188,388.5 925.914,388.5 935.999,388.5 946.468,388.5 957.351,388.5 968.68,388.5 " />
<polyline fill="none" vector-effect="none" points="642.438,388.5 647.144,389.33 651.852,390.16 656.567,390.991 661.29,391.824 666.024,392.659 670.773,393.496 675.539,394.337 680.326,395.181 685.137,396.029 689.974,396.882 694.841,397.74 699.741,398.604 704.678,399.475 709.654,400.352 714.675,401.237 719.742,402.131 724.86,403.033 730.033,403.945 735.266,404.868 740.561,405.802 745.924,406.747 751.36,407.706 756.872,408.678 762.468,409.664 768.15,410.667 773.926,411.685 779.801,412.721 785.782,413.775 791.875,414.85 798.086,415.945 804.425,417.063 810.897,418.204 817.512,419.37 824.279,420.564 831.208,421.785 838.307,423.037 845.589,424.321 853.066,425.639 860.748,426.994 868.652,428.388 876.79,429.823 885.179,431.302 893.836,432.828 902.779,434.405 912.029,436.036 921.608,437.725 931.539,439.476 941.849,441.294 952.567,443.184 963.724,445.151 " />
<polyline fill="none" vector-effect="none" points="642.438,388.5 646.928,390.134 651.421,391.77 655.919,393.407 660.426,395.047 664.944,396.691 669.475,398.341 674.023,399.996 678.591,401.659 683.181,403.329 687.796,405.009 692.44,406.699 697.116,408.401 701.827,410.116 706.575,411.844 711.365,413.588 716.201,415.347 721.084,417.125 726.021,418.922 731.013,420.739 736.066,422.578 741.183,424.44 746.37,426.328 751.63,428.243 756.969,430.186 762.391,432.159 767.903,434.165 773.509,436.206 779.215,438.283 785.029,440.399 790.956,442.556 797.004,444.757 803.18,447.005 809.492,449.303 815.949,451.653 822.56,454.059 829.334,456.525 836.283,459.054 843.416,461.65 850.747,464.318 858.289,467.063 866.054,469.89 874.059,472.803 882.319,475.81 890.852,478.916 899.679,482.128 908.819,485.455 918.295,488.904 928.133,492.484 938.36,496.207 949.006,500.082 " />
<polyline fill="none" vector-effect="none" points="642.438,388.5 646.576,390.889 650.717,393.28 654.862,395.673 659.016,398.071 663.179,400.475 667.355,402.886 671.547,405.306 675.757,407.737 679.987,410.179 684.24,412.635 688.521,415.106 692.83,417.594 697.171,420.1 701.547,422.627 705.962,425.176 710.418,427.748 714.919,430.347 719.468,432.973 724.069,435.63 728.726,438.318 733.442,441.041 738.222,443.801 743.07,446.6 747.99,449.441 752.987,452.326 758.067,455.258 763.233,458.241 768.493,461.278 773.85,464.371 779.313,467.525 784.887,470.743 790.578,474.029 796.396,477.388 802.347,480.823 808.439,484.341 814.683,487.946 821.086,491.643 827.661,495.438 834.417,499.339 841.367,503.352 848.524,507.484 855.901,511.743 863.513,516.138 871.378,520.679 879.512,525.375 887.936,530.238 896.669,535.28 905.736,540.515 915.161,545.957 924.972,551.621 " />
<polyline fill="none" vector-effect="none" points="642.438,388.5 646.098,391.571 649.761,394.645 653.428,397.722 657.102,400.805 660.785,403.895 664.479,406.994 668.186,410.106 671.91,413.23 675.652,416.37 679.414,419.527 683.2,422.704 687.012,425.902 690.852,429.124 694.723,432.373 698.628,435.649 702.57,438.957 706.551,442.297 710.575,445.674 714.645,449.089 718.764,452.545 722.936,456.046 727.164,459.594 731.452,463.192 735.804,466.844 740.225,470.553 744.718,474.323 749.288,478.158 753.94,482.061 758.679,486.038 763.511,490.092 768.441,494.229 773.476,498.454 778.622,502.772 783.885,507.189 789.275,511.711 794.797,516.345 800.462,521.098 806.277,525.977 812.253,530.992 818.401,536.151 824.731,541.462 831.257,546.938 837.991,552.588 844.947,558.426 852.143,564.463 859.593,570.715 867.319,577.197 875.339,583.927 883.675,590.922 892.354,598.205 " />
<polyline fill="none" vector-effect="none" points="642.438,388.5 645.509,392.16 648.583,395.823 651.66,399.49 654.742,403.164 657.833,406.847 660.932,410.541 664.043,414.249 667.168,417.972 670.308,421.714 673.465,425.477 676.642,429.262 679.84,433.074 683.062,436.914 686.31,440.785 689.587,444.69 692.894,448.632 696.235,452.613 699.612,456.637 703.027,460.707 706.483,464.826 709.984,468.998 713.532,473.226 717.13,477.514 720.782,481.867 724.491,486.287 728.261,490.78 732.096,495.35 735.999,500.002 739.976,504.741 744.03,509.573 748.167,514.503 752.392,519.538 756.71,524.684 761.127,529.948 765.649,535.337 770.283,540.859 775.036,546.524 779.915,552.339 784.93,558.315 790.088,564.463 795.4,570.793 800.876,577.319 806.526,584.053 812.363,591.009 818.401,598.205 824.653,605.656 831.135,613.381 837.865,621.401 844.86,629.738 852.143,638.416 " />
<polyline fill="none" vector-effect="none" points="642.438,388.5 644.827,392.638 647.218,396.779 649.611,400.925 652.009,405.078 654.413,409.241 656.824,413.418 659.244,417.609 661.674,421.819 664.117,426.049 666.573,430.303 669.044,434.583 671.532,438.892 674.038,443.233 676.565,447.609 679.113,452.024 681.686,456.48 684.285,460.981 686.911,465.53 689.568,470.131 692.256,474.788 694.979,479.504 697.739,484.284 700.538,489.132 703.379,494.052 706.264,499.05 709.196,504.129 712.179,509.295 715.216,514.555 718.309,519.913 721.463,525.375 724.681,530.949 727.967,536.641 731.326,542.458 734.761,548.409 738.279,554.501 741.883,560.745 745.581,567.148 749.376,573.723 753.277,580.479 757.29,587.429 761.422,594.586 765.681,601.963 770.076,609.576 774.617,617.44 779.313,625.574 784.176,633.998 789.218,642.731 794.453,651.798 799.895,661.223 805.559,671.034 " />
<polyline fill="none" vector-effect="none" points="642.438,388.5 644.072,392.99 645.707,397.483 647.345,401.981 648.985,406.488 650.629,411.006 652.279,415.537 653.934,420.085 655.596,424.653 657.267,429.243 658.947,433.858 660.637,438.503 662.339,443.178 664.054,447.889 665.782,452.637 667.525,457.427 669.285,462.263 671.063,467.146 672.859,472.083 674.677,477.075 676.516,482.128 678.378,487.246 680.266,492.432 682.181,497.692 684.124,503.031 686.097,508.453 688.103,513.965 690.144,519.571 692.221,525.277 694.337,531.091 696.494,537.018 698.695,543.066 700.943,549.242 703.241,555.554 705.591,562.011 707.997,568.622 710.463,575.396 712.992,582.345 715.588,589.479 718.256,596.81 721.001,604.351 723.827,612.116 726.741,620.121 729.747,628.381 732.853,636.915 736.066,645.741 739.393,654.881 742.842,664.357 746.422,674.195 750.145,684.422 754.019,695.068 " />
<polyline fill="none" vector-effect="none" points="642.438,388.5 643.268,393.206 644.098,397.914 644.929,402.629 645.762,407.352 646.597,412.086 647.434,416.835 648.275,421.602 649.119,426.389 649.967,431.199 650.82,436.036 651.678,440.903 652.542,445.803 653.412,450.74 654.29,455.717 655.175,460.737 656.069,465.804 656.971,470.922 657.883,476.095 658.806,481.328 659.74,486.623 660.685,491.986 661.644,497.422 662.616,502.935 663.602,508.53 664.604,514.212 665.623,519.988 666.659,525.864 667.713,531.844 668.788,537.937 669.883,544.148 671,550.487 672.142,556.959 673.308,563.575 674.501,570.341 675.723,577.27 676.975,584.369 678.259,591.651 679.577,599.128 680.932,606.811 682.326,614.714 683.76,622.852 685.24,631.241 686.766,639.898 688.343,648.841 689.974,658.091 691.663,667.67 693.414,677.601 695.232,687.911 697.122,698.629 699.089,709.786 " />
<polyline fill="none" vector-effect="none" points="642.438,388.5 642.438,393.278 642.438,398.06 642.438,402.847 642.438,407.642 642.438,412.45 642.438,417.272 642.438,422.112 642.438,426.973 642.438,431.858 642.438,436.77 642.438,441.712 642.438,446.687 642.438,451.7 642.438,456.754 642.438,461.851 642.438,466.997 642.438,472.194 642.438,477.447 642.438,482.76 642.438,488.137 642.438,493.583 642.438,499.102 642.438,504.7 642.438,510.381 642.438,516.152 642.438,522.017 642.438,527.983 642.438,534.055 642.438,540.242 642.438,546.55 642.438,552.986 642.438,559.558 642.438,566.275 642.438,573.147 642.438,580.182 642.438,587.391 642.438,594.785 642.438,602.377 642.438,610.178 642.438,618.204 642.438,626.467 642.438,634.986 642.438,643.776 642.438,652.857 642.438,662.25 642.438,671.976 642.438,682.061 642.438,692.53 642.438,703.413 642.438,714.743 " />
<polyline fill="none" vector-effect="none" points="642.438,388.5 641.608,393.206 640.778,397.914 639.947,402.629 639.114,407.352 638.279,412.086 637.442,416.835 636.601,421.602 635.757,426.389 634.909,431.199 634.056,436.036 633.198,440.903 632.334,445.803 631.463,450.74 630.586,455.717 629.701,460.737 628.807,465.804 627.905,470.922 626.992,476.095 626.07,481.328 625.136,486.623 624.19,491.986 623.232,497.422 622.26,502.935 621.273,508.53 620.271,514.212 619.253,519.988 618.217,525.864 617.162,531.844 616.088,537.937 614.993,544.148 613.875,550.487 612.734,556.959 611.568,563.575 610.374,570.341 609.153,577.27 607.901,584.369 606.617,591.651 605.299,599.128 603.944,606.811 602.55,614.714 601.115,622.852 599.636,631.241 598.11,639.898 596.533,648.841 594.902,658.091 593.213,667.67 591.462,677.601 589.644,687.911 587.754,698.629 585.786,709.786 " />
<polyline fill="none" vector-effect="none" points="642.438,388.5 640.804,392.99 639.168,397.483 637.531,401.981 635.891,406.488 634.247,411.006 632.597,415.537 630.942,420.085 629.279,424.653 627.609,429.243 625.929,433.858 624.238,438.503 622.537,443.178 620.822,447.889 619.094,452.637 617.35,457.427 615.59,462.263 613.813,467.146 612.016,472.083 610.199,477.075 608.36,482.128 606.497,487.246 604.61,492.432 602.695,497.692 600.752,503.031 598.778,508.453 596.772,513.965 594.732,519.571 592.655,525.277 590.539,531.091 588.382,537.018 586.18,543.066 583.933,549.242 581.635,555.554 579.285,562.011 576.879,568.622 574.413,575.396 571.884,582.345 569.288,589.479 566.619,596.81 563.875,604.351 561.048,612.116 558.135,620.121 555.128,628.381 552.022,636.915 548.81,645.741 545.483,654.881 542.034,664.357 538.453,674.195 534.731,684.422 530.856,695.068 " />
<polyline fill="none" vector-effect="none" points="642.438,388.5 640.049,392.638 637.658,396.779 635.265,400.925 632.867,405.078 630.463,409.241 628.052,413.418 625.632,417.609 623.201,421.819 620.759,426.049 618.303,430.303 615.832,434.583 613.344,438.892 610.838,443.233 608.311,447.609 605.762,452.024 603.19,456.48 600.591,460.981 597.964,465.53 595.308,470.131 592.619,474.788 589.896,479.504 587.137,484.284 584.338,489.132 581.497,494.052 578.612,499.05 575.68,504.129 572.697,509.295 569.66,514.555 566.567,519.913 563.413,525.375 560.195,530.949 556.909,536.641 553.55,542.458 550.115,548.409 546.597,554.501 542.992,560.745 539.295,567.148 535.499,573.723 531.599,580.479 527.586,587.429 523.454,594.586 519.195,601.963 514.8,609.576 510.259,617.44 505.563,625.574 500.7,633.998 495.657,642.731 490.423,651.798 484.981,661.223 479.317,671.034 " />
<polyline fill="none" vector-effect="none" points="642.438,388.5 639.366,392.16 636.293,395.823 633.216,399.49 630.133,403.164 627.043,406.847 623.943,410.541 620.832,414.249 617.708,417.972 614.568,421.714 611.411,425.477 608.234,429.262 605.036,433.074 601.814,436.914 598.565,440.785 595.289,444.69 591.981,448.632 588.641,452.613 585.264,456.637 581.849,460.707 578.393,464.826 574.892,468.998 571.344,473.226 567.746,477.514 564.094,481.867 560.385,486.287 556.615,490.78 552.78,495.35 548.877,500.002 544.9,504.741 540.846,509.573 536.709,514.503 532.484,519.538 528.166,524.684 523.749,529.948 519.227,535.337 514.593,540.859 509.84,546.524 504.96,552.339 499.946,558.315 494.787,564.463 489.475,570.793 484,577.319 478.35,584.053 472.512,591.009 466.475,598.205 460.223,605.656 453.741,613.381 447.011,621.401 440.015,629.738 432.733,638.416 " />
<polyline fill="none" vector-effect="none" points="642.438,388.5 638.777,391.571 635.115,394.645 631.448,397.722 627.774,400.805 624.091,403.895 620.397,406.994 616.689,410.106 612.966,413.23 609.224,416.37 605.461,419.527 601.675,422.704 597.864,425.902 594.024,429.124 590.153,432.373 586.248,435.649 582.306,438.957 578.325,442.297 574.301,445.674 570.231,449.089 566.112,452.545 561.94,456.046 557.712,459.594 553.424,463.192 549.071,466.844 544.651,470.553 540.158,474.323 535.588,478.158 530.936,482.061 526.197,486.038 521.365,490.092 516.435,494.229 511.4,498.454 506.254,502.772 500.99,507.189 495.601,511.711 490.079,516.345 484.414,521.098 478.599,525.977 472.622,530.992 466.475,536.151 460.144,541.462 453.619,546.938 446.885,552.588 439.928,558.426 432.733,564.463 425.282,570.715 417.557,577.197 409.537,583.927 401.2,590.922 392.522,598.205 " />
<polyline fill="none" vector-effect="none" points="642.438,388.5 638.3,390.889 634.159,393.28 630.013,395.673 625.86,398.071 621.697,400.475 617.52,402.886 613.329,405.306 609.119,407.737 604.889,410.179 600.635,412.635 596.355,415.106 592.046,417.594 587.705,420.1 583.329,422.627 578.914,425.176 574.458,427.748 569.957,430.347 565.408,432.973 560.807,435.63 556.15,438.318 551.434,441.041 546.654,443.801 541.806,446.6 536.886,449.441 531.888,452.326 526.809,455.258 521.642,458.241 516.383,461.278 511.025,464.371 505.563,467.525 499.989,470.743 494.297,474.029 488.48,477.388 482.529,480.823 476.437,484.341 470.193,487.946 463.789,491.643 457.215,495.438 450.459,499.339 443.509,503.352 436.352,507.484 428.975,511.743 421.362,516.138 413.498,520.679 405.363,525.375 396.94,530.238 388.207,535.28 379.14,540.515 369.715,545.957 359.904,551.621 " />
<polyline fill="none" vector-effect="none" points="642.438,388.5 637.948,390.134 633.455,391.77 628.956,393.407 624.45,395.047 619.932,396.691 615.401,398.341 610.853,399.996 606.285,401.659 601.695,403.329 597.079,405.009 592.435,406.699 587.76,408.401 583.049,410.116 578.301,411.844 573.51,413.588 568.675,415.347 563.791,417.125 558.855,418.922 553.863,420.739 548.81,422.578 543.692,424.44 538.506,426.328 533.246,428.243 527.907,430.186 522.484,432.159 516.973,434.165 511.367,436.206 505.66,438.283 499.847,440.399 493.92,442.556 487.872,444.757 481.696,447.005 475.384,449.303 468.927,451.653 462.316,454.059 455.541,456.525 448.593,459.054 441.459,461.65 434.128,464.318 426.587,467.063 418.822,469.89 410.817,472.803 402.557,475.81 394.023,478.916 385.197,482.128 376.057,485.455 366.581,488.904 356.743,492.484 346.516,496.207 335.87,500.082 " />
<polyline fill="none" vector-effect="none" points="642.438,388.5 637.732,389.33 633.024,390.16 628.309,390.991 623.586,391.824 618.852,392.659 614.103,393.496 609.336,394.337 604.549,395.181 599.739,396.029 594.902,396.882 590.035,397.74 585.135,398.604 580.198,399.475 575.221,400.352 570.201,401.237 565.134,402.131 560.016,403.033 554.842,403.945 549.61,404.868 544.315,405.802 538.952,406.747 533.516,407.706 528.003,408.678 522.408,409.664 516.725,410.667 510.949,411.685 505.074,412.721 499.094,413.775 493.001,414.85 486.789,415.945 480.451,417.063 473.979,418.204 467.363,419.37 460.596,420.564 453.668,421.785 446.568,423.037 439.286,424.321 431.81,425.639 424.127,426.994 416.224,428.388 408.086,429.823 399.697,431.302 391.04,432.828 382.097,434.405 372.847,436.036 363.268,437.725 353.337,439.476 343.027,441.294 332.309,443.184 321.152,445.151 " />
<polyline fill="none" vector-effect="none" points="642.438,388.5 637.66,388.5 632.878,388.5 628.091,388.5 623.295,388.5 618.488,388.5 613.666,388.5 608.826,388.5 603.965,388.5 599.08,388.5 594.168,388.5 589.226,388.5 584.251,388.5 579.238,388.5 574.184,388.5 569.087,388.5 563.941,388.5 558.744,388.5 553.491,388.5 548.178,388.5 542.801,388.5 537.355,388.5 531.836,388.5 526.238,388.5 520.557,388.5 514.786,388.5 508.921,388.5 502.955,388.5 496.882,388.5 490.696,388.5 484.388,388.5 477.952,388.5 471.38,388.5 464.663,388.5 457.791,388.5 450.756,388.5 443.547,388.5 436.152,388.5 428.561,388.5 420.759,388.5 412.734,388.5 404.471,388.5 395.952,388.5 387.162,388.5 378.081,388.5 368.688,388.5 358.961,388.5 348.877,388.5 338.408,388.5 327.525,388.5 316.195,388.5 " />
<polyline fill="none" vector-effect="none" points="642.438,388.5 637.732,387.67 633.024,386.84 628.309,386.009 623.586,385.176 618.852,384.341 614.103,383.504 609.336,382.663 604.549,381.819 599.739,380.971 594.902,380.118 590.035,379.26 585.135,378.396 580.198,377.525 575.221,376.648 570.201,375.763 565.134,374.869 560.016,373.967 554.842,373.055 549.61,372.132 544.315,371.198 538.952,370.253 533.516,369.294 528.003,368.322 522.408,367.336 516.725,366.333 510.949,365.315 505.074,364.279 499.094,363.225 493.001,362.15 486.789,361.055 480.451,359.937 473.979,358.796 467.363,357.63 460.596,356.436 453.668,355.215 446.568,353.963 439.286,352.679 431.81,351.361 424.127,350.006 416.224,348.612 408.086,347.177 399.697,345.698 391.04,344.172 382.097,342.595 372.847,340.964 363.268,339.275 353.337,337.524 343.027,335.706 332.309,333.816 321.152,331.849 " />
<polyline fill="none" vector-effect="none" points="642.438,388.5 637.948,386.866 633.455,385.23 628.956,383.593 624.45,381.953 619.932,380.309 615.401,378.659 610.853,377.004 606.285,375.341 601.695,373.671 597.079,371.991 592.435,370.301 587.76,368.599 583.049,366.884 578.301,365.156 573.51,363.412 568.675,361.653 563.791,359.875 558.855,358.078 553.863,356.261 548.81,354.422 543.692,352.56 538.506,350.672 533.246,348.757 527.907,346.814 522.484,344.841 516.973,342.835 511.367,340.794 505.66,338.717 499.847,336.601 493.92,334.444 487.872,332.243 481.696,329.995 475.384,327.697 468.927,325.347 462.316,322.941 455.541,320.475 448.593,317.946 441.459,315.35 434.128,312.682 426.587,309.937 418.822,307.11 410.817,304.197 402.557,301.19 394.023,298.084 385.197,294.872 376.057,291.545 366.581,288.096 356.743,284.516 346.516,280.793 335.87,276.918 " />
<polyline fill="none" vector-effect="none" points="642.438,388.5 638.3,386.111 634.159,383.72 630.013,381.327 625.86,378.929 621.697,376.525 617.52,374.114 613.329,371.694 609.119,369.263 604.889,366.821 600.635,364.365 596.355,361.894 592.046,359.406 587.705,356.9 583.329,354.373 578.914,351.824 574.458,349.252 569.957,346.653 565.408,344.027 560.807,341.37 556.15,338.682 551.434,335.959 546.654,333.199 541.806,330.4 536.886,327.559 531.888,324.674 526.809,321.742 521.642,318.759 516.383,315.722 511.025,312.629 505.563,309.475 499.989,306.257 494.297,302.971 488.48,299.612 482.529,296.177 476.437,292.659 470.193,289.054 463.789,285.357 457.215,281.562 450.459,277.661 443.509,273.648 436.352,269.516 428.975,265.257 421.362,260.862 413.498,256.321 405.363,251.625 396.94,246.762 388.207,241.72 379.14,236.485 369.715,231.043 359.904,225.379 " />
<polyline fill="none" vector-effect="none" points="642.438,388.5 638.777,385.429 635.115,382.355 631.448,379.278 627.774,376.195 624.091,373.105 620.397,370.006 616.689,366.894 612.966,363.77 609.224,360.63 605.461,357.473 601.675,354.296 597.864,351.098 594.024,347.876 590.153,344.627 586.248,341.351 582.306,338.043 578.325,334.703 574.301,331.326 570.231,327.911 566.112,324.455 561.94,320.954 557.712,317.406 553.424,313.808 549.071,310.156 544.651,306.447 540.158,302.677 535.588,298.842 530.936,294.939 526.197,290.962 521.365,286.908 516.435,282.771 511.4,278.546 506.254,274.228 500.99,269.811 495.601,265.289 490.079,260.655 484.414,255.902 478.599,251.023 472.622,246.008 466.475,240.849 460.144,235.538 453.619,230.062 446.885,224.412 439.928,218.574 432.733,212.537 425.282,206.285 417.557,199.803 409.537,193.073 401.2,186.078 392.522,178.795 " />
<polyline fill="none" vector-effect="none" points="642.438,388.5 639.366,384.84 636.293,381.177 633.216,377.51 630.133,373.836 627.043,370.153 623.943,366.459 620.832,362.751 617.708,359.028 614.568,355.286 611.411,351.523 608.234,347.738 605.036,343.926 601.814,340.086 598.565,336.215 595.289,332.31 591.981,328.368 588.641,324.387 585.264,320.363 581.849,316.293 578.393,312.174 574.892,308.002 571.344,303.774 567.746,299.486 564.094,295.133 560.385,290.713 556.615,286.22 552.78,281.65 548.877,276.998 544.9,272.259 540.846,267.427 536.709,262.497 532.484,257.462 528.166,252.316 523.749,247.052 519.227,241.663 514.593,236.141 509.84,230.476 504.96,224.661 499.946,218.685 494.787,212.537 489.475,206.207 484,199.681 478.35,192.947 472.512,185.991 466.475,178.795 460.223,171.344 453.741,163.619 447.011,155.599 440.015,147.262 432.733,138.584 " />
<polyline fill="none" vector-effect="none" points="642.438,388.5 640.049,384.362 637.658,380.221 635.265,376.075 632.867,371.922 630.463,367.759 628.052,363.582 625.632,359.391 623.201,355.181 620.759,350.951 618.303,346.697 615.832,342.417 613.344,338.108 610.838,333.767 608.311,329.391 605.762,324.976 603.19,320.52 600.591,316.019 597.964,311.47 595.308,306.869 592.619,302.212 589.896,297.496 587.137,292.716 584.338,287.868 581.497,282.948 578.612,277.95 575.68,272.871 572.697,267.705 569.66,262.445 566.567,257.087 563.413,251.625 560.195,246.051 556.909,240.359 553.55,234.542 550.115,228.591 546.597,222.499 542.992,216.255 539.295,209.852 535.499,203.277 531.599,196.521 527.586,189.571 523.454,182.414 519.195,175.037 514.8,167.424 510.259,159.56 505.563,151.426 500.7,143.002 495.657,134.269 490.423,125.202 484.981,115.777 479.317,105.966 " />
<polyline fill="none" vector-effect="none" points="642.438,388.5 640.804,384.01 639.168,379.517 637.531,375.019 635.891,370.512 634.247,365.994 632.597,361.463 630.942,356.915 629.279,352.347 627.609,347.757 625.929,343.142 624.238,338.497 622.537,333.822 620.822,329.111 619.094,324.363 617.35,319.573 615.59,314.737 613.813,309.854 612.016,304.917 610.199,299.925 608.36,294.872 606.497,289.754 604.61,284.568 602.695,279.308 600.752,273.969 598.778,268.547 596.772,263.035 594.732,257.429 592.655,251.723 590.539,245.909 588.382,239.982 586.18,233.934 583.933,227.758 581.635,221.446 579.285,214.989 576.879,208.378 574.413,201.604 571.884,194.655 569.288,187.521 566.619,180.19 563.875,172.649 561.048,164.884 558.135,156.879 555.128,148.619 552.022,140.085 548.81,131.259 545.483,122.119 542.034,112.643 538.453,102.805 534.731,92.5782 530.856,81.9323 " />
<polyline fill="none" vector-effect="none" points="642.438,388.5 641.608,383.794 640.778,379.086 639.947,374.371 639.114,369.648 638.279,364.914 637.442,360.165 636.601,355.398 635.757,350.611 634.909,345.801 634.056,340.964 633.198,336.097 632.334,331.197 631.463,326.26 630.586,321.283 629.701,316.263 628.807,311.196 627.905,306.078 626.992,300.905 626.07,295.672 625.136,290.377 624.19,285.014 623.232,279.578 622.26,274.065 621.273,268.47 620.271,262.788 619.253,257.012 618.217,251.136 617.162,245.156 616.088,239.063 614.993,232.851 613.875,226.513 612.734,220.041 611.568,213.425 610.374,206.658 609.153,199.73 607.901,192.631 606.617,185.349 605.299,177.872 603.944,170.189 602.55,162.286 601.115,154.148 599.636,145.759 598.11,137.102 596.533,128.159 594.902,118.909 593.213,109.33 591.462,99.3989 589.644,89.0887 587.754,78.3709 585.786,67.2138 " />
<polyline fill="none" vector-effect="none" points="642.438,388.5 642.438,383.722 642.438,378.94 642.438,374.153 642.438,369.358 642.438,364.55 642.438,359.728 642.438,354.888 642.438,350.027 642.438,345.142 642.438,340.23 642.438,335.288 642.438,330.313 642.438,325.3 642.438,320.246 642.438,315.149 642.438,310.003 642.438,304.806 642.438,299.553 642.438,294.24 642.438,288.863 642.438,283.417 642.438,277.898 642.438,272.3 642.438,266.619 642.438,260.848 642.438,254.983 642.438,249.017 642.438,242.945 642.438,236.758 642.438,230.45 642.438,224.014 642.438,217.442 642.438,210.725 642.438,203.853 642.438,196.818 642.438,189.609 642.438,182.215 642.438,174.623 642.438,166.822 642.438,158.796 642.438,150.533 642.438,142.014 642.438,133.224 642.438,124.143 642.438,114.75 642.438,105.024 642.438,94.9391 642.438,84.4698 642.438,73.5867 642.438,62.2574 " />
<polyline fill="none" vector-effect="none" points="642.438,388.5 643.268,383.794 644.098,379.086 644.929,374.371 645.762,369.648 646.597,364.914 647.434,360.165 648.275,355.398 649.119,350.611 649.967,345.801 650.82,340.964 651.678,336.097 652.542,331.197 653.412,326.26 654.29,321.283 655.175,316.263 656.069,311.196 656.971,306.078 657.883,300.905 658.806,295.672 659.74,290.377 660.685,285.014 661.644,279.578 662.616,274.065 663.602,268.47 664.604,262.788 665.623,257.012 666.659,251.136 667.713,245.156 668.788,239.063 669.883,232.851 671,226.513 672.142,220.041 673.308,213.425 674.501,206.658 675.723,199.73 676.975,192.631 678.259,185.349 679.577,177.872 680.932,170.189 682.326,162.286 683.76,154.148 685.24,145.759 686.766,137.102 688.343,128.159 689.974,118.909 691.663,109.33 693.414,99.3989 695.232,89.0887 697.122,78.3709 699.089,67.2138 " />
<polyline fill="none" vector-effect="none" points="642.438,388.5 644.072,384.01 645.707,379.517 647.345,375.019 648.985,370.512 650.629,365.994 652.279,361.463 653.934,356.915 655.596,352.347 657.267,347.757 658.947,343.142 660.637,338.497 662.339,333.822 664.054,329.111 665.782,324.363 667.525,319.573 669.285,314.737 671.063,309.854 672.859,304.917 674.677,299.925 676.516,294.872 678.378,289.754 680.266,284.568 682.181,279.308 684.124,273.969 686.097,268.547 688.103,263.035 690.144,257.429 692.221,251.723 694.337,245.909 696.494,239.982 698.695,233.934 700.943,227.758 703.241,221.446 705.591,214.989 707.997,208.378 710.463,201.604 712.992,194.655 715.588,187.521 718.256,180.19 721.001,172.649 723.827,164.884 726.741,156.879 729.747,148.619 732.853,140.085 736.066,131.259 739.393,122.119 742.842,112.643 746.422,102.805 750.145,92.5782 754.019,81.9323 " />
<polyline fill="none" vector-effect="none" points="642.438,388.5 644.827,384.362 647.218,380.221 649.611,376.075 652.009,371.922 654.413,367.759 656.824,363.582 659.244,359.391 661.674,355.181 664.117,350.951 666.573,346.697 669.044,342.417 671.532,338.108 674.038,333.767 676.565,329.391 679.113,324.976 681.686,320.52 684.285,316.019 686.911,311.47 689.568,306.869 692.256,302.212 694.979,297.496 697.739,292.716 700.538,287.868 703.379,282.948 706.264,277.95 709.196,272.871 712.179,267.705 715.216,262.445 718.309,257.087 721.463,251.625 724.681,246.051 727.967,240.359 731.326,234.542 734.761,228.591 738.279,222.499 741.883,216.255 745.581,209.852 749.376,203.277 753.277,196.521 757.29,189.571 761.422,182.414 765.681,175.037 770.076,167.424 774.617,159.56 779.313,151.426 784.176,143.002 789.218,134.269 794.453,125.202 799.895,115.777 805.559,105.966 " />
<polyline fill="none" vector-effect="none" points="642.438,388.5 645.509,384.84 648.583,381.177 651.66,377.51 654.742,373.836 657.833,370.153 660.932,366.459 664.043,362.751 667.168,359.028 670.308,355.286 673.465,351.523 676.642,347.738 679.84,343.926 683.062,340.086 686.31,336.215 689.587,332.31 692.894,328.368 696.235,324.387 699.612,320.363 703.027,316.293 706.483,312.174 709.984,308.002 713.532,303.774 717.13,299.486 720.782,295.133 724.491,290.713 728.261,286.22 732.096,281.65 735.999,276.998 739.976,272.259 744.03,267.427 748.167,262.497 752.392,257.462 756.71,252.316 761.127,247.052 765.649,241.663 770.283,236.141 775.036,230.476 779.915,224.661 784.93,218.685 790.088,212.537 795.4,206.207 800.876,199.681 806.526,192.947 812.363,185.991 818.401,178.795 824.653,171.344 831.135,163.619 837.865,155.599 844.86,147.262 852.143,138.584 " />
<polyline fill="none" vector-effect="none" points="642.438,388.5 646.098,385.429 649.761,382.355 653.428,379.278 657.102,376.195 660.785,373.105 664.479,370.006 668.186,366.894 671.91,363.77 675.652,360.63 679.414,357.473 683.2,354.296 687.012,351.098 690.852,347.876 694.723,344.627 698.628,341.351 702.57,338.043 706.551,334.703 710.575,331.326 714.645,327.911 718.764,324.455 722.936,320.954 727.164,317.406 731.452,313.808 735.804,310.156 740.225,306.447 744.718,302.677 749.288,298.842 753.94,294.939 758.679,290.962 763.511,286.908 768.441,282.771 773.476,278.546 778.622,274.228 783.885,269.811 789.275,265.289 794.797,260.655 800.462,255.902 806.277,251.023 812.253,246.008 818.401,240.849 824.731,235.538 831.257,230.062 837.991,224.412 844.947,218.574 852.143,212.537 859.593,206.285 867.319,199.803 875.339,193.073 883.675,186.078 892.354,178.795 " />
<polyline fill="none" vector-effect="none" points="642.438,388.5 646.576,386.111 650.717,383.72 654.862,381.327 659.016,378.929 663.179,376.525 667.355,374.114 671.547,371.694 675.757,369.263 679.987,366.821 684.24,364.365 688.521,361.894 692.83,359.406 697.171,356.9 701.547,354.373 705.962,351.824 710.418,349.252 714.919,346.653 719.468,344.027 724.069,341.37 728.726,338.682 733.442,335.959 738.222,333.199 743.07,330.4 747.99,327.559 752.987,324.674 758.067,321.742 763.233,318.759 768.493,315.722 773.85,312.629 779.313,309.475 784.887,306.257 790.578,302.971 796.396,299.612 802.347,296.177 808.439,292.659 814.683,289.054 821.086,285.357 827.661,281.562 834.417,277.661 841.367,273.648 848.524,269.516 855.901,265.257 863.513,260.862 871.378,256.321 879.512,251.625 887.936,246.762 896.669,241.72 905.736,236.485 915.161,231.043 924.972,225.379 " />
<polyline fill="none" vector-effect="none" points="642.438,388.5 646.928,386.866 651.421,385.23 655.919,383.593 660.426,381.953 664.944,380.309 669.475,378.659 674.023,377.004 678.591,375.341 683.181,373.671 687.796,371.991 692.44,370.301 697.116,368.599 701.827,366.884 706.575,365.156 711.365,363.412 716.201,361.653 721.084,359.875 726.021,358.078 731.013,356.261 736.066,354.422 741.183,352.56 746.37,350.672 751.63,348.757 756.969,346.814 762.391,344.841 767.903,342.835 773.509,340.794 779.215,338.717 785.029,336.601 790.956,334.444 797.004,332.243 803.18,329.995 809.492,327.697 815.949,325.347 822.56,322.941 829.334,320.475 836.283,317.946 843.416,315.35 850.747,312.682 858.289,309.937 866.054,307.11 874.059,304.197 882.319,301.19 890.852,298.084 899.679,294.872 908.819,291.545 918.295,288.096 928.133,284.516 938.36,280.793 949.006,276.918 " />
<polyline fill="none" vector-effect="none" points="642.438,388.5 647.144,387.67 651.852,386.84 656.567,386.009 661.29,385.176 666.024,384.341 670.773,383.504 675.539,382.663 680.326,381.819 685.137,380.971 689.974,380.118 694.841,379.26 699.741,378.396 704.678,377.525 709.654,376.648 714.675,375.763 719.742,374.869 724.86,373.967 730.033,373.055 735.266,372.132 740.561,371.198 745.924,370.253 751.36,369.294 756.872,368.322 762.468,367.336 768.15,366.333 773.926,365.315 779.801,364.279 785.782,363.225 791.875,362.15 798.086,361.055 804.425,359.937 810.897,358.796 817.512,357.63 824.279,356.436 831.208,355.215 838.307,353.963 845.589,352.679 853.066,351.361 860.748,350.006 868.652,348.612 876.79,347.177 885.179,345.698 893.836,344.172 902.779,342.595 912.029,340.964 921.608,339.275 931.539,337.524 941.849,335.706 952.567,333.816 963.724,331.849 " />
<polyline fill="none" vector-effect="none" points="642.438,388.5 647.216,388.5 651.997,388.5 656.784,388.5 661.58,388.5 666.388,388.5 671.21,388.5 676.05,388.5 680.911,388.5 685.796,388.5 690.707,388.5 695.649,388.5 700.625,388.5 705.638,388.5 710.691,388.5 715.789,388.5 720.934,388.5 726.132,388.5 731.385,388.5 736.698,388.5 742.075,388.5 747.521,388.5 753.04,388.5 758.638,388.5 764.319,388.5 770.09,388.5 775.955,388.5 781.92,388.5 787.993,388.5 794.18,388.5 800.488,388.5 806.923,388.5 813.496,388.5 820.213,388.5 827.085,388.5 834.12,388.5 841.329,388.5 848.723,388.5 856.315,388.5 864.116,388.5 872.141,388.5 880.405,388.5 888.924,388.5 897.714,388.5 906.795,388.5 916.188,388.5 925.914,388.5 935.999,388.5 946.468,388.5 957.351,388.5 968.68,388.5 " />
<polyline fill="none" vector-effect="none" points="642.438,388.5 642.438,388.5 642.438,388.5 642.438,388.5 642.438,388.5 642.438,388.5 642.438,388.5 642.438,388.5 642.438,388.5 642.438,388.5 642.438,388.5 642.438,388.5 642.438,388.5 642.438,388.5 642.438,388.5 642.438,388.5 642.438,388.5 642.438,388.5 642.438,388.5 642.438,388.5 642.438,388.5 642.438,388.5 642.438,388.5 642.438,388.5 642.438,388.5 642.438,388.5 642.438,388.5 642.438,388.5 642.438,388.5 642.438,388.5 642.438,388.5 642.438,388.5 642.438,388.5 642.438,388.5 642.438,388.5 642.438,388.5 642.438,388.5 642.438,388.5 642.438,388.5 642.438,388.5 642.438,388.5 642.438,388.5 642.438,388.5 642.438,388.5 642.438,388.5 642.438,388.5 642.438,388.5 642.438,388.5 642.438,388.5 642.438,388.5 642.438,388.5 642.438,388.5 642.438,388.5 642.438,388.5 642.438,388.5 642.438,388.5 642.438,388.5 642.438,388.5 642.438,388.5 642.438,388.5 642.438,388.5 642.438,388.5 642.438,388.5 642.438,388.5 642.438,388.5 642.438,388.5 642.438,388.5 642.438,388.5 642.438,388.5 642.438,388.5 642.438,388.5 642.438,388.5 642.438,388.5 642.438,388.5 642.438,388.5 642.438,388.5 642.438,388.5 642.438,388.5 642.438,388.5 642.438,388.5 642.438,388.5 642.438,388.5 642.438,388.5 642.438,388.5 642.438,388.5 642.438,388.5 642.438,388.5 642.438,388.5 642.438,388.5 642.438,388.5 642.438,388.5 642.438,388.5 642.438,388.5 642.438,388.5 642.438,388.5 642.438,388.5 642.438,388.5 642.438,388.5 642.438,388.5 642.438,388.5 642.438,388.5 642.438,388.5 642.438,388.5 642.438,388.5 642.438,388.5 642.438,388.5 642.438,388.5 642.438,388.5 642.438,388.5 642.438,388.5 642.438,388.5 642.438,388.5 642.438,388.5 642.438,388.5 642.438,388.5 642.438,388.5 642.438,388.5 642.438,388.5 642.438,388.5 642.438,388.5 642.438,388.5 642.438,388.5 642.438,388.5 642.438,388.5 642.438,388.5 642.438,388.5 642.438,388.5 642.438,388.5 642.438,388.5 642.438,388.5 642.438,388.5 642.438,388.5 642.438,388.5 642.438,388.5 642.438,388.5 642.438,388.5 642.438,388.5 642.438,388.5 642.438,388.5 642.438,388.5 642.438,388.5 642.438,388.5 642.438,388.5 642.438,388.5 642.438,388.5 642.438,388.5 642.438,388.5 642.438,388.5 642.438,388.5 642.438,388.5 642.438,388.5 642.438,388.5 642.438,388.5 642.438,388.5 642.438,388.5 642.438,388.5 642.438,388.5 642.438,388.5 642.438,388.5 642.438,388.5 642.438,388.5 642.438,388.5 642.438,388.5 642.438,388.5 642.438,388.5 642.438,388.5 642.438,388.5 642.438,388.5 642.438,388.5 642.438,388.5 642.438,388.5 642.438,388.5 642.438,388.5 642.438,388.5 642.438,388.5 642.438,388.5 642.438,388.5 642.438,388.5 642.438,388.5 642.438,388.5 642.438,388.5 642.438,388.5 642.438,388.5 642.438,388.5 642.438,388.5 642.438,388.5 642.438,388.5 642.438,388.5 642.438,388.5 642.438,388.5 642.438,388.5 642.438,388.5 642.438,388.5 642.438,388.5 642.438,388.5 642.438,388.5 642.438,388.5 642.438,388.5 642.438,388.5 642.438,388.5 642.438,388.5 642.438,388.5 642.438,388.5 642.438,388.5 642.438,388.5 642.438,388.5 642.438,388.5 642.438,388.5 642.438,388.5 642.438,388.5 642.438,388.5 642.438,388.5 642.438,388.5 642.438,388.5 642.438,388.5 642.438,388.5 642.438,388.5 642.438,388.5 642.438,388.5 642.438,388.5 642.438,388.5 642.438,388.5 642.438,388.5 642.438,388.5 642.438,388.5 642.438,388.5 642.438,388.5 642.438,388.5 642.438,388.5 642.438,388.5 642.438,388.5 642.438,388.5 642.438,388.5 642.438,388.5 642.438,388.5 642.438,388.5 642.438,388.5 642.438,388.5 642.438,388.5 642.438,388.5 642.438,388.5 642.438,388.5 642.438,388.5 642.438,388.5 642.438,388.5 642.438,388.5 642.438,388.5 642.438,388.5 642.438,388.5 642.438,388.5 642.438,388.5 642.438,388.5 642.438,388.5 642.438,388.5 642.438,388.5 642.438,388.5 642.438,388.5 642.438,388.5 642.438,388.5 642.438,388.5 642.438,388.5 642.438,388.5 642.438,388.5 642.438,388.5 642.438,388.5 642.438,388.5 642.438,388.5 642.438,388.5 642.438,388.5 642.438,388.5 642.438,388.5 642.438,388.5 642.438,388.5 642.438,388.5 642.438,388.5 642.438,388.5 642.438,388.5 642.438,388.5 642.438,388.5 642.438,388.5 642.438,388.5 642.438,388.5 642.438,388.5 642.438,388.5 642.438,388.5 642.438,388.5 642.438,388.5 642.438,388.5 642.438,388.5 642.438,388.5 642.438,388.5 642.438,388.5 642.438,388.5 642.438,388.5 642.438,388.5 642.438,388.5 642.438,388.5 642.438,388.5 642.438,388.5 642.438,388.5 642.438,388.5 642.438,388.5 642.438,388.5 642.438,388.5 642.438,388.5 642.438,388.5 642.438,388.5 642.438,388.5 642.438,388.5 642.438,388.5 642.438,388.5 642.438,388.5 642.438,388.5 642.438,388.5 642.438,388.5 642.438,388.5 642.438,388.5 642.438,388.5 642.438,388.5 642.438,388.5 642.438,388.5 642.438,388.5 642.438,388.5 642.438,388.5 642.438,388.5 642.438,388.5 642.438,388.5 642.438,388.5 642.438,388.5 642.438,388.5 642.438,388.5 642.438,388.5 642.438,388.5 642.438,388.5 642.438,388.5 642.438,388.5 642.438,388.5 642.438,388.5 642.438,388.5 642.438,388.5 642.438,388.5 642.438,388.5 642.438,388.5 642.438,388.5 642.438,388.5 642.438,388.5 642.438,388.5 642.438,388.5 642.438,388.5 642.438,388.5 642.438,388.5 642.438,388.5 642.438,388.5 642.438,388.5 642.438,388.5 642.438,388.5 642.438,388.5 642.438,388.5 642.438,388.5 642.438,388.5 642.438,388.5 " />
<polyline fill="none" vector-effect="none" points="690.707,388.5 690.7,389.342 690.678,390.185 690.641,391.026 690.59,391.867 690.524,392.707 690.443,393.546 690.348,394.383 690.238,395.218 690.113,396.051 689.974,396.882 689.821,397.71 689.653,398.536 689.47,399.358 689.274,400.177 689.063,400.993 688.838,401.805 688.598,402.613 688.345,403.416 688.078,404.215 687.796,405.009 687.501,405.798 687.193,406.582 686.87,407.36 686.534,408.133 686.185,408.9 685.822,409.66 685.446,410.414 685.057,411.161 684.655,411.902 684.24,412.635 683.813,413.361 683.373,414.079 682.92,414.789 682.455,415.492 681.978,416.186 681.489,416.872 680.988,417.549 680.475,418.218 679.95,418.877 679.414,419.527 678.867,420.168 678.309,420.799 677.74,421.42 677.16,422.031 676.57,422.632 675.969,423.222 675.358,423.802 674.737,424.371 674.106,424.929 673.465,425.477 672.815,426.012 672.156,426.537 671.487,427.05 670.81,427.551 670.124,428.04 669.43,428.517 668.727,428.982 668.017,429.435 667.299,429.875 666.573,430.303 665.839,430.717 665.099,431.119 664.352,431.508 663.598,431.884 662.837,432.247 662.071,432.596 661.298,432.932 660.52,433.255 659.736,433.563 658.947,433.858 658.153,434.14 657.354,434.407 656.551,434.66 655.743,434.9 654.931,435.125 654.115,435.336 653.296,435.532 652.474,435.715 651.648,435.883 650.82,436.036 649.989,436.175 649.156,436.3 648.32,436.41 647.483,436.505 646.645,436.586 645.805,436.652 644.964,436.703 644.122,436.74 643.28,436.762 642.438,436.77 641.595,436.762 640.753,436.74 639.912,436.703 639.071,436.652 638.231,436.586 637.392,436.505 636.555,436.41 635.72,436.3 634.887,436.175 634.056,436.036 633.228,435.883 632.402,435.715 631.58,435.532 630.76,435.336 629.945,435.125 629.133,434.9 628.325,434.66 627.522,434.407 626.723,434.14 625.929,433.858 625.14,433.563 624.356,433.255 623.577,432.932 622.805,432.596 622.038,432.247 621.278,431.884 620.524,431.508 619.777,431.119 619.036,430.717 618.303,430.303 617.577,429.875 616.859,429.435 616.148,428.982 615.446,428.517 614.752,428.04 614.066,427.551 613.389,427.05 612.72,426.537 612.061,426.012 611.411,425.477 610.77,424.929 610.139,424.371 609.518,423.802 608.907,423.222 608.306,422.632 607.716,422.031 607.136,421.42 606.567,420.799 606.008,420.168 605.461,419.527 604.925,418.877 604.401,418.218 603.888,417.549 603.387,416.872 602.898,416.186 602.421,415.492 601.956,414.789 601.503,414.079 601.063,413.361 600.635,412.635 600.22,411.902 599.818,411.161 599.429,410.414 599.054,409.66 598.691,408.9 598.341,408.133 598.006,407.36 597.683,406.582 597.374,405.798 597.079,405.009 596.798,404.215 596.531,403.416 596.278,402.613 596.038,401.805 595.813,400.993 595.602,400.177 595.406,399.358 595.223,398.536 595.055,397.71 594.902,396.882 594.763,396.051 594.638,395.218 594.528,394.383 594.433,393.546 594.352,392.707 594.286,391.867 594.234,391.026 594.198,390.185 594.176,389.342 594.168,388.5 594.176,387.658 594.198,386.815 594.234,385.974 594.286,385.133 594.352,384.293 594.433,383.454 594.528,382.617 594.638,381.782 594.763,380.949 594.902,380.118 595.055,379.29 595.223,378.464 595.406,377.642 595.602,376.823 595.813,376.007 596.038,375.195 596.278,374.387 596.531,373.584 596.798,372.785 597.079,371.991 597.374,371.202 597.683,370.418 598.006,369.64 598.341,368.867 598.691,368.1 599.054,367.34 599.429,366.586 599.818,365.839 600.22,365.098 600.635,364.365 601.063,363.639 601.503,362.921 601.956,362.211 602.421,361.508 602.898,360.814 603.387,360.128 603.888,359.451 604.401,358.782 604.925,358.123 605.461,357.473 606.008,356.832 606.567,356.201 607.136,355.58 607.716,354.969 608.306,354.368 608.907,353.778 609.518,353.198 610.139,352.629 610.77,352.071 611.411,351.523 612.061,350.988 612.72,350.463 613.389,349.95 614.066,349.449 614.752,348.96 615.446,348.483 616.148,348.018 616.859,347.565 617.577,347.125 618.303,346.697 619.036,346.283 619.777,345.881 620.524,345.492 621.278,345.116 622.038,344.753 622.805,344.404 623.577,344.068 624.356,343.745 625.14,343.437 625.929,343.142 626.723,342.86 627.522,342.593 628.325,342.34 629.133,342.1 629.945,341.875 630.76,341.664 631.58,341.468 632.402,341.285 633.228,341.117 634.056,340.964 634.887,340.825 635.72,340.7 636.555,340.59 637.392,340.495 638.231,340.414 639.071,340.348 639.912,340.297 640.753,340.26 641.595,340.238 642.438,340.23 643.28,340.238 644.122,340.26 644.964,340.297 645.805,340.348 646.645,340.414 647.483,340.495 648.32,340.59 649.156,340.7 649.989,340.825 650.82,340.964 651.648,341.117 652.474,341.285 653.296,341.468 654.115,341.664 654.931,341.875 655.743,342.1 656.551,342.34 657.354,342.593 658.153,342.86 658.947,343.142 659.736,343.437 660.52,343.745 661.298,344.068 662.071,344.404 662.837,344.753 663.598,345.116 664.352,345.492 665.099,345.881 665.839,346.283 666.573,346.697 667.299,347.125 668.017,347.565 668.727,348.018 669.43,348.483 670.124,348.96 670.81,349.449 671.487,349.95 672.156,350.463 672.815,350.988 673.465,351.523 674.106,352.071 674.737,352.629 675.358,353.198 675.969,353.778 676.57,354.368 677.16,354.969 677.74,355.58 678.309,356.201 678.867,356.832 679.414,357.473 679.95,358.123 680.475,358.782 680.988,359.451 681.489,360.128 681.978,360.814 682.455,361.508 682.92,362.211 683.373,362.921 683.813,363.639 684.24,364.365 684.655,365.098 685.057,365.839 685.446,366.586 685.822,367.34 686.185,368.1 686.534,368.867 686.87,369.64 687.193,370.418 687.501,371.202 687.796,371.991 688.078,372.785 688.345,373.584 688.598,374.387 688.838,375.195 689.063,376.007 689.274,376.823 689.47,377.642 689.653,378.464 689.821,379.29 689.974,380.118 690.113,380.949 690.238,381.782 690.348,382.617 690.443,383.454 690.524,384.293 690.59,385.133 690.641,385.974 690.678,386.815 690.7,387.658 690.707,388.5 " />
<polyline fill="none" vector-effect="none" points="742.075,388.5 742.06,390.239 742.014,391.977 741.938,393.715 741.832,395.45 741.696,397.184 741.529,398.915 741.332,400.643 741.105,402.367 740.848,404.087 740.561,405.802 740.244,407.512 739.897,409.216 739.521,410.913 739.115,412.604 738.68,414.288 738.215,415.964 737.721,417.631 737.198,419.289 736.646,420.939 736.066,422.578 735.457,424.207 734.82,425.825 734.154,427.431 733.461,429.026 732.74,430.608 731.991,432.178 731.215,433.734 730.412,435.277 729.582,436.805 728.726,438.318 727.843,439.817 726.935,441.299 726,442.766 725.041,444.216 724.056,445.649 723.046,447.065 722.011,448.463 720.953,449.843 719.87,451.203 718.764,452.545 717.635,453.868 716.482,455.17 715.308,456.452 714.111,457.714 712.892,458.954 711.651,460.173 710.39,461.37 709.108,462.545 707.806,463.697 706.483,464.826 705.141,465.932 703.78,467.015 702.401,468.074 701.003,469.108 699.587,470.118 698.154,471.103 696.704,472.063 695.237,472.997 693.755,473.905 692.256,474.788 690.743,475.644 689.215,476.474 687.672,477.277 686.116,478.053 684.546,478.802 682.964,479.523 681.369,480.216 679.763,480.882 678.145,481.519 676.516,482.128 674.876,482.708 673.227,483.26 671.569,483.783 669.902,484.277 668.226,484.742 666.542,485.177 664.851,485.583 663.154,485.96 661.449,486.306 659.74,486.623 658.025,486.91 656.305,487.167 654.581,487.394 652.853,487.591 651.122,487.758 649.388,487.894 647.652,488 645.915,488.076 644.177,488.122 642.438,488.137 640.699,488.122 638.961,488.076 637.223,488 635.488,487.894 633.754,487.758 632.023,487.591 630.295,487.394 628.571,487.167 626.851,486.91 625.136,486.623 623.426,486.306 621.722,485.96 620.024,485.583 618.334,485.177 616.65,484.742 614.974,484.277 613.307,483.783 611.648,483.26 609.999,482.708 608.36,482.128 606.731,481.519 605.113,480.882 603.507,480.216 601.912,479.523 600.33,478.802 598.76,478.053 597.204,477.277 595.661,476.474 594.133,475.644 592.619,474.788 591.121,473.905 589.638,472.997 588.172,472.063 586.722,471.103 585.289,470.118 583.873,469.108 582.475,468.074 581.095,467.015 579.734,465.932 578.393,464.826 577.07,463.697 575.768,462.545 574.486,461.37 573.224,460.173 571.984,458.954 570.765,457.714 569.568,456.452 568.393,455.17 567.241,453.868 566.112,452.545 565.005,451.203 563.923,449.843 562.864,448.463 561.83,447.065 560.82,445.649 559.835,444.216 558.875,442.766 557.941,441.299 557.032,439.817 556.15,438.318 555.294,436.805 554.464,435.277 553.661,433.734 552.885,432.178 552.136,430.608 551.415,429.026 550.722,427.431 550.056,425.825 549.419,424.207 548.81,422.578 548.229,420.939 547.678,419.289 547.155,417.631 546.661,415.964 546.196,414.288 545.761,412.604 545.355,410.913 544.978,409.216 544.632,407.512 544.315,405.802 544.028,404.087 543.771,402.367 543.544,400.643 543.347,398.915 543.18,397.184 543.044,395.45 542.938,393.715 542.862,391.977 542.816,390.239 542.801,388.5 542.816,386.761 542.862,385.023 542.938,383.285 543.044,381.55 543.18,379.816 543.347,378.085 543.544,376.357 543.771,374.633 544.028,372.913 544.315,371.198 544.632,369.488 544.978,367.784 545.355,366.087 545.761,364.396 546.196,362.712 546.661,361.036 547.155,359.369 547.678,357.711 548.229,356.061 548.81,354.422 549.419,352.793 550.056,351.175 550.722,349.569 551.415,347.974 552.136,346.392 552.885,344.822 553.661,343.266 554.464,341.723 555.294,340.195 556.15,338.682 557.032,337.183 557.941,335.701 558.875,334.234 559.835,332.784 560.82,331.351 561.83,329.935 562.864,328.537 563.923,327.157 565.005,325.797 566.112,324.455 567.241,323.132 568.393,321.83 569.568,320.548 570.765,319.286 571.984,318.046 573.224,316.827 574.486,315.63 575.768,314.455 577.07,313.303 578.393,312.174 579.734,311.068 581.095,309.985 582.475,308.926 583.873,307.892 585.289,306.882 586.722,305.897 588.172,304.938 589.638,304.003 591.121,303.095 592.619,302.212 594.133,301.356 595.661,300.526 597.204,299.723 598.76,298.947 600.33,298.198 601.912,297.477 603.507,296.784 605.113,296.118 606.731,295.481 608.36,294.872 609.999,294.292 611.648,293.74 613.307,293.217 614.974,292.723 616.65,292.258 618.334,291.823 620.024,291.417 621.722,291.04 623.426,290.694 625.136,290.377 626.851,290.09 628.571,289.833 630.295,289.606 632.023,289.409 633.754,289.242 635.488,289.106 637.223,289 638.961,288.924 640.699,288.878 642.438,288.863 644.177,288.878 645.915,288.924 647.652,289 649.388,289.106 651.122,289.242 652.853,289.409 654.581,289.606 656.305,289.833 658.025,290.09 659.74,290.377 661.449,290.694 663.154,291.04 664.851,291.417 666.542,291.823 668.226,292.258 669.902,292.723 671.569,293.217 673.227,293.74 674.876,294.292 676.516,294.872 678.145,295.481 679.763,296.118 681.369,296.784 682.964,297.477 684.546,298.198 686.116,298.947 687.672,299.723 689.215,300.526 690.743,301.356 692.256,302.212 693.755,303.095 695.237,304.003 696.704,304.938 698.154,305.897 699.587,306.882 701.003,307.892 702.401,308.926 703.78,309.985 705.141,311.068 706.483,312.174 707.806,313.303 709.108,314.455 710.39,315.63 711.651,316.827 712.892,318.046 714.111,319.286 715.308,320.548 716.482,321.83 717.635,323.132 718.764,324.455 719.87,325.797 720.953,327.157 722.011,328.537 723.046,329.935 724.056,331.351 725.041,332.784 726,334.234 726.935,335.701 727.843,337.183 728.726,338.682 729.582,340.195 730.412,341.723 731.215,343.266 731.991,344.822 732.74,346.392 733.461,347.974 734.154,349.569 734.82,351.175 735.457,352.793 736.066,354.422 736.646,356.061 737.198,357.711 737.721,359.369 738.215,361.036 738.68,362.712 739.115,364.396 739.521,366.087 739.897,367.784 740.244,369.488 740.561,371.198 740.848,372.913 741.105,374.633 741.332,376.357 741.529,378.085 741.696,379.816 741.832,381.55 741.938,383.285 742.014,385.023 742.06,386.761 742.075,388.5 " />
<polyline fill="none" vector-effect="none" points="800.488,388.5 800.463,391.258 800.391,394.016 800.271,396.772 800.103,399.525 799.886,402.275 799.622,405.021 799.309,407.761 798.949,410.496 798.542,413.224 798.086,415.945 797.584,418.657 797.034,421.36 796.437,424.053 795.793,426.736 795.102,429.406 794.365,432.064 793.581,434.709 792.752,437.34 791.877,439.956 790.956,442.556 789.99,445.14 788.979,447.706 787.923,450.255 786.823,452.785 785.68,455.295 784.492,457.784 783.261,460.253 781.987,462.7 780.671,465.124 779.313,467.525 777.913,469.902 776.472,472.254 774.989,474.58 773.467,476.88 771.905,479.154 770.303,481.399 768.662,483.617 766.983,485.805 765.266,487.964 763.511,490.092 761.719,492.19 759.892,494.256 758.028,496.29 756.129,498.29 754.196,500.258 752.228,502.191 750.227,504.09 748.194,505.954 746.128,507.782 744.03,509.573 741.902,511.328 739.743,513.045 737.555,514.724 735.337,516.365 733.091,517.967 730.818,519.529 728.518,521.052 726.191,522.534 723.839,523.975 721.463,525.375 719.062,526.733 716.638,528.05 714.191,529.323 711.722,530.554 709.233,531.742 706.722,532.885 704.193,533.985 701.644,535.041 699.078,536.052 696.494,537.018 693.894,537.939 691.278,538.814 688.647,539.644 686.002,540.427 683.344,541.164 680.674,541.855 677.991,542.499 675.298,543.096 672.595,543.646 669.883,544.148 667.162,544.604 664.434,545.011 661.699,545.372 658.959,545.684 656.213,545.948 653.463,546.165 650.71,546.333 647.954,546.453 645.196,546.526 642.438,546.55 639.68,546.526 636.922,546.453 634.166,546.333 631.413,546.165 628.663,545.948 625.917,545.684 623.176,545.372 620.442,545.011 617.714,544.604 614.993,544.148 612.281,543.646 609.578,543.096 606.884,542.499 604.202,541.855 601.532,541.164 598.873,540.427 596.229,539.644 593.598,538.814 590.982,537.939 588.382,537.018 585.798,536.052 583.231,535.041 580.683,533.985 578.153,532.885 575.643,531.742 573.154,530.554 570.685,529.323 568.238,528.05 565.814,526.733 563.413,525.375 561.036,523.975 558.684,522.534 556.358,521.052 554.058,519.529 551.784,517.967 549.539,516.365 547.321,514.724 545.133,513.045 542.974,511.328 540.846,509.573 538.748,507.782 536.682,505.954 534.648,504.09 532.647,502.191 530.68,500.258 528.746,498.29 526.848,496.29 524.984,494.256 523.156,492.19 521.365,490.092 519.61,487.964 517.893,485.805 516.214,483.617 514.573,481.399 512.971,479.154 511.409,476.88 509.886,474.58 508.404,472.254 506.963,469.902 505.563,467.525 504.205,465.124 502.888,462.7 501.615,460.253 500.384,457.784 499.196,455.295 498.052,452.785 496.952,450.255 495.897,447.706 494.886,445.14 493.92,442.556 492.999,439.956 492.124,437.34 491.294,434.709 490.511,432.064 489.774,429.406 489.083,426.736 488.439,424.053 487.842,421.36 487.292,418.657 486.789,415.945 486.334,413.224 485.926,410.496 485.566,407.761 485.254,405.021 484.99,402.275 484.773,399.525 484.605,396.772 484.485,394.016 484.412,391.258 484.388,388.5 484.412,385.742 484.485,382.984 484.605,380.228 484.773,377.475 484.99,374.725 485.254,371.979 485.566,369.239 485.926,366.504 486.334,363.776 486.789,361.055 487.292,358.343 487.842,355.64 488.439,352.947 489.083,350.264 489.774,347.594 490.511,344.936 491.294,342.291 492.124,339.66 492.999,337.044 493.92,334.444 494.886,331.86 495.897,329.294 496.952,326.745 498.052,324.215 499.196,321.705 500.384,319.216 501.615,316.747 502.888,314.3 504.205,311.876 505.563,309.475 506.963,307.098 508.404,304.746 509.886,302.42 511.409,300.12 512.971,297.846 514.573,295.601 516.214,293.383 517.893,291.195 519.61,289.036 521.365,286.908 523.156,284.81 524.984,282.744 526.848,280.71 528.746,278.71 530.68,276.742 532.647,274.809 534.648,272.91 536.682,271.046 538.748,269.218 540.846,267.427 542.974,265.672 545.133,263.955 547.321,262.276 549.539,260.635 551.784,259.033 554.058,257.471 556.358,255.948 558.684,254.466 561.036,253.025 563.413,251.625 565.814,250.267 568.238,248.95 570.685,247.677 573.154,246.446 575.643,245.258 578.153,244.114 580.683,243.015 583.231,241.959 585.798,240.948 588.382,239.982 590.982,239.061 593.598,238.186 596.229,237.356 598.873,236.573 601.532,235.836 604.202,235.145 606.884,234.501 609.578,233.904 612.281,233.354 614.993,232.851 617.714,232.396 620.442,231.988 623.176,231.628 625.917,231.316 628.663,231.052 631.413,230.835 634.166,230.667 636.922,230.547 639.68,230.474 642.438,230.45 645.196,230.474 647.954,230.547 650.71,230.667 653.463,230.835 656.213,231.052 658.959,231.316 661.699,231.628 664.434,231.988 667.162,232.396 669.883,232.851 672.595,233.354 675.298,233.904 677.991,234.501 680.674,235.145 683.344,235.836 686.002,236.573 688.647,237.356 691.278,238.186 693.894,239.061 696.494,239.982 699.078,240.948 701.644,241.959 704.193,243.015 706.722,244.114 709.233,245.258 711.722,246.446 714.191,247.677 716.638,248.95 719.062,250.267 721.463,251.625 723.839,253.025 726.191,254.466 728.518,255.948 730.818,257.471 733.091,259.033 735.337,260.635 737.555,262.276 739.743,263.955 741.902,265.672 744.03,267.427 746.128,269.218 748.194,271.046 750.227,272.91 752.228,274.809 754.196,276.742 756.129,278.71 758.028,280.71 759.892,282.744 761.719,284.81 763.511,286.908 765.266,289.036 766.983,291.195 768.662,293.383 770.303,295.601 771.905,297.846 773.467,300.12 774.989,302.42 776.472,304.746 777.913,307.098 779.313,309.475 780.671,311.876 781.987,314.3 783.261,316.747 784.492,319.216 785.68,321.705 786.823,324.215 787.923,326.745 788.979,329.294 789.99,331.86 790.956,334.444 791.877,337.044 792.752,339.66 793.581,342.291 794.365,344.936 795.102,347.594 795.793,350.264 796.437,352.947 797.034,355.64 797.584,358.343 798.086,361.055 798.542,363.776 798.949,366.504 799.309,369.239 799.622,371.979 799.886,374.725 800.103,377.475 800.271,380.228 800.391,382.984 800.463,385.742 800.488,388.5 " />
<polyline fill="none" vector-effect="none" points="872.141,388.5 872.106,392.509 872.001,396.517 871.827,400.522 871.582,404.523 871.267,408.52 870.883,412.511 870.429,416.494 869.906,420.469 869.313,424.434 868.652,428.388 867.921,432.329 867.122,436.258 866.254,440.172 865.318,444.07 864.314,447.952 863.243,451.815 862.104,455.659 860.899,459.482 859.627,463.284 858.289,467.063 856.885,470.818 855.415,474.548 853.881,478.252 852.282,481.929 850.62,485.577 848.894,489.195 847.105,492.783 845.254,496.339 843.341,499.862 841.367,503.352 839.332,506.806 837.237,510.224 835.083,513.606 832.871,516.949 830.6,520.253 828.272,523.516 825.887,526.739 823.447,529.92 820.951,533.057 818.401,536.151 815.797,539.199 813.141,542.202 810.432,545.157 807.673,548.065 804.863,550.925 802.003,553.735 799.095,556.495 796.14,559.203 793.137,561.859 790.088,564.463 786.995,567.013 783.857,569.509 780.677,571.949 777.454,574.334 774.19,576.662 770.886,578.933 767.543,581.146 764.162,583.3 760.744,585.394 757.29,587.429 753.8,589.403 750.277,591.316 746.721,593.167 743.133,594.956 739.515,596.682 735.867,598.345 732.19,599.943 728.486,601.477 724.756,602.947 721.001,604.351 717.222,605.689 713.42,606.961 709.597,608.167 705.753,609.305 701.89,610.377 698.008,611.38 694.11,612.316 690.196,613.184 686.267,613.983 682.326,614.714 678.371,615.375 674.406,615.968 670.432,616.491 666.448,616.945 662.458,617.329 658.461,617.644 654.46,617.889 650.454,618.064 646.447,618.169 642.438,618.204 638.429,618.169 634.421,618.064 630.416,617.889 626.415,617.644 622.418,617.329 618.427,616.945 614.444,616.491 610.469,615.968 606.504,615.375 602.55,614.714 598.608,613.983 594.68,613.184 590.766,612.316 586.868,611.38 582.986,610.377 579.123,609.305 575.279,608.167 571.456,606.961 567.654,605.689 563.875,604.351 560.12,602.947 556.389,601.477 552.686,599.943 549.009,598.345 545.361,596.682 541.742,594.956 538.155,593.167 534.599,591.316 531.075,589.403 527.586,587.429 524.132,585.394 520.714,583.3 517.332,581.146 513.989,578.933 510.685,576.662 507.422,574.334 504.199,571.949 501.018,569.509 497.881,567.013 494.787,564.463 491.739,561.859 488.736,559.203 485.78,556.495 482.872,553.735 480.013,550.925 477.203,548.065 474.443,545.157 471.735,542.202 469.078,539.199 466.475,536.151 463.925,533.057 461.429,529.92 458.988,526.739 456.604,523.516 454.276,520.253 452.005,516.949 449.792,513.606 447.638,510.224 445.544,506.806 443.509,503.352 441.535,499.862 439.622,496.339 437.771,492.783 435.982,489.195 434.256,485.577 432.593,481.929 430.995,478.252 429.46,474.548 427.991,470.818 426.587,467.063 425.249,463.284 423.977,459.482 422.771,455.659 421.633,451.815 420.561,447.952 419.558,444.07 418.622,440.172 417.754,436.258 416.955,432.329 416.224,428.388 415.562,424.434 414.97,420.469 414.447,416.494 413.993,412.511 413.608,408.52 413.294,404.523 413.049,400.522 412.874,396.517 412.769,392.509 412.734,388.5 412.769,384.491 412.874,380.483 413.049,376.478 413.294,372.477 413.608,368.48 413.993,364.489 414.447,360.506 414.97,356.531 415.562,352.566 416.224,348.612 416.955,344.671 417.754,340.742 418.622,336.828 419.558,332.93 420.561,329.048 421.633,325.185 422.771,321.341 423.977,317.518 425.249,313.716 426.587,309.937 427.991,306.182 429.46,302.452 430.995,298.748 432.593,295.071 434.256,291.423 435.982,287.805 437.771,284.217 439.622,280.661 441.535,277.138 443.509,273.648 445.544,270.194 447.638,266.776 449.792,263.395 452.005,260.051 454.276,256.747 456.604,253.484 458.988,250.261 461.429,247.08 463.925,243.943 466.475,240.849 469.078,237.801 471.735,234.798 474.443,231.843 477.203,228.935 480.013,226.075 482.872,223.265 485.78,220.505 488.736,217.797 491.739,215.141 494.787,212.537 497.881,209.987 501.018,207.491 504.199,205.051 507.422,202.666 510.685,200.338 513.989,198.067 517.332,195.854 520.714,193.7 524.132,191.606 527.586,189.571 531.075,187.597 534.599,185.684 538.155,183.833 541.742,182.044 545.361,180.318 549.009,178.655 552.686,177.057 556.389,175.523 560.12,174.053 563.875,172.649 567.654,171.311 571.456,170.039 575.279,168.833 579.123,167.695 582.986,166.623 586.868,165.62 590.766,164.684 594.68,163.816 598.608,163.017 602.55,162.286 606.504,161.625 610.469,161.032 614.444,160.509 618.427,160.055 622.418,159.671 626.415,159.356 630.416,159.111 634.421,158.936 638.429,158.831 642.438,158.796 646.447,158.831 650.454,158.936 654.46,159.111 658.461,159.356 662.458,159.671 666.448,160.055 670.432,160.509 674.406,161.032 678.371,161.625 682.326,162.286 686.267,163.017 690.196,163.816 694.11,164.684 698.008,165.62 701.89,166.623 705.753,167.695 709.597,168.833 713.42,170.039 717.222,171.311 721.001,172.649 724.756,174.053 728.486,175.523 732.19,177.057 735.867,178.655 739.515,180.318 743.133,182.044 746.721,183.833 750.277,185.684 753.8,187.597 757.29,189.571 760.744,191.606 764.162,193.7 767.543,195.854 770.886,198.067 774.19,200.338 777.454,202.666 780.677,205.051 783.857,207.491 786.995,209.987 790.088,212.537 793.137,215.141 796.14,217.797 799.095,220.505 802.003,223.265 804.863,226.075 807.673,228.935 810.432,231.843 813.141,234.798 815.797,237.801 818.401,240.849 820.951,243.943 823.447,247.08 825.887,250.261 828.272,253.484 830.6,256.747 832.871,260.051 835.083,263.395 837.237,266.776 839.332,270.194 841.367,273.648 843.341,277.138 845.254,280.661 847.105,284.217 848.894,287.805 850.62,291.423 852.282,295.071 853.881,298.748 855.415,302.452 856.885,306.182 858.289,309.937 859.627,313.716 860.899,317.518 862.104,321.341 863.243,325.185 864.314,329.048 865.318,332.93 866.254,336.828 867.122,340.742 867.921,344.671 868.652,348.612 869.313,352.566 869.906,356.531 870.429,360.506 870.883,364.489 871.267,368.48 871.582,372.477 871.827,376.478 872.001,380.483 872.106,384.491 872.141,388.5 " />
<polyline fill="none" vector-effect="none" points="968.68,388.5 968.631,394.194 968.482,399.886 968.233,405.574 967.886,411.258 967.439,416.934 966.893,422.602 966.249,428.259 965.505,433.904 964.664,439.536 963.724,445.151 962.686,450.75 961.551,456.33 960.319,461.889 958.99,467.425 957.564,472.938 956.042,478.425 954.425,483.884 952.713,489.314 950.906,494.714 949.006,500.082 947.012,505.415 944.925,510.713 942.746,515.973 940.475,521.195 938.114,526.376 935.663,531.515 933.122,536.611 930.493,541.662 927.776,546.666 924.972,551.621 922.082,556.527 919.107,561.382 916.048,566.184 912.905,570.932 909.68,575.625 906.374,580.261 902.987,584.838 899.521,589.355 895.976,593.811 892.354,598.205 888.656,602.534 884.883,606.799 881.037,610.997 877.117,615.127 873.126,619.188 869.065,623.179 864.935,627.099 860.737,630.945 856.472,634.718 852.143,638.416 847.749,642.038 843.293,645.583 838.776,649.049 834.198,652.436 829.563,655.742 824.87,658.967 820.122,662.11 815.32,665.169 810.465,668.144 805.559,671.034 800.603,673.838 795.599,676.555 790.549,679.184 785.453,681.725 780.314,684.176 775.133,686.537 769.911,688.808 764.651,690.987 759.353,693.074 754.019,695.068 748.652,696.968 743.252,698.775 737.822,700.487 732.362,702.104 726.876,703.626 721.363,705.052 715.826,706.381 710.268,707.613 704.688,708.749 699.089,709.786 693.473,710.726 687.842,711.568 682.197,712.311 676.539,712.955 670.872,713.501 665.195,713.948 659.512,714.295 653.824,714.544 648.132,714.693 642.438,714.743 636.744,714.693 631.052,714.544 625.364,714.295 619.68,713.948 614.004,713.501 608.336,712.955 602.679,712.311 597.034,711.568 591.402,710.726 585.786,709.786 580.188,708.749 574.608,707.613 569.049,706.381 563.513,705.052 558,703.626 552.513,702.104 547.054,700.487 541.623,698.775 536.224,696.968 530.856,695.068 525.523,693.074 520.225,690.987 514.965,688.808 509.743,686.537 504.562,684.176 499.423,681.725 494.327,679.184 489.276,676.555 484.272,673.838 479.317,671.034 474.411,668.144 469.556,665.169 464.753,662.11 460.005,658.967 455.313,655.742 450.677,652.436 446.1,649.049 441.583,645.583 437.127,642.038 432.733,638.416 428.404,634.718 424.139,630.945 419.941,627.099 415.811,623.179 411.75,619.188 407.759,615.127 403.839,610.997 399.992,606.799 396.22,602.534 392.522,598.205 388.9,593.811 385.355,589.355 381.889,584.838 378.502,580.261 375.196,575.625 371.971,570.932 368.828,566.184 365.769,561.382 362.793,556.527 359.904,551.621 357.1,546.666 354.383,541.662 351.754,536.611 349.213,531.515 346.762,526.376 344.4,521.195 342.13,515.973 339.951,510.713 337.864,505.415 335.87,500.082 333.97,494.714 332.163,489.314 330.451,483.884 328.833,478.425 327.312,472.938 325.886,467.425 324.557,461.889 323.325,456.33 322.189,450.75 321.152,445.151 320.212,439.536 319.37,433.904 318.627,428.259 317.983,422.602 317.437,416.934 316.99,411.258 316.642,405.574 316.394,399.886 316.245,394.194 316.195,388.5 316.245,382.806 316.394,377.114 316.642,371.426 316.99,365.742 317.437,360.066 317.983,354.398 318.627,348.741 319.37,343.096 320.212,337.464 321.152,331.849 322.189,326.25 323.325,320.67 324.557,315.111 325.886,309.575 327.312,304.062 328.833,298.575 330.451,293.116 332.163,287.686 333.97,282.286 335.87,276.918 337.864,271.585 339.951,266.287 342.13,261.027 344.4,255.805 346.762,250.624 349.213,245.485 351.754,240.389 354.383,235.338 357.1,230.334 359.904,225.379 362.793,220.473 365.769,215.618 368.828,210.816 371.971,206.067 375.196,201.375 378.502,196.739 381.889,192.162 385.355,187.645 388.9,183.189 392.522,178.795 396.22,174.466 399.992,170.201 403.839,166.003 407.759,161.873 411.75,157.812 415.811,153.821 419.941,149.901 424.139,146.055 428.404,142.282 432.733,138.584 437.127,134.962 441.583,131.417 446.1,127.951 450.677,124.564 455.313,121.258 460.005,118.033 464.753,114.89 469.556,111.831 474.411,108.856 479.317,105.966 484.272,103.162 489.276,100.445 494.327,97.8158 499.423,95.2751 504.562,92.8238 509.743,90.4626 514.965,88.1922 520.225,86.0132 525.523,83.9264 530.856,81.9323 536.224,80.0316 541.623,78.2249 547.054,76.5127 552.513,74.8956 558,73.3739 563.513,71.9482 569.049,70.619 574.608,69.3866 580.188,68.2515 585.786,67.2138 591.402,66.274 597.034,65.4324 602.679,64.6892 608.336,64.0446 614.004,63.4989 619.68,63.0522 625.364,62.7046 631.052,62.4562 636.744,62.3071 642.438,62.2574 648.132,62.3071 653.824,62.4562 659.512,62.7046 665.195,63.0522 670.872,63.4989 676.539,64.0446 682.197,64.6892 687.842,65.4324 693.473,66.274 699.089,67.2138 704.688,68.2515 710.268,69.3866 715.826,70.619 721.363,71.9482 726.876,73.3739 732.362,74.8956 737.822,76.5127 743.252,78.2249 748.652,80.0316 754.019,81.9323 759.353,83.9264 764.651,86.0132 769.911,88.1922 775.133,90.4626 780.314,92.8238 785.453,95.2751 790.549,97.8158 795.599,100.445 800.603,103.162 805.559,105.966 810.465,108.856 815.32,111.831 820.122,114.89 824.87,118.033 829.563,121.258 834.198,124.564 838.776,127.951 843.293,131.417 847.749,134.962 852.143,138.584 856.472,142.282 860.737,146.055 864.935,149.901 869.065,153.821 873.126,157.812 877.117,161.873 881.037,166.003 884.883,170.201 888.656,174.466 892.354,178.795 895.976,183.189 899.521,187.645 902.987,192.162 906.374,196.739 909.68,201.375 912.905,206.067 916.048,210.816 919.107,215.618 922.082,220.473 924.972,225.379 927.776,230.334 930.493,235.338 933.122,240.389 935.663,245.485 938.114,250.624 940.475,255.805 942.746,261.027 944.925,266.287 947.012,271.585 949.006,276.918 950.906,282.286 952.713,287.686 954.425,293.116 956.042,298.575 957.564,304.062 958.99,309.575 960.319,315.111 961.551,320.67 962.686,326.25 963.724,331.849 964.664,337.464 965.505,343.096 966.249,348.741 966.893,354.398 967.439,360.066 967.886,365.742 968.233,371.426 968.482,377.114 968.631,382.806 968.68,388.5 " />
</g>

<g fill="none" stroke="#ff0000" stroke-opacity="1" stroke-width="4.16667" stroke-linecap="butt" stroke-linejoin="round" transform="matrix(0.719966,0,0,0.716205,-74.6626,-41.5323)"
font-family="Helvetica" font-size="13" font-weight="400" font-style="normal" 
>
<polyline fill="none" vector-effect="none" points="433.311,388.5 577.814,189.609 811.625,265.578 811.625,511.422 577.814,587.391 433.311,388.5 " />
</g>
</g>
</svg>
